<?xml version="1.0" standalone="no"?>
<!DOCTYPE svg PUBLIC "-//W3C//DTD SVG 1.1//EN" "http://www.w3.org/Graphics/SVG/1.1/DTD/svg11.dtd" >
<svg>
<metadata>
Created by FontForge 20090622 at Sun Nov 12 08:38:09 2017
 By deploy user
Copyright 1993-1997 Brand Design Co., Inc./House Industries. House Industries is a registered trademark of Brand Design Co., Inc. Font by Ken Barber.
</metadata>
<defs>
<font id="CoopBold" horiz-adv-x="367" >
  <font-face 
    font-family="CoopBold"
    font-weight="700"
    font-stretch="normal"
    units-per-em="1000"
    panose-1="2 0 8 3 0 0 0 0 0 0"
    ascent="800"
    descent="-200"
    x-height="698"
    cap-height="681"
    bbox="-84 -203 579 848.057"
    underline-thickness="20"
    underline-position="-133"
    unicode-range="U+0020-U+FB02"
  />
<missing-glyph horiz-adv-x="1000" 
 />
    <glyph glyph-name=".notdef" horiz-adv-x="1000" 
 />
    <glyph glyph-name=".null" horiz-adv-x="0" 
 />
    <glyph glyph-name="nonmarkingreturn" horiz-adv-x="333" 
 />
    <glyph glyph-name="space" unicode=" " horiz-adv-x="200" 
 />
    <glyph glyph-name="exclam" unicode="!" horiz-adv-x="182" 
d="M157 698q-1 -95 -6 -259.5t-6 -259.5q-24 -3 -51 -7.5t-42 -7.5l-16 -4q0 116 -8 516q57 12 129 22zM154 91q13 -21 5 -51t-33 -42q-26 -13 -54.5 -7t-42.5 29q-15 23 -6.5 50.5t36.5 41.5q28 15 55 9t40 -30z" />
    <glyph glyph-name="quotedbl" unicode="&#x22;" horiz-adv-x="274" 
d="M254 684q-18 -242 -19 -273l-78 -5q0 38 -2.5 131.5t-2.5 139.5q20 3 45.5 5t40.5 2h16zM117 689q-3 -175 0 -269l-77 -10q-11 126 -20 266z" />
    <glyph glyph-name="numbersign" unicode="#" horiz-adv-x="506" 
d="M486 455l-27 -81q-15 -1 -68 -5l-18 -84l71 7q-11 -44 -18 -82l-71 -8q-17 -77 -32 -153q-39 -4 -80 -11l30 154l-74 -10l-22 -123q-39 -4 -80 -11l21 124q-40 -5 -98 -14l21 92q5 1 92 11l15 87q-16 -2 -52.5 -5t-52.5 -5l24 92q39 3 95 6q8 50 22 148q50 10 97 15
l-31 -157l71 4q25 137 30 172q45 4 99 8l-40 -175zM305 362l-72 -6l-17 -86l73 7z" />
    <glyph glyph-name="dollar" unicode="$" horiz-adv-x="294" 
d="M274 184q-2 -47 -26 -85t-61 -52q0 -12 -0.5 -31.5t-0.5 -26.5l-85 -10v74q-36 21 -59 67.5t-22 108.5q48 23 99 34q-3 -55 5 -85t23 -31q12 -1 20 12t9 39q1 25 -15 50t-38.5 47.5t-44.5 47.5t-36.5 62t-11.5 80q5 89 75 127v69q40 7 88 12v-80q33 -19 54 -65.5
t22 -117.5q-46 -15 -97 -26q4 106 -27 106q-9 0 -16.5 -15.5t-5.5 -34.5q2 -28 19 -53.5t39 -46.5t44 -44.5t36 -57t13 -74.5z" />
    <glyph glyph-name="percent" unicode="%" horiz-adv-x="566" 
d="M546 238q6 -113 -29 -181t-88 -64q-51 4 -79 66t-20 156q7 84 39 135.5t75 51.5q42 0 70 -41t32 -123zM441 684l-233 -704q-58 -5 -87 -11l70.5 226l87 281.5t58.5 198.5q51 9 104 9zM226 458q-1 -82 -27.5 -136.5t-68.5 -55.5q-39 -2 -69 37t-38 121q-11 107 17.5 174
t81.5 67q49 0 77.5 -58.5t26.5 -148.5zM469 201q1 40 -7 73t-18 32q-12 0 -21 -28.5t-12 -72.5q-3 -49 5.5 -84.5t20.5 -34.5q14 0 22.5 35t9.5 80zM152 452q0 32 -3.5 58t-10.5 41t-16 14q-10 -1 -18 -34.5t-8 -75.5q0 -40 9.5 -71.5t20.5 -29.5q24 3 26 98z" />
    <glyph glyph-name="ampersand" unicode="&#x26;" horiz-adv-x="494" 
d="M474 69q-50 -53 -94 -85q-26 22 -43 39q-64 -72 -146 -70q-75 2 -125 47t-46 127q3 58 26 100.5t63 88.5q-50 97 -57 168q-10 101 29.5 155t98.5 63q63 10 116.5 -49.5t38.5 -165.5q-11 -80 -90 -183q17 -26 55 -74q11 37 17 69q65 -27 122 -36q-15 -77 -39 -135
q37 -32 74 -59zM222 484q7 28 -2.5 57t-27.5 29q-14 0 -23 -25.5t-6 -51.5q4 -36 24 -84q23 34 35 75zM252 112q-44 51 -78 100q-31 -48 -31 -83q-1 -30 15 -45t35 -14q32 2 59 42z" />
    <glyph glyph-name="quotesingle" unicode="'" horiz-adv-x="142" 
d="M122 686q-12 -198 -13 -274l-78 -7q-1 32 -5.5 126.5t-5.5 144.5q20 4 45.5 6.5t40.5 3.5h16z" />
    <glyph glyph-name="parenleft" unicode="(" horiz-adv-x="284" 
d="M264 677q-64 -89 -93.5 -208t-9.5 -253.5t97 -239.5q-39 -20 -72 -51q-85 88 -127 206t-39.5 233t39 222t100.5 182q54 -43 105 -91z" />
    <glyph glyph-name="parenright" unicode=")" horiz-adv-x="285" 
d="M133 334q2 86 -23 179t-90 166q26 18 53 39t41 33l14 12q68 -71 103 -179.5t34 -224.5t-43.5 -235t-122.5 -206q-18 17 -37.5 31.5t-30.5 20.5l-11 7q108 154 113 357z" />
    <glyph glyph-name="asterisk" unicode="*" horiz-adv-x="276" 
d="M256 603q-6 -4 -71 -44l35.5 -21.5l34.5 -21.5l-29 -39l-67 40q-1 -27 -1 -77l-47 -6q0 50 -1 79q-40 -24 -60 -37l-29 34l68 46l-69 39q9 25 22 50l65 -39v68q23 4 54 7q0 -52 -1 -78q11 8 62 41z" />
    <glyph glyph-name="plus" unicode="+" horiz-adv-x="364" 
d="M344 396q1 -48 0 -92q-55 -5 -123 -17q-2 -70 0 -124l-90 -5q-1 17 -1.5 56t-0.5 59l-105 -18l-4 99q48 9 107 16q-2 90 -4 134q50 13 101 21q0 -41 -2 -143q116 13 122 14z" />
    <glyph glyph-name="comma" unicode="," horiz-adv-x="173" 
d="M153 49q-2 -51 -33 -79.5t-70 -28.5q31 26 33 55q-30 -4 -48.5 19.5t-13.5 54.5q4 30 26 47.5t49 13.5q30 -5 44.5 -27.5t12.5 -54.5z" />
    <glyph glyph-name="hyphen" unicode="-" horiz-adv-x="265" 
d="M245 361q1 -48 0 -101q-59 -11 -221 -33l-4 105q55 9 225 29z" />
    <glyph glyph-name="period" unicode="." horiz-adv-x="169" 
d="M149 51q-1 -30 -20 -49t-46 -19t-46.5 21t-16.5 50q4 31 22.5 49.5t45.5 19.5q29 0 46 -20.5t15 -51.5z" />
    <glyph glyph-name="slash" unicode="/" horiz-adv-x="395" 
d="M375 701q-32 -89 -124.5 -370.5t-114.5 -354.5q-59 -5 -116 -16q198 640 222 726q69 10 133 15z" />
    <glyph glyph-name="zero" unicode="0" horiz-adv-x="370" 
d="M354 314q-5 -143 -52.5 -237.5t-113.5 -99.5q-60 -6 -109.5 66.5t-59.5 217.5q-14 192 37.5 308t133.5 116q80 -1 124.5 -106t39.5 -265zM244 305q2 58 -5.5 106t-21 74t-29.5 24q-20 -2 -37.5 -64.5t-18.5 -140.5q-1 -37 3.5 -74t12 -64t17.5 -43.5t20 -15.5
q21 3 38.5 59t20.5 139z" />
    <glyph glyph-name="one" unicode="1" horiz-adv-x="215" 
d="M195 716q4 -94 1 -369t-2 -355q-30 -9 -60 -15.5t-44 -8.5l-15 -1q1 38 5.5 231.5t5.5 310.5l-79 -19q7 17 34.5 92.5t45.5 112.5q55 8 108 21z" />
    <glyph glyph-name="two" unicode="2" horiz-adv-x="339" 
d="M323 475q-8 -206 -170 -389q32 5 70 9t59 5l22 2v-126q-157 -4 -294 -17l18 118q28 31 46 53t47 68t54 101q26 57 33 113.5t-1 87.5t-21 33q-19 2 -32 -48t-15 -106l-115 34q0 134 47 211.5t118 76.5q69 -1 103.5 -67.5t30.5 -158.5z" />
    <glyph glyph-name="three" unicode="3" horiz-adv-x="359" 
d="M343 146q0 -82 -43 -141t-112 -63q-76 -4 -122.5 57.5t-53.5 161.5q23 6 50 11.5t42 7.5l15 2q1 -52 21 -84.5t40 -30.5q48 5 51 90q1 53 -22 75t-49 -2l-32 93q54 26 75.5 83t14.5 102t-24 46q-15 1 -26 -19.5t-15 -52t-1 -64.5q-60 11 -109 29q-4 49 2.5 95t22.5 87
t48.5 66t76.5 26q41 0 74.5 -28t51 -74.5t21.5 -99.5t-14.5 -109.5t-57.5 -97.5q75 -44 75 -166z" />
    <glyph glyph-name="four" unicode="4" horiz-adv-x="311" 
d="M301 216q-7 -1 -19 -3.5t-19 -3.5q0 -83 -2 -229l-113 -17q8 90 15 224q-74 -16 -143 -33l-8 121q2 8 20.5 71.5t27.5 97.5t22.5 99.5t21.5 127.5q28 10 68 19.5t66 14.5l26 5q-1 -58 -1 -383l35 10zM173 464l-55 -172q20 4 50 11q1 25 2.5 79.5t2.5 81.5z" />
    <glyph glyph-name="five" unicode="5" horiz-adv-x="320" 
d="M307 212q5 -223 -125 -245q-63 -9 -105 40t-54 136q21 15 48 26.5t43 16.5l17 4q4 -96 32 -108q20 -8 32 31q11 36 8 93q-7 105 -43 107q-20 1 -32 -24q-2 -4 -3 -7q-21 8 -46 20t-40 20l-15 7q-7 170 -8 342q147 33 287 50l-10 -128q-38 -5 -79 -12.5t-64 -12.5l-22 -5
q-4 -104 -3 -163q27 23 60 24q49 2 85 -54t37 -158z" />
    <glyph glyph-name="six" unicode="6" horiz-adv-x="321" 
d="M308 191q-3 -113 -43.5 -170.5t-101.5 -55.5q-57 1 -98.5 54t-47.5 151q-8 138 41 279t151 266q17 -16 36.5 -37.5t30.5 -35.5l10 -14q-111 -118 -139 -240q23 17 59 13q43 -7 73 -64.5t29 -145.5zM200 176q-4 101 -44 99q-36 -4 -37 -99q-1 -46 11 -76.5t30 -30.5
t29.5 28.5t10.5 78.5z" />
    <glyph glyph-name="seven" unicode="7" horiz-adv-x="317" 
d="M304 590q-106 -217 -173 -612l-115 -19q46 319 161 621q-90 -13 -158 -25l-8 119q174 31 281 40q5 -71 12 -124z" />
    <glyph glyph-name="eight" unicode="8" horiz-adv-x="355" 
d="M341 173q1 -98 -49.5 -161.5t-122.5 -60.5q-68 3 -112.5 67.5t-42.5 161.5q3 120 73 182q-50 59 -48 150q2 86 42 139.5t102 55.5q63 1 106 -52t44 -143q3 -95 -56 -154q63 -59 64 -185zM230 487q0 40 -14 67t-32 26q-18 0 -29.5 -27t-11.5 -66q-1 -38 13 -65t33 -27
q18 0 29.5 25.5t11.5 66.5zM228 184q1 48 -13 79.5t-36 32.5q-21 0 -36.5 -30.5t-17.5 -76.5q-3 -44 12.5 -76t36.5 -34q21 -1 36.5 28.5t17.5 76.5z" />
    <glyph glyph-name="nine" unicode="9" horiz-adv-x="314" 
d="M296 487q9 -140 -36.5 -280t-146.5 -264q-18 16 -37 38l-30 35l-10 14q46 49 85.5 122.5t54.5 138.5q-29 -25 -60 -22q-44 2 -75.5 56t-30.5 141q2 115 45.5 182.5t103.5 65.5q54 -1 92 -61.5t45 -165.5zM190 466q1 41 -10.5 69.5t-28.5 28.5t-28.5 -27t-10.5 -71
q4 -93 40 -91q15 1 26 23t12 68z" />
    <glyph glyph-name="colon" unicode=":" horiz-adv-x="172" 
d="M152 381q0 -32 -19.5 -50.5t-47.5 -18.5q-29 1 -48 23.5t-16 51.5q4 30 23.5 49t46.5 20q28 0 45 -21.5t16 -53.5zM148 89q8 -30 -3 -55t-36 -34q-26 -9 -51 2t-34 40q-10 29 2.5 55t38.5 36q25 9 50.5 -4t32.5 -40z" />
    <glyph glyph-name="semicolon" unicode=";" horiz-adv-x="173" 
d="M148 405q11 -31 -1.5 -54.5t-39.5 -33.5t-52 5.5t-32 43.5q-7 30 4.5 54.5t37.5 34.5q26 9 49 -5.5t34 -44.5zM153 49q-2 -51 -33 -79.5t-70 -28.5q31 26 33 55q-30 -4 -48.5 19.5t-13.5 54.5q4 30 26 47.5t49 13.5q30 -5 44.5 -27.5t12.5 -54.5z" />
    <glyph glyph-name="less" unicode="&#x3c;" horiz-adv-x="377" 
d="M357 394q-183 -54 -188 -55q100 -33 179 -67l-29 -94q-223 97 -290 122l-9 79q23 8 129 47.5t170 58.5z" />
    <glyph glyph-name="equal" unicode="=" horiz-adv-x="369" 
d="M349 462q-3 -48 -6 -87q-74 -3 -323 -26l2 101q70 6 191.5 8.5t135.5 3.5zM347 336v-88q-148 -18 -310 -45l-3 99q76 11 193.5 22.5t119.5 11.5z" />
    <glyph glyph-name="greater" unicode="&#x3e;" horiz-adv-x="377" 
d="M357 379q-5 -42 -9 -79q-67 -25 -290 -122l-29 94q79 34 179 67q-5 1 -188 55l38 91q64 -19 170 -58.5t129 -47.5z" />
    <glyph glyph-name="question" unicode="?" horiz-adv-x="337" 
d="M317 490q0 -50 -11.5 -90t-27 -65l-30 -48.5t-21.5 -54.5t0 -70q-24 -4 -55 -6t-50 -2h-19q-5 44 2.5 79t22.5 59.5t31 46t29.5 50t15.5 61.5q2 24 -3 43t-12 28t-14 8q-19 -2 -31 -51t-10 -98l-113 11q-8 121 36.5 213.5t115.5 93.5q60 1 102 -61.5t42 -146.5zM241 50
q-2 -31 -22.5 -49.5t-51.5 -18.5q-30 0 -52 21t-18 49q4 31 24.5 50t51.5 19q31 1 50.5 -19.5t17.5 -51.5z" />
    <glyph glyph-name="at" unicode="@" horiz-adv-x="587" 
d="M566 335q-7 -104 -47.5 -164t-92.5 -58q-51 3 -76 45q-33 -28 -72 -28.5t-69.5 21t-47 67t-8.5 103.5q6 47 29.5 79t53 43t60 9t54.5 -18q0 2 1.5 7.5t2.5 8.5q44 -2 91 -14q-55 -242 -12 -250q13 -2 25.5 13t22.5 51.5t12 87.5q4 87 -45 139t-122 55q-89 3 -152.5 -67
t-69.5 -178q-6 -101 45.5 -158t127.5 -51q-19 -41 -38 -72q-44 0 -85 19.5t-73.5 55.5t-48.5 95t-10 132q13 141 101 231t203 85q120 -6 184 -88t56 -201zM333 341q-30 23 -63.5 6t-37.5 -69q-4 -53 31 -75.5t69 7.5q-9 57 1 131z" />
    <glyph glyph-name="A" unicode="A" horiz-adv-x="362" 
d="M353 -4q-61 -8 -113 -19q-20 118 -29 165q-7 -1 -34.5 -6.5l-43.5 -8.5q-10 -94 -17 -149q-53 -8 -107 -18q59 525 74 707q63 15 124 23q76 -316 146 -694zM196 231l-15.5 91t-12.5 73q-12 -78 -23 -174z" />
    <glyph glyph-name="B" unicode="B" horiz-adv-x="370" 
d="M351 520q21 -159 -81 -228q36 -21 53 -64.5t11 -100.5q-19 -185 -273 -160q2 215 -7 541l-33 -9q-4 36 -7.5 79l-5.5 68l-1 25q162 32 245.5 -5t98.5 -146zM228 446q-4 61 -62 71q-3 -88 -3 -183q31 8 50 35.5t15 76.5zM224 156q-1 75 -61 79q0 -92 2 -166q26 3 43 26
t16 61z" />
    <glyph glyph-name="C" unicode="C" horiz-adv-x="346" 
d="M330 200q-4 -107 -43.5 -168t-95.5 -63q-58 -3 -108.5 69.5t-62.5 219.5q-17 205 29 322t124 118q71 1 110.5 -89.5t41.5 -233.5q-72 -4 -112 -11q-2 58 -12.5 102.5t-28.5 42.5q-19 -2 -34 -68.5t-13 -143.5q1 -52 9.5 -97.5t21.5 -71.5t27 -25q25 4 37 108
q60 -3 110 -11z" />
    <glyph glyph-name="D" unicode="D" horiz-adv-x="383" 
d="M334 560q41 -97 31.5 -236t-65.5 -225q-43 -66 -98.5 -95t-140.5 -26q2 213 -7 537l-33 -6q-4 35 -7.5 78l-5.5 68l-1 25q54 13 101.5 14t92 -10.5t79 -43t54.5 -80.5zM253 339q-4 83 -25.5 124.5t-61.5 53.5q-8 -244 -4 -396q39 18 66.5 74t24.5 144z" />
    <glyph glyph-name="E" unicode="E" horiz-adv-x="300" 
d="M289 548q-80 -9 -148 -19q0 -116 1 -183q50 9 96 15q2 -47 3 -101q-46 -10 -97 -19q2 -87 6 -143q63 5 129 11l5 -111q-167 -20 -244 -24q-4 101 -11 353.5t-10 333.5q213 22 266 26q4 -69 4 -139z" />
    <glyph glyph-name="F" unicode="F" horiz-adv-x="307" 
d="M298 540l-156 -13q-2 -96 -2 -175q13 1 48 4.5t52 5.5q3 -54 0 -102q-48 -4 -99 -14q0 -147 3 -246l-120 -19q-8 449 -4 681q11 1 115.5 13t160.5 17q-1 -72 2 -152z" />
    <glyph glyph-name="G" unicode="G" horiz-adv-x="361" 
d="M347 284q-1 -149 -49.5 -228t-111.5 -79q-58 0 -106 69.5t-60 215.5q-11 126 8.5 227.5t58.5 156t89 56.5q69 2 109.5 -95.5t38.5 -227.5q-73 -4 -113 -11q2 50 -10 100t-31 48t-34 -69.5t-13 -144.5q1 -41 7 -80.5t14.5 -68.5t19 -46.5t20.5 -16.5q15 2 26 28.5t14 64.5
q-23 -2 -54 -2v99q40 3 84 4t68 0h25z" />
    <glyph glyph-name="H" unicode="H" horiz-adv-x="371" 
d="M349 686q0 -102 -1 -340.5t-2 -342.5q-22 -2 -50.5 -7.5t-45.5 -9.5l-18 -5q-2 161 -3 286q-4 -1 -35 -6t-49 -9q-1 -90 -1 -258q-23 -3 -52 -9t-46 -11l-18 -4q-1 238 -8 696q66 13 125 19v-345q39 8 83 13q-1 76 -5 317q66 13 126 16z" />
    <glyph glyph-name="I" unicode="I" horiz-adv-x="160" 
d="M139 4l-109 -14l-4 315t-5 358q51 9 111 18q3 -120 4.5 -368t2.5 -309z" />
    <glyph glyph-name="J" unicode="J" horiz-adv-x="305" 
d="M247 689q41 -217 41 -381t-38 -249t-107 -81q-71 4 -103 75t-30 180l108 22q-4 -149 28 -150q19 -2 27.5 83t-2 219.5t-40.5 249.5q55 20 116 32z" />
    <glyph glyph-name="K" unicode="K" 
d="M361 20l-117 -38l-38 130.5l-40 138.5l-27 -62q0 -36 -0.5 -100t-0.5 -90l-109 -14l-4 321t-5 364q51 9 122 17v-77v-97v-86l88 245q68 7 128 11l-132 -295q30 -99 135 -368z" />
    <glyph glyph-name="L" unicode="L" horiz-adv-x="290" 
d="M281 -1q-4 0 -244 -9q-1 71 -8 306.5t-9 364.5q55 7 120 20q2 -102 5 -573q67 4 133 9q-1 -59 3 -118z" />
    <glyph glyph-name="M" unicode="M" horiz-adv-x="453" 
d="M431 -12q-22 -8 -51.5 -15l-47.5 -11l-18 -3q2 202 -4 414q-34 -94 -88 -212l-79 183q13 -212 15 -354l-127 -31q7 369 -10 716l114 25q37 -139 83 -263q17 44 35 102t27 93l10 36q28 9 63 16t57 10l21 3q-2 -93 -1 -370.5t1 -338.5z" />
    <glyph glyph-name="N" unicode="N" horiz-adv-x="371" 
d="M350 694q-1 -51 -3.5 -314t-7.5 -393l-108 -18q-57 235 -93 345q0 -185 -4 -333q-21 -6 -48.5 -12t-44.5 -9l-17 -2q3 156 3 228.5t-2.5 233.5t-2.5 241q24 6 53.5 11.5t46.5 7.5l18 3q32 -167 99 -361q-3 57 -10.5 172t-10.5 172q17 2 132 28z" />
    <glyph glyph-name="O" unicode="O" horiz-adv-x="358" 
d="M342 325q-1 -145 -43.5 -239.5t-108.5 -101.5q-59 -7 -108 64t-62 216q-17 193 29.5 311.5t127.5 116.5q78 -2 122.5 -105t42.5 -262zM236 294q1 89 -16 149t-40 56q-19 -2 -35 -62.5t-16 -137.5t18.5 -139.5t39.5 -58.5q20 3 34 55.5t15 137.5z" />
    <glyph glyph-name="P" unicode="P" horiz-adv-x="366" 
d="M352 520q10 -95 -42 -176.5t-134 -113.5q8 -188 9 -242q-2 0 -119 -21q2 221 -7 556q-5 -2 -16 -5t-16 -4q-7 29 -11.5 68t-5.5 64l-2 25q174 39 252.5 2t91.5 -153zM231 464q-4 67 -61 74q-1 -68 2 -191q63 44 59 117z" />
    <glyph glyph-name="Q" unicode="Q" horiz-adv-x="363" 
d="M368 -1l-96 -28q-1 2 -8.5 18.5t-11.5 24.5q-28 -28 -62 -33q-63 -7 -111 63t-59 216q-8 109 7 203t55.5 158t101.5 69q78 7 125 -102.5t40 -268.5q-6 -126 -42 -215zM247 299q1 61 -6.5 110.5t-21.5 77t-31 26.5q-25 -2 -43 -69t-16 -156q2 -78 19.5 -139t37.5 -57
q12 2 24 24l-26 63.5l-28 68.5l66 7q2 -5 8.5 -17t9.5 -19q7 44 7 80z" />
    <glyph glyph-name="R" unicode="R" horiz-adv-x="395" 
d="M390 4l-115 -44q-45 165 -92 316q-8 -4 -11 -6q6 -158 13 -279q-54 -12 -119 -24q3 199 -7 564q-6 -3 -17 -7.5l-16 -6.5q-7 30 -11.5 67t-6.5 59l-1 22q158 64 245 29t96 -151q9 -123 -86 -211q25 -73 128 -328zM227 505q-5 61 -63 56q-1 -38 3 -171q67 50 60 115z" />
    <glyph glyph-name="S" unicode="S" horiz-adv-x="336" 
d="M321 154q-3 -75 -48 -129.5t-105 -53.5q-63 2 -107.5 68t-45.5 172q60 30 114 38q-2 -71 9 -114t29 -44q14 -1 25.5 20.5t10.5 55.5q-1 35 -21 67t-47.5 58t-54 56t-43.5 74.5t-13 99.5q5 78 46 126.5t87 52.5q57 4 98 -55.5t45 -182.5q-59 -21 -109 -32q2 54 -6.5 97
t-28.5 43q-10 0 -20 -22.5t-7 -47.5q4 -36 26 -69.5t50 -60.5t55 -56.5t45 -70.5t16 -90z" />
    <glyph glyph-name="T" unicode="T" horiz-adv-x="350" 
d="M339 697q0 -59 -4 -126q-47 -3 -97 -9q1 -29 7 -250.5t8 -326.5q-29 -6 -58 -10t-43 -5l-15 -2q-10 509 -11 580q-68 -10 -107 -19q-8 65 -8 131q206 32 328 37z" />
    <glyph glyph-name="U" unicode="U" horiz-adv-x="374" 
d="M307 698q37 -139 46.5 -272.5t-7.5 -232t-58 -160t-99 -64.5q-69 -4 -110 56t-53 167.5t-8 225.5t22 257q66 1 117 -3q-27 -198 -19 -378t47 -185q26 -4 41.5 79.5t7.5 217.5t-42 252q62 19 115 40z" />
    <glyph glyph-name="V" unicode="V" horiz-adv-x="380" 
d="M373 694q-68 -331 -134 -699l-128 -17q-47 360 -104 697q24 8 55.5 15t51.5 10l19 3q12 -110 28 -271t22 -216q29 255 56 452q26 7 59.5 13.5t53.5 9.5z" />
    <glyph glyph-name="W" unicode="W" horiz-adv-x="520" 
d="M513 710q-36 -155 -69.5 -379.5t-57.5 -345.5q-49 -5 -100 -18l-23 211q-11 -45 -22 -96t-16 -80l-5 -29l-110 -14q-13 135 -29 243.5t-37.5 237.5t-36.5 230q58 20 128 34q9 -88 20 -165.5t24 -157.5t18 -118l34 127.5l34 130.5l29 -96.5l25 -84.5q9 50 28 167t32 176
q64 17 134 27z" />
    <glyph glyph-name="X" unicode="X" horiz-adv-x="393" 
d="M384 688l-58.5 -162.5l-75.5 -208.5l120 -329l-123 -34l-61 188q-33 -89 -65 -166q-23 0 -51 -2t-44 -4l-17 -3q44 117 123 348q-64 202 -119 345q56 27 113 45q30 -105 66 -214l62 183q8 2 22 4.5t49 6t59 3.5z" />
    <glyph glyph-name="Y" unicode="Y" horiz-adv-x="402" 
d="M398 707q-61 -122 -163 -363q-2 -161 2 -363l-120 -19q10 254 4 367l-59 170.5t-44 118.5l-14 37l117 46l62 -220q28 71 73 202q26 6 61.5 12t58.5 9z" />
    <glyph glyph-name="Z" unicode="Z" horiz-adv-x="333" 
d="M321 583q-149 -343 -195 -481q78 14 181 23q-2 -77 5 -126q-159 -9 -289 -29q-10 66 -11 124q75 231 179 470q-81 -11 -174 -38q-2 30 -0.5 61t3.5 55l3 24q122 34 298 51q-3 -76 0 -134z" />
    <glyph glyph-name="bracketleft" unicode="[" horiz-adv-x="285" 
d="M265 -77q-40 -4 -113 -12.5t-111 -11.5q-4 96 -11 421.5t-10 424.5q43 4 236 16q4 -69 4 -103q-60 -5 -118 -15q0 -539 6 -632q64 4 112 9z" />
    <glyph glyph-name="backslash" unicode="\" horiz-adv-x="369" 
d="M349 -24q-60 -9 -123 -24l-206 742q54 0 96 -4q118 -332 233 -714z" />
    <glyph glyph-name="bracketright" unicode="]" horiz-adv-x="285" 
d="M265 784q-3 -100 -10 -433t-11 -429q-39 -5 -112 -12t-112 -12q1 51 5 98l116 16q1 29 1 646l-118 -11l-1 102q155 26 242 35z" />
    <glyph glyph-name="asciicircum" unicode="^" horiz-adv-x="309" 
d="M301 755l-44 -47q-11 5 -105 43l-32 -22l-31.5 -22.5l-23.5 -17.5l-58 35q28 22 72 60t64 54l67 -36t91 -47z" />
    <glyph glyph-name="underscore" unicode="_" horiz-adv-x="599" 
d="M579 -203h-559v91h559v-91z" />
    <glyph glyph-name="grave" unicode="`" horiz-adv-x="289" 
d="M281 751q-14 -12 -29 -23.5t-24 -16.5l-8 -5q-12 2 -87 16t-126 25l76 74q34 -11 100 -35z" />
    <glyph glyph-name="a" unicode="a" horiz-adv-x="362" 
d="M353 -4q-61 -8 -113 -19q-20 118 -29 165q-7 -1 -34.5 -6.5l-43.5 -8.5q-10 -94 -17 -149q-53 -8 -107 -18q59 525 74 707q63 15 124 23q76 -316 146 -694zM196 231l-15.5 91t-12.5 73q-12 -78 -23 -174z" />
    <glyph glyph-name="b" unicode="b" horiz-adv-x="370" 
d="M351 520q21 -159 -81 -228q36 -21 53 -64.5t11 -100.5q-19 -185 -273 -160q2 215 -7 541l-33 -9q-4 36 -7.5 79l-5.5 68l-1 25q162 32 245.5 -5t98.5 -146zM228 446q-4 61 -62 71q-3 -88 -3 -183q31 8 50 35.5t15 76.5zM224 156q-1 75 -61 79q0 -92 2 -166q26 3 43 26
t16 61z" />
    <glyph glyph-name="c" unicode="c" horiz-adv-x="346" 
d="M330 200q-4 -107 -43.5 -168t-95.5 -63q-58 -3 -108.5 69.5t-62.5 219.5q-17 205 29 322t124 118q71 1 110.5 -89.5t41.5 -233.5q-72 -4 -112 -11q-2 58 -12.5 102.5t-28.5 42.5q-19 -2 -34 -68.5t-13 -143.5q1 -52 9.5 -97.5t21.5 -71.5t27 -25q25 4 37 108
q60 -3 110 -11z" />
    <glyph glyph-name="d" unicode="d" horiz-adv-x="383" 
d="M334 560q41 -97 31.5 -236t-65.5 -225q-43 -66 -98.5 -95t-140.5 -26q2 213 -7 537l-33 -6q-4 35 -7.5 78l-5.5 68l-1 25q54 13 101.5 14t92 -10.5t79 -43t54.5 -80.5zM253 339q-4 83 -25.5 124.5t-61.5 53.5q-8 -244 -4 -396q39 18 66.5 74t24.5 144z" />
    <glyph glyph-name="e" unicode="e" horiz-adv-x="300" 
d="M289 548q-80 -9 -148 -19q0 -116 1 -183q50 9 96 15q2 -47 3 -101q-46 -10 -97 -19q2 -87 6 -143q63 5 129 11l5 -111q-167 -20 -244 -24q-4 101 -11 353.5t-10 333.5q213 22 266 26q4 -69 4 -139z" />
    <glyph glyph-name="f" unicode="f" horiz-adv-x="307" 
d="M298 540l-156 -13q-2 -96 -2 -175q13 1 48 4.5t52 5.5q3 -54 0 -102q-48 -4 -99 -14q0 -147 3 -246l-120 -19q-8 449 -4 681q11 1 115.5 13t160.5 17q-1 -72 2 -152z" />
    <glyph glyph-name="g" unicode="g" horiz-adv-x="361" 
d="M347 284q-1 -149 -49.5 -228t-111.5 -79q-58 0 -106 69.5t-60 215.5q-11 126 8.5 227.5t58.5 156t89 56.5q69 2 109.5 -95.5t38.5 -227.5q-73 -4 -113 -11q2 50 -10 100t-31 48t-34 -69.5t-13 -144.5q1 -41 7 -80.5t14.5 -68.5t19 -46.5t20.5 -16.5q15 2 26 28.5t14 64.5
q-23 -2 -54 -2v99q40 3 84 4t68 0h25z" />
    <glyph glyph-name="h" unicode="h" horiz-adv-x="371" 
d="M349 686q0 -102 -1 -340.5t-2 -342.5q-22 -2 -50.5 -7.5t-45.5 -9.5l-18 -5q-2 161 -3 286q-4 -1 -35 -6t-49 -9q-1 -90 -1 -258q-23 -3 -52 -9t-46 -11l-18 -4q-1 238 -8 696q66 13 125 19v-345q39 8 83 13q-1 76 -5 317q66 13 126 16z" />
    <glyph glyph-name="i" unicode="i" horiz-adv-x="160" 
d="M139 4l-109 -14l-4 315t-5 358q51 9 111 18q3 -120 4.5 -368t2.5 -309z" />
    <glyph glyph-name="j" unicode="j" horiz-adv-x="305" 
d="M247 689q41 -217 41 -381t-38 -249t-107 -81q-71 4 -103 75t-30 180l108 22q-4 -149 28 -150q19 -2 27.5 83t-2 219.5t-40.5 249.5q55 20 116 32z" />
    <glyph glyph-name="k" unicode="k" 
d="M361 20l-117 -38l-38 130.5l-40 138.5l-27 -62q0 -36 -0.5 -100t-0.5 -90l-109 -14l-4 321t-5 364q51 9 122 17v-77v-97v-86l88 245q68 7 128 11l-132 -295q30 -99 135 -368z" />
    <glyph glyph-name="l" unicode="l" horiz-adv-x="290" 
d="M281 -1q-4 0 -244 -9q-1 71 -8 306.5t-9 364.5q55 7 120 20q2 -102 5 -573q67 4 133 9q-1 -59 3 -118z" />
    <glyph glyph-name="m" unicode="m" horiz-adv-x="453" 
d="M431 -12q-22 -8 -51.5 -15l-47.5 -11l-18 -3q2 202 -4 414q-34 -94 -88 -212l-79 183q13 -212 15 -354l-127 -31q7 369 -10 716l114 25q37 -139 83 -263q17 44 35 102t27 93l10 36q28 9 63 16t57 10l21 3q-2 -93 -1 -370.5t1 -338.5z" />
    <glyph glyph-name="n" unicode="n" horiz-adv-x="371" 
d="M350 694q-1 -51 -3.5 -314t-7.5 -393l-108 -18q-57 235 -93 345q0 -185 -4 -333q-21 -6 -48.5 -12t-44.5 -9l-17 -2q3 156 3 228.5t-2.5 233.5t-2.5 241q24 6 53.5 11.5t46.5 7.5l18 3q32 -167 99 -361q-3 57 -10.5 172t-10.5 172q17 2 132 28z" />
    <glyph glyph-name="o" unicode="o" horiz-adv-x="364" 
d="M346 313q-11 -151 -60 -243.5t-115 -92.5q-65 0 -106 74.5t-48 220.5q-9 199 43.5 314.5t133.5 115.5q79 1 121.5 -109t30.5 -280zM235 301q5 90 -8 161t-35 72t-42 -71t-24 -154q-3 -77 12.5 -140.5t36.5 -62.5q22 0 39 56t21 139z" />
    <glyph glyph-name="p" unicode="p" horiz-adv-x="366" 
d="M352 520q10 -95 -42 -176.5t-134 -113.5q8 -188 9 -242q-2 0 -119 -21q2 221 -7 556q-5 -2 -16 -5t-16 -4q-7 29 -11.5 68t-5.5 64l-2 25q174 39 252.5 2t91.5 -153zM231 464q-4 67 -61 74q-1 -68 2 -191q63 44 59 117z" />
    <glyph glyph-name="q" unicode="q" horiz-adv-x="363" 
d="M368 -1l-96 -28q-1 2 -8.5 18.5t-11.5 24.5q-28 -28 -62 -33q-63 -7 -111 63t-59 216q-8 109 7 203t55.5 158t101.5 69q78 7 125 -102.5t40 -268.5q-6 -126 -42 -215zM247 299q1 61 -6.5 110.5t-21.5 77t-31 26.5q-25 -2 -43 -69t-16 -156q2 -78 19.5 -139t37.5 -57
q12 2 24 24l-26 63.5l-28 68.5l66 7q2 -5 8.5 -17t9.5 -19q7 44 7 80z" />
    <glyph glyph-name="r" unicode="r" horiz-adv-x="395" 
d="M390 4l-115 -44q-45 165 -92 316q-8 -4 -11 -6q6 -158 13 -279q-54 -12 -119 -24q3 199 -7 564q-6 -3 -17 -7.5l-16 -6.5q-7 30 -11.5 67t-6.5 59l-1 22q158 64 245 29t96 -151q9 -123 -86 -211q25 -73 128 -328zM227 505q-5 61 -63 56q-1 -38 3 -171q67 50 60 115z" />
    <glyph glyph-name="s" unicode="s" horiz-adv-x="336" 
d="M321 154q-3 -75 -48 -129.5t-105 -53.5q-63 2 -107.5 68t-45.5 172q60 30 114 38q-2 -71 9 -114t29 -44q14 -1 25.5 20.5t10.5 55.5q-1 35 -21 67t-47.5 58t-54 56t-43.5 74.5t-13 99.5q5 78 46 126.5t87 52.5q57 4 98 -55.5t45 -182.5q-59 -21 -109 -32q2 54 -6.5 97
t-28.5 43q-10 0 -20 -22.5t-7 -47.5q4 -36 26 -69.5t50 -60.5t55 -56.5t45 -70.5t16 -90z" />
    <glyph glyph-name="t" unicode="t" horiz-adv-x="350" 
d="M339 697q0 -59 -4 -126q-47 -3 -97 -9q1 -29 7 -250.5t8 -326.5q-29 -6 -58 -10t-43 -5l-15 -2q-10 509 -11 580q-68 -10 -107 -19q-8 65 -8 131q206 32 328 37z" />
    <glyph glyph-name="u" unicode="u" horiz-adv-x="374" 
d="M307 698q37 -139 46.5 -272.5t-7.5 -232t-58 -160t-99 -64.5q-69 -4 -110 56t-53 167.5t-8 225.5t22 257q66 1 117 -3q-27 -198 -19 -378t47 -185q26 -4 41.5 79.5t7.5 217.5t-42 252q62 19 115 40z" />
    <glyph glyph-name="v" unicode="v" horiz-adv-x="380" 
d="M373 694q-68 -331 -134 -699l-128 -17q-47 360 -104 697q24 8 55.5 15t51.5 10l19 3q12 -110 28 -271t22 -216q29 255 56 452q26 7 59.5 13.5t53.5 9.5z" />
    <glyph glyph-name="w" unicode="w" horiz-adv-x="520" 
d="M513 710q-36 -155 -69.5 -379.5t-57.5 -345.5q-49 -5 -100 -18l-23 211q-11 -45 -22 -96t-16 -80l-5 -29l-110 -14q-13 135 -29 243.5t-37.5 237.5t-36.5 230q58 20 128 34q9 -88 20 -165.5t24 -157.5t18 -118l34 127.5l34 130.5l29 -96.5l25 -84.5q9 50 28 167t32 176
q64 17 134 27z" />
    <glyph glyph-name="x" unicode="x" horiz-adv-x="393" 
d="M384 688l-58.5 -162.5l-75.5 -208.5l120 -329l-123 -34l-61 188q-33 -89 -65 -166q-23 0 -51 -2t-44 -4l-17 -3q44 117 123 348q-64 202 -119 345q56 27 113 45q30 -105 66 -214l62 183q8 2 22 4.5t49 6t59 3.5z" />
    <glyph glyph-name="y" unicode="y" horiz-adv-x="402" 
d="M398 707q-61 -122 -163 -363q-2 -161 2 -363l-120 -19q10 254 4 367l-59 170.5t-44 118.5l-14 37l117 46l62 -220q28 71 73 202q26 6 61.5 12t58.5 9z" />
    <glyph glyph-name="z" unicode="z" horiz-adv-x="333" 
d="M321 583q-149 -343 -195 -481q78 14 181 23q-2 -77 5 -126q-159 -9 -289 -29q-10 66 -11 124q75 231 179 470q-81 -11 -174 -38q-2 30 -0.5 61t3.5 55l3 24q122 34 298 51q-3 -76 0 -134z" />
    <glyph glyph-name="braceleft" unicode="{" horiz-adv-x="269" 
d="M249 13q-60 -51 -88 -98q-37 17 -54.5 58.5t-20 89t-3.5 94.5t-14.5 84t-44.5 48q1 31 0 57t-2 44l-2 17q31 12 43.5 47.5t14 80.5t4.5 90.5t21.5 85t57.5 56.5q21 -17 42 -39.5t31 -36.5l11 -14q-27 -14 -37.5 -48t-11 -74.5t-1.5 -80.5t-15 -74.5t-46 -48.5
q33 -19 48 -56.5t16 -79.5t1 -83t11 -74t39 -45z" />
    <glyph glyph-name="bar" unicode="|" horiz-adv-x="156" 
d="M136 -69l-107 -14q-1 78 -4 394.5t-5 441.5q51 9 109 18q3 -119 4.5 -447.5t2.5 -392.5z" />
    <glyph glyph-name="braceright" unicode="}" horiz-adv-x="265" 
d="M245 289q-31 -11 -44.5 -48t-14.5 -84t-3.5 -94.5t-20 -89t-54.5 -58.5q-12 21 -34 45.5t-38 38.5l-16 14q28 12 39 45t11.5 74t1.5 83t15.5 79.5t47.5 56.5q-32 14 -46 48.5t-15 74.5t-1.5 80.5t-11 74.5t-37.5 48q37 52 84 90q39 -17 58 -56.5t22 -84t4.5 -88.5
t12.5 -79t39 -47q-6 -63 1 -123z" />
    <glyph glyph-name="asciitilde" unicode="~" horiz-adv-x="299" 
d="M291 743q-43 -28 -120 -19q-82 9 -118 -36l-46 66q50 57 140 46q71 -9 108 15q19 -29 36 -72z" />
    <glyph glyph-name="quotesinglbase" unicode="&#x201a;" horiz-adv-x="173" 
d="M152 55q-6 -52 -41.5 -82.5t-74.5 -28.5q33 24 37 53q-29 1 -43.5 29.5t-7.5 59.5t31 48.5t51 11.5q28 -6 40 -32t8 -59z" />
    <glyph glyph-name="florin" unicode="&#x192;" 
d="M332 401q0 -61 -43.5 -104.5t-105.5 -43.5q-61 0 -104.5 43.5t-43.5 104.5t43.5 104.5t104.5 43.5q62 0 105.5 -43.5t43.5 -104.5zM287 401q0 43 -30.5 73.5t-73.5 30.5t-73.5 -30.5t-30.5 -73.5t30.5 -73.5t73.5 -30.5t73.5 30.5t30.5 73.5z" />
    <glyph glyph-name="quotedblbase" unicode="&#x201e;" horiz-adv-x="332" 
d="M308 24q-11 -53 -51 -81.5t-81 -24.5q39 20 46 54q-30 4 -43.5 32t-2.5 60t36.5 49t52.5 11q30 -7 40.5 -35.5t2.5 -64.5zM151 42q-10 -51 -46.5 -77.5t-75.5 -21.5q35 21 41 50q-29 3 -42 32t-4 60q9 30 34.5 44.5t51.5 6.5q19 -6 30 -21t12.5 -34t-1.5 -39z" />
    <glyph glyph-name="ellipsis" unicode="&#x2026;" horiz-adv-x="564" 
d="M529 27q-10 -26 -36 -36t-52 0q-25 8 -34.5 37t3.5 55q14 27 38 36.5t49 -1.5q25 -10 34 -36t-2 -55zM349 78q6 -30 -6.5 -53.5t-38.5 -31.5q-27 -8 -49 6.5t-30 44.5q-7 30 5.5 53t38.5 31t50.5 -6.5t29.5 -43.5zM159 51q-1 -30 -20 -49t-46 -19t-46.5 21t-16.5 50
q4 31 22.5 49.5t45.5 19.5q29 0 46 -20.5t15 -51.5z" />
    <glyph glyph-name="dagger" unicode="&#x2020;" horiz-adv-x="388" 
d="M264 566q-9 0 -29.5 -1.5t-30.5 -2.5q-2 -88 -2 -128l-47 -5q0 32 -2 130q-11 -1 -30 -2.5t-26 -1.5l1 51q37 2 54 4q-1 19 -1 59q23 4 54 7v-61l56 5q2 -27 3 -54z" />
    <glyph glyph-name="daggerdbl" unicode="&#x2021;" 
d="M332 401q0 -61 -43.5 -104.5t-105.5 -43.5q-61 0 -104.5 43.5t-43.5 104.5t43.5 104.5t104.5 43.5q62 0 105.5 -43.5t43.5 -104.5zM287 401q0 43 -30.5 73.5t-73.5 30.5t-73.5 -30.5t-30.5 -73.5t30.5 -73.5t73.5 -30.5t73.5 30.5t30.5 73.5z" />
    <glyph glyph-name="circumflex" unicode="&#x2c6;" 
d="M332 401q0 -61 -43.5 -104.5t-105.5 -43.5q-61 0 -104.5 43.5t-43.5 104.5t43.5 104.5t104.5 43.5q62 0 105.5 -43.5t43.5 -104.5zM287 401q0 43 -30.5 73.5t-73.5 30.5t-73.5 -30.5t-30.5 -73.5t30.5 -73.5t73.5 -30.5t73.5 30.5t30.5 73.5z" />
    <glyph glyph-name="perthousand" unicode="&#x2030;" 
d="M332 401q0 -61 -43.5 -104.5t-105.5 -43.5q-61 0 -104.5 43.5t-43.5 104.5t43.5 104.5t104.5 43.5q62 0 105.5 -43.5t43.5 -104.5zM287 401q0 43 -30.5 73.5t-73.5 30.5t-73.5 -30.5t-30.5 -73.5t30.5 -73.5t73.5 -30.5t73.5 30.5t30.5 73.5z" />
    <glyph glyph-name="guilsinglleft" unicode="&#x2039;" 
d="M332 401q0 -61 -43.5 -104.5t-105.5 -43.5q-61 0 -104.5 43.5t-43.5 104.5t43.5 104.5t104.5 43.5q62 0 105.5 -43.5t43.5 -104.5zM287 401q0 43 -30.5 73.5t-73.5 30.5t-73.5 -30.5t-30.5 -73.5t30.5 -73.5t73.5 -30.5t73.5 30.5t30.5 73.5z" />
    <glyph glyph-name="OE" unicode="&#x152;" horiz-adv-x="506" 
d="M495 551q-80 -8 -148 -18q0 -116 1 -184q50 9 96 15q2 -47 3 -100q-46 -11 -97 -20q1 -74 5 -143q64 6 130 11l5 -111q-240 -28 -289 -28q-63 -1 -115.5 66.5t-65.5 206.5q-16 185 29.5 297.5t136.5 122.5q63 6 171 14l134 10q4 -69 4 -139zM235 275q2 90 -14.5 152.5
t-42.5 59.5q-19 -2 -35.5 -66.5t-13.5 -140.5q3 -80 19 -136t39 -57q13 -1 24 24t17.5 68t6.5 96z" />
    <glyph glyph-name="quoteleft" unicode="&#x2018;" horiz-adv-x="178" 
d="M158 656q3 -33 -16.5 -57.5t-48.5 -22.5q0 -13 7 -26.5t14 -21.5l7 -7q-40 4 -70.5 37t-30.5 84q0 37 16 61.5t47 28.5q27 3 49 -19.5t26 -56.5z" />
    <glyph glyph-name="quoteright" unicode="&#x2019;" horiz-adv-x="173" 
d="M152 634q-6 -52 -41.5 -82.5t-74.5 -28.5q33 24 37 53q-29 1 -43.5 29t-7.5 60q7 31 31 48.5t51 11.5q28 -6 40 -32t8 -59z" />
    <glyph glyph-name="quotedblleft" unicode="&#x201c;" horiz-adv-x="333" 
d="M311 673q7 -31 -8 -59t-45 -29q2 -13 11 -26t17 -19l9 -7q-39 -3 -73.5 26t-40.5 81q-4 33 7.5 59t39.5 32q27 7 51.5 -10t31.5 -48zM156 659q9 -32 -6 -60t-44 -30q2 -15 13 -29t21 -20l9 -7q-41 -2 -79.5 28t-47.5 84q-6 35 6.5 62t41.5 33q27 6 51.5 -11t34.5 -50z
" />
    <glyph glyph-name="quotedblright" unicode="&#x201d;" horiz-adv-x="332" 
d="M308 617q-11 -53 -51 -81.5t-81 -24.5q39 20 46 54q-30 4 -43.5 32t-2.5 60t36.5 49t52.5 11q30 -7 40.5 -35.5t2.5 -64.5zM151 635q-10 -52 -47 -78.5t-75 -20.5q35 21 41 50q-29 3 -42 32t-4 60q9 30 34.5 44.5t51.5 6.5q19 -6 30 -21t12.5 -34t-1.5 -39z" />
    <glyph glyph-name="bullet" unicode="&#x2022;" horiz-adv-x="206" 
d="M186 347q-2 -39 -25.5 -63t-59.5 -24q-35 0 -60 27t-21 64q4 40 28 64t59 24q37 1 59 -25t20 -67z" />
    <glyph glyph-name="endash" unicode="&#x2013;" horiz-adv-x="265" 
d="M245 361q1 -48 0 -101q-59 -11 -221 -33l-4 105q55 9 225 29z" />
    <glyph glyph-name="emdash" unicode="&#x2014;" horiz-adv-x="364" 
d="M344 361q1 -48 0 -97q-96 -12 -320 -49l-4 105q57 9 114 16.5t121 14.5t89 10z" />
    <glyph glyph-name="tilde" unicode="&#x2dc;" 
d="M332 401q0 -61 -43.5 -104.5t-105.5 -43.5q-61 0 -104.5 43.5t-43.5 104.5t43.5 104.5t104.5 43.5q62 0 105.5 -43.5t43.5 -104.5zM287 401q0 43 -30.5 73.5t-73.5 30.5t-73.5 -30.5t-30.5 -73.5t30.5 -73.5t73.5 -30.5t73.5 30.5t30.5 73.5z" />
    <glyph glyph-name="trademark" unicode="&#x2122;" horiz-adv-x="294" 
d="M274 436l-39 -10q1 43 -1 148q-8 -28 -29 -76l-26 66q4 -64 5 -127l-42 -11q2 147 -3 257l37 8q13 -51 28 -94l24 83l46 10v-82v-100v-72zM128 688q0 -22 -1 -46q-15 0 -32 -3q4 -136 5 -207l-39 -6q0 32 -1.5 106.5t-1.5 101.5q-24 -4 -35 -7q-3 24 -3 47q73 12 108 14z
" />
    <glyph glyph-name="guilsinglright" unicode="&#x203a;" 
d="M332 401q0 -61 -43.5 -104.5t-105.5 -43.5q-61 0 -104.5 43.5t-43.5 104.5t43.5 104.5t104.5 43.5q62 0 105.5 -43.5t43.5 -104.5zM287 401q0 43 -30.5 73.5t-73.5 30.5t-73.5 -30.5t-30.5 -73.5t30.5 -73.5t73.5 -30.5t73.5 30.5t30.5 73.5z" />
    <glyph glyph-name="oe" unicode="&#x153;" horiz-adv-x="506" 
d="M495 551q-80 -8 -148 -18q0 -116 1 -184q50 9 96 15q2 -47 3 -100q-46 -11 -97 -20q1 -74 5 -143q64 6 130 11l5 -111q-240 -28 -289 -28q-63 -1 -115.5 66.5t-65.5 206.5q-16 185 29.5 297.5t136.5 122.5q63 6 171 14l134 10q4 -69 4 -139zM235 275q2 90 -14.5 152.5
t-42.5 59.5q-19 -2 -35.5 -66.5t-13.5 -140.5q3 -80 19 -136t39 -57q13 -1 24 24t17.5 68t6.5 96z" />
    <glyph glyph-name="Ydieresis" unicode="&#x178;" horiz-adv-x="402" 
d="M311 807q4 -25 -5.5 -43.5t-29.5 -24.5q-22 -7 -40 4.5t-24 35.5q-5 24 5 42.5t31 24.5q20 6 39.5 -5.5t23.5 -33.5zM164 789q-1 -24 -16 -39t-37 -15q-22 1 -37 17.5t-13 39.5q3 25 17.5 39.5t36.5 15.5q23 0 36.5 -16.5t12.5 -41.5zM398 707q-61 -122 -163 -363
q-2 -161 2 -363l-120 -19q10 254 4 367l-59 170.5t-44 118.5l-14 37l117 46l62 -220q28 71 73 202q26 6 61.5 12t58.5 9z" />
    <glyph glyph-name="nbspace" unicode="&#xa0;" horiz-adv-x="200" 
 />
    <glyph glyph-name="exclamdown" unicode="&#xa1;" horiz-adv-x="182" 
d="M153 668q14 -23 6 -50.5t-36 -41.5q-28 -15 -55 -9.5t-41 30.5q-12 21 -4 51t33 42q26 13 54 7t43 -29zM153 12q-56 -13 -128 -22q1 102 6 267.5t6 250.5q24 3 51 8l42 8l15 4q1 -174 8 -516z" />
    <glyph glyph-name="cent" unicode="&#xa2;" horiz-adv-x="301" 
d="M281 369q-59 -2 -96 -7q0 29 -2.5 55t-10 45t-17.5 18q-15 -2 -28.5 -55t-13.5 -115q0 -42 6 -79t16 -58t21 -20q20 1 32 86q47 -8 88 -11q-7 -134 -80 -167q-1 -28 -1 -73l-86 -9q0 9 0.5 39t0.5 50q-76 50 -88 211q-9 135 18.5 218t77.5 107q1 29 1 77q40 7 87 12v-93
q77 -50 75 -231z" />
    <glyph glyph-name="sterling" unicode="&#xa3;" horiz-adv-x="345" 
d="M325 400q-67 -17 -117 -31q1 34 -4 69.5t-15 61.5t-23 25q-13 -2 -23 -30t-7 -79t23 -102q8 -22 11 -33l115 9q-2 -48 -5 -101q-25 -4 -97 -11q-2 -52 -22 -88q76 2 139 3q9 -59 14 -116q-135 -2 -282 -18q3 57 4 127q34 40 40 81l-54 -5v105l44 4q-3 10 -17 53.5
t-20.5 74.5t-8.5 63q-4 90 37.5 160.5t110.5 69.5q71 -1 115.5 -79.5t41.5 -212.5z" />
    <glyph glyph-name="currency" unicode="&#xa4;" horiz-adv-x="184" 
d="M164 743l-69 -253l-75 26q39 199 48 256q54 -15 96 -29z" />
    <glyph glyph-name="yen" unicode="&#xa5;" 
d="M332 401q0 -61 -43.5 -104.5t-105.5 -43.5q-61 0 -104.5 43.5t-43.5 104.5t43.5 104.5t104.5 43.5q62 0 105.5 -43.5t43.5 -104.5zM287 401q0 43 -30.5 73.5t-73.5 30.5t-73.5 -30.5t-30.5 -73.5t30.5 -73.5t73.5 -30.5t73.5 30.5t30.5 73.5z" />
    <glyph glyph-name="section" unicode="&#xa7;" 
d="M332 401q0 -61 -43.5 -104.5t-105.5 -43.5q-61 0 -104.5 43.5t-43.5 104.5t43.5 104.5t104.5 43.5q62 0 105.5 -43.5t43.5 -104.5zM287 401q0 43 -30.5 73.5t-73.5 30.5t-73.5 -30.5t-30.5 -73.5t30.5 -73.5t73.5 -30.5t73.5 30.5t30.5 73.5z" />
    <glyph glyph-name="dieresis" unicode="&#xa8;" horiz-adv-x="257" 
d="M248 783q5 -24 -5 -42.5t-31 -25.5q-22 -7 -39.5 5t-23.5 36t4 42.5t31 24.5t40.5 -5.5t23.5 -34.5zM111 757q-1 -25 -16 -39.5t-38 -14.5q-21 0 -36.5 16.5t-12.5 39.5q2 25 17 40t37 15t36 -16t13 -41z" />
    <glyph glyph-name="copyright" unicode="&#xa9;" horiz-adv-x="268" 
d="M248 559q-3 -66 -32 -107t-75 -44q-40 -3 -74.5 29.5t-43.5 93.5q-12 85 22.5 140t86.5 54q54 0 86 -47.5t30 -118.5zM214 556q1 57 -24.5 94.5t-59.5 34.5q-33 -3 -54 -41.5t-18 -90.5q2 -50 27.5 -84t55.5 -32t51 35t22 84zM177 521q-1 -28 -11.5 -44.5t-25.5 -16.5
q-16 0 -30.5 19t-17.5 58q-5 55 7.5 86.5t35.5 33.5q18 1 30 -25.5t12 -64.5q-20 0 -31 -2q0 7 -1 13.5l-2 12.5t-3.5 9t-4.5 3q-5 -1 -9 -18t-4 -38q1 -21 5.5 -36.5t10.5 -14.5q6 0 10 28q16 -1 29 -3z" />
    <glyph glyph-name="ordfeminine" unicode="&#xaa;" 
d="M332 401q0 -61 -43.5 -104.5t-105.5 -43.5q-61 0 -104.5 43.5t-43.5 104.5t43.5 104.5t104.5 43.5q62 0 105.5 -43.5t43.5 -104.5zM287 401q0 43 -30.5 73.5t-73.5 30.5t-73.5 -30.5t-30.5 -73.5t30.5 -73.5t73.5 -30.5t73.5 30.5t30.5 73.5z" />
    <glyph glyph-name="guillemotleft" unicode="&#xab;" 
d="M332 401q0 -61 -43.5 -104.5t-105.5 -43.5q-61 0 -104.5 43.5t-43.5 104.5t43.5 104.5t104.5 43.5q62 0 105.5 -43.5t43.5 -104.5zM287 401q0 43 -30.5 73.5t-73.5 30.5t-73.5 -30.5t-30.5 -73.5t30.5 -73.5t73.5 -30.5t73.5 30.5t30.5 73.5z" />
    <glyph glyph-name="logicalnot" unicode="&#xac;" 
d="M332 401q0 -61 -43.5 -104.5t-105.5 -43.5q-61 0 -104.5 43.5t-43.5 104.5t43.5 104.5t104.5 43.5q62 0 105.5 -43.5t43.5 -104.5zM287 401q0 43 -30.5 73.5t-73.5 30.5t-73.5 -30.5t-30.5 -73.5t30.5 -73.5t73.5 -30.5t73.5 30.5t30.5 73.5z" />
    <glyph glyph-name="registered" unicode="&#xae;" horiz-adv-x="268" 
d="M247 555q-5 -66 -35 -106.5t-76 -40.5q-41 -1 -74.5 32.5t-39.5 95.5q-9 85 27 137t88 52q53 0 84 -49.5t26 -120.5zM214 554q4 56 -20 94t-58 37q-35 -1 -57.5 -38.5t-21.5 -91.5q1 -49 24.5 -83.5t55.5 -33.5q31 1 52.5 32.5t24.5 83.5zM188 486q-15 -9 -28 -18
q-18 62 -21 71l-3 -2q2 -54 3 -71q-14 -3 -31 -6q0 55 -2 149l-9 -3l-6 40q42 18 66.5 7.5t26.5 -41.5q3 -30 -22 -57q16 -44 26 -69zM150 602q-1 17 -17 15q0 -5 0.5 -20t0.5 -25q19 12 16 30z" />
    <glyph glyph-name="macron" unicode="&#xaf;" 
d="M332 401q0 -61 -43.5 -104.5t-105.5 -43.5q-61 0 -104.5 43.5t-43.5 104.5t43.5 104.5t104.5 43.5q62 0 105.5 -43.5t43.5 -104.5zM287 401q0 43 -30.5 73.5t-73.5 30.5t-73.5 -30.5t-30.5 -73.5t30.5 -73.5t73.5 -30.5t73.5 30.5t30.5 73.5z" />
    <glyph glyph-name="degree" unicode="&#xb0;" horiz-adv-x="388" 
d="M232 530q-2 -54 -27 -88.5t-64 -37.5q-33 -2 -62.5 25t-36.5 78q-10 71 19 117t73 46q45 -1 72.5 -41t25.5 -99zM178 527q1 34 -13 56.5t-32 20.5q-17 -2 -28 -25t-10 -54q1 -30 14.5 -50.5t29.5 -19.5q16 2 27 22t12 50z" />
    <glyph glyph-name="plusminus" unicode="&#xb1;" 
d="M332 401q0 -61 -43.5 -104.5t-105.5 -43.5q-61 0 -104.5 43.5t-43.5 104.5t43.5 104.5t104.5 43.5q62 0 105.5 -43.5t43.5 -104.5zM287 401q0 43 -30.5 73.5t-73.5 30.5t-73.5 -30.5t-30.5 -73.5t30.5 -73.5t73.5 -30.5t73.5 30.5t30.5 73.5z" />
    <glyph glyph-name="acute" unicode="&#xb4;" horiz-adv-x="269" 
d="M262 757q-46 -16 -105.5 -34t-83.5 -26q-31 15 -66 38l89 44.5t84 41.5q43 -36 82 -64z" />
    <glyph glyph-name="mu" unicode="&#xb5;" 
d="M332 401q0 -61 -43.5 -104.5t-105.5 -43.5q-61 0 -104.5 43.5t-43.5 104.5t43.5 104.5t104.5 43.5q62 0 105.5 -43.5t43.5 -104.5zM287 401q0 43 -30.5 73.5t-73.5 30.5t-73.5 -30.5t-30.5 -73.5t30.5 -73.5t73.5 -30.5t73.5 30.5t30.5 73.5z" />
    <glyph glyph-name="paragraph" unicode="&#xb6;" 
d="M332 401q0 -61 -43.5 -104.5t-105.5 -43.5q-61 0 -104.5 43.5t-43.5 104.5t43.5 104.5t104.5 43.5q62 0 105.5 -43.5t43.5 -104.5zM287 401q0 43 -30.5 73.5t-73.5 30.5t-73.5 -30.5t-30.5 -73.5t30.5 -73.5t73.5 -30.5t73.5 30.5t30.5 73.5z" />
    <glyph glyph-name="periodcentered" unicode="&#xb7;" 
d="M332 401q0 -61 -43.5 -104.5t-105.5 -43.5q-61 0 -104.5 43.5t-43.5 104.5t43.5 104.5t104.5 43.5q62 0 105.5 -43.5t43.5 -104.5zM287 401q0 43 -30.5 73.5t-73.5 30.5t-73.5 -30.5t-30.5 -73.5t30.5 -73.5t73.5 -30.5t73.5 30.5t30.5 73.5z" />
    <glyph glyph-name="cedilla" unicode="&#xb8;" 
d="M332 401q0 -61 -43.5 -104.5t-105.5 -43.5q-61 0 -104.5 43.5t-43.5 104.5t43.5 104.5t104.5 43.5q62 0 105.5 -43.5t43.5 -104.5zM287 401q0 43 -30.5 73.5t-73.5 30.5t-73.5 -30.5t-30.5 -73.5t30.5 -73.5t73.5 -30.5t73.5 30.5t30.5 73.5z" />
    <glyph glyph-name="ordmasculine" unicode="&#xba;" 
d="M332 401q0 -61 -43.5 -104.5t-105.5 -43.5q-61 0 -104.5 43.5t-43.5 104.5t43.5 104.5t104.5 43.5q62 0 105.5 -43.5t43.5 -104.5zM287 401q0 43 -30.5 73.5t-73.5 30.5t-73.5 -30.5t-30.5 -73.5t30.5 -73.5t73.5 -30.5t73.5 30.5t30.5 73.5z" />
    <glyph glyph-name="guillemotright" unicode="&#xbb;" 
d="M332 401q0 -61 -43.5 -104.5t-105.5 -43.5q-61 0 -104.5 43.5t-43.5 104.5t43.5 104.5t104.5 43.5q62 0 105.5 -43.5t43.5 -104.5zM287 401q0 43 -30.5 73.5t-73.5 30.5t-73.5 -30.5t-30.5 -73.5t30.5 -73.5t73.5 -30.5t73.5 30.5t30.5 73.5z" />
    <glyph glyph-name="questiondown" unicode="&#xbf;" horiz-adv-x="337" 
d="M240 635q-4 -31 -24.5 -49.5t-51.5 -19.5q-32 0 -51 20.5t-17 51.5t22.5 49.5t51.5 18.5t52.5 -21t17.5 -50zM316 297q8 -121 -36.5 -213.5t-115.5 -93.5q-60 -1 -102 61.5t-42 146.5q0 50 11.5 90t27 65l30 48.5t21.5 54t0 69.5q24 4 55 6.5t50 2.5h19q6 -54 -7 -96.5
t-33 -66t-39 -59t-22 -74.5q-2 -24 3 -43t12 -28t14 -8q19 2 31 50.5t10 97.5q18 -3 46 -5.5t47 -3.5z" />
    <glyph glyph-name="Agrave" unicode="&#xc0;" horiz-adv-x="361" 
d="M266 758q-14 -12 -29 -23.5t-23 -16.5l-9 -6q-20 4 -92 17.5t-121 24.5q16 14 35 32.5t29 29.5l11 11q33 -10 98.5 -34t100.5 -35zM352 -4q-61 -8 -113 -19q-20 118 -29 165q-18 -3 -44.5 -8.5t-32.5 -6.5q-15 -129 -18 -149q-53 -8 -107 -18q59 525 74 707q64 15 124 23
q72 -295 146 -694zM195 231q-21 125 -27 164q-12 -69 -24 -174q9 2 51 10z" />
    <glyph glyph-name="Aacute" unicode="&#xc1;" horiz-adv-x="362" 
d="M319 764q-46 -16 -114.5 -37.5t-91.5 -29.5q-32 15 -66 38l94.5 46.5l94.5 46.5q43 -36 83 -64zM353 -4q-61 -8 -113 -19q-20 118 -29 165l-42 -8t-36 -7q-10 -94 -17 -149q-53 -8 -107 -18q59 525 74 707q63 15 124 23q76 -316 146 -694zM196 231l-15.5 91t-12.5 73
q-12 -78 -23 -174q8 2 51 10z" />
    <glyph glyph-name="Acircumflex" unicode="&#xc2;" horiz-adv-x="359" 
d="M298 736l-47 -44l-102 49q-17 -9 -33 -19l-33 -21l-25 -16q-20 15 -55 38q26 18 72.5 53.5l70.5 52.5l66 -41zM350 -4q-60 -8 -112 -19q-20 118 -29 165l-42 -8t-36 -7l-17 -149q-54 -8 -107 -18q54 481 74 707q63 15 124 23q80 -332 145 -694zM194 231l-15.5 91
t-12.5 73q-12 -78 -23 -174q8 2 51 10z" />
    <glyph glyph-name="Atilde" unicode="&#xc3;" horiz-adv-x="363" 
d="M289 743q-44 -28 -120 -19q-82 9 -118 -36l-46 66q50 57 139 46q72 -9 109 15q18 -29 36 -72zM354 -4q-60 -8 -112 -19q-20 118 -29 165l-42 -8t-36 -7l-17 -149q-54 -8 -107 -18q54 481 74 707q63 15 124 23q80 -332 145 -694zM198 231l-15.5 91t-12.5 73
q-8 -52 -24 -174q12 2 52 10z" />
    <glyph glyph-name="Adieresis" unicode="&#xc4;" horiz-adv-x="362" 
d="M289 779q5 -24 -5 -42.5t-31 -25.5t-39 5t-24 36q-5 24 5 42.5t31 24.5q20 6 39.5 -5.5t23.5 -34.5zM142 759q-1 -24 -16 -39t-37 -15q-21 0 -36.5 16.5t-13.5 39.5q2 25 17 40t37 15q23 0 36.5 -16t12.5 -41zM353 -4q-61 -8 -113 -19q-20 118 -29 165l-42 -8t-36 -7
q-10 -94 -17 -149q-53 -8 -107 -18q59 525 74 707q63 15 124 23q76 -316 146 -694zM196 231l-15.5 91t-12.5 73q-12 -78 -23 -174q8 2 51 10z" />
    <glyph glyph-name="Aring" unicode="&#xc5;" horiz-adv-x="362" 
d="M198 781q0 -25 -17.5 -39t-40.5 -15q-24 0 -42.5 15t-19.5 41t18.5 41.5t40.5 14.5q26 0 43.5 -16t17.5 -42zM165 780q0 12 -8.5 20t-19.5 8q-11 -1 -18.5 -9.5t-6.5 -19.5q1 -10 9 -17t19 -7q10 0 17 7.5t8 17.5zM353 -4q-61 -8 -113 -19q-20 118 -29 165
q-7 -1 -34.5 -6.5l-43.5 -8.5q-10 -94 -17 -149q-53 -8 -107 -18q59 525 74 707q63 15 124 23q76 -316 146 -694zM196 231l-15.5 91t-12.5 73q-12 -78 -23 -174z" />
    <glyph glyph-name="AE" unicode="&#xc6;" horiz-adv-x="502" 
d="M491 557q-68 -7 -182 -22q5 -47 11.5 -130.5t9.5 -111.5q16 2 111 15l5 -112l-107 -16l7 -87l134 11l6 -111q-191 -22 -242 -25q-4 65 -16 197l-80 -10q-21 -121 -31 -172q-54 -1 -108 -4l54.5 329l58.5 355q181 21 365 33q4 -69 4 -139zM220 277q-8 90 -15 199
q-5 -31 -36 -206z" />
    <glyph glyph-name="Ccedilla" unicode="&#xc7;" horiz-adv-x="346" 
d="M330 200q-4 -102 -40.5 -162.5t-88.5 -68.5l-1 -17q18 1 32 -10t13 -31q-3 -30 -39.5 -39t-64.5 7l11 27q15 -6 26.5 -4t11.5 11t-13.5 11.5t-32.5 -5.5l2 60q-46 22 -81 92t-45 187q-17 205 29 322t124 118q71 1 110.5 -89.5t41.5 -233.5q-72 -4 -112 -11
q-2 58 -12.5 102.5t-28.5 42.5q-19 -2 -34 -68.5t-13 -143.5q1 -52 9.5 -97.5t21.5 -71.5t27 -25q25 4 37 108q60 -3 110 -11z" />
    <glyph glyph-name="Egrave" unicode="&#xc8;" horiz-adv-x="300" 
d="M296 754q-14 -12 -29 -23.5t-23 -16.5l-9 -6l-96.5 18.5t-116.5 23.5l75 74q34 -11 100 -35t99 -35zM289 548q-80 -9 -148 -19q0 -116 1 -183q50 9 96 15q2 -47 3 -101q-46 -10 -97 -19q2 -87 6 -143q63 5 129 11l5 -111q-167 -20 -244 -24q-4 101 -11 353.5t-10 333.5
q213 22 266 26q4 -69 4 -139z" />
    <glyph glyph-name="Eacute" unicode="&#xc9;" horiz-adv-x="300" 
d="M262 757q-46 -16 -105.5 -34t-83.5 -26q-31 15 -66 38l89 44.5t84 41.5q43 -36 82 -64zM289 548q-80 -9 -148 -19q0 -116 1 -183q48 9 96 15q2 -47 3 -101q-40 -9 -97 -19q2 -87 6 -143q63 5 129 11l5 -111q-167 -20 -244 -24q-4 101 -11 353.5t-10 333.5q213 22 266 26
q4 -69 4 -139z" />
    <glyph glyph-name="Ecircumflex" unicode="&#xca;" horiz-adv-x="300" 
d="M293 755l-44 -47q-11 5 -105 43q-21 -14 -49.5 -35t-37.5 -27l-57 35q24 19 68 57.5t68 56.5q149 -79 157 -83zM289 548q-80 -9 -148 -19q0 -116 1 -183q48 9 96 15q2 -47 3 -101q-40 -9 -97 -19q2 -87 6 -143q63 5 129 11l5 -111q-167 -20 -244 -24q-4 101 -11 353.5
t-10 333.5q213 22 266 26q4 -69 4 -139z" />
    <glyph glyph-name="Edieresis" unicode="&#xcb;" horiz-adv-x="300" 
d="M270 775q4 -24 -6 -42.5t-30 -25.5q-22 -7 -40 5t-24 36q-5 24 5 42.5t31 24.5t40.5 -5.5t23.5 -34.5zM124 746q-1 -24 -16 -39t-37 -15q-21 0 -36.5 16.5t-13.5 39.5q2 25 17 40t37 15q23 0 36.5 -16t12.5 -41zM289 548q-80 -9 -148 -19q0 -116 1 -183q48 9 96 15
q2 -47 3 -101q-40 -9 -97 -19q2 -87 6 -143q63 5 129 11l5 -111q-167 -20 -244 -24q-4 101 -11 353.5t-10 333.5q213 22 266 26q4 -69 4 -139z" />
    <glyph glyph-name="Igrave" unicode="&#xcc;" horiz-adv-x="160" 
d="M190 751q-14 -12 -29 -23.5t-23 -16.5l-9 -5q-12 2 -87 16t-126 25l76 74l96.5 -34.5zM139 4l-109 -14l-4 315t-5 358q51 9 111 18q3 -120 4.5 -368t2.5 -309z" />
    <glyph glyph-name="Iacute" unicode="&#xcd;" horiz-adv-x="160" 
d="M274 757q-46 -16 -105.5 -34t-82.5 -26q-32 15 -66 38l87 44t85 42q43 -36 82 -64zM139 4l-109 -14l-4 315t-5 358q51 9 111 18q3 -120 4.5 -368t2.5 -309z" />
    <glyph glyph-name="Icircumflex" unicode="&#xce;" horiz-adv-x="160" 
d="M224 736l-47 -44l-102 49q-18 -10 -90 -56q-21 15 -56 38q29 20 75.5 55.5l67.5 50.5l66 -41zM139 4l-109 -14l-4 315t-5 358q51 9 111 18q3 -120 4.5 -368t2.5 -309z" />
    <glyph glyph-name="Idieresis" unicode="&#xcf;" horiz-adv-x="160" 
d="M180 783q4 -24 -6 -42.5t-30 -25.5q-22 -7 -40 5t-24 36q-5 24 5 42.5t31 24.5t40.5 -5.5t23.5 -34.5zM42 757q-1 -24 -16 -39t-37 -15q-21 0 -36.5 16.5t-13.5 39.5q3 25 18 40t36 15q23 0 37 -16t12 -41zM139 4l-109 -14l-4 315t-5 358q51 9 111 18q3 -120 4.5 -368
t2.5 -309z" />
    <glyph glyph-name="Ntilde" unicode="&#xd1;" horiz-adv-x="371" 
d="M311 740q-46 -24 -121 -8q-81 15 -121 -26l-40 71q57 52 143 33q71 -16 110 5q16 -30 29 -75zM350 694q-1 -51 -3.5 -314t-7.5 -393l-108 -18q-57 235 -93 345q0 -185 -4 -333q-21 -6 -48.5 -12t-44.5 -9l-17 -2q3 156 3 228.5t-2.5 233.5t-2.5 241q24 6 53.5 11.5
t46.5 7.5l18 3q32 -167 99 -361q-3 57 -10.5 172t-10.5 172q17 2 132 28z" />
    <glyph glyph-name="Ograve" unicode="&#xd2;" horiz-adv-x="358" 
d="M305 760q-14 -12 -29 -23.5t-24 -16.5l-8 -6l-92.5 17.5t-120.5 24.5q16 14 35 32.5l30 29.5l10 11q33 -10 98.5 -34t100.5 -35zM342 325q-1 -145 -43.5 -239.5t-108.5 -101.5q-59 -7 -108 64t-62 216q-17 193 29.5 311.5t127.5 116.5q78 -2 122.5 -105t42.5 -262z
M236 298q1 91 -16.5 163.5t-39.5 68.5q-19 -2 -35 -75t-16 -152q0 -77 18.5 -139.5t39.5 -58.5q20 3 34 55.5t15 137.5z" />
    <glyph glyph-name="Oacute" unicode="&#xd3;" horiz-adv-x="358" 
d="M329 766q-48 -15 -118.5 -35t-89.5 -26q-31 16 -65 40l94.5 43t97.5 44q42 -37 81 -66zM342 325q-1 -145 -43.5 -239.5t-108.5 -101.5q-59 -7 -108 64t-62 216q-17 193 29.5 311.5t127.5 116.5q78 -2 122.5 -105t42.5 -262zM236 298q1 91 -16.5 163.5t-39.5 68.5
q-19 -2 -35 -75t-16 -152q0 -77 18.5 -139.5t39.5 -58.5q20 3 34 55.5t15 137.5z" />
    <glyph glyph-name="Ocircumflex" unicode="&#xd4;" horiz-adv-x="358" 
d="M322 737l-47 -44l-51.5 25t-51.5 24q-23 -13 -55.5 -34t-34.5 -22l-55 38q26 18 72.5 53.5l70.5 52.5l66 -41zM342 325q-1 -145 -43.5 -239.5t-108.5 -101.5q-59 -7 -108 64t-62 216q-17 193 29.5 311.5t127.5 116.5q78 -2 122.5 -105t42.5 -262zM236 298
q1 91 -16.5 163.5t-39.5 68.5q-19 -2 -35 -75t-16 -152q0 -77 18.5 -139.5t39.5 -58.5q20 3 34 55.5t15 137.5z" />
    <glyph glyph-name="Otilde" unicode="&#xd5;" horiz-adv-x="358" 
d="M307 745q-43 -28 -121 -19q-81 9 -117 -36q-14 17 -25.5 33.5t-15.5 24.5l-5 8q49 57 139 46q72 -9 109 15q18 -29 36 -72zM342 325q-1 -145 -43.5 -239.5t-108.5 -101.5q-59 -7 -108 64t-62 216q-17 193 29.5 311.5t127.5 116.5q78 -2 122.5 -105t42.5 -262zM236 294
q1 89 -16 149t-40 56q-19 -2 -35 -62.5t-16 -137.5t18.5 -139.5t39.5 -58.5q20 3 34 55.5t15 137.5z" />
    <glyph glyph-name="Odieresis" unicode="&#xd6;" horiz-adv-x="358" 
d="M295 783q4 -24 -6 -42.5t-30 -25.5q-22 -7 -40 5t-23 36q-6 24 4 42.5t31 24.5t40.5 -5.5t23.5 -34.5zM147 757q-1 -24 -16 -39t-37 -15q-21 0 -36.5 16.5t-13.5 39.5q3 25 17.5 40t36.5 15q23 0 36.5 -16t12.5 -41zM342 325q-1 -145 -43.5 -239.5t-108.5 -101.5
q-59 -7 -108 64t-62 216q-17 193 29.5 311.5t127.5 116.5q78 -2 122.5 -105t42.5 -262zM236 298q1 91 -16.5 163.5t-39.5 68.5q-19 -2 -35 -75t-16 -152q0 -77 18.5 -139.5t39.5 -58.5q20 3 34 55.5t15 137.5z" />
    <glyph glyph-name="Oslash" unicode="&#xd8;" horiz-adv-x="358" 
d="M342 328q-1 -145 -43.5 -239t-108.5 -102q-25 -3 -50 10l-14 -53q-56 17 -102 35q17 70 32 126q-26 63 -36 162q-17 193 29.5 311.5t127.5 116.5q11 0 22 -3q2 11 7 33t7 32q71 -9 124 -24q-11 -37 -39 -139q47 -103 44 -266zM236 297q1 89 -16 149t-40 56
q-19 -2 -35 -62.5t-16 -137.5q0 -76 18.5 -138.5t39.5 -59.5q20 3 34 55.5t15 137.5z" />
    <glyph glyph-name="Ugrave" unicode="&#xd9;" horiz-adv-x="377" 
d="M293 747q-14 -12 -29 -23.5t-24 -17.5l-8 -5l-96.5 18.5t-116.5 23.5l75 74q34 -11 100 -35t99 -35zM307 698q37 -139 46.5 -272.5t-7.5 -232t-58 -160t-99 -64.5q-69 -4 -110 56t-53 167.5t-8 225.5t22 257q66 1 117 -3q-27 -198 -19 -378t47 -185q26 -4 41.5 79.5
t7.5 217.5t-42 252q62 19 115 40z" />
    <glyph glyph-name="Uacute" unicode="&#xda;" horiz-adv-x="374" 
d="M329 766q-46 -16 -114.5 -37.5t-91.5 -29.5q-32 15 -66 38l94.5 46.5l94.5 46.5q43 -36 83 -64zM307 698q37 -139 46.5 -272.5t-7.5 -232t-58 -160t-99 -64.5q-69 -4 -110 56t-53 167.5t-8 225.5t22 257q66 1 117 -3q-27 -198 -19 -378t47 -185q26 -4 41.5 79.5
t7.5 217.5t-42 252q62 19 115 40z" />
    <glyph glyph-name="Ucircumflex" unicode="&#xdb;" horiz-adv-x="374" 
d="M316 751l-46 -45l-51.5 23l-51.5 23l-53 -34.5t-36 -23.5l-56 36l71 56.5t68 53.5l63 -37t92 -52zM307 698q37 -139 46.5 -272.5t-7.5 -232t-58 -160t-99 -64.5q-69 -4 -110 56t-53 167.5t-8 225.5t22 257q66 1 117 -3q-27 -198 -19 -378t47 -185q26 -4 41.5 79.5
t7.5 217.5t-42 252q62 19 115 40z" />
    <glyph glyph-name="Udieresis" unicode="&#xdc;" horiz-adv-x="374" 
d="M297 783q4 -24 -6 -42.5t-30 -25.5q-22 -7 -39.5 5t-23.5 36t4 42.5t31 24.5t40.5 -5.5t23.5 -34.5zM149 757q-1 -24 -16 -39t-37 -15q-21 0 -36.5 16.5t-13.5 39.5q3 25 17.5 40t36.5 15q23 0 37 -16t12 -41zM307 698q37 -139 46.5 -272.5t-7.5 -232t-58 -160t-99 -64.5
q-69 -4 -110 56t-53 167.5t-8 225.5t22 257q66 1 117 -3q-27 -198 -19 -378t47 -185q26 -4 41.5 79.5t7.5 217.5t-42 252q62 19 115 40z" />
    <glyph glyph-name="germandbls" unicode="&#xdf;" 
d="M332 401q0 -61 -43.5 -104.5t-105.5 -43.5q-61 0 -104.5 43.5t-43.5 104.5t43.5 104.5t104.5 43.5q62 0 105.5 -43.5t43.5 -104.5zM287 401q0 43 -30.5 73.5t-73.5 30.5t-73.5 -30.5t-30.5 -73.5t30.5 -73.5t73.5 -30.5t73.5 30.5t30.5 73.5z" />
    <glyph glyph-name="agrave" unicode="&#xe0;" horiz-adv-x="361" 
d="M266 758q-14 -12 -29 -23.5t-23 -16.5l-9 -6q-20 4 -92 17.5t-121 24.5q16 14 35 32.5t29 29.5l11 11q33 -10 98.5 -34t100.5 -35zM352 -4q-61 -8 -113 -19q-20 118 -29 165q-18 -3 -44.5 -8.5t-32.5 -6.5q-15 -129 -18 -149q-53 -8 -107 -18q59 525 74 707q64 15 124 23
q72 -295 146 -694zM195 231q-21 125 -27 164q-12 -69 -24 -174q9 2 51 10z" />
    <glyph glyph-name="aacute" unicode="&#xe1;" horiz-adv-x="362" 
d="M319 764q-46 -16 -114.5 -37.5t-91.5 -29.5q-32 15 -66 38l94.5 46.5l94.5 46.5q43 -36 83 -64zM353 -4q-61 -8 -113 -19q-20 118 -29 165l-42 -8t-36 -7q-10 -94 -17 -149q-53 -8 -107 -18q59 525 74 707q63 15 124 23q76 -316 146 -694zM196 231l-15.5 91t-12.5 73
q-12 -78 -23 -174q8 2 51 10z" />
    <glyph glyph-name="acircumflex" unicode="&#xe2;" horiz-adv-x="359" 
d="M298 736l-47 -44l-102 49q-17 -9 -33 -19l-33 -21l-25 -16q-20 15 -55 38q26 18 72.5 53.5l70.5 52.5l66 -41zM350 -4q-60 -8 -112 -19q-20 118 -29 165l-42 -8t-36 -7l-17 -149q-54 -8 -107 -18q54 481 74 707q63 15 124 23q80 -332 145 -694zM194 231l-15.5 91
t-12.5 73q-12 -78 -23 -174q8 2 51 10z" />
    <glyph glyph-name="atilde" unicode="&#xe3;" horiz-adv-x="363" 
d="M289 743q-44 -28 -120 -19q-82 9 -118 -36l-46 66q50 57 139 46q72 -9 109 15q18 -29 36 -72zM354 -4q-60 -8 -112 -19q-20 118 -29 165l-42 -8t-36 -7l-17 -149q-54 -8 -107 -18q54 481 74 707q63 15 124 23q80 -332 145 -694zM198 231l-15.5 91t-12.5 73
q-8 -52 -24 -174q12 2 52 10z" />
    <glyph glyph-name="adieresis" unicode="&#xe4;" horiz-adv-x="362" 
d="M289 779q5 -24 -5 -42.5t-31 -25.5t-39 5t-24 36q-5 24 5 42.5t31 24.5q20 6 39.5 -5.5t23.5 -34.5zM142 759q-1 -24 -16 -39t-37 -15q-21 0 -36.5 16.5t-13.5 39.5q2 25 17 40t37 15q23 0 36.5 -16t12.5 -41zM353 -4q-61 -8 -113 -19q-20 118 -29 165l-42 -8t-36 -7
q-10 -94 -17 -149q-53 -8 -107 -18q59 525 74 707q63 15 124 23q76 -316 146 -694zM196 231l-15.5 91t-12.5 73q-12 -78 -23 -174q8 2 51 10z" />
    <glyph glyph-name="aring" unicode="&#xe5;" horiz-adv-x="362" 
d="M198 781q0 -25 -17.5 -39t-40.5 -15q-24 0 -42.5 15t-19.5 41t18.5 41.5t40.5 14.5q26 0 43.5 -16t17.5 -42zM165 780q0 12 -8.5 20t-19.5 8q-11 -1 -18.5 -9.5t-6.5 -19.5q1 -10 9 -17t19 -7q10 0 17 7.5t8 17.5zM353 -4q-61 -8 -113 -19q-20 118 -29 165
q-7 -1 -34.5 -6.5l-43.5 -8.5q-10 -94 -17 -149q-53 -8 -107 -18q59 525 74 707q63 15 124 23q76 -316 146 -694zM196 231l-15.5 91t-12.5 73q-12 -78 -23 -174z" />
    <glyph glyph-name="ae" unicode="&#xe6;" horiz-adv-x="502" 
d="M491 557q-68 -7 -182 -22q5 -47 11.5 -130.5t9.5 -111.5q16 2 111 15l5 -112l-107 -16l7 -87l134 11l6 -111q-191 -22 -242 -25q-4 65 -16 197l-80 -10q-21 -121 -31 -172q-54 -1 -108 -4l54.5 329l58.5 355q181 21 365 33q4 -69 4 -139zM220 277q-8 90 -15 199
q-5 -31 -36 -206z" />
    <glyph glyph-name="ccedilla" unicode="&#xe7;" horiz-adv-x="346" 
d="M330 200q-4 -102 -40.5 -162.5t-88.5 -68.5l-1 -17q18 1 32 -10t13 -31q-3 -30 -39.5 -39t-64.5 7l11 27q15 -6 26.5 -4t11.5 11t-13.5 11.5t-32.5 -5.5l2 60q-46 22 -81 92t-45 187q-17 205 29 322t124 118q71 1 110.5 -89.5t41.5 -233.5q-72 -4 -112 -11
q-2 58 -12.5 102.5t-28.5 42.5q-19 -2 -34 -68.5t-13 -143.5q1 -52 9.5 -97.5t21.5 -71.5t27 -25q25 4 37 108q60 -3 110 -11z" />
    <glyph glyph-name="egrave" unicode="&#xe8;" horiz-adv-x="300" 
d="M296 754q-14 -12 -29 -23.5t-23 -16.5l-9 -6l-96.5 18.5t-116.5 23.5l75 74q34 -11 100 -35t99 -35zM289 548q-80 -9 -148 -19q0 -116 1 -183q50 9 96 15q2 -47 3 -101q-46 -10 -97 -19q2 -87 6 -143q63 5 129 11l5 -111q-167 -20 -244 -24q-4 101 -11 353.5t-10 333.5
q213 22 266 26q4 -69 4 -139z" />
    <glyph glyph-name="eacute" unicode="&#xe9;" horiz-adv-x="300" 
d="M262 757q-46 -16 -105.5 -34t-83.5 -26q-31 15 -66 38l89 44.5t84 41.5q43 -36 82 -64zM289 548q-80 -9 -148 -19q0 -116 1 -183q48 9 96 15q2 -47 3 -101q-40 -9 -97 -19q2 -87 6 -143q63 5 129 11l5 -111q-167 -20 -244 -24q-4 101 -11 353.5t-10 333.5q213 22 266 26
q4 -69 4 -139z" />
    <glyph glyph-name="ecircumflex" unicode="&#xea;" horiz-adv-x="300" 
d="M293 755l-44 -47q-11 5 -105 43q-21 -14 -49.5 -35t-37.5 -27l-57 35q24 19 68 57.5t68 56.5q149 -79 157 -83zM289 548q-80 -9 -148 -19q0 -116 1 -183q48 9 96 15q2 -47 3 -101q-40 -9 -97 -19q2 -87 6 -143q63 5 129 11l5 -111q-167 -20 -244 -24q-4 101 -11 353.5
t-10 333.5q213 22 266 26q4 -69 4 -139z" />
    <glyph glyph-name="edieresis" unicode="&#xeb;" horiz-adv-x="300" 
d="M270 775q4 -24 -6 -42.5t-30 -25.5q-22 -7 -40 5t-24 36q-5 24 5 42.5t31 24.5t40.5 -5.5t23.5 -34.5zM124 746q-1 -24 -16 -39t-37 -15q-21 0 -36.5 16.5t-13.5 39.5q2 25 17 40t37 15q23 0 36.5 -16t12.5 -41zM289 548q-80 -9 -148 -19q0 -116 1 -183q48 9 96 15
q2 -47 3 -101q-40 -9 -97 -19q2 -87 6 -143q63 5 129 11l5 -111q-167 -20 -244 -24q-4 101 -11 353.5t-10 333.5q213 22 266 26q4 -69 4 -139z" />
    <glyph glyph-name="igrave" unicode="&#xec;" horiz-adv-x="160" 
d="M190 751q-14 -12 -29 -23.5t-23 -16.5l-9 -5q-12 2 -87 16t-126 25l76 74l96.5 -34.5zM139 4l-109 -14l-4 315t-5 358q51 9 111 18q3 -120 4.5 -368t2.5 -309z" />
    <glyph glyph-name="iacute" unicode="&#xed;" horiz-adv-x="160" 
d="M274 757q-46 -16 -105.5 -34t-82.5 -26q-32 15 -66 38l87 44t85 42q43 -36 82 -64zM139 4l-109 -14l-4 315t-5 358q51 9 111 18q3 -120 4.5 -368t2.5 -309z" />
    <glyph glyph-name="icircumflex" unicode="&#xee;" horiz-adv-x="160" 
d="M224 736l-47 -44l-102 49q-18 -10 -90 -56q-21 15 -56 38q29 20 75.5 55.5l67.5 50.5l66 -41zM139 4l-109 -14l-4 315t-5 358q51 9 111 18q3 -120 4.5 -368t2.5 -309z" />
    <glyph glyph-name="idieresis" unicode="&#xef;" horiz-adv-x="160" 
d="M180 783q4 -24 -6 -42.5t-30 -25.5q-22 -7 -40 5t-24 36q-5 24 5 42.5t31 24.5t40.5 -5.5t23.5 -34.5zM42 757q-1 -24 -16 -39t-37 -15q-21 0 -36.5 16.5t-13.5 39.5q3 25 18 40t36 15q23 0 37 -16t12 -41zM139 4l-109 -14l-4 315t-5 358q51 9 111 18q3 -120 4.5 -368
t2.5 -309z" />
    <glyph glyph-name="ntilde" unicode="&#xf1;" horiz-adv-x="371" 
d="M311 740q-46 -24 -121 -8q-81 15 -121 -26l-40 71q57 52 143 33q71 -16 110 5q16 -30 29 -75zM350 694q-1 -51 -3.5 -314t-7.5 -393l-108 -18q-57 235 -93 345q0 -185 -4 -333q-21 -6 -48.5 -12t-44.5 -9l-17 -2q3 156 3 228.5t-2.5 233.5t-2.5 241q24 6 53.5 11.5
t46.5 7.5l18 3q32 -167 99 -361q-3 57 -10.5 172t-10.5 172q17 2 132 28z" />
    <glyph glyph-name="ograve" unicode="&#xf2;" horiz-adv-x="358" 
d="M305 760q-14 -12 -29 -23.5t-24 -16.5l-8 -6l-92.5 17.5t-120.5 24.5q16 14 35 32.5l30 29.5l10 11q33 -10 98.5 -34t100.5 -35zM342 325q-1 -145 -43.5 -239.5t-108.5 -101.5q-59 -7 -108 64t-62 216q-17 193 29.5 311.5t127.5 116.5q78 -2 122.5 -105t42.5 -262z
M236 298q1 91 -16.5 163.5t-39.5 68.5q-19 -2 -35 -75t-16 -152q0 -77 18.5 -139.5t39.5 -58.5q20 3 34 55.5t15 137.5z" />
    <glyph glyph-name="oacute" unicode="&#xf3;" horiz-adv-x="358" 
d="M329 766q-48 -15 -118.5 -35t-89.5 -26q-31 16 -65 40l94.5 43t97.5 44q42 -37 81 -66zM342 325q-1 -145 -43.5 -239.5t-108.5 -101.5q-59 -7 -108 64t-62 216q-17 193 29.5 311.5t127.5 116.5q78 -2 122.5 -105t42.5 -262zM236 298q1 91 -16.5 163.5t-39.5 68.5
q-19 -2 -35 -75t-16 -152q0 -77 18.5 -139.5t39.5 -58.5q20 3 34 55.5t15 137.5z" />
    <glyph glyph-name="ocircumflex" unicode="&#xf4;" horiz-adv-x="358" 
d="M322 737l-47 -44l-51.5 25t-51.5 24q-23 -13 -55.5 -34t-34.5 -22l-55 38q26 18 72.5 53.5l70.5 52.5l66 -41zM342 325q-1 -145 -43.5 -239.5t-108.5 -101.5q-59 -7 -108 64t-62 216q-17 193 29.5 311.5t127.5 116.5q78 -2 122.5 -105t42.5 -262zM236 298
q1 91 -16.5 163.5t-39.5 68.5q-19 -2 -35 -75t-16 -152q0 -77 18.5 -139.5t39.5 -58.5q20 3 34 55.5t15 137.5z" />
    <glyph glyph-name="otilde" unicode="&#xf5;" horiz-adv-x="358" 
d="M307 745q-43 -28 -121 -19q-81 9 -117 -36q-14 17 -25.5 33.5t-15.5 24.5l-5 8q49 57 139 46q72 -9 109 15q18 -29 36 -72zM342 325q-1 -145 -43.5 -239.5t-108.5 -101.5q-59 -7 -108 64t-62 216q-17 193 29.5 311.5t127.5 116.5q78 -2 122.5 -105t42.5 -262zM236 294
q1 89 -16 149t-40 56q-19 -2 -35 -62.5t-16 -137.5t18.5 -139.5t39.5 -58.5q20 3 34 55.5t15 137.5z" />
    <glyph glyph-name="odieresis" unicode="&#xf6;" horiz-adv-x="358" 
d="M295 783q4 -24 -6 -42.5t-30 -25.5q-22 -7 -40 5t-23 36q-6 24 4 42.5t31 24.5t40.5 -5.5t23.5 -34.5zM147 757q-1 -24 -16 -39t-37 -15q-21 0 -36.5 16.5t-13.5 39.5q3 25 17.5 40t36.5 15q23 0 36.5 -16t12.5 -41zM342 325q-1 -145 -43.5 -239.5t-108.5 -101.5
q-59 -7 -108 64t-62 216q-17 193 29.5 311.5t127.5 116.5q78 -2 122.5 -105t42.5 -262zM236 298q1 91 -16.5 163.5t-39.5 68.5q-19 -2 -35 -75t-16 -152q0 -77 18.5 -139.5t39.5 -58.5q20 3 34 55.5t15 137.5z" />
    <glyph glyph-name="divide" unicode="&#xf7;" horiz-adv-x="306" 
d="M286 512l-75 -22q-8 37 -30 128t-32 137q20 7 44.5 14l38.5 11l15 3q5 -33 19 -132.5t20 -138.5zM169 496l-73 -26q-31 98 -76 256l93 33q32 -164 56 -263z" />
    <glyph glyph-name="oslash" unicode="&#xf8;" horiz-adv-x="358" 
d="M342 328q-1 -145 -43.5 -239t-108.5 -102q-25 -3 -50 10l-14 -53q-56 17 -102 35q17 70 32 126q-26 63 -36 162q-17 193 29.5 311.5t127.5 116.5q11 0 22 -3q2 11 7 33t7 32q71 -9 124 -24q-11 -37 -39 -139q47 -103 44 -266zM236 297q1 89 -16 149t-40 56
q-19 -2 -35 -62.5t-16 -137.5q0 -76 18.5 -138.5t39.5 -59.5q20 3 34 55.5t15 137.5z" />
    <glyph glyph-name="ugrave" unicode="&#xf9;" horiz-adv-x="377" 
d="M293 747q-14 -12 -29 -23.5t-24 -17.5l-8 -5l-96.5 18.5t-116.5 23.5l75 74q34 -11 100 -35t99 -35zM307 698q37 -139 46.5 -272.5t-7.5 -232t-58 -160t-99 -64.5q-69 -4 -110 56t-53 167.5t-8 225.5t22 257q66 1 117 -3q-27 -198 -19 -378t47 -185q26 -4 41.5 79.5
t7.5 217.5t-42 252q62 19 115 40z" />
    <glyph glyph-name="uacute" unicode="&#xfa;" horiz-adv-x="374" 
d="M329 766q-46 -16 -114.5 -37.5t-91.5 -29.5q-32 15 -66 38l94.5 46.5l94.5 46.5q43 -36 83 -64zM307 698q37 -139 46.5 -272.5t-7.5 -232t-58 -160t-99 -64.5q-69 -4 -110 56t-53 167.5t-8 225.5t22 257q66 1 117 -3q-27 -198 -19 -378t47 -185q26 -4 41.5 79.5
t7.5 217.5t-42 252q62 19 115 40z" />
    <glyph glyph-name="ucircumflex" unicode="&#xfb;" horiz-adv-x="374" 
d="M316 751l-46 -45l-51.5 23l-51.5 23l-53 -34.5t-36 -23.5l-56 36l71 56.5t68 53.5l63 -37t92 -52zM307 698q37 -139 46.5 -272.5t-7.5 -232t-58 -160t-99 -64.5q-69 -4 -110 56t-53 167.5t-8 225.5t22 257q66 1 117 -3q-27 -198 -19 -378t47 -185q26 -4 41.5 79.5
t7.5 217.5t-42 252q62 19 115 40z" />
    <glyph glyph-name="udieresis" unicode="&#xfc;" horiz-adv-x="374" 
d="M297 783q4 -24 -6 -42.5t-30 -25.5q-22 -7 -39.5 5t-23.5 36t4 42.5t31 24.5t40.5 -5.5t23.5 -34.5zM149 757q-1 -24 -16 -39t-37 -15q-21 0 -36.5 16.5t-13.5 39.5q3 25 17.5 40t36.5 15q23 0 37 -16t12 -41zM307 698q37 -139 46.5 -272.5t-7.5 -232t-58 -160t-99 -64.5
q-69 -4 -110 56t-53 167.5t-8 225.5t22 257q66 1 117 -3q-27 -198 -19 -378t47 -185q26 -4 41.5 79.5t7.5 217.5t-42 252q62 19 115 40z" />
    <glyph glyph-name="ydieresis" unicode="&#xff;" horiz-adv-x="402" 
d="M311 807q4 -25 -5.5 -43.5t-29.5 -24.5q-22 -7 -40 4.5t-24 35.5q-5 24 5 42.5t31 24.5q20 6 39.5 -5.5t23.5 -33.5zM164 789q-1 -24 -16 -39t-37 -15q-22 1 -37 17.5t-13 39.5q3 25 17.5 39.5t36.5 15.5q23 0 36.5 -16.5t12.5 -41.5zM398 707q-61 -122 -163 -363
q-2 -161 2 -363l-120 -19q10 254 4 367l-59 170.5t-44 118.5l-14 37l117 46l62 -220q28 71 73 202q26 6 61.5 12t58.5 9z" />
    <glyph glyph-name="notequal" unicode="&#x2260;" 
d="M332 401q0 -61 -43.5 -104.5t-105.5 -43.5q-61 0 -104.5 43.5t-43.5 104.5t43.5 104.5t104.5 43.5q62 0 105.5 -43.5t43.5 -104.5zM287 401q0 43 -30.5 73.5t-73.5 30.5t-73.5 -30.5t-30.5 -73.5t30.5 -73.5t73.5 -30.5t73.5 30.5t30.5 73.5z" />
    <glyph glyph-name="infinity" unicode="&#x221e;" 
d="M332 401q0 -61 -43.5 -104.5t-105.5 -43.5q-61 0 -104.5 43.5t-43.5 104.5t43.5 104.5t104.5 43.5q62 0 105.5 -43.5t43.5 -104.5zM287 401q0 43 -30.5 73.5t-73.5 30.5t-73.5 -30.5t-30.5 -73.5t30.5 -73.5t73.5 -30.5t73.5 30.5t30.5 73.5z" />
    <glyph glyph-name="lessequal" unicode="&#x2264;" 
d="M332 401q0 -61 -43.5 -104.5t-105.5 -43.5q-61 0 -104.5 43.5t-43.5 104.5t43.5 104.5t104.5 43.5q62 0 105.5 -43.5t43.5 -104.5zM287 401q0 43 -30.5 73.5t-73.5 30.5t-73.5 -30.5t-30.5 -73.5t30.5 -73.5t73.5 -30.5t73.5 30.5t30.5 73.5z" />
    <glyph glyph-name="greaterequal" unicode="&#x2265;" 
d="M332 401q0 -61 -43.5 -104.5t-105.5 -43.5q-61 0 -104.5 43.5t-43.5 104.5t43.5 104.5t104.5 43.5q62 0 105.5 -43.5t43.5 -104.5zM287 401q0 43 -30.5 73.5t-73.5 30.5t-73.5 -30.5t-30.5 -73.5t30.5 -73.5t73.5 -30.5t73.5 30.5t30.5 73.5z" />
    <glyph glyph-name="partialdiff" unicode="&#x2202;" 
d="M332 401q0 -61 -43.5 -104.5t-105.5 -43.5q-61 0 -104.5 43.5t-43.5 104.5t43.5 104.5t104.5 43.5q62 0 105.5 -43.5t43.5 -104.5zM287 401q0 43 -30.5 73.5t-73.5 30.5t-73.5 -30.5t-30.5 -73.5t30.5 -73.5t73.5 -30.5t73.5 30.5t30.5 73.5z" />
    <glyph glyph-name="summation" unicode="&#x2211;" 
d="M332 401q0 -61 -43.5 -104.5t-105.5 -43.5q-61 0 -104.5 43.5t-43.5 104.5t43.5 104.5t104.5 43.5q62 0 105.5 -43.5t43.5 -104.5zM287 401q0 43 -30.5 73.5t-73.5 30.5t-73.5 -30.5t-30.5 -73.5t30.5 -73.5t73.5 -30.5t73.5 30.5t30.5 73.5z" />
    <glyph glyph-name="product" unicode="&#x220f;" 
d="M332 401q0 -61 -43.5 -104.5t-105.5 -43.5q-61 0 -104.5 43.5t-43.5 104.5t43.5 104.5t104.5 43.5q62 0 105.5 -43.5t43.5 -104.5zM287 401q0 43 -30.5 73.5t-73.5 30.5t-73.5 -30.5t-30.5 -73.5t30.5 -73.5t73.5 -30.5t73.5 30.5t30.5 73.5z" />
    <glyph glyph-name="pi" unicode="&#x3c0;" 
d="M332 401q0 -61 -43.5 -104.5t-105.5 -43.5q-61 0 -104.5 43.5t-43.5 104.5t43.5 104.5t104.5 43.5q62 0 105.5 -43.5t43.5 -104.5zM287 401q0 43 -30.5 73.5t-73.5 30.5t-73.5 -30.5t-30.5 -73.5t30.5 -73.5t73.5 -30.5t73.5 30.5t30.5 73.5z" />
    <glyph glyph-name="integral" unicode="&#x222b;" 
d="M332 401q0 -61 -43.5 -104.5t-105.5 -43.5q-61 0 -104.5 43.5t-43.5 104.5t43.5 104.5t104.5 43.5q62 0 105.5 -43.5t43.5 -104.5zM287 401q0 43 -30.5 73.5t-73.5 30.5t-73.5 -30.5t-30.5 -73.5t30.5 -73.5t73.5 -30.5t73.5 30.5t30.5 73.5z" />
    <glyph glyph-name="Omega" unicode="&#x2126;" 
d="M332 401q0 -61 -43.5 -104.5t-105.5 -43.5q-61 0 -104.5 43.5t-43.5 104.5t43.5 104.5t104.5 43.5q62 0 105.5 -43.5t43.5 -104.5zM287 401q0 43 -30.5 73.5t-73.5 30.5t-73.5 -30.5t-30.5 -73.5t30.5 -73.5t73.5 -30.5t73.5 30.5t30.5 73.5z" />
    <glyph glyph-name="radical" unicode="&#x221a;" 
d="M332 401q0 -61 -43.5 -104.5t-105.5 -43.5q-61 0 -104.5 43.5t-43.5 104.5t43.5 104.5t104.5 43.5q62 0 105.5 -43.5t43.5 -104.5zM287 401q0 43 -30.5 73.5t-73.5 30.5t-73.5 -30.5t-30.5 -73.5t30.5 -73.5t73.5 -30.5t73.5 30.5t30.5 73.5z" />
    <glyph glyph-name="approxequal" unicode="&#x2248;" 
d="M332 401q0 -61 -43.5 -104.5t-105.5 -43.5q-61 0 -104.5 43.5t-43.5 104.5t43.5 104.5t104.5 43.5q62 0 105.5 -43.5t43.5 -104.5zM287 401q0 43 -30.5 73.5t-73.5 30.5t-73.5 -30.5t-30.5 -73.5t30.5 -73.5t73.5 -30.5t73.5 30.5t30.5 73.5z" />
    <glyph glyph-name="Delta" unicode="&#x2206;" 
d="M332 401q0 -61 -43.5 -104.5t-105.5 -43.5q-61 0 -104.5 43.5t-43.5 104.5t43.5 104.5t104.5 43.5q62 0 105.5 -43.5t43.5 -104.5zM287 401q0 43 -30.5 73.5t-73.5 30.5t-73.5 -30.5t-30.5 -73.5t30.5 -73.5t73.5 -30.5t73.5 30.5t30.5 73.5z" />
    <glyph glyph-name="lozenge" unicode="&#x25ca;" horiz-adv-x="305" 
d="M285 722q-29 -104 -76 -256q-37 12 -73 25q24 99 56 264q58 -19 93 -33zM152 749q-25 -124 -56 -255l-76 23q30 204 36 258q55 -13 96 -26z" />
    <glyph glyph-name="fraction" unicode="&#x2044;" horiz-adv-x="189" 
d="M169 516l-73 -25q-35 110 -76 256l93 32q33 -170 56 -263z" />
    <glyph glyph-name="fi" unicode="&#xfb01;" 
d="M332 401q0 -61 -43.5 -104.5t-105.5 -43.5q-61 0 -104.5 43.5t-43.5 104.5t43.5 104.5t104.5 43.5q62 0 105.5 -43.5t43.5 -104.5zM287 401q0 43 -30.5 73.5t-73.5 30.5t-73.5 -30.5t-30.5 -73.5t30.5 -73.5t73.5 -30.5t73.5 30.5t30.5 73.5z" />
    <glyph glyph-name="fl" unicode="&#xfb02;" 
d="M332 401q0 -61 -43.5 -104.5t-105.5 -43.5q-61 0 -104.5 43.5t-43.5 104.5t43.5 104.5t104.5 43.5q62 0 105.5 -43.5t43.5 -104.5zM287 401q0 43 -30.5 73.5t-73.5 30.5t-73.5 -30.5t-30.5 -73.5t30.5 -73.5t73.5 -30.5t73.5 30.5t30.5 73.5z" />
    <glyph glyph-name="apple" 
d="M332 401q0 -61 -43.5 -104.5t-105.5 -43.5q-61 0 -104.5 43.5t-43.5 104.5t43.5 104.5t104.5 43.5q62 0 105.5 -43.5t43.5 -104.5zM287 401q0 43 -30.5 73.5t-73.5 30.5t-73.5 -30.5t-30.5 -73.5t30.5 -73.5t73.5 -30.5t73.5 30.5t30.5 73.5z" />
    <glyph glyph-name="dotlessi" unicode="&#x131;" 
d="M332 401q0 -61 -43.5 -104.5t-105.5 -43.5q-61 0 -104.5 43.5t-43.5 104.5t43.5 104.5t104.5 43.5q62 0 105.5 -43.5t43.5 -104.5zM287 401q0 43 -30.5 73.5t-73.5 30.5t-73.5 -30.5t-30.5 -73.5t30.5 -73.5t73.5 -30.5t73.5 30.5t30.5 73.5z" />
    <glyph glyph-name="breve" unicode="&#x2d8;" 
d="M332 401q0 -61 -43.5 -104.5t-105.5 -43.5q-61 0 -104.5 43.5t-43.5 104.5t43.5 104.5t104.5 43.5q62 0 105.5 -43.5t43.5 -104.5zM287 401q0 43 -30.5 73.5t-73.5 30.5t-73.5 -30.5t-30.5 -73.5t30.5 -73.5t73.5 -30.5t73.5 30.5t30.5 73.5z" />
    <glyph glyph-name="dotaccent" unicode="&#x2d9;" 
d="M332 401q0 -61 -43.5 -104.5t-105.5 -43.5q-61 0 -104.5 43.5t-43.5 104.5t43.5 104.5t104.5 43.5q62 0 105.5 -43.5t43.5 -104.5zM287 401q0 43 -30.5 73.5t-73.5 30.5t-73.5 -30.5t-30.5 -73.5t30.5 -73.5t73.5 -30.5t73.5 30.5t30.5 73.5z" />
    <glyph glyph-name="ring" unicode="&#x2da;" 
d="M332 401q0 -61 -43.5 -104.5t-105.5 -43.5q-61 0 -104.5 43.5t-43.5 104.5t43.5 104.5t104.5 43.5q62 0 105.5 -43.5t43.5 -104.5zM287 401q0 43 -30.5 73.5t-73.5 30.5t-73.5 -30.5t-30.5 -73.5t30.5 -73.5t73.5 -30.5t73.5 30.5t30.5 73.5z" />
    <glyph glyph-name="hungarumlaut" unicode="&#x2dd;" 
d="M332 401q0 -61 -43.5 -104.5t-105.5 -43.5q-61 0 -104.5 43.5t-43.5 104.5t43.5 104.5t104.5 43.5q62 0 105.5 -43.5t43.5 -104.5zM287 401q0 43 -30.5 73.5t-73.5 30.5t-73.5 -30.5t-30.5 -73.5t30.5 -73.5t73.5 -30.5t73.5 30.5t30.5 73.5z" />
    <glyph glyph-name="ogonek" unicode="&#x2db;" 
d="M332 401q0 -61 -43.5 -104.5t-105.5 -43.5q-61 0 -104.5 43.5t-43.5 104.5t43.5 104.5t104.5 43.5q62 0 105.5 -43.5t43.5 -104.5zM287 401q0 43 -30.5 73.5t-73.5 30.5t-73.5 -30.5t-30.5 -73.5t30.5 -73.5t73.5 -30.5t73.5 30.5t30.5 73.5z" />
    <glyph glyph-name="caron" unicode="&#x2c7;" 
d="M332 401q0 -61 -43.5 -104.5t-105.5 -43.5q-61 0 -104.5 43.5t-43.5 104.5t43.5 104.5t104.5 43.5q62 0 105.5 -43.5t43.5 -104.5zM287 401q0 43 -30.5 73.5t-73.5 30.5t-73.5 -30.5t-30.5 -73.5t30.5 -73.5t73.5 -30.5t73.5 30.5t30.5 73.5z" />
  </font>
</defs>
</svg>
