<?xml version="1.0" standalone="no"?>
<!DOCTYPE svg PUBLIC "-//W3C//DTD SVG 1.1//EN" "http://www.w3.org/Graphics/SVG/1.1/DTD/svg11.dtd" >
<svg>
<metadata>
Created by FontForge 20090622 at Sun Nov 19 15:50:03 2017
 By deploy user
Copyright (c) 2011 by Neil Summerour and Positype. All rights reserved.
</metadata>
<defs>
<font id="GinzaNarrow-Heavy" horiz-adv-x="550" >
  <font-face 
    font-family="Ginza Narrow"
    font-weight="900"
    font-stretch="normal"
    units-per-em="1000"
    panose-1="2 0 8 3 3 0 0 2 0 4"
    ascent="800"
    descent="-200"
    x-height="500"
    cap-height="600"
    bbox="-114.909 -266 1207 966"
    underline-thickness="20"
    underline-position="-105"
    unicode-range="U+0020-U+F8FF"
  />
<missing-glyph horiz-adv-x="300" 
 />
    <glyph glyph-name=".notdef" horiz-adv-x="300" 
 />
    <glyph glyph-name=".null" horiz-adv-x="0" 
 />
    <glyph glyph-name="nonmarkingreturn" horiz-adv-x="333" 
 />
    <glyph glyph-name="space" unicode=" " horiz-adv-x="300" 
 />
    <glyph glyph-name="exclam" unicode="!" horiz-adv-x="265" 
d="M215 105v-85q0 -8 -6 -14t-14 -6h-85q-8 0 -14 6t-6 14v85q0 8 6 14t14 6h85q8 0 14 -6t6 -14zM215 580v-395q0 -8 -6 -14t-14 -6h-85q-8 0 -14 6t-6 14v395q0 8 6 14t14 6h85q8 0 14 -6t6 -14z" />
    <glyph glyph-name="quotedbl" unicode="&#x22;" horiz-adv-x="402" 
d="M170 630v-180q0 -8 -6 -14t-14 -6h-60q-8 0 -14 6t-6 14v180q0 8 6 14t14 6h60q8 0 14 -6t6 -14zM352 630v-180q0 -8 -6 -14t-14 -6h-60q-8 0 -14 6t-6 14v180q0 8 6 14t14 6h60q8 0 14 -6t6 -14z" />
    <glyph glyph-name="numbersign" unicode="#" horiz-adv-x="620" 
d="M90 507h73v73q0 8 6 14t14 6h85q8 0 14 -6t6 -14v-73h64v73q0 8 6 14t14 6h85q8 0 14 -6t6 -14v-73h73q8 0 14 -6t6 -14v-85q0 -8 -6 -14t-14 -6h-73v-64h73q8 0 14 -6t6 -14v-85q0 -8 -6 -14t-14 -6h-73v-73q0 -8 -6 -14t-14 -6h-85q-8 0 -14 6t-6 14v73h-64v-73
q0 -8 -6 -14t-14 -6h-85q-8 0 -14 6t-6 14v73h-73q-8 0 -14 6t-6 14v85q0 8 6 14t14 6h73v64h-73q-8 0 -14 6t-6 14v85q0 8 6 14t14 6zM288 382v-64h64v64h-64z" />
    <glyph glyph-name="dollar" unicode="$" horiz-adv-x="500" 
d="M175 448v-85h213q26 0 44 -18t18 -44v-212q0 -26 -18 -44t-44 -18h-76v-47q0 -8 -6 -14t-14 -6h-85q-8 0 -14 6t-6 14v47h-117q-8 0 -14 6t-6 14v85q0 8 6 14t14 6h255v86h-213q-26 0 -44 18t-18 44v211q0 26 18 44t44 18h75v47q0 8 6 14t14 6h85q8 0 14 -6t6 -14v-47
h118q8 0 14 -6t6 -14v-85q0 -8 -6 -14t-14 -6h-255z" />
    <glyph glyph-name="percent" unicode="%" horiz-adv-x="957" 
d="M703 580l-323 -560q-13 -20 -31 -20h-90q-8 0 -10.5 6t2.5 14l322 560q13 20 32 20h90q8 0 10.5 -6t-2.5 -14zM346 560v-310q0 -17 -11.5 -28.5t-28.5 -11.5h-216q-17 0 -28.5 11.5t-11.5 28.5v310q0 17 11.5 28.5t28.5 11.5h216q17 0 28.5 -11.5t11.5 -28.5zM250 306
v198h-104v-198h104zM907 350v-310q0 -17 -11.5 -28.5t-28.5 -11.5h-216q-17 0 -28.5 11.5t-11.5 28.5v310q0 17 11.5 28.5t28.5 11.5h216q17 0 28.5 -11.5t11.5 -28.5zM811 96v198h-104v-198h104z" />
    <glyph glyph-name="ampersand" unicode="&#x26;" horiz-adv-x="689" 
d="M175 257v-133h250v133h-250zM550 257v-155q0 -42 -31 -72t-74 -30h-290q-44 0 -74.5 30t-30.5 72v101q0 42 30.5 72t74.5 30v4q-44 0 -74.5 30t-30.5 72v87q0 42 30.5 72t74.5 30h210q8 0 14 -6t6 -14v-84q0 -8 -6 -14t-14 -6h-190v-120h250v46q0 8 6 14t14 6h85
q8 0 14 -6t6 -14v-46h69q8 0 14 -6t6 -14v-59q0 -8 -6 -14t-14 -6h-69z" />
    <glyph glyph-name="quotesingle" unicode="'" horiz-adv-x="220" 
d="M170 630v-180q0 -8 -6 -14t-14 -6h-60q-8 0 -14 6t-6 14v180q0 8 6 14t14 6h60q8 0 14 -6t6 -14z" />
    <glyph glyph-name="parenleft" unicode="(" horiz-adv-x="271" 
d="M114 632q4 19 24 14l68 -16q19 -5 14 -24q-41 -176 -40 -316.5t40 -295.5q5 -19 -14 -24l-68 -16q-20 -5 -24 14q-45 186 -44 336t44 328z" />
    <glyph glyph-name="parenright" unicode=")" horiz-adv-x="231" 
d="M137 632q43 -177 43.5 -328t-43.5 -336q-4 -19 -24 -14l-68 16q-19 5 -14 24q39 155 40 295.5t-40 316.5q-5 19 14 24l68 16q20 5 24 -14z" />
    <glyph glyph-name="asterisk" unicode="*" horiz-adv-x="532" 
d="M71 476l21 64q5 13 16 8l121 -39v128q0 13 13 13h67q13 0 13 -13v-128l122 39q12 5 17 -7l20 -65q2 -11 -9 -16l-120 -39l75 -104q8 -11 -2 -18l-55 -39q-12 -7 -18 3l-75 102l-75 -102q-8 -11 -18 -4l-54 40q-11 8 -3 18l74 103l-121 40q-13 4 -9 16z" />
    <glyph glyph-name="plus" unicode="+" horiz-adv-x="570" 
d="M257 524h75q8 0 14 -6t6 -14v-147h148q8 0 14 -6t6 -14v-75q0 -8 -6 -14t-14 -6h-148v-148q0 -8 -6 -14t-14 -6h-75q-8 0 -14 6t-6 14v148h-147q-8 0 -14 6t-6 14v75q0 8 6 14t14 6h147v147q0 8 6 14t14 6z" />
    <glyph glyph-name="comma" unicode="," horiz-adv-x="261" 
d="M211 105v-232q0 -8 -6 -14t-14 -6h-50q-8 0 -14 6t-6 14v127h-31q-8 0 -14 6t-6 14v85q0 8 6 14t14 6h101q8 0 14 -6t6 -14z" />
    <glyph glyph-name="hyphen" unicode="-" horiz-adv-x="390" 
d="M320 337v-75q0 -8 -6 -14t-14 -6h-210q-8 0 -14 6t-6 14v75q0 8 6 14t14 6h210q8 0 14 -6t6 -14z" />
    <glyph glyph-name="period" unicode="." horiz-adv-x="265" 
d="M215 105v-85q0 -8 -6 -14t-14 -6h-85q-8 0 -14 6t-6 14v85q0 8 6 14t14 6h85q8 0 14 -6t6 -14z" />
    <glyph glyph-name="slash" unicode="/" horiz-adv-x="520" 
d="M466 580l-323 -560q-13 -20 -31 -20h-90q-8 0 -10.5 6t2.5 14l322 560q13 20 32 20h90q8 0 10.5 -6t-2.5 -14z" />
    <glyph glyph-name="zero" unicode="0" horiz-adv-x="540" 
d="M490 538v-476q0 -26 -18 -44t-44 -18h-316q-26 0 -44 18t-18 44v476q0 26 18 44t44 18h316q26 0 44 -18t18 -44zM365 125v350h-190v-350h190z" />
    <glyph glyph-name="one" unicode="1" horiz-adv-x="460" 
d="M167 125v341l-97 -46q-8 -5 -14 0.5t-6 14.5v82q0 22 16 31l108 47q8 5 18 5h80q8 0 14 -6t6 -14v-455h98q8 0 14 -6t6 -14v-85q0 -8 -6 -14t-14 -6h-320q-8 0 -14 6t-6 14v85q0 8 6 14t14 6h97z" />
    <glyph glyph-name="two" unicode="2" horiz-adv-x="520" 
d="M345 363v112h-255q-8 0 -14 6t-6 14v85q0 8 6 14t14 6h318q26 0 44 -18t18 -44v-224q0 -50 -62 -62l-233 -40v-87h275q8 0 14 -6t6 -14v-85q0 -8 -6 -14t-14 -6h-338q-26 0 -44 18t-18 44v199q0 50 62 62z" />
    <glyph glyph-name="three" unicode="3" horiz-adv-x="500" 
d="M70 600h318q26 0 44 -18.5t18 -44.5v-170q0 -26 -18 -44.5t-44 -18.5v-4q26 0 44 -18.5t18 -44.5v-174q0 -26 -18 -44.5t-44 -18.5h-318q-8 0 -14 6t-6 14v85q0 8 6 14t14 6h256v114h-216q-8 0 -14 6t-6 14v85q0 8 6 14t14 6h216v111h-256q-8 0 -14 6t-6 14v85q0 8 6 14
t14 6z" />
    <glyph glyph-name="four" unicode="4" horiz-adv-x="500" 
d="M325 20v130h-213q-26 0 -44 18t-18 44v368q0 8 6 14t14 6h85q8 0 14 -6t6 -14v-320h150v320q0 8 6 14t14 6h85q8 0 14 -6t6 -14v-560q0 -8 -6 -14t-14 -6h-85q-8 0 -14 6t-6 14z" />
    <glyph glyph-name="five" unicode="5" horiz-adv-x="520" 
d="M50 287v251q0 26 18 44t44 18h318q8 0 14 -6t6 -14v-85q0 -8 -6 -14t-14 -6h-255v-83h233q26 0 44 -18t18 -44v-268q0 -26 -18 -44t-44 -18h-338q-8 0 -14 6t-6 14v85q0 8 6 14t14 6h275v142h-275q-8 0 -14 6t-6 14z" />
    <glyph glyph-name="six" unicode="6" horiz-adv-x="520" 
d="M470 328v-266q0 -26 -18 -44t-44 -18h-296q-26 0 -44 18t-18 44v476q0 26 18 44t44 18h318q8 0 14 -6t6 -14v-85q0 -8 -6 -14t-14 -6h-255v-85h233q26 0 44 -18t18 -44zM345 125v140h-170v-140h170z" />
    <glyph glyph-name="seven" unicode="7" horiz-adv-x="420" 
d="M256 475h-226q-8 0 -14 6t-6 14v85q0 8 6 14t14 6h318q26 0 44 -18t18 -44l-160 -518q-6 -20 -23 -20h-94q-18 0 -13 20z" />
    <glyph glyph-name="eight" unicode="8" horiz-adv-x="520" 
d="M175 356h170v120h-170v-120zM175 124h170v133h-170v-133zM365 0h-210q-44 0 -74.5 30t-30.5 72v101q0 42 30.5 72t74.5 30v4q-44 0 -74.5 30t-30.5 72v87q0 42 30.5 72t74.5 30h210q43 0 74 -30t31 -72v-87q0 -42 -31 -72t-74 -30v-4q43 0 74 -30t31 -72v-101
q0 -42 -31 -72t-74 -30z" />
    <glyph glyph-name="nine" unicode="9" horiz-adv-x="520" 
d="M50 272v266q0 26 18 44t44 18h296q26 0 44 -18t18 -44v-476q0 -26 -18 -44t-44 -18h-318q-8 0 -14 6t-6 14v85q0 8 6 14t14 6h255v85h-233q-26 0 -44 18t-18 44zM175 475v-140h170v140h-170z" />
    <glyph glyph-name="colon" unicode=":" horiz-adv-x="265" 
d="M215 105v-85q0 -8 -6 -14t-14 -6h-85q-8 0 -14 6t-6 14v85q0 8 6 14t14 6h85q8 0 14 -6t6 -14zM215 334v-85q0 -8 -6 -14t-14 -6h-85q-8 0 -14 6t-6 14v85q0 8 6 14t14 6h85q8 0 14 -6t6 -14z" />
    <glyph glyph-name="semicolon" unicode=";" horiz-adv-x="261" 
d="M211 105v-232q0 -8 -6 -14t-14 -6h-50q-8 0 -14 6t-6 14v127h-31q-8 0 -14 6t-6 14v85q0 8 6 14t14 6h101q8 0 14 -6t6 -14zM207 334v-85q0 -8 -6 -14t-14 -6h-85q-8 0 -14 6t-6 14v85q0 8 6 14t14 6h85q8 0 14 -6t6 -14z" />
    <glyph glyph-name="less" unicode="&#x3c;" horiz-adv-x="398" 
d="M50 288v24q0 18 20 38l258 256q6 6 13 2t7 -16v-99q0 -20 -20 -40l-148 -153l148 -153q20 -20 20 -40v-99q0 -12 -7 -16t-13 2l-258 256q-20 20 -20 38z" />
    <glyph glyph-name="equal" unicode="=" horiz-adv-x="560" 
d="M510 430v-75q0 -8 -6 -14t-14 -6h-400q-8 0 -14 6t-6 14v75q0 8 6 14t14 6h400q8 0 14 -6t6 -14zM510 245v-75q0 -8 -6 -14t-14 -6h-400q-8 0 -14 6t-6 14v75q0 8 6 14t14 6h400q8 0 14 -6t6 -14z" />
    <glyph glyph-name="greater" unicode="&#x3e;" horiz-adv-x="418" 
d="M368 312v-24q0 -18 -20 -38l-258 -256q-6 -6 -13 -2t-7 16v99q0 20 20 40l148 153l-148 153q-20 20 -20 40v99q0 12 7 16t13 -2l258 -256q20 -20 20 -38z" />
    <glyph glyph-name="question" unicode="?" horiz-adv-x="560" 
d="M265 165h-85q-8 0 -14 6t-6 14v114q0 26 18 44t44 18h163v114h-315q-8 0 -14 6t-6 14v85q0 8 6 14t14 6h378q26 0 44 -18t18 -44v-240q0 -26 -18 -44t-44 -18h-163v-51q0 -8 -6 -14t-14 -6zM285 105v-85q0 -8 -6 -14t-14 -6h-85q-8 0 -14 6t-6 14v85q0 8 6 14t14 6h85
q8 0 14 -6t6 -14z" />
    <glyph glyph-name="at" unicode="@" horiz-adv-x="600" 
d="M550 538v-476q0 -26 -18 -44t-44 -18h-356q-26 0 -44 18t-18 44v476q0 26 18 44t44 18h356q26 0 44 -18t18 -44zM460 90v420h-300v-420h300zM296 277v-58h28v58h-28zM392 137h-137q-17 0 -28.5 12t-11.5 29v130q0 17 11.5 29t28.5 12h69v32h-96q-13 0 -13 13v55
q0 13 13 13h137q17 0 28.5 -11.5t11.5 -28.5v-272q0 -13 -13 -13z" />
    <glyph glyph-name="A" unicode="A" horiz-adv-x="600" 
d="M425 286v190h-250v-190h250zM425 20v169h-250v-169q0 -8 -6 -14t-14 -6h-85q-8 0 -14 6t-6 14v518q0 26 18 44t44 18h376q26 0 44 -18t18 -44v-518q0 -8 -6 -14t-14 -6h-85q-8 0 -14 6t-6 14z" />
    <glyph glyph-name="B" unicode="B" horiz-adv-x="600" 
d="M425 356v120h-250v-120h250zM425 124v133h-250v-133h250zM445 0h-375q-8 0 -14 6t-6 14v560q0 8 6 14t14 6h375q43 0 74 -30t31 -72v-87q0 -42 -31 -72t-74 -30v-4q43 0 74 -30t31 -72v-101q0 -42 -31 -72t-74 -30z" />
    <glyph glyph-name="C" unicode="C" horiz-adv-x="600" 
d="M551 105v-85q0 -8 -6 -14t-14 -6h-418q-26 0 -44 18t-18 44v476q0 26 18 44t44 18h418q8 0 14 -6t6 -14v-85q0 -8 -6 -14t-14 -6h-355v-350h355q8 0 14 -6t6 -14z" />
    <glyph glyph-name="D" unicode="D" horiz-adv-x="600" 
d="M426 124v352h-250v-352h250zM446 0h-375q-8 0 -14 6t-6 14v560q0 8 6 14t14 6h375q43 0 74 -30t31 -72v-396q0 -42 -31 -72t-74 -30z" />
    <glyph glyph-name="E" unicode="E" horiz-adv-x="600" 
d="M530 0h-418q-26 0 -44 18t-18 44v476q0 26 18 44t44 18h418q8 0 14 -6t6 -14v-85q0 -8 -6 -14t-14 -6h-355v-113h335q8 0 14 -6t6 -14v-84q0 -8 -6 -14t-14 -6h-335v-113h355q8 0 14 -6t6 -14v-85q0 -8 -6 -14t-14 -6z" />
    <glyph glyph-name="F" unicode="F" horiz-adv-x="560" 
d="M175 238v-218q0 -8 -6 -14t-14 -6h-85q-8 0 -14 6t-6 14v518q0 26 18 44t44 18h418q8 0 14 -6t6 -14v-85q0 -8 -6 -14t-14 -6h-355v-113h315q8 0 14 -6t6 -14v-84q0 -8 -6 -14t-14 -6h-315z" />
    <glyph glyph-name="G" unicode="G" horiz-adv-x="600" 
d="M320 362h210q8 0 14 -6t6 -14v-280q0 -26 -18 -44t-44 -18h-376q-26 0 -44 18t-18 44v476q0 26 18 44t44 18h418q8 0 14 -6t6 -14v-85q0 -8 -6 -14t-14 -6h-355v-350h250v113h-105q-8 0 -14 6t-6 14v84q0 8 6 14t14 6z" />
    <glyph glyph-name="H" unicode="H" horiz-adv-x="600" 
d="M550 580v-560q0 -8 -6 -14t-14 -6h-85q-8 0 -14 6t-6 14v218h-250v-218q0 -8 -6 -14t-14 -6h-85q-8 0 -14 6t-6 14v560q0 8 6 14t14 6h85q8 0 14 -6t6 -14v-218h250v218q0 8 6 14t14 6h85q8 0 14 -6t6 -14z" />
    <glyph glyph-name="I" unicode="I" horiz-adv-x="225" 
d="M175 580v-560q0 -8 -6 -14t-14 -6h-85q-8 0 -14 6t-6 14v560q0 8 6 14t14 6h85q8 0 14 -6t6 -14z" />
    <glyph glyph-name="J" unicode="J" horiz-adv-x="600" 
d="M175 228v-104h250v456q0 8 6 14t14 6h85q8 0 14 -6t6 -14v-518q0 -26 -18 -44t-44 -18h-376q-26 0 -44 18t-18 44v166q0 8 6 14t14 6h85q8 0 14 -6t6 -14z" />
    <glyph glyph-name="K" unicode="K" horiz-adv-x="559" 
d="M211 356l165 224q11 20 40 20h80q10 0 16.5 -3.5t7 -8t-2.5 -8.5l-207 -273l221 -287q3 -4 2.5 -8.5t-7 -8t-16.5 -3.5h-80q-29 0 -40 20l-178 237h-37v-237q0 -8 -6 -14t-14 -6h-85q-8 0 -14 6t-6 14v560q0 8 6 14t14 6h85q8 0 14 -6t6 -14v-224h36z" />
    <glyph glyph-name="L" unicode="L" horiz-adv-x="600" 
d="M175 580v-455h355q8 0 14 -6t6 -14v-85q0 -8 -6 -14t-14 -6h-418q-26 0 -44 18t-18 44v518q0 8 6 14t14 6h85q8 0 14 -6t6 -14z" />
    <glyph glyph-name="M" unicode="M" horiz-adv-x="700" 
d="M350 320l163 260q14 20 38 20h36q26 0 44.5 -18t18.5 -44v-518q0 -8 -6 -14t-14 -6h-85q-8 0 -14 6t-6 14v368l-118 -187q-11 -20 -38 -20h-38q-27 0 -38 20l-118 187v-368q0 -8 -6 -14t-14 -6h-85q-8 0 -14 6t-6 14v518q0 26 18.5 44t44.5 18h36q24 0 38 -20z" />
    <glyph glyph-name="N" unicode="N" horiz-adv-x="600" 
d="M550 580v-518q0 -26 -18 -44t-44 -18h-38q-24 0 -38 20l-237 367v-367q0 -8 -6 -14t-14 -6h-85q-8 0 -14 6t-6 14v518q0 26 18 44t44 18h37q24 0 38 -20l238 -371v371q0 8 6 14t14 6h85q8 0 14 -6t6 -14z" />
    <glyph glyph-name="O" unicode="O" horiz-adv-x="600" 
d="M550 538v-476q0 -26 -18 -44t-44 -18h-376q-26 0 -44 18t-18 44v476q0 26 18 44t44 18h376q26 0 44 -18t18 -44zM425 125v350h-250v-350h250z" />
    <glyph glyph-name="P" unicode="P" horiz-adv-x="600" 
d="M175 176v-156q0 -8 -6 -14t-14 -6h-85q-8 0 -14 6t-6 14v560q0 8 6 14t14 6h375q43 0 74 -30t31 -72v-220q0 -42 -31 -72t-74 -30h-270zM425 300v176h-250v-176h250z" />
    <glyph glyph-name="Q" unicode="Q" horiz-adv-x="600" 
d="M550 538v-476q0 -26 -18 -44t-44 -18h-127v-105q0 -8 -6 -14t-14 -6h-85q-8 0 -14 6t-6 14v105h-124q-26 0 -44 18t-18 44v476q0 26 18 44t44 18h376q26 0 44 -18t18 -44zM361 230v-105h64v350h-250v-350h61v105q0 8 6 14t14 6h85q8 0 14 -6t6 -14z" />
    <glyph glyph-name="R" unicode="R" horiz-adv-x="601" 
d="M387 20l-174 199h-38v-199q0 -8 -6 -14t-14 -6h-85q-8 0 -14 6t-6 14v560q0 8 6 14t14 6h375q43 0 74 -30t31 -72v-177q0 -42 -31 -72t-74 -30h-69l174 -199q3 -4 2.5 -8.5t-7 -8t-16.5 -3.5h-102q-20 0 -40 20zM425 318v158h-250v-158h250z" />
    <glyph glyph-name="S" unicode="S" horiz-adv-x="600" 
d="M175 475v-112h313q26 0 44 -18t18 -44v-239q0 -26 -18 -44t-44 -18h-418q-8 0 -14 6t-6 14v85q0 8 6 14t14 6h355v113h-313q-26 0 -44 18t-18 44v238q0 26 18 44t44 18h418q8 0 14 -6t6 -14v-85q0 -8 -6 -14t-14 -6h-355z" />
    <glyph glyph-name="T" unicode="T" horiz-adv-x="519" 
d="M30 600h459q8 0 14 -6t6 -14v-85q0 -8 -6 -14t-14 -6h-167v-455q0 -8 -6 -14t-14 -6h-85q-8 0 -14 6t-6 14v455h-167q-8 0 -14 6t-6 14v85q0 8 6 14t14 6z" />
    <glyph glyph-name="U" unicode="U" horiz-adv-x="600" 
d="M175 580v-455h250v455q0 8 6 14t14 6h85q8 0 14 -6t6 -14v-518q0 -26 -18 -44t-44 -18h-376q-26 0 -44 18t-18 44v518q0 8 6 14t14 6h85q8 0 14 -6t6 -14z" />
    <glyph glyph-name="V" unicode="V" horiz-adv-x="576" 
d="M332 0h-88q-12 0 -23.5 6t-14.5 14l-194 560q-4 7 1.5 13.5t19.5 6.5h83q35 0 40 -20l132 -441l132 441q5 20 40 20h83q14 0 19.5 -6.5t1.5 -13.5l-194 -560q-3 -8 -14.5 -14t-23.5 -6z" />
    <glyph glyph-name="W" unicode="W" horiz-adv-x="699" 
d="M649 580v-518q0 -26 -18.5 -44t-44.5 -18h-171q-26 0 -44.5 18t-18.5 44h-4q0 -26 -18.5 -44t-44.5 -18h-172q-26 0 -44.5 18t-18.5 44v518q0 8 6 14t14 6h85q8 0 14 -6t6 -14v-456h112v456q0 8 6 14t14 6h85q8 0 14 -6t6 -14v-456h112v456q0 8 6 14t14 6h85q8 0 14 -6
t6 -14z" />
    <glyph glyph-name="X" unicode="X" 
d="M160 580l115 -170l115 170q13 20 40 20h89q9 0 15.5 -3.5t7.5 -8t-2 -8.5l-190 -281l189 -279q3 -4 2.5 -8.5t-7 -8t-16.5 -3.5h-89q-26 0 -40 20l-114 168l-114 -168q-14 -20 -40 -20h-89q-10 0 -16.5 3.5t-7 8t2.5 8.5l189 279l-190 281q-3 4 -2 8.5t7.5 8t15.5 3.5h89
q27 0 40 -20z" />
    <glyph glyph-name="Y" unicode="Y" horiz-adv-x="600" 
d="M175 580v-280h250v280q0 8 6 14t14 6h85q8 0 14 -6t6 -14v-518q0 -26 -18 -44t-44 -18h-376q-26 0 -44 18t-18 44v63h375v50h-313q-26 0 -44 18t-18 44v343q0 8 6 14t14 6h85q8 0 14 -6t6 -14z" />
    <glyph glyph-name="Z" unicode="Z" horiz-adv-x="600" 
d="M221 125h309q8 0 14 -6t6 -14v-85q0 -8 -6 -14t-14 -6h-418q-26 0 -44 18t-18 44v55l323 358h-303q-8 0 -14 6t-6 14v85q0 8 6 14t14 6h418q26 0 44 -18t18 -44v-55z" />
    <glyph glyph-name="bracketleft" unicode="[" horiz-adv-x="316" 
d="M90 685h156q8 0 14 -6t6 -14v-45q0 -8 -6 -14t-14 -6h-51v-600h51q8 0 14 -6t6 -14v-45q0 -8 -6 -14t-14 -6h-156q-8 0 -14 6t-6 14v730q0 8 6 14t14 6z" />
    <glyph glyph-name="backslash" unicode="\" horiz-adv-x="520" 
d="M337 20l-323 560q-5 8 -2.5 14t10.5 6h90q19 0 32 -20l322 -560q5 -8 2.5 -14t-10.5 -6h-90q-18 0 -31 20z" />
    <glyph glyph-name="bracketright" unicode="]" horiz-adv-x="256" 
d="M30 685h156q8 0 14 -6t6 -14v-730q0 -8 -6 -14t-14 -6h-156q-8 0 -14 6t-6 14v45q0 8 6 14t14 6h51v600h-51q-8 0 -14 6t-6 14v45q0 8 6 14t14 6z" />
    <glyph glyph-name="asciicircum" unicode="^" horiz-adv-x="571" 
d="M259 688h24q18 0 38 -20l196 -200q6 -6 2 -13t-16 -7h-99q-20 0 -40 20l-93 90l-94 -90q-20 -20 -40 -20h-99q-12 0 -16 7t2 13l197 200q20 20 38 20z" />
    <glyph glyph-name="underscore" unicode="_" horiz-adv-x="253" 
d="M260 -55v-75q0 -8 -6 -14t-14 -6h-230q-8 0 -14 6t-6 14v75q0 8 6 14t14 6h230q8 0 14 -6t6 -14z" />
    <glyph glyph-name="grave" unicode="`" horiz-adv-x="440" 
d="M119 827h82q14 0 34 -16l146 -145q13 -13 2 -16h-82q-14 0 -34 16l-146 145q-14 11 -6 15q2 1 4 1z" />
    <glyph glyph-name="a" unicode="a" horiz-adv-x="500" 
d="M175 215v-90h150v90h-150zM430 0h-318q-26 0 -44 18t-18 44v201q0 26 18 44t44 18h213v50h-255q-8 0 -14 6t-6 14v85q0 8 6 14t14 6h318q26 0 44 -18t18 -44v-418q0 -8 -6 -14t-14 -6z" />
    <glyph glyph-name="b" unicode="b" horiz-adv-x="500" 
d="M325 125v250h-150v-250h150zM388 0h-276q-26 0 -44 18t-18 44v568q0 8 6 14t14 6h85q8 0 14 -6t6 -14v-130h213q26 0 44 -18t18 -44v-376q0 -26 -18 -44t-44 -18z" />
    <glyph glyph-name="c" unicode="c" horiz-adv-x="500" 
d="M430 0h-318q-26 0 -44 18t-18 44v376q0 26 18 44t44 18h318q8 0 14 -6t6 -14v-85q0 -8 -6 -14t-14 -6h-255v-250h255q8 0 14 -6t6 -14v-85q0 -8 -6 -14t-14 -6z" />
    <glyph glyph-name="d" unicode="d" horiz-adv-x="500" 
d="M325 500v130q0 8 6 14t14 6h85q8 0 14 -6t6 -14v-610q0 -8 -6 -14t-14 -6h-318q-26 0 -44 18t-18 44v376q0 26 18 44t44 18h213zM175 375v-250h150v250h-150z" />
    <glyph glyph-name="e" unicode="e" horiz-adv-x="500" 
d="M450 438v-201q0 -26 -18 -44t-44 -18h-213v-50h255q8 0 14 -6t6 -14v-85q0 -8 -6 -14t-14 -6h-318q-26 0 -44 18t-18 44v376q0 26 18 44t44 18h276q26 0 44 -18t18 -44zM325 285v90h-150v-90h150z" />
    <glyph glyph-name="f" unicode="f" horiz-adv-x="370" 
d="M308 525h-133v-162h95q8 0 14 -6t6 -14v-85q0 -8 -6 -14t-14 -6h-95v-218q0 -8 -6 -14t-14 -6h-85q-8 0 -14 6t-6 14v568q0 26 18 44t44 18h238q8 0 14 -6t6 -14v-42q0 -26 -18 -44.5t-44 -18.5z" />
    <glyph glyph-name="g" unicode="g" horiz-adv-x="500" 
d="M50 87v351q0 26 18 44t44 18h276q26 0 44 -18t18 -44v-526q0 -26 -18 -44t-44 -18h-298q-8 0 -14 6t-6 14v85q0 8 6 14t14 6h235v50h-213q-26 0 -44 18t-18 44zM175 375v-240h150v240h-150z" />
    <glyph glyph-name="h" unicode="h" horiz-adv-x="500" 
d="M175 630v-130h213q26 0 44 -18t18 -44v-418q0 -8 -6 -14t-14 -6h-85q-8 0 -14 6t-6 14v355h-150v-355q0 -8 -6 -14t-14 -6h-85q-8 0 -14 6t-6 14v610q0 8 6 14t14 6h85q8 0 14 -6t6 -14z" />
    <glyph glyph-name="i" unicode="i" horiz-adv-x="225" 
d="M175 480v-460q0 -8 -6 -14t-14 -6h-85q-8 0 -14 6t-6 14v460q0 8 6 14t14 6h85q8 0 14 -6t6 -14zM175 630v-53q0 -8 -6 -14t-14 -6h-85q-8 0 -14 6t-6 14v53q0 8 6 14t14 6h85q8 0 14 -6t6 -14z" />
    <glyph glyph-name="j" unicode="j" horiz-adv-x="225" 
d="M-10 -25h60v505q0 8 6 14t14 6h85q8 0 14 -6t6 -14v-568q0 -26 -18 -44t-44 -18h-123q-8 0 -14 6t-6 14v85q0 8 6 14t14 6zM175 630v-53q0 -8 -6 -14t-14 -6h-85q-8 0 -14 6t-6 14v53q0 8 6 14t14 6h85q8 0 14 -6t6 -14z" />
    <glyph glyph-name="k" unicode="k" horiz-adv-x="460" 
d="M206 300l95 180q11 20 40 20h83q10 0 16.5 -3.5t7 -8t-2.5 -8.5l-129 -229l131 -231q3 -4 2.5 -8.5t-7 -8t-16.5 -3.5h-83q-29 0 -40 20l-96 181h-32v-181q0 -8 -6 -14t-14 -6h-85q-8 0 -14 6t-6 14v610q0 8 6 14t14 6h85q8 0 14 -6t6 -14v-330h31z" />
    <glyph glyph-name="l" unicode="l" horiz-adv-x="225" 
d="M175 630v-610q0 -8 -6 -14t-14 -6h-85q-8 0 -14 6t-6 14v610q0 8 6 14t14 6h85q8 0 14 -6t6 -14z" />
    <glyph glyph-name="m" unicode="m" horiz-adv-x="700" 
d="M349 438h2q0 26 18 44t44 18h175q26 0 44 -18t18 -44v-418q0 -8 -6 -14t-14 -6h-85q-8 0 -14 6t-6 14v355h-112v-355q0 -8 -6 -14t-14 -6h-86q-8 0 -14 6t-6 14v355h-112v-355q0 -8 -6 -14t-14 -6h-85q-8 0 -14 6t-6 14v460q0 8 6 14t14 6h217q26 0 44 -18t18 -44z" />
    <glyph glyph-name="n" unicode="n" horiz-adv-x="500" 
d="M325 375h-150v-355q0 -8 -6 -14t-14 -6h-85q-8 0 -14 6t-6 14v460q0 8 6 14t14 6h318q26 0 44 -18t18 -44v-418q0 -8 -6 -14t-14 -6h-85q-8 0 -14 6t-6 14v355z" />
    <glyph glyph-name="o" unicode="o" horiz-adv-x="500" 
d="M450 438v-376q0 -26 -18 -44t-44 -18h-276q-26 0 -44 18t-18 44v376q0 26 18 44t44 18h276q26 0 44 -18t18 -44zM325 125v250h-150v-250h150z" />
    <glyph glyph-name="p" unicode="p" horiz-adv-x="500" 
d="M325 125v250h-150v-250h150zM112 500h276q26 0 44 -18t18 -44v-376q0 -26 -18 -44t-44 -18h-213v-130q0 -8 -6 -14t-14 -6h-85q-8 0 -14 6t-6 14v568q0 26 18 44t44 18z" />
    <glyph glyph-name="q" unicode="q" horiz-adv-x="500" 
d="M325 -130v130h-213q-26 0 -44 18t-18 44v376q0 26 18 44t44 18h318q8 0 14 -6t6 -14v-610q0 -8 -6 -14t-14 -6h-85q-8 0 -14 6t-6 14zM175 375v-250h150v250h-150z" />
    <glyph glyph-name="r" unicode="r" horiz-adv-x="470" 
d="M430 375h-255v-355q0 -8 -6 -14t-14 -6h-85q-8 0 -14 6t-6 14v460q0 8 6 14t14 6h318q26 0 44 -18t18 -44v-43q0 -8 -6 -14t-14 -6z" />
    <glyph glyph-name="s" unicode="s" horiz-adv-x="500" 
d="M175 375v-62h213q26 0 44 -18t18 -44v-189q0 -26 -18 -44t-44 -18h-318q-8 0 -14 6t-6 14v85q0 8 6 14t14 6h255v63h-213q-26 0 -44 18t-18 44v188q0 26 18 44t44 18h318q8 0 14 -6t6 -14v-85q0 -8 -6 -14t-14 -6h-255z" />
    <glyph glyph-name="t" unicode="t" horiz-adv-x="500" 
d="M430 480v-42q0 -26 -18 -44t-44 -18h-193v-251h255q8 0 14 -6t6 -14v-85q0 -8 -6 -14t-14 -6h-318q-26 0 -44 18t-18 44v518q0 8 6 14t14 6h85q8 0 14 -6t6 -14v-80h235q8 0 14 -6t6 -14z" />
    <glyph glyph-name="u" unicode="u" horiz-adv-x="500" 
d="M175 480v-355h150v355q0 8 6 14t14 6h85q8 0 14 -6t6 -14v-418q0 -26 -18 -44t-44 -18h-276q-26 0 -44 18t-18 44v418q0 8 6 14t14 6h85q8 0 14 -6t6 -14z" />
    <glyph glyph-name="v" unicode="v" horiz-adv-x="472" 
d="M280 0h-88q-12 0 -24 6t-14 14l-142 460q-4 7 1.5 13.5t19.5 6.5h83q36 0 40 -20l80 -341l80 341q4 20 40 20h83q14 0 19.5 -6.5t1.5 -13.5l-142 -460q-2 -8 -14 -14t-24 -6z" />
    <glyph glyph-name="w" unicode="w" horiz-adv-x="599" 
d="M549 480v-418q0 -26 -18.5 -44t-44.5 -18h-121q-26 0 -44.5 18t-18.5 44h-4q0 -26 -18.5 -44t-44.5 -18h-122q-26 0 -44.5 18t-18.5 44v418q0 8 6 14t14 6h85q8 0 14 -6t6 -14v-356h62v356q0 8 6 14t14 6h85q8 0 14 -6t6 -14v-356h62v356q0 8 6 14t14 6h85q8 0 14 -6
t6 -14z" />
    <glyph glyph-name="x" unicode="x" horiz-adv-x="458" 
d="M159 249l-146 231q-3 4 -2 8.5t7.5 8t15.5 3.5h79q28 0 40 -20l76 -120l76 120q12 20 40 20h79q9 0 15.5 -3.5t7.5 -8t-2 -8.5l-146 -231l145 -229q3 -4 2.5 -8.5t-7 -8t-16.5 -3.5h-79q-28 0 -40 20l-75 118l-75 -118q-12 -20 -40 -20h-79q-10 0 -16.5 3.5t-7 8t2.5 8.5
z" />
    <glyph glyph-name="y" unicode="y" horiz-adv-x="500" 
d="M450 480v-568q0 -26 -18 -44t-44 -18h-298q-8 0 -14 6t-6 14v85q0 8 6 14t14 6h235v50h-213q-26 0 -44 18t-18 44v393q0 8 6 14t14 6h85q8 0 14 -6t6 -14v-345h150v345q0 8 6 14t14 6h85q8 0 14 -6t6 -14z" />
    <glyph glyph-name="z" unicode="z" horiz-adv-x="500" 
d="M228 125h202q8 0 14 -6t6 -14v-85q0 -8 -6 -14t-14 -6h-318q-26 0 -44 18t-18 44v55l237 258h-217q-8 0 -14 6t-6 14v85q0 8 6 14t14 6h318q26 0 44 -18t18 -44v-55z" />
    <glyph glyph-name="braceleft" unicode="{" horiz-adv-x="338" 
d="M268 -85h-114q-26 0 -44 18t-18 44v251q0 26 -18 44t-44 18v20q26 0 44 18t18 44v251q0 26 18 44t44 18h114q8 0 14 -6t6 -14v-45q0 -8 -6 -14t-14 -6h-51v-237q0 -26 -18 -44t-44 -18v-2q26 0 44 -18t18 -44v-237h51q8 0 14 -6t6 -14v-45q0 -8 -6 -14t-14 -6z" />
    <glyph glyph-name="bar" unicode="|" horiz-adv-x="200" 
d="M150 680v-760q0 -8 -6 -14t-14 -6h-60q-8 0 -14 6t-6 14v760q0 8 6 14t14 6h60q8 0 14 -6t6 -14z" />
    <glyph glyph-name="braceright" unicode="}" horiz-adv-x="318" 
d="M144 -85h-114q-8 0 -14 6t-6 14v45q0 8 6 14t14 6h51v237q0 26 18 44t44 18v2q-26 0 -44 18t-18 44v237h-51q-8 0 -14 6t-6 14v45q0 8 6 14t14 6h114q26 0 44 -18t18 -44v-251q0 -26 18 -44t44 -18v-20q-26 0 -44 -18t-18 -44v-251q0 -26 -18 -44t-44 -18z" />
    <glyph glyph-name="asciitilde" unicode="~" horiz-adv-x="610" 
d="M150 351q28 -25 62 -28t62 7t67.5 22.5t67.5 14.5q83 7 146 -63q10 -9 -3 -26l-49 -50q-11 -11 -30 3q-24 26 -56 29.5t-59.5 -7.5t-66 -24t-65.5 -15q-83 -6 -151 59q-12 9 3 26l42 53q4 6 13.5 5.5t16.5 -6.5z" />
    <glyph glyph-name="DEL" horiz-adv-x="96" 
 />
    <glyph glyph-name="nbspace" unicode="&#xa0;" horiz-adv-x="150" 
 />
    <glyph glyph-name="exclamdown" unicode="&#xa1;" horiz-adv-x="235" 
d="M60 345v85q0 8 6 14t14 6h85q8 0 14 -6t6 -14v-85q0 -8 -6 -14t-14 -6h-85q-8 0 -14 6t-6 14zM60 -130v395q0 8 6 14t14 6h85q8 0 14 -6t6 -14v-395q0 -8 -6 -14t-14 -6h-85q-8 0 -14 6t-6 14z" />
    <glyph glyph-name="cent" unicode="&#xa2;" horiz-adv-x="500" 
d="M430 51h-118v-71q0 -8 -6 -14t-14 -6h-85q-8 0 -14 6t-6 14v71h-75q-26 0 -44 18t-18 44v376q0 26 18 44t44 18h75v69q0 8 6 14t14 6h85q8 0 14 -6t6 -14v-69h118q8 0 14 -6t6 -14v-85q0 -8 -6 -14t-14 -6h-255v-250h255q8 0 14 -6t6 -14v-85q0 -8 -6 -14t-14 -6z" />
    <glyph glyph-name="sterling" unicode="&#xa3;" horiz-adv-x="512" 
d="M442 0h-412q-8 0 -14 6t-6 14v85q0 8 6 14t14 6h40v393q0 26 18 44t44 18h210q8 0 14 -6t6 -14v-85q0 -8 -6 -14t-14 -6h-147v-93h87q8 0 14 -6t6 -14v-64q0 -8 -6 -14t-14 -6h-87v-133h247q8 0 14 -6t6 -14v-85q0 -8 -6 -14t-14 -6z" />
    <glyph glyph-name="currency" unicode="&#xa4;" horiz-adv-x="530" 
d="M70 388h18v130q0 26 18 44t44 18h310q8 0 14 -6t6 -14v-85q0 -8 -6 -14t-14 -6h-247v-67h93q8 0 14 -6t6 -14v-33q0 -8 -6 -14t-14 -6h-93v-50h93q8 0 14 -6t6 -14v-33q0 -8 -6 -14t-14 -6h-93v-67h247q8 0 14 -6t6 -14v-85q0 -8 -6 -14t-14 -6h-310q-26 0 -44 18t-18 44
v130h-18q-8 0 -14 6t-6 14v33q0 8 6 14t14 6h18v50h-18q-8 0 -14 6t-6 14v33q0 8 6 14t14 6z" />
    <glyph glyph-name="yen" unicode="&#xa5;" horiz-adv-x="500" 
d="M388 148v-33q0 -8 -6 -14t-14 -6h-56v-75q0 -8 -6 -14t-14 -6h-85q-8 0 -14 6t-6 14v75h-55q-8 0 -14 6t-6 14v33q0 8 6 14t14 6h55v41h-75q-26 0 -44 18t-18 44v289q0 8 6 14t14 6h85q8 0 14 -6t6 -14v-226h150v226q0 8 6 14t14 6h85q8 0 14 -6t6 -14v-289
q0 -26 -18 -44t-44 -18h-76v-41h56q8 0 14 -6t6 -14z" />
    <glyph glyph-name="section" unicode="&#xa7;" horiz-adv-x="507" 
d="M457 401v-389q0 -26 -18 -44t-44 -18h-325q-8 0 -14 6t-6 14v85q0 8 6 14t14 6h262v62h-220q-26 0 -44 18t-18 44v389q0 26 18 44t44 18h325q8 0 14 -6t6 -14v-85q0 -8 -6 -14t-14 -6h-262v-62h220q26 0 44 -18t18 -44zM332 338h-157v-76h157v76z" />
    <glyph glyph-name="dieresis" unicode="&#xa8;" horiz-adv-x="411" 
d="M190 734v-68q0 -6 -4.5 -11t-11.5 -5h-68q-7 0 -11.5 5t-4.5 11v68q0 16 16 16h68q16 0 16 -16zM361 734v-68q0 -6 -4.5 -11t-11.5 -5h-68q-7 0 -11.5 5t-4.5 11v68q0 16 16 16h68q16 0 16 -16z" />
    <glyph glyph-name="copyright" unicode="&#xa9;" horiz-adv-x="600" 
d="M550 538v-476q0 -26 -18 -44t-44 -18h-356q-26 0 -44 18t-18 44v476q0 26 18 44t44 18h356q26 0 44 -18t18 -44zM460 90v420h-300v-420h300zM392 137h-137q-17 0 -28.5 12t-11.5 29v244q0 17 11.5 28.5t28.5 11.5h137q13 0 13 -13v-55q0 -13 -13 -13h-96v-162h96
q13 0 13 -13v-56q0 -13 -13 -13z" />
    <glyph glyph-name="ordfeminine" unicode="&#xaa;" horiz-adv-x="290" 
d="M131 415v-59h28v59h-28zM227 275h-137q-17 0 -28.5 11.5t-11.5 28.5v131q0 17 11.5 28.5t28.5 11.5h69v33h-96q-13 0 -13 13v55q0 13 13 13h137q17 0 28.5 -11.5t11.5 -28.5v-272q0 -13 -13 -13z" />
    <glyph glyph-name="guillemotleft" unicode="&#xab;" horiz-adv-x="566" 
d="M50 239v24q0 18 20 38l200 196q6 6 13 2t7 -16v-99q0 -20 -20 -40l-90 -93l90 -94q20 -20 20 -40v-99q0 -12 -7 -16t-13 2l-200 197q-20 20 -20 38zM276 239v24q0 18 20 38l200 196q6 6 13 2t7 -16v-99q0 -20 -20 -40l-90 -93l90 -94q20 -20 20 -40v-99q0 -12 -7 -16
t-13 2l-200 197q-20 20 -20 38z" />
    <glyph glyph-name="logicalnot" unicode="&#xac;" 
d="M500 330v-210q0 -8 -6 -14t-14 -6h-85q-8 0 -14 6t-6 14v105h-305q-20 2 -20 21v84q0 8 6 14t14 6h410q8 0 14 -6t6 -14z" />
    <glyph glyph-name="registered" unicode="&#xae;" horiz-adv-x="600" 
d="M550 538v-476q0 -26 -18 -44t-44 -18h-356q-26 0 -44 18t-18 44v476q0 26 18 44t44 18h356q26 0 44 -18t18 -44zM460 90v420h-300v-420h300zM392 381h-96v-231q0 -13 -13 -13h-55q-13 0 -13 13v299q0 13 13 13h137q17 0 28.5 -11.5t11.5 -28.5v-28q0 -13 -13 -13z" />
    <glyph glyph-name="overscore" unicode="&#xaf;" horiz-adv-x="494" 
d="M444 726v-60q0 -6 -4.5 -11t-11.5 -5h-302q-7 0 -11.5 5t-4.5 11v60q0 16 16 16h302q16 0 16 -16z" />
    <glyph glyph-name="degree" unicode="&#xb0;" horiz-adv-x="446" 
d="M396 560v-260q0 -17 -11.5 -28.5t-28.5 -11.5h-266q-17 0 -28.5 11.5t-11.5 28.5v260q0 17 11.5 28.5t28.5 11.5h266q17 0 28.5 -11.5t11.5 -28.5zM300 356v148h-154v-148h154z" />
    <glyph glyph-name="plusminus" unicode="&#xb1;" horiz-adv-x="570" 
d="M500 0h-410q-8 0 -14 6t-6 14v75q0 8 6 14t14 6h147v127h-147q-8 0 -14 6t-6 14v75q0 8 6 14t14 6h147v147q0 8 6 14t14 6h75q8 0 14 -6t6 -14v-147h148q8 0 14 -6t6 -14v-75q0 -8 -6 -14t-14 -6h-148v-127h148q8 0 14 -6t6 -14v-75q0 -8 -6 -14t-14 -6z" />
    <glyph glyph-name="acute" unicode="&#xb4;" horiz-adv-x="440" 
d="M302 827h82q11 0 4 -10q-2 -3 -6 -6l-146 -145q-20 -16 -34 -16h-82q-13 0 -3 11q2 3 5 5l146 145q20 16 34 16z" />
    <glyph glyph-name="mu" unicode="&#xb5;" horiz-adv-x="700" 
d="M175 480v-355h150v355q0 8 6 14t14 6h85q8 0 14 -6t6 -14v-418q0 -26 -18 -44t-44 -18h-213v-131q0 -8 -6 -14t-14 -6h-85q-8 0 -14 6t-6 14v611q0 8 6 14t14 6h85q8 0 14 -6t6 -14z" />
    <glyph glyph-name="paragraph" unicode="&#xb6;" horiz-adv-x="702" 
d="M215 475v-179h127v179h-127zM467 580v-560q0 -8 -6 -14t-14 -6h-85q-8 0 -14 6t-6 14v151h-190q-26 0 -44 18t-18 44v305q0 26 18 44t44 18h295q8 0 14 -6t6 -14zM652 580v-560q0 -8 -6 -14t-14 -6h-85q-8 0 -14 6t-6 14v560q0 8 6 14t14 6h85q8 0 14 -6t6 -14z" />
    <glyph glyph-name="middot" unicode="&#xb7;" horiz-adv-x="265" 
d="M215 334v-85q0 -8 -6 -14t-14 -6h-85q-8 0 -14 6t-6 14v85q0 8 6 14t14 6h85q8 0 14 -6t6 -14z" />
    <glyph glyph-name="cedilla" unicode="&#xb8;" horiz-adv-x="287" 
d="M89 -82h48v82h100v-132q0 -21 -14.5 -35.5t-34.5 -14.5h-99q-6 0 -11 4.5t-5 11.5v68q0 7 5 11.5t11 4.5z" />
    <glyph glyph-name="ordmasculine" unicode="&#xba;" horiz-adv-x="290" 
d="M240 560v-245q0 -17 -11.5 -28.5t-28.5 -11.5h-110q-17 0 -28.5 11.5t-11.5 28.5v245q0 17 11.5 28.5t28.5 11.5h110q17 0 28.5 -11.5t11.5 -28.5zM159 356v163h-28v-163h28z" />
    <glyph glyph-name="guillemotright" unicode="&#xbb;" horiz-adv-x="586" 
d="M536 263v-24q0 -18 -20 -38l-200 -197q-6 -6 -13 -2t-7 16v99q0 20 20 40l90 94l-90 93q-20 20 -20 40v99q0 12 7 16t13 -2l200 -196q20 -20 20 -38zM310 263v-24q0 -18 -20 -38l-200 -197q-6 -6 -13 -2t-7 16v99q0 20 20 40l90 94l-90 93q-20 20 -20 40v99q0 12 7 16
t13 -2l200 -196q20 -20 20 -38z" />
    <glyph glyph-name="questiondown" unicode="&#xbf;" horiz-adv-x="580" 
d="M315 285h85q8 0 14 -6t6 -14v-114q0 -26 -18 -44t-44 -18h-163v-114h315q8 0 14 -6t6 -14v-85q0 -8 -6 -14t-14 -6h-378q-26 0 -44 18t-18 44v240q0 26 18 44t44 18h163v51q0 8 6 14t14 6zM295 345v85q0 8 6 14t14 6h85q8 0 14 -6t6 -14v-85q0 -8 -6 -14t-14 -6h-85
q-8 0 -14 6t-6 14z" />
    <glyph glyph-name="Agrave" unicode="&#xc0;" horiz-adv-x="610" 
d="M425 286v190h-250v-190h250zM425 20v169h-250v-169q0 -8 -6 -14t-14 -6h-85q-8 0 -14 6t-6 14v518q0 26 18 44t44 18h376q26 0 44 -18t18 -44v-518q0 -8 -6 -14t-14 -6h-85q-8 0 -14 6t-6 14zM172 827h82q14 0 34 -16l146 -145q13 -13 2 -16h-82q-14 0 -34 16l-146 145
q-14 11 -6 15q2 1 4 1z" />
    <glyph glyph-name="Aacute" unicode="&#xc1;" horiz-adv-x="610" 
d="M425 286v190h-250v-190h250zM425 20v169h-250v-169q0 -8 -6 -14t-14 -6h-85q-8 0 -14 6t-6 14v518q0 26 18 44t44 18h376q26 0 44 -18t18 -44v-518q0 -8 -6 -14t-14 -6h-85q-8 0 -14 6t-6 14zM355 827h82q11 0 4 -10q-2 -3 -6 -6l-146 -145q-20 -16 -34 -16h-82
q-13 0 -3 11q2 3 5 5l146 145q20 16 34 16z" />
    <glyph glyph-name="Acircumflex" unicode="&#xc2;" horiz-adv-x="610" 
d="M425 286v190h-250v-190h250zM425 20v169h-250v-169q0 -8 -6 -14t-14 -6h-85q-8 0 -14 6t-6 14v518q0 26 18 44t44 18h376q26 0 44 -18t18 -44v-518q0 -8 -6 -14t-14 -6h-85q-8 0 -14 6t-6 14zM295 834h19q15 0 31 -16l149 -152q5 -5 1.5 -10.5t-13.5 -5.5h-79
q-14 0 -32 16l-66 64l-67 -64q-18 -16 -32 -16h-80q-9 0 -12.5 5.5t1.5 10.5l150 152q16 16 30 16z" />
    <glyph glyph-name="Atilde" unicode="&#xc3;" horiz-adv-x="610" 
d="M425 286v190h-250v-190h250zM425 20v169h-250v-169q0 -8 -6 -14t-14 -6h-85q-8 0 -14 6t-6 14v518q0 26 18 44t44 18h376q26 0 44 -18t18 -44v-518q0 -8 -6 -14t-14 -6h-85q-8 0 -14 6t-6 14zM173 760q22 -20 49.5 -23t49.5 5t54 18.5t54 12.5q66 5 117 -51q7 -8 -3 -21
l-39 -40q-4 -4 -11.5 -3t-12.5 6q-19 20 -45 23t-48 -5.5t-52.5 -19t-51.5 -12.5q-66 -5 -121 47q-8 8 2 21l34 43q3 5 11 4.5t13 -5.5z" />
    <glyph glyph-name="Adieresis" unicode="&#xc4;" horiz-adv-x="610" 
d="M425 286v190h-250v-190h250zM425 20v169h-250v-169q0 -8 -6 -14t-14 -6h-85q-8 0 -14 6t-6 14v518q0 26 18 44t44 18h376q26 0 44 -18t18 -44v-518q0 -8 -6 -14t-14 -6h-85q-8 0 -14 6t-6 14zM269 734v-68q0 -6 -4.5 -11t-11.5 -5h-68q-7 0 -11.5 5t-4.5 11v68
q0 16 16 16h68q16 0 16 -16zM440 734v-68q0 -6 -4.5 -11t-11.5 -5h-68q-7 0 -11.5 5t-4.5 11v68q0 16 16 16h68q16 0 16 -16z" />
    <glyph glyph-name="Aring" unicode="&#xc5;" horiz-adv-x="610" 
d="M425 286v190h-250v-190h250zM425 20v169h-250v-169q0 -8 -6 -14t-14 -6h-85q-8 0 -14 6t-6 14v518q0 26 18 44t44 18h376q26 0 44 -18t18 -44v-518q0 -8 -6 -14t-14 -6h-85q-8 0 -14 6t-6 14zM455 900v-200q0 -21 -14.5 -35.5t-35.5 -14.5h-200q-21 0 -35.5 14.5
t-14.5 35.5v200q0 21 14.5 35.5t35.5 14.5h200q21 0 35.5 -14.5t14.5 -35.5zM355 750v100h-100v-100h100z" />
    <glyph glyph-name="AE" unicode="&#xc6;" horiz-adv-x="975" 
d="M905 0h-460q-8 0 -14 6t-6 14v169h-250v-169q0 -8 -6 -14t-14 -6h-85q-8 0 -14 6t-6 14v518q0 26 18 44t44 18h793q8 0 14 -6t6 -14v-85q0 -8 -6 -14t-14 -6h-355v-113h335q8 0 14 -6t6 -14v-84q0 -8 -6 -14t-14 -6h-335v-113h355q8 0 14 -6t6 -14v-85q0 -8 -6 -14
t-14 -6zM425 286v190h-250v-190h250z" />
    <glyph glyph-name="Ccedilla" unicode="&#xc7;" horiz-adv-x="600" 
d="M234 -82h48v82h-170q-26 0 -44 18t-18 44v476q0 26 18 44t44 18h418q8 0 14 -6t6 -14v-85q0 -8 -6 -14t-14 -6h-355v-350h355q8 0 14 -6t6 -14v-85q0 -8 -6 -14t-14 -6h-148v-132q0 -21 -14.5 -35.5t-34.5 -14.5h-99q-6 0 -11 4.5t-5 11.5v68q0 7 5 11.5t11 4.5z" />
    <glyph glyph-name="Egrave" unicode="&#xc8;" horiz-adv-x="610" 
d="M530 0h-418q-26 0 -44 18t-18 44v476q0 26 18 44t44 18h418q8 0 14 -6t6 -14v-85q0 -8 -6 -14t-14 -6h-355v-113h335q8 0 14 -6t6 -14v-84q0 -8 -6 -14t-14 -6h-335v-113h355q8 0 14 -6t6 -14v-85q0 -8 -6 -14t-14 -6zM172 827h82q14 0 34 -16l146 -145q13 -13 2 -16h-82
q-14 0 -34 16l-146 145q-14 11 -6 15q2 1 4 1z" />
    <glyph glyph-name="Eacute" unicode="&#xc9;" horiz-adv-x="610" 
d="M530 0h-418q-26 0 -44 18t-18 44v476q0 26 18 44t44 18h418q8 0 14 -6t6 -14v-85q0 -8 -6 -14t-14 -6h-355v-113h335q8 0 14 -6t6 -14v-84q0 -8 -6 -14t-14 -6h-335v-113h355q8 0 14 -6t6 -14v-85q0 -8 -6 -14t-14 -6zM355 827h82q11 0 4 -10q-2 -3 -6 -6l-146 -145
q-20 -16 -34 -16h-82q-13 0 -3 11q2 3 5 5l146 145q20 16 34 16z" />
    <glyph glyph-name="Ecircumflex" unicode="&#xca;" horiz-adv-x="610" 
d="M530 0h-418q-26 0 -44 18t-18 44v476q0 26 18 44t44 18h418q8 0 14 -6t6 -14v-85q0 -8 -6 -14t-14 -6h-355v-113h335q8 0 14 -6t6 -14v-84q0 -8 -6 -14t-14 -6h-335v-113h355q8 0 14 -6t6 -14v-85q0 -8 -6 -14t-14 -6zM295 834h19q15 0 31 -16l149 -152q5 -5 1.5 -10.5
t-13.5 -5.5h-79q-14 0 -32 16l-66 64l-67 -64q-18 -16 -32 -16h-80q-9 0 -12.5 5.5t1.5 10.5l150 152q16 16 30 16z" />
    <glyph glyph-name="Edieresis" unicode="&#xcb;" horiz-adv-x="610" 
d="M530 0h-418q-26 0 -44 18t-18 44v476q0 26 18 44t44 18h418q8 0 14 -6t6 -14v-85q0 -8 -6 -14t-14 -6h-355v-113h335q8 0 14 -6t6 -14v-84q0 -8 -6 -14t-14 -6h-335v-113h355q8 0 14 -6t6 -14v-85q0 -8 -6 -14t-14 -6zM269 734v-68q0 -6 -4.5 -11t-11.5 -5h-68
q-7 0 -11.5 5t-4.5 11v68q0 16 16 16h68q16 0 16 -16zM440 734v-68q0 -6 -4.5 -11t-11.5 -5h-68q-7 0 -11.5 5t-4.5 11v68q0 16 16 16h68q16 0 16 -16z" />
    <glyph glyph-name="Igrave" unicode="&#xcc;" horiz-adv-x="225" 
d="M175 580v-560q0 -8 -6 -14t-14 -6h-85q-8 0 -14 6t-6 14v560q0 8 6 14t14 6h85q8 0 14 -6t6 -14zM-106 827h82q14 0 34 -16l146 -145q13 -13 2 -16h-82q-14 0 -34 16l-146 145q-14 11 -6 15q2 1 4 1z" />
    <glyph glyph-name="Iacute" unicode="&#xcd;" horiz-adv-x="225" 
d="M175 580v-560q0 -8 -6 -14t-14 -6h-85q-8 0 -14 6t-6 14v560q0 8 6 14t14 6h85q8 0 14 -6t6 -14zM247 827h82q11 0 4 -10q-2 -3 -6 -6l-146 -145q-20 -16 -34 -16h-82q-13 0 -3 11q2 3 5 5l146 145q20 16 34 16z" />
    <glyph glyph-name="Icircumflex" unicode="&#xce;" horiz-adv-x="225" 
d="M176 580v-560q0 -8 -6 -14t-14 -6h-85q-8 0 -14 6t-6 14v560q0 8 6 14t14 6h85q8 0 14 -6t6 -14zM109 834h19q15 0 31 -16l149 -152q5 -5 1.5 -10.5t-13.5 -5.5h-79q-14 0 -32 16l-66 64l-67 -64q-18 -16 -32 -16h-80q-9 0 -12.5 5.5t1.5 10.5l150 152q16 16 30 16z" />
    <glyph glyph-name="Idieresis" unicode="&#xcf;" horiz-adv-x="225" 
d="M175 580v-560q0 -8 -6 -14t-14 -6h-85q-8 0 -14 6t-6 14v560q0 8 6 14t14 6h85q8 0 14 -6t6 -14zM82 734v-68q0 -6 -4.5 -11t-11.5 -5h-68q-7 0 -11.5 5t-4.5 11v68q0 16 16 16h68q16 0 16 -16zM253 734v-68q0 -6 -4.5 -11t-11.5 -5h-68q-7 0 -11.5 5t-4.5 11v68
q0 16 16 16h68q16 0 16 -16z" />
    <glyph glyph-name="Eth" unicode="&#xd0;" horiz-adv-x="600" 
d="M445 0h-375q-8 0 -14 6t-6 14v233h-64q-7 0 -11.5 5t-4.5 11v60q0 16 16 16h64v235q0 8 6 14t14 6h375q43 0 74 -30t31 -72v-396q0 -42 -31 -72t-74 -30zM230 329v-60q0 -6 -4.5 -11t-11.5 -5h-39v-129h250v352h-250v-131h39q16 0 16 -16z" />
    <glyph glyph-name="Ntilde" unicode="&#xd1;" horiz-adv-x="610" 
d="M550 580v-518q0 -26 -18 -44t-44 -18h-38q-24 0 -38 20l-237 367v-367q0 -8 -6 -14t-14 -6h-85q-8 0 -14 6t-6 14v518q0 26 18 44t44 18h37q24 0 38 -20l238 -371v371q0 8 6 14t14 6h85q8 0 14 -6t6 -14zM173 760q22 -20 49.5 -23t49.5 5t54 18.5t54 12.5q66 5 117 -51
q7 -8 -3 -21l-39 -40q-4 -4 -11.5 -3t-12.5 6q-19 20 -45 23t-48 -5.5t-52.5 -19t-51.5 -12.5q-66 -5 -121 47q-8 8 2 21l34 43q3 5 11 4.5t13 -5.5z" />
    <glyph glyph-name="Ograve" unicode="&#xd2;" horiz-adv-x="610" 
d="M550 538v-476q0 -26 -18 -44t-44 -18h-376q-26 0 -44 18t-18 44v476q0 26 18 44t44 18h376q26 0 44 -18t18 -44zM425 125v350h-250v-350h250zM172 827h82q14 0 34 -16l146 -145q13 -13 2 -16h-82q-14 0 -34 16l-146 145q-14 11 -6 15q2 1 4 1z" />
    <glyph glyph-name="Oacute" unicode="&#xd3;" horiz-adv-x="610" 
d="M550 538v-476q0 -26 -18 -44t-44 -18h-376q-26 0 -44 18t-18 44v476q0 26 18 44t44 18h376q26 0 44 -18t18 -44zM425 125v350h-250v-350h250zM355 827h82q11 0 4 -10q-2 -3 -6 -6l-146 -145q-20 -16 -34 -16h-82q-13 0 -3 11q2 3 5 5l146 145q20 16 34 16z" />
    <glyph glyph-name="Ocircumflex" unicode="&#xd4;" horiz-adv-x="610" 
d="M550 538v-476q0 -26 -18 -44t-44 -18h-376q-26 0 -44 18t-18 44v476q0 26 18 44t44 18h376q26 0 44 -18t18 -44zM425 125v350h-250v-350h250zM295 834h19q15 0 31 -16l149 -152q5 -5 1.5 -10.5t-13.5 -5.5h-79q-14 0 -32 16l-66 64l-67 -64q-18 -16 -32 -16h-80
q-9 0 -12.5 5.5t1.5 10.5l150 152q16 16 30 16z" />
    <glyph glyph-name="Otilde" unicode="&#xd5;" horiz-adv-x="610" 
d="M550 538v-476q0 -26 -18 -44t-44 -18h-376q-26 0 -44 18t-18 44v476q0 26 18 44t44 18h376q26 0 44 -18t18 -44zM425 125v350h-250v-350h250zM173 760q22 -20 49.5 -23t49.5 5t54 18.5t54 12.5q66 5 117 -51q7 -8 -3 -21l-39 -40q-4 -4 -11.5 -3t-12.5 6q-19 20 -45 23
t-48 -5.5t-52.5 -19t-51.5 -12.5q-66 -5 -121 47q-8 8 2 21l34 43q3 5 11 4.5t13 -5.5z" />
    <glyph glyph-name="Odieresis" unicode="&#xd6;" horiz-adv-x="610" 
d="M550 538v-476q0 -26 -18 -44t-44 -18h-376q-26 0 -44 18t-18 44v476q0 26 18 44t44 18h376q26 0 44 -18t18 -44zM425 125v350h-250v-350h250zM269 734v-68q0 -6 -4.5 -11t-11.5 -5h-68q-7 0 -11.5 5t-4.5 11v68q0 16 16 16h68q16 0 16 -16zM440 734v-68q0 -6 -4.5 -11
t-11.5 -5h-68q-7 0 -11.5 5t-4.5 11v68q0 16 16 16h68q16 0 16 -16z" />
    <glyph glyph-name="multiply" unicode="&#xd7;" horiz-adv-x="536" 
d="M109 431l53 53q6 6 14.5 6t13.5 -6l104 -104l105 105q14 14 28 0l53 -53q6 -6 6 -14.5t-6 -13.5l-104 -105l104 -105q6 -5 6 -13.5t-6 -14.5l-53 -53q-14 -14 -28 0l-105 105l-104 -104q-5 -6 -13.5 -6t-14.5 6l-53 53q-14 14 0 28l104 104l-104 104q-14 14 0 28z" />
    <glyph glyph-name="Oslash" unicode="&#xd8;" horiz-adv-x="600" 
d="M550 538v-476q0 -26 -18 -44t-44 -18h-376q-26 0 -44 18t-18 44v476q0 26 18 44t44 18h376q26 0 44 -18t18 -44zM425 125v350h-10l-115 -350h125zM175 475v-350h9l115 350h-124z" />
    <glyph glyph-name="Ugrave" unicode="&#xd9;" horiz-adv-x="610" 
d="M175 580v-455h250v455q0 8 6 14t14 6h85q8 0 14 -6t6 -14v-518q0 -26 -18 -44t-44 -18h-376q-26 0 -44 18t-18 44v518q0 8 6 14t14 6h85q8 0 14 -6t6 -14zM172 827h82q14 0 34 -16l146 -145q13 -13 2 -16h-82q-14 0 -34 16l-146 145q-14 11 -6 15q2 1 4 1z" />
    <glyph glyph-name="Uacute" unicode="&#xda;" horiz-adv-x="610" 
d="M175 580v-455h250v455q0 8 6 14t14 6h85q8 0 14 -6t6 -14v-518q0 -26 -18 -44t-44 -18h-376q-26 0 -44 18t-18 44v518q0 8 6 14t14 6h85q8 0 14 -6t6 -14zM355 827h82q11 0 4 -10q-2 -3 -6 -6l-146 -145q-20 -16 -34 -16h-82q-13 0 -3 11q2 3 5 5l146 145q20 16 34 16z
" />
    <glyph glyph-name="Ucircumflex" unicode="&#xdb;" horiz-adv-x="610" 
d="M175 580v-455h250v455q0 8 6 14t14 6h85q8 0 14 -6t6 -14v-518q0 -26 -18 -44t-44 -18h-376q-26 0 -44 18t-18 44v518q0 8 6 14t14 6h85q8 0 14 -6t6 -14zM295 834h19q15 0 31 -16l149 -152q5 -5 1.5 -10.5t-13.5 -5.5h-79q-14 0 -32 16l-66 64l-67 -64q-18 -16 -32 -16
h-80q-9 0 -12.5 5.5t1.5 10.5l150 152q16 16 30 16z" />
    <glyph glyph-name="Udieresis" unicode="&#xdc;" horiz-adv-x="610" 
d="M175 580v-455h250v455q0 8 6 14t14 6h85q8 0 14 -6t6 -14v-518q0 -26 -18 -44t-44 -18h-376q-26 0 -44 18t-18 44v518q0 8 6 14t14 6h85q8 0 14 -6t6 -14zM269 734v-68q0 -6 -4.5 -11t-11.5 -5h-68q-7 0 -11.5 5t-4.5 11v68q0 16 16 16h68q16 0 16 -16zM440 734v-68
q0 -6 -4.5 -11t-11.5 -5h-68q-7 0 -11.5 5t-4.5 11v68q0 16 16 16h68q16 0 16 -16z" />
    <glyph glyph-name="Yacute" unicode="&#xdd;" horiz-adv-x="600" 
d="M360 827h82q11 0 4 -10q-2 -3 -6 -6l-146 -145q-20 -16 -34 -16h-82q-13 0 -3 11q2 3 5 5l146 145q20 16 34 16zM175 580v-280h250v280q0 8 6 14t14 6h85q8 0 14 -6t6 -14v-518q0 -26 -18 -44t-44 -18h-376q-26 0 -44 18t-18 44v63h375v50h-313q-26 0 -44 18t-18 44v343
q0 8 6 14t14 6h85q8 0 14 -6t6 -14z" />
    <glyph glyph-name="Thorn" unicode="&#xde;" horiz-adv-x="600" 
d="M175 88v-68q0 -8 -6 -14t-14 -6h-85q-8 0 -14 6t-6 14v560q0 8 6 14t14 6h85q8 0 14 -6t6 -14v-68h270q43 0 74 -30t31 -72v-220q0 -42 -31 -72t-74 -30h-270zM175 212h250v176h-250v-176z" />
    <glyph glyph-name="germandbls" unicode="&#xdf;" horiz-adv-x="672" 
d="M112 670h322q26 0 44 -18.5t18 -44.5v-212q0 -8 -6 -14t-14 -6h-129v-62h213q26 0 44 -18t18 -44v-189q0 -26 -18 -44t-44 -18h-318q-8 0 -14 6t-6 14v85q0 8 6 14t14 6h255v63h-213q-26 0 -44 18t-18 44v188q0 26 18 44t44 18h105v45h-214v-525q0 -8 -6 -14t-14 -6h-85
q-8 0 -14 6t-6 14v588q0 26 18 44t44 18z" />
    <glyph glyph-name="agrave" unicode="&#xe0;" horiz-adv-x="500" 
d="M175 215v-90h150v90h-150zM430 0h-318q-26 0 -44 18t-18 44v201q0 26 18 44t44 18h213v50h-255q-8 0 -14 6t-6 14v85q0 8 6 14t14 6h318q26 0 44 -18t18 -44v-418q0 -8 -6 -14t-14 -6zM117 727h82q14 0 34 -16l146 -145q13 -13 2 -16h-82q-14 0 -34 16l-146 145
q-14 11 -6 15q2 1 4 1z" />
    <glyph glyph-name="aacute" unicode="&#xe1;" horiz-adv-x="500" 
d="M175 215v-90h150v90h-150zM430 0h-318q-26 0 -44 18t-18 44v201q0 26 18 44t44 18h213v50h-255q-8 0 -14 6t-6 14v85q0 8 6 14t14 6h318q26 0 44 -18t18 -44v-418q0 -8 -6 -14t-14 -6zM300 727h82q11 0 4 -10q-2 -3 -6 -6l-146 -145q-20 -16 -34 -16h-82q-13 0 -3 11
q2 3 5 5l146 145q20 16 34 16z" />
    <glyph glyph-name="acircumflex" unicode="&#xe2;" horiz-adv-x="500" 
d="M175 215v-90h150v90h-150zM430 0h-318q-26 0 -44 18t-18 44v201q0 26 18 44t44 18h213v50h-255q-8 0 -14 6t-6 14v85q0 8 6 14t14 6h318q26 0 44 -18t18 -44v-418q0 -8 -6 -14t-14 -6zM240 734h19q15 0 31 -16l149 -152q5 -5 1.5 -10.5t-13.5 -5.5h-79q-14 0 -32 16
l-66 64l-67 -64q-18 -16 -32 -16h-80q-9 0 -12.5 5.5t1.5 10.5l150 152q16 16 30 16z" />
    <glyph glyph-name="atilde" unicode="&#xe3;" horiz-adv-x="500" 
d="M175 215v-90h150v90h-150zM430 0h-318q-26 0 -44 18t-18 44v201q0 26 18 44t44 18h213v50h-255q-8 0 -14 6t-6 14v85q0 8 6 14t14 6h318q26 0 44 -18t18 -44v-418q0 -8 -6 -14t-14 -6zM118 660q22 -20 49.5 -23t49.5 5t54 18.5t54 12.5q66 5 117 -51q8 -8 -3 -21l-39 -40
q-4 -4 -11.5 -3t-12.5 6q-19 20 -45 23t-48 -5.5t-52.5 -19t-51.5 -12.5q-66 -5 -121 47q-8 8 2 21l34 43q3 5 11 4.5t13 -5.5z" />
    <glyph glyph-name="adieresis" unicode="&#xe4;" horiz-adv-x="500" 
d="M175 215v-90h150v90h-150zM430 0h-318q-26 0 -44 18t-18 44v201q0 26 18 44t44 18h213v50h-255q-8 0 -14 6t-6 14v85q0 8 6 14t14 6h318q26 0 44 -18t18 -44v-418q0 -8 -6 -14t-14 -6zM214 634v-68q0 -6 -4.5 -11t-11.5 -5h-68q-7 0 -11.5 5t-4.5 11v68q0 16 16 16h68
q16 0 16 -16zM385 634v-68q0 -6 -4.5 -11t-11.5 -5h-68q-7 0 -11.5 5t-4.5 11v68q0 16 16 16h68q16 0 16 -16z" />
    <glyph glyph-name="aring" unicode="&#xe5;" horiz-adv-x="500" 
d="M175 215v-90h150v90h-150zM430 0h-318q-26 0 -44 18t-18 44v201q0 26 18 44t44 18h213v50h-255q-8 0 -14 6t-6 14v85q0 8 6 14t14 6h318q26 0 44 -18t18 -44v-418q0 -8 -6 -14t-14 -6zM400 800v-200q0 -21 -14.5 -35.5t-35.5 -14.5h-200q-21 0 -35.5 14.5t-14.5 35.5v200
q0 21 14.5 35.5t35.5 14.5h200q21 0 35.5 -14.5t14.5 -35.5zM300 650v100h-100v-100h100z" />
    <glyph glyph-name="ae" unicode="&#xe6;" horiz-adv-x="775" 
d="M725 438v-201q0 -26 -18 -44t-44 -18h-213v-50h255q8 0 14 -6t6 -14v-85q0 -8 -6 -14t-14 -6h-593q-26 0 -44 18t-18 44v201q0 26 18 44t44 18h213v50h-255q-8 0 -14 6t-6 14v85q0 8 6 14t14 6h593q26 0 44 -18t18 -44zM600 285v90h-150v-90h150zM175 215v-90h150v90
h-150z" />
    <glyph glyph-name="ccedilla" unicode="&#xe7;" horiz-adv-x="500" 
d="M430 0h-318q-26 0 -44 18t-18 44v376q0 26 18 44t44 18h318q8 0 14 -6t6 -14v-85q0 -8 -6 -14t-14 -6h-255v-250h255q8 0 14 -6t6 -14v-85q0 -8 -6 -14t-14 -6zM197 -82h48v82h100v-132q0 -21 -14.5 -35.5t-34.5 -14.5h-99q-6 0 -11 4.5t-5 11.5v68q0 7 5 11.5t11 4.5z
" />
    <glyph glyph-name="egrave" unicode="&#xe8;" horiz-adv-x="500" 
d="M450 438v-201q0 -26 -18 -44t-44 -18h-213v-50h255q8 0 14 -6t6 -14v-85q0 -8 -6 -14t-14 -6h-318q-26 0 -44 18t-18 44v376q0 26 18 44t44 18h276q26 0 44 -18t18 -44zM325 285v90h-150v-90h150zM117 727h82q14 0 34 -16l146 -145q13 -13 2 -16h-82q-14 0 -34 16
l-146 145q-14 11 -6 15q2 1 4 1z" />
    <glyph glyph-name="eacute" unicode="&#xe9;" horiz-adv-x="500" 
d="M450 438v-201q0 -26 -18 -44t-44 -18h-213v-50h255q8 0 14 -6t6 -14v-85q0 -8 -6 -14t-14 -6h-318q-26 0 -44 18t-18 44v376q0 26 18 44t44 18h276q26 0 44 -18t18 -44zM325 285v90h-150v-90h150zM300 727h82q11 0 4 -10q-2 -3 -6 -6l-146 -145q-20 -16 -34 -16h-82
q-13 0 -3 11q2 3 5 5l146 145q20 16 34 16z" />
    <glyph glyph-name="ecircumflex" unicode="&#xea;" horiz-adv-x="500" 
d="M450 438v-201q0 -26 -18 -44t-44 -18h-213v-50h255q8 0 14 -6t6 -14v-85q0 -8 -6 -14t-14 -6h-318q-26 0 -44 18t-18 44v376q0 26 18 44t44 18h276q26 0 44 -18t18 -44zM325 285v90h-150v-90h150zM240 734h19q15 0 31 -16l149 -152q5 -5 1.5 -10.5t-13.5 -5.5h-79
q-14 0 -32 16l-66 64l-67 -64q-18 -16 -32 -16h-80q-9 0 -12.5 5.5t1.5 10.5l150 152q16 16 30 16z" />
    <glyph glyph-name="edieresis" unicode="&#xeb;" horiz-adv-x="500" 
d="M450 438v-201q0 -26 -18 -44t-44 -18h-213v-50h255q8 0 14 -6t6 -14v-85q0 -8 -6 -14t-14 -6h-318q-26 0 -44 18t-18 44v376q0 26 18 44t44 18h276q26 0 44 -18t18 -44zM325 285v90h-150v-90h150zM214 634v-68q0 -6 -4.5 -11t-11.5 -5h-68q-7 0 -11.5 5t-4.5 11v68
q0 16 16 16h68q16 0 16 -16zM385 634v-68q0 -6 -4.5 -11t-11.5 -5h-68q-7 0 -11.5 5t-4.5 11v68q0 16 16 16h68q16 0 16 -16z" />
    <glyph glyph-name="igrave" unicode="&#xec;" horiz-adv-x="225" 
d="M40 566l-146 145q-14 11 -6 15q2 1 4 1h82q14 0 34 -16l146 -146q13 -13 2 -16l-82 1q-14 0 -34 16zM175 480v-460q0 -8 -6 -14t-14 -6h-85q-8 0 -14 6t-6 14v460q0 8 6 14t14 6h85q8 0 14 -6t6 -14z" />
    <glyph glyph-name="iacute" unicode="&#xed;" horiz-adv-x="225" 
d="M60 566l146 145q20 16 34 16h82q11 0 4 -10q-2 -3 -6 -6l-146 -145q-20 -16 -34 -16h-82q-13 0 -3 11q2 3 5 5zM70 500h85q8 0 14 -6t6 -14v-460q0 -8 -6 -14t-14 -6h-85q-8 0 -14 6t-6 14v460q0 8 6 14t14 6z" />
    <glyph glyph-name="icircumflex" unicode="&#xee;" horiz-adv-x="225" 
d="M154 718l149 -152q5 -5 1.5 -10.5t-13.5 -5.5h-79q-14 0 -32 16l-66 64l-67 -64q-18 -16 -32 -16h-80q-9 0 -12.5 5.5t1.5 10.5l150 152q16 16 30 16h19q15 0 31 -16zM176 480v-460q0 -8 -6 -14t-14 -6h-85q-8 0 -14 6t-6 14v460q0 8 6 14t14 6h85q8 0 14 -6t6 -14z" />
    <glyph glyph-name="idieresis" unicode="&#xef;" horiz-adv-x="225" 
d="M175 480v-460q0 -8 -6 -14t-14 -6h-85q-8 0 -14 6t-6 14v460q0 8 6 14t14 6h85q8 0 14 -6t6 -14zM77 634v-68q0 -6 -4.5 -11t-11.5 -5h-68q-7 0 -11.5 5t-4.5 11v68q0 16 16 16h68q16 0 16 -16zM248 634v-68q0 -6 -4.5 -11t-11.5 -5h-68q-7 0 -11.5 5t-4.5 11v68
q0 16 16 16h68q16 0 16 -16z" />
    <glyph glyph-name="eth" unicode="&#xf0;" horiz-adv-x="500" 
d="M490 614v-60q0 -6 -4.5 -11t-11.5 -5h-24v-518q0 -8 -6 -14t-14 -6h-318q-26 0 -44 18t-18 44v376q0 26 18 44t44 18h213v38h-79q-7 0 -11.5 5t-4.5 11v60q0 16 16 16h79q0 8 6 14t14 6h85q8 0 14 -6t6 -14h24q16 0 16 -16zM175 375v-250h150v250h-150z" />
    <glyph glyph-name="ntilde" unicode="&#xf1;" horiz-adv-x="500" 
d="M325 375h-150v-355q0 -8 -6 -14t-14 -6h-85q-8 0 -14 6t-6 14v460q0 8 6 14t14 6h318q26 0 44 -18t18 -44v-418q0 -8 -6 -14t-14 -6h-85q-8 0 -14 6t-6 14v355zM118 660q22 -20 49.5 -23t49.5 5t54 18.5t54 12.5q66 5 117 -51q8 -8 -3 -21l-39 -40q-4 -4 -11.5 -3
t-12.5 6q-19 20 -45 23t-48 -5.5t-52.5 -19t-51.5 -12.5q-66 -5 -121 47q-8 8 2 21l34 43q3 5 11 4.5t13 -5.5z" />
    <glyph glyph-name="ograve" unicode="&#xf2;" horiz-adv-x="500" 
d="M450 438v-376q0 -26 -18 -44t-44 -18h-276q-26 0 -44 18t-18 44v376q0 26 18 44t44 18h276q26 0 44 -18t18 -44zM325 125v250h-150v-250h150zM117 727h82q14 0 34 -16l146 -145q13 -13 2 -16h-82q-14 0 -34 16l-146 145q-14 11 -6 15q2 1 4 1z" />
    <glyph glyph-name="oacute" unicode="&#xf3;" horiz-adv-x="500" 
d="M450 438v-376q0 -26 -18 -44t-44 -18h-276q-26 0 -44 18t-18 44v376q0 26 18 44t44 18h276q26 0 44 -18t18 -44zM325 125v250h-150v-250h150zM300 727h82q11 0 4 -10q-2 -3 -6 -6l-146 -145q-20 -16 -34 -16h-82q-13 0 -3 11q2 3 5 5l146 145q20 16 34 16z" />
    <glyph glyph-name="ocircumflex" unicode="&#xf4;" horiz-adv-x="500" 
d="M450 438v-376q0 -26 -18 -44t-44 -18h-276q-26 0 -44 18t-18 44v376q0 26 18 44t44 18h276q26 0 44 -18t18 -44zM325 125v250h-150v-250h150zM240 734h19q15 0 31 -16l149 -152q5 -5 1.5 -10.5t-13.5 -5.5h-79q-14 0 -32 16l-66 64l-67 -64q-18 -16 -32 -16h-80
q-9 0 -12.5 5.5t1.5 10.5l150 152q16 16 30 16z" />
    <glyph glyph-name="otilde" unicode="&#xf5;" horiz-adv-x="500" 
d="M450 438v-376q0 -26 -18 -44t-44 -18h-276q-26 0 -44 18t-18 44v376q0 26 18 44t44 18h276q26 0 44 -18t18 -44zM325 125v250h-150v-250h150zM118 660q22 -20 49.5 -23t49.5 5t54 18.5t54 12.5q66 5 117 -51q8 -8 -3 -21l-39 -40q-4 -4 -11.5 -3t-12.5 6q-19 20 -45 23
t-48 -5.5t-52.5 -19t-51.5 -12.5q-66 -5 -121 47q-8 8 2 21l34 43q3 5 11 4.5t13 -5.5z" />
    <glyph glyph-name="odieresis" unicode="&#xf6;" horiz-adv-x="500" 
d="M450 438v-376q0 -26 -18 -44t-44 -18h-276q-26 0 -44 18t-18 44v376q0 26 18 44t44 18h276q26 0 44 -18t18 -44zM325 125v250h-150v-250h150zM214 634v-68q0 -6 -4.5 -11t-11.5 -5h-68q-7 0 -11.5 5t-4.5 11v68q0 16 16 16h68q16 0 16 -16zM385 634v-68q0 -6 -4.5 -11
t-11.5 -5h-68q-7 0 -11.5 5t-4.5 11v68q0 16 16 16h68q16 0 16 -16z" />
    <glyph glyph-name="divide" unicode="&#xf7;" horiz-adv-x="570" 
d="M90 357h410q8 0 14 -6t6 -14v-75q0 -8 -6 -14t-14 -6h-410q-8 0 -14 6t-6 14v75q0 8 6 14t14 6zM357 505v-66q0 -8 -6 -14t-14 -6h-85q-8 0 -14 6t-6 14v66q0 8 6 14t14 6h85q8 0 14 -6t6 -14zM357 161v-66q0 -8 -6 -14t-14 -6h-85q-8 0 -14 6t-6 14v66q0 8 6 14t14 6h85
q8 0 14 -6t6 -14z" />
    <glyph glyph-name="oslash" unicode="&#xf8;" horiz-adv-x="500" 
d="M450 438v-376q0 -26 -18 -44t-44 -18h-276q-26 0 -44 18t-18 44v376q0 26 18 44t44 18h276q26 0 44 -18t18 -44zM325 125v250h-3l-45 -250h48zM175 375v-250h3l49 250h-52z" />
    <glyph glyph-name="ugrave" unicode="&#xf9;" horiz-adv-x="500" 
d="M175 480v-355h150v355q0 8 6 14t14 6h85q8 0 14 -6t6 -14v-418q0 -26 -18 -44t-44 -18h-276q-26 0 -44 18t-18 44v418q0 8 6 14t14 6h85q8 0 14 -6t6 -14zM117 727h82q14 0 34 -16l146 -145q13 -13 2 -16h-82q-14 0 -34 16l-146 145q-14 11 -6 15q2 1 4 1z" />
    <glyph glyph-name="uacute" unicode="&#xfa;" horiz-adv-x="500" 
d="M175 480v-355h150v355q0 8 6 14t14 6h85q8 0 14 -6t6 -14v-418q0 -26 -18 -44t-44 -18h-276q-26 0 -44 18t-18 44v418q0 8 6 14t14 6h85q8 0 14 -6t6 -14zM300 727h82q11 0 4 -10q-2 -3 -6 -6l-146 -145q-20 -16 -34 -16h-82q-13 0 -3 11q2 3 5 5l146 145q20 16 34 16z
" />
    <glyph glyph-name="ucircumflex" unicode="&#xfb;" horiz-adv-x="500" 
d="M175 480v-355h150v355q0 8 6 14t14 6h85q8 0 14 -6t6 -14v-418q0 -26 -18 -44t-44 -18h-276q-26 0 -44 18t-18 44v418q0 8 6 14t14 6h85q8 0 14 -6t6 -14zM240 734h19q15 0 31 -16l149 -152q5 -5 1.5 -10.5t-13.5 -5.5h-79q-14 0 -32 16l-66 64l-67 -64q-18 -16 -32 -16
h-80q-9 0 -12.5 5.5t1.5 10.5l150 152q16 16 30 16z" />
    <glyph glyph-name="udieresis" unicode="&#xfc;" horiz-adv-x="500" 
d="M175 480v-355h150v355q0 8 6 14t14 6h85q8 0 14 -6t6 -14v-418q0 -26 -18 -44t-44 -18h-276q-26 0 -44 18t-18 44v418q0 8 6 14t14 6h85q8 0 14 -6t6 -14zM214 634v-68q0 -6 -4.5 -11t-11.5 -5h-68q-7 0 -11.5 5t-4.5 11v68q0 16 16 16h68q16 0 16 -16zM385 634v-68
q0 -6 -4.5 -11t-11.5 -5h-68q-7 0 -11.5 5t-4.5 11v68q0 16 16 16h68q16 0 16 -16z" />
    <glyph glyph-name="yacute" unicode="&#xfd;" horiz-adv-x="500" 
d="M450 480v-568q0 -26 -18 -44t-44 -18h-298q-8 0 -14 6t-6 14v85q0 8 6 14t14 6h235v50h-213q-26 0 -44 18t-18 44v393q0 8 6 14t14 6h85q8 0 14 -6t6 -14v-345h150v345q0 8 6 14t14 6h85q8 0 14 -6t6 -14zM300 727h82q11 0 4 -10q-2 -3 -6 -6l-146 -145q-20 -16 -34 -16
h-82q-13 0 -3 11q2 3 5 5l146 145q20 16 34 16z" />
    <glyph glyph-name="thorn" unicode="&#xfe;" horiz-adv-x="500" 
d="M50 -130v760q0 8 6 14t14 6h85q8 0 14 -6t6 -14v-130h213q26 0 44 -18t18 -44v-376q0 -26 -18 -44t-44 -18h-213v-130q0 -8 -6 -14t-14 -6h-85q-8 0 -14 6t-6 14zM325 125v250h-150v-250h150z" />
    <glyph glyph-name="ydieresis" unicode="&#xff;" horiz-adv-x="500" 
d="M450 480v-568q0 -26 -18 -44t-44 -18h-298q-8 0 -14 6t-6 14v85q0 8 6 14t14 6h235v50h-213q-26 0 -44 18t-18 44v393q0 8 6 14t14 6h85q8 0 14 -6t6 -14v-345h150v345q0 8 6 14t14 6h85q8 0 14 -6t6 -14zM214 634v-68q0 -6 -4.5 -11t-11.5 -5h-68q-7 0 -11.5 5t-4.5 11
v68q0 16 16 16h68q16 0 16 -16zM385 634v-68q0 -6 -4.5 -11t-11.5 -5h-68q-7 0 -11.5 5t-4.5 11v68q0 16 16 16h68q16 0 16 -16z" />
    <glyph glyph-name="Amacron" unicode="&#x100;" horiz-adv-x="610" 
d="M425 286v190h-250v-190h250zM425 20v169h-250v-169q0 -8 -6 -14t-14 -6h-85q-8 0 -14 6t-6 14v518q0 26 18 44t44 18h376q26 0 44 -18t18 -44v-518q0 -8 -6 -14t-14 -6h-85q-8 0 -14 6t-6 14zM472 726v-60q0 -6 -4.5 -11t-11.5 -5h-302q-7 0 -11.5 5t-4.5 11v60
q0 16 16 16h302q16 0 16 -16z" />
    <glyph glyph-name="amacron" unicode="&#x101;" horiz-adv-x="500" 
d="M175 215v-90h150v90h-150zM430 0h-318q-26 0 -44 18t-18 44v201q0 26 18 44t44 18h213v50h-255q-8 0 -14 6t-6 14v85q0 8 6 14t14 6h318q26 0 44 -18t18 -44v-418q0 -8 -6 -14t-14 -6zM417 626v-60q0 -6 -4.5 -11t-11.5 -5h-302q-7 0 -11.5 5t-4.5 11v60q0 16 16 16h302
q16 0 16 -16z" />
    <glyph glyph-name="Abreve" unicode="&#x102;" horiz-adv-x="610" 
d="M425 286v190h-250v-190h250zM425 20v169h-250v-169q0 -8 -6 -14t-14 -6h-85q-8 0 -14 6t-6 14v518q0 26 18 44t44 18h376q26 0 44 -18t18 -44v-518q0 -8 -6 -14t-14 -6h-85q-8 0 -14 6t-6 14zM483 697q-175 -93 -356 0q-16 8 -5 23l26 49q6 13 21 8q135 -69 272 0
q15 5 21 -8l26 -49q11 -15 -5 -23z" />
    <glyph glyph-name="abreve" unicode="&#x103;" horiz-adv-x="500" 
d="M175 215v-90h150v90h-150zM430 0h-318q-26 0 -44 18t-18 44v201q0 26 18 44t44 18h213v50h-255q-8 0 -14 6t-6 14v85q0 8 6 14t14 6h318q26 0 44 -18t18 -44v-418q0 -8 -6 -14t-14 -6zM428 597q-175 -93 -356 0q-16 8 -5 23l26 49q6 13 21 8q135 -69 272 0q15 5 21 -8
l26 -49q11 -15 -5 -23z" />
    <glyph glyph-name="Aogonek" unicode="&#x104;" horiz-adv-x="605" 
d="M425 20v169h-250v-169q0 -8 -6 -14t-14 -6h-85q-8 0 -14 6t-6 14v518q0 26 18 44t44 18h376q26 0 44 -18t18 -44v-518q0 -10 -9 -17l115 -136q13 -16 -4 -16h-78q-15 0 -29 16l-108 134q-12 4 -12 19zM425 286v190h-250v-190h250z" />
    <glyph glyph-name="aogonek" unicode="&#x105;" horiz-adv-x="500" 
d="M175 215v-90h150v90h-150zM430 0h-318q-26 0 -44 18t-18 44v201q0 26 18 44t44 18h213v50h-255q-8 0 -14 6t-6 14v85q0 8 6 14t14 6h318q26 0 44 -18t18 -44v-418q0 -8 -6 -14t-14 -6zM308 0h108l112 -133q13 -16 -4 -16h-78q-15 0 -29 16z" />
    <glyph glyph-name="Cacute" unicode="&#x106;" horiz-adv-x="610" 
d="M530 0h-418q-26 0 -44 18t-18 44v476q0 26 18 44t44 18h418q8 0 14 -6t6 -14v-85q0 -8 -6 -14t-14 -6h-355v-350h355q8 0 14 -6t6 -14v-85q0 -8 -6 -14t-14 -6zM355 827h82q11 0 4 -10q-2 -3 -6 -6l-146 -145q-20 -16 -34 -16h-82q-13 0 -3 11q2 3 5 5l146 145
q20 16 34 16z" />
    <glyph glyph-name="cacute" unicode="&#x107;" horiz-adv-x="500" 
d="M430 0h-318q-26 0 -44 18t-18 44v376q0 26 18 44t44 18h318q8 0 14 -6t6 -14v-85q0 -8 -6 -14t-14 -6h-255v-250h255q8 0 14 -6t6 -14v-85q0 -8 -6 -14t-14 -6zM300 727h82q11 0 4 -10q-2 -3 -6 -6l-146 -145q-20 -16 -34 -16h-82q-13 0 -3 11q2 3 5 5l146 145
q20 16 34 16z" />
    <glyph glyph-name="Ccircumflex" unicode="&#x108;" horiz-adv-x="610" 
d="M530 0h-418q-26 0 -44 18t-18 44v476q0 26 18 44t44 18h418q8 0 14 -6t6 -14v-85q0 -8 -6 -14t-14 -6h-355v-350h355q8 0 14 -6t6 -14v-85q0 -8 -6 -14t-14 -6zM295 834h19q15 0 31 -16l149 -152q5 -5 1.5 -10.5t-13.5 -5.5h-79q-14 0 -32 16l-66 64l-67 -64
q-18 -16 -32 -16h-80q-9 0 -12.5 5.5t1.5 10.5l150 152q16 16 30 16z" />
    <glyph glyph-name="ccircumflex" unicode="&#x109;" horiz-adv-x="500" 
d="M430 0h-318q-26 0 -44 18t-18 44v376q0 26 18 44t44 18h318q8 0 14 -6t6 -14v-85q0 -8 -6 -14t-14 -6h-255v-250h255q8 0 14 -6t6 -14v-85q0 -8 -6 -14t-14 -6zM240 734h19q15 0 31 -16l149 -152q5 -5 1.5 -10.5t-13.5 -5.5h-79q-14 0 -32 16l-66 64l-67 -64
q-18 -16 -32 -16h-80q-9 0 -12.5 5.5t1.5 10.5l150 152q16 16 30 16z" />
    <glyph glyph-name="Cdotaccent" unicode="&#x10a;" horiz-adv-x="610" 
d="M530 0h-418q-26 0 -44 18t-18 44v476q0 26 18 44t44 18h418q8 0 14 -6t6 -14v-85q0 -8 -6 -14t-14 -6h-355v-350h355q8 0 14 -6t6 -14v-85q0 -8 -6 -14t-14 -6zM355 734v-68q0 -6 -4.5 -11t-11.5 -5h-68q-7 0 -11.5 5t-4.5 11v68q0 16 16 16h68q16 0 16 -16z" />
    <glyph glyph-name="cdotaccent" unicode="&#x10b;" horiz-adv-x="500" 
d="M430 0h-318q-26 0 -44 18t-18 44v376q0 26 18 44t44 18h318q8 0 14 -6t6 -14v-85q0 -8 -6 -14t-14 -6h-255v-250h255q8 0 14 -6t6 -14v-85q0 -8 -6 -14t-14 -6zM300 634v-68q0 -6 -4.5 -11t-11.5 -5h-68q-7 0 -11.5 5t-4.5 11v68q0 16 16 16h68q16 0 16 -16z" />
    <glyph glyph-name="Ccaron" unicode="&#x10c;" horiz-adv-x="610" 
d="M530 0h-418q-26 0 -44 18t-18 44v476q0 26 18 44t44 18h418q8 0 14 -6t6 -14v-85q0 -8 -6 -14t-14 -6h-355v-350h355q8 0 14 -6t6 -14v-85q0 -8 -6 -14t-14 -6zM314 650h-19q-14 0 -30 16l-150 152q-5 5 -1.5 10.5t12.5 5.5h80q14 0 32 -16l67 -64l66 64q18 16 32 16h79
q10 0 13.5 -5.5t-1.5 -10.5l-149 -152q-16 -16 -31 -16z" />
    <glyph glyph-name="ccaron" unicode="&#x10d;" horiz-adv-x="500" 
d="M430 0h-318q-26 0 -44 18t-18 44v376q0 26 18 44t44 18h318q8 0 14 -6t6 -14v-85q0 -8 -6 -14t-14 -6h-255v-250h255q8 0 14 -6t6 -14v-85q0 -8 -6 -14t-14 -6zM259 550h-19q-14 0 -30 16l-150 152q-5 5 -1.5 10.5t12.5 5.5h80q14 0 32 -16l67 -64l66 64q18 16 32 16h79
q10 0 13.5 -5.5t-1.5 -10.5l-149 -152q-16 -16 -31 -16z" />
    <glyph glyph-name="Dcaron" unicode="&#x10e;" horiz-adv-x="611" 
d="M426 124v352h-250v-352h250zM446 0h-375q-8 0 -14 6t-6 14v560q0 8 6 14t14 6h375q43 0 74 -30t31 -72v-396q0 -42 -31 -72t-74 -30zM314 650h-19q-14 0 -30 16l-150 152q-5 5 -1.5 10.5t12.5 5.5h80q14 0 32 -16l67 -64l66 64q18 16 32 16h79q10 0 13.5 -5.5t-1.5 -10.5
l-149 -152q-16 -16 -31 -16z" />
    <glyph glyph-name="dcaron" unicode="&#x10f;" horiz-adv-x="500" 
d="M325 500v130q0 8 6 14t14 6h85q8 0 14 -6t6 -14v-610q0 -8 -6 -14t-14 -6h-318q-26 0 -44 18t-18 44v376q0 26 18 44t44 18h213zM175 375v-250h150v250h-150zM582 630v-180q0 -8 -6 -14t-14 -6h-60q-8 0 -14 6t-6 14v180q0 8 6 14t14 6h60q8 0 14 -6t6 -14z" />
    <glyph glyph-name="Dcroat" unicode="&#x110;" horiz-adv-x="600" 
d="M445 0h-375q-8 0 -14 6t-6 14v233h-64q-7 0 -11.5 5t-4.5 11v60q0 16 16 16h64v235q0 8 6 14t14 6h375q43 0 74 -30t31 -72v-396q0 -42 -31 -72t-74 -30zM230 329v-60q0 -6 -4.5 -11t-11.5 -5h-39v-129h250v352h-250v-131h39q16 0 16 -16z" />
    <glyph glyph-name="dslash" unicode="&#x111;" horiz-adv-x="500" 
d="M490 614v-60q0 -6 -4.5 -11t-11.5 -5h-24v-518q0 -8 -6 -14t-14 -6h-318q-26 0 -44 18t-18 44v376q0 26 18 44t44 18h213v38h-79q-7 0 -11.5 5t-4.5 11v60q0 16 16 16h79q0 8 6 14t14 6h85q8 0 14 -6t6 -14h24q16 0 16 -16zM175 375v-250h150v250h-150z" />
    <glyph glyph-name="Emacron" unicode="&#x112;" horiz-adv-x="610" 
d="M530 0h-418q-26 0 -44 18t-18 44v476q0 26 18 44t44 18h418q8 0 14 -6t6 -14v-85q0 -8 -6 -14t-14 -6h-355v-113h335q8 0 14 -6t6 -14v-84q0 -8 -6 -14t-14 -6h-335v-113h355q8 0 14 -6t6 -14v-85q0 -8 -6 -14t-14 -6zM472 726v-60q0 -6 -4.5 -11t-11.5 -5h-302
q-7 0 -11.5 5t-4.5 11v60q0 16 16 16h302q16 0 16 -16z" />
    <glyph glyph-name="emacron" unicode="&#x113;" horiz-adv-x="500" 
d="M450 438v-201q0 -26 -18 -44t-44 -18h-213v-50h255q8 0 14 -6t6 -14v-85q0 -8 -6 -14t-14 -6h-318q-26 0 -44 18t-18 44v376q0 26 18 44t44 18h276q26 0 44 -18t18 -44zM325 285v90h-150v-90h150zM417 626v-60q0 -6 -4.5 -11t-11.5 -5h-302q-7 0 -11.5 5t-4.5 11v60
q0 16 16 16h302q16 0 16 -16z" />
    <glyph glyph-name="Ebreve" unicode="&#x114;" horiz-adv-x="610" 
d="M530 0h-418q-26 0 -44 18t-18 44v476q0 26 18 44t44 18h418q8 0 14 -6t6 -14v-85q0 -8 -6 -14t-14 -6h-355v-113h335q8 0 14 -6t6 -14v-84q0 -8 -6 -14t-14 -6h-335v-113h355q8 0 14 -6t6 -14v-85q0 -8 -6 -14t-14 -6zM483 697q-175 -93 -356 0q-16 8 -5 23l26 49
q6 13 21 8q135 -69 272 0q15 5 21 -8l26 -49q11 -15 -5 -23z" />
    <glyph glyph-name="ebreve" unicode="&#x115;" horiz-adv-x="500" 
d="M450 438v-201q0 -26 -18 -44t-44 -18h-213v-50h255q8 0 14 -6t6 -14v-85q0 -8 -6 -14t-14 -6h-318q-26 0 -44 18t-18 44v376q0 26 18 44t44 18h276q26 0 44 -18t18 -44zM325 285v90h-150v-90h150zM428 597q-175 -93 -356 0q-16 8 -5 23l26 49q6 13 21 8q135 -69 272 0
q15 5 21 -8l26 -49q11 -15 -5 -23z" />
    <glyph glyph-name="Edotaccent" unicode="&#x116;" horiz-adv-x="610" 
d="M530 0h-418q-26 0 -44 18t-18 44v476q0 26 18 44t44 18h418q8 0 14 -6t6 -14v-85q0 -8 -6 -14t-14 -6h-355v-113h335q8 0 14 -6t6 -14v-84q0 -8 -6 -14t-14 -6h-335v-113h355q8 0 14 -6t6 -14v-85q0 -8 -6 -14t-14 -6zM355 734v-68q0 -6 -4.5 -11t-11.5 -5h-68
q-7 0 -11.5 5t-4.5 11v68q0 16 16 16h68q16 0 16 -16z" />
    <glyph glyph-name="edotaccent" unicode="&#x117;" horiz-adv-x="500" 
d="M450 438v-201q0 -26 -18 -44t-44 -18h-213v-50h255q8 0 14 -6t6 -14v-85q0 -8 -6 -14t-14 -6h-318q-26 0 -44 18t-18 44v376q0 26 18 44t44 18h276q26 0 44 -18t18 -44zM325 285v90h-150v-90h150zM300 634v-68q0 -6 -4.5 -11t-11.5 -5h-68q-7 0 -11.5 5t-4.5 11v68
q0 16 16 16h68q16 0 16 -16z" />
    <glyph glyph-name="Eogonek" unicode="&#x118;" horiz-adv-x="610" 
d="M530 0h-418q-26 0 -44 18t-18 44v476q0 26 18 44t44 18h418q8 0 14 -6t6 -14v-85q0 -8 -6 -14t-14 -6h-355v-113h335q8 0 14 -6t6 -14v-84q0 -8 -6 -14t-14 -6h-335v-113h355q8 0 14 -6t6 -14v-85q0 -8 -6 -14t-14 -6zM400 0h108l112 -133q13 -16 -4 -16h-78
q-15 0 -29 16z" />
    <glyph glyph-name="eogonek" unicode="&#x119;" horiz-adv-x="500" 
d="M450 438v-201q0 -26 -18 -44t-44 -18h-213v-50h255q8 0 14 -6t6 -14v-85q0 -8 -6 -14t-14 -6h-318q-26 0 -44 18t-18 44v376q0 26 18 44t44 18h276q26 0 44 -18t18 -44zM325 285v90h-150v-90h150zM304 0h108l112 -133q13 -16 -4 -16h-78q-15 0 -29 16z" />
    <glyph glyph-name="Ecaron" unicode="&#x11a;" horiz-adv-x="610" 
d="M530 0h-418q-26 0 -44 18t-18 44v476q0 26 18 44t44 18h418q8 0 14 -6t6 -14v-85q0 -8 -6 -14t-14 -6h-355v-113h335q8 0 14 -6t6 -14v-84q0 -8 -6 -14t-14 -6h-335v-113h355q8 0 14 -6t6 -14v-85q0 -8 -6 -14t-14 -6zM314 650h-19q-14 0 -30 16l-150 152q-5 5 -1.5 10.5
t12.5 5.5h80q14 0 32 -16l67 -64l66 64q18 16 32 16h79q10 0 13.5 -5.5t-1.5 -10.5l-149 -152q-16 -16 -31 -16z" />
    <glyph glyph-name="ecaron" unicode="&#x11b;" horiz-adv-x="500" 
d="M450 438v-201q0 -26 -18 -44t-44 -18h-213v-50h255q8 0 14 -6t6 -14v-85q0 -8 -6 -14t-14 -6h-318q-26 0 -44 18t-18 44v376q0 26 18 44t44 18h276q26 0 44 -18t18 -44zM325 285v90h-150v-90h150zM259 550h-19q-14 0 -30 16l-150 152q-5 5 -1.5 10.5t12.5 5.5h80
q14 0 32 -16l67 -64l66 64q18 16 32 16h79q10 0 13.5 -5.5t-1.5 -10.5l-149 -152q-16 -16 -31 -16z" />
    <glyph glyph-name="Gcircumflex" unicode="&#x11c;" horiz-adv-x="610" 
d="M320 362h210q8 0 14 -6t6 -14v-280q0 -26 -18 -44t-44 -18h-376q-26 0 -44 18t-18 44v476q0 26 18 44t44 18h418q8 0 14 -6t6 -14v-85q0 -8 -6 -14t-14 -6h-355v-350h250v113h-105q-8 0 -14 6t-6 14v84q0 8 6 14t14 6zM295 834h19q15 0 31 -16l149 -152q5 -5 1.5 -10.5
t-13.5 -5.5h-79q-14 0 -32 16l-66 64l-67 -64q-18 -16 -32 -16h-80q-9 0 -12.5 5.5t1.5 10.5l150 152q16 16 30 16z" />
    <glyph glyph-name="gcircumflex" unicode="&#x11d;" horiz-adv-x="500" 
d="M50 87v351q0 26 18 44t44 18h276q26 0 44 -18t18 -44v-526q0 -26 -18 -44t-44 -18h-298q-8 0 -14 6t-6 14v85q0 8 6 14t14 6h235v50h-213q-26 0 -44 18t-18 44zM175 375v-240h150v240h-150zM240 734h19q15 0 31 -16l149 -152q5 -5 1.5 -10.5t-13.5 -5.5h-79q-14 0 -32 16
l-66 64l-67 -64q-18 -16 -32 -16h-80q-9 0 -12.5 5.5t1.5 10.5l150 152q16 16 30 16z" />
    <glyph glyph-name="Gbreve" unicode="&#x11e;" horiz-adv-x="610" 
d="M320 362h210q8 0 14 -6t6 -14v-280q0 -26 -18 -44t-44 -18h-376q-26 0 -44 18t-18 44v476q0 26 18 44t44 18h418q8 0 14 -6t6 -14v-85q0 -8 -6 -14t-14 -6h-355v-350h250v113h-105q-8 0 -14 6t-6 14v84q0 8 6 14t14 6zM483 697q-175 -93 -356 0q-16 8 -5 23l26 49
q6 13 21 8q135 -69 272 0q15 5 21 -8l26 -49q11 -15 -5 -23z" />
    <glyph glyph-name="gbreve" unicode="&#x11f;" horiz-adv-x="500" 
d="M50 87v351q0 26 18 44t44 18h276q26 0 44 -18t18 -44v-526q0 -26 -18 -44t-44 -18h-298q-8 0 -14 6t-6 14v85q0 8 6 14t14 6h235v50h-213q-26 0 -44 18t-18 44zM175 375v-240h150v240h-150zM428 597q-175 -93 -356 0q-16 8 -5 23l26 49q6 13 21 8q135 -69 272 0
q15 5 21 -8l26 -49q11 -15 -5 -23z" />
    <glyph glyph-name="Gdotaccent" unicode="&#x120;" horiz-adv-x="610" 
d="M320 362h210q8 0 14 -6t6 -14v-280q0 -26 -18 -44t-44 -18h-376q-26 0 -44 18t-18 44v476q0 26 18 44t44 18h418q8 0 14 -6t6 -14v-85q0 -8 -6 -14t-14 -6h-355v-350h250v113h-105q-8 0 -14 6t-6 14v84q0 8 6 14t14 6zM355 734v-68q0 -6 -4.5 -11t-11.5 -5h-68
q-7 0 -11.5 5t-4.5 11v68q0 16 16 16h68q16 0 16 -16z" />
    <glyph glyph-name="gdotaccent" unicode="&#x121;" horiz-adv-x="500" 
d="M50 87v351q0 26 18 44t44 18h276q26 0 44 -18t18 -44v-526q0 -26 -18 -44t-44 -18h-298q-8 0 -14 6t-6 14v85q0 8 6 14t14 6h235v50h-213q-26 0 -44 18t-18 44zM175 375v-240h150v240h-150zM300 634v-68q0 -6 -4.5 -11t-11.5 -5h-68q-7 0 -11.5 5t-4.5 11v68q0 16 16 16
h68q16 0 16 -16z" />
    <glyph glyph-name="Gcommaaccent" unicode="&#x122;" horiz-adv-x="610" 
d="M320 362h210q8 0 14 -6t6 -14v-280q0 -26 -18 -44t-44 -18h-376q-26 0 -44 18t-18 44v476q0 26 18 44t44 18h418q8 0 14 -6t6 -14v-85q0 -8 -6 -14t-14 -6h-355v-350h250v113h-105q-8 0 -14 6t-6 14v84q0 8 6 14t14 6zM381 -45v-201q0 -8 -6 -14t-14 -6h-50q-8 0 -14 6
t-6 14v96h-31q-8 0 -14 6t-6 14v85q0 8 6 14t14 6h101q8 0 14 -6t6 -14z" />
    <glyph glyph-name="gcommaaccent" unicode="&#x123;" horiz-adv-x="500" 
d="M177 548v201q0 8 6 14t14 6h50q8 0 14 -6t6 -14v-96h31q8 0 14 -6t6 -14v-85q0 -8 -6 -14t-14 -6h-101q-8 0 -14 6t-6 14zM50 87v351q0 26 18 44t44 18h276q26 0 44 -18t18 -44v-526q0 -26 -18 -44t-44 -18h-298q-8 0 -14 6t-6 14v85q0 8 6 14t14 6h235v50h-213
q-26 0 -44 18t-18 44zM175 375v-240h150v240h-150z" />
    <glyph glyph-name="Hcircumflex" unicode="&#x124;" horiz-adv-x="610" 
d="M550 580v-560q0 -8 -6 -14t-14 -6h-85q-8 0 -14 6t-6 14v218h-250v-218q0 -8 -6 -14t-14 -6h-85q-8 0 -14 6t-6 14v560q0 8 6 14t14 6h85q8 0 14 -6t6 -14v-218h250v218q0 8 6 14t14 6h85q8 0 14 -6t6 -14zM295 834h19q15 0 31 -16l149 -152q5 -5 1.5 -10.5t-13.5 -5.5
h-79q-14 0 -32 16l-66 64l-67 -64q-18 -16 -32 -16h-80q-9 0 -12.5 5.5t1.5 10.5l150 152q16 16 30 16z" />
    <glyph glyph-name="hcircumflex" unicode="&#x125;" horiz-adv-x="500" 
d="M176 630v-130h213q26 0 44 -18t18 -44v-418q0 -8 -6 -14t-14 -6h-85q-8 0 -14 6t-6 14v355h-150v-355q0 -8 -6 -14t-14 -6h-85q-8 0 -14 6t-6 14v610q0 8 6 14t14 6h85q8 0 14 -6t6 -14zM102 854h19q15 0 31 -16l149 -152q5 -5 1.5 -10.5t-13.5 -5.5h-79q-14 0 -32 16
l-66 64l-67 -64q-18 -16 -32 -16h-80q-9 0 -12.5 5.5t1.5 10.5l150 152q16 16 30 16z" />
    <glyph glyph-name="Hbar" unicode="&#x126;" horiz-adv-x="600" 
d="M550 580v-54h24q16 0 16 -16v-60q0 -6 -4.5 -11t-11.5 -5h-24v-414q0 -8 -6 -14t-14 -6h-85q-8 0 -14 6t-6 14v218h-250v-218q0 -8 -6 -14t-14 -6h-85q-8 0 -14 6t-6 14v414h-24q-7 0 -11.5 5t-4.5 11v60q0 16 16 16h24v54q0 8 6 14t14 6h85q8 0 14 -6t6 -14v-54h250v54
q0 8 6 14t14 6h85q8 0 14 -6t6 -14zM175 362h250v72h-250v-72z" />
    <glyph glyph-name="hbar" unicode="&#x127;" horiz-adv-x="500" 
d="M175 630h79q16 0 16 -16v-60q0 -6 -4.5 -11t-11.5 -5h-79v-38h213q26 0 44 -18t18 -44v-418q0 -8 -6 -14t-14 -6h-85q-8 0 -14 6t-6 14v370h-150v-370q0 -8 -6 -14t-14 -6h-85q-8 0 -14 6t-6 14v518h-24q-7 0 -11.5 5t-4.5 11v60q0 16 16 16h24q0 8 6 14t14 6h85
q8 0 14 -6t6 -14z" />
    <glyph glyph-name="Itilde" unicode="&#x128;" horiz-adv-x="225" 
d="M176 580v-560q0 -8 -6 -14t-14 -6h-85q-8 0 -14 6t-6 14v560q0 8 6 14t14 6h85q8 0 14 -6t6 -14zM-13 760q22 -20 49.5 -23t49.5 5t54 18.5t54 12.5q66 5 117 -51q7 -8 -3 -21l-39 -40q-4 -4 -11.5 -3t-12.5 6q-19 20 -45 23t-48 -5.5t-52.5 -19t-51.5 -12.5
q-66 -5 -121 47q-8 8 2 21l34 43q3 5 11 4.5t13 -5.5z" />
    <glyph glyph-name="itilde" unicode="&#x129;" horiz-adv-x="225" 
d="M176 480v-460q0 -8 -6 -14t-14 -6h-85q-8 0 -14 6t-6 14v460q0 8 6 14t14 6h85q8 0 14 -6t6 -14zM-18 660q22 -20 49.5 -23t49.5 5t54 18.5t54 12.5q66 5 117 -51q8 -8 -3 -21l-39 -40q-4 -4 -11.5 -3t-12.5 6q-19 20 -45 23t-48 -5.5t-52.5 -19t-51.5 -12.5
q-66 -5 -121 47q-8 8 2 21l34 43q3 5 11 4.5t13 -5.5z" />
    <glyph glyph-name="Imacron" unicode="&#x12a;" horiz-adv-x="225" 
d="M175 580v-560q0 -8 -6 -14t-14 -6h-85q-8 0 -14 6t-6 14v560q0 8 6 14t14 6h85q8 0 14 -6t6 -14zM285 726v-60q0 -6 -4.5 -11t-11.5 -5h-302q-7 0 -11.5 5t-4.5 11v60q0 16 16 16h302q16 0 16 -16z" />
    <glyph glyph-name="imacron" unicode="&#x12b;" horiz-adv-x="225" 
d="M175 480v-460q0 -8 -6 -14t-14 -6h-85q-8 0 -14 6t-6 14v460q0 8 6 14t14 6h85q8 0 14 -6t6 -14zM279 626v-60q0 -6 -4.5 -11t-11.5 -5h-302q-7 0 -11.5 5t-4.5 11v60q0 16 16 16h302q16 0 16 -16z" />
    <glyph glyph-name="Ibreve" unicode="&#x12c;" horiz-adv-x="225" 
d="M175 580v-560q0 -8 -6 -14t-14 -6h-85q-8 0 -14 6t-6 14v560q0 8 6 14t14 6h85q8 0 14 -6t6 -14zM296 697q-175 -93 -356 0q-16 8 -5 23l26 49q6 13 21 8q135 -69 272 0q15 5 21 -8l26 -49q11 -15 -5 -23z" />
    <glyph glyph-name="ibreve" unicode="&#x12d;" horiz-adv-x="225" 
d="M175 480v-460q0 -8 -6 -14t-14 -6h-85q-8 0 -14 6t-6 14v460q0 8 6 14t14 6h85q8 0 14 -6t6 -14zM-71 620l26 49q6 13 21 8q135 -69 272 0q15 5 21 -8l26 -49q11 -15 -5 -23q-175 -93 -356 0q-16 8 -5 23z" />
    <glyph glyph-name="Iogonek" unicode="&#x12e;" horiz-adv-x="225" 
d="M175 580v-560q0 -10 -8 -16l114 -137q13 -16 -4 -16h-78q-15 0 -29 16l-110 135q-10 4 -10 18v560q0 8 6 14t14 6h85q8 0 14 -6t6 -14z" />
    <glyph glyph-name="iogonek" unicode="&#x12f;" horiz-adv-x="225" 
d="M175 480v-460q0 -10 -9 -17l114 -136q13 -16 -4 -16h-78q-15 0 -29 16l-109 135q-10 4 -10 18v460q0 8 6 14t14 6h85q8 0 14 -6t6 -14zM175 630v-53q0 -8 -6 -14t-14 -6h-85q-8 0 -14 6t-6 14v53q0 8 6 14t14 6h85q8 0 14 -6t6 -14z" />
    <glyph glyph-name="Idot" unicode="&#x130;" horiz-adv-x="225" 
d="M175 580v-560q0 -8 -6 -14t-14 -6h-85q-8 0 -14 6t-6 14v560q0 8 6 14t14 6h85q8 0 14 -6t6 -14zM168 734v-68q0 -6 -4.5 -11t-11.5 -5h-68q-7 0 -11.5 5t-4.5 11v68q0 16 16 16h68q16 0 16 -16z" />
    <glyph glyph-name="dotlessi" unicode="&#x131;" horiz-adv-x="225" 
d="M175 480v-460q0 -8 -6 -14t-14 -6h-85q-8 0 -14 6t-6 14v460q0 8 6 14t14 6h85q8 0 14 -6t6 -14z" />
    <glyph glyph-name="Jcircumflex" unicode="&#x134;" horiz-adv-x="600" 
d="M175 228v-104h250v456q0 8 6 14t14 6h85q8 0 14 -6t6 -14v-518q0 -26 -18 -44t-44 -18h-376q-26 0 -44 18t-18 44v166q0 8 6 14t14 6h85q8 0 14 -6t6 -14zM479 834h19q15 0 31 -16l149 -152q5 -5 1.5 -10.5t-13.5 -5.5h-79q-14 0 -32 16l-66 64l-67 -64q-18 -16 -32 -16
h-80q-9 0 -12.5 5.5t1.5 10.5l150 152q16 16 30 16z" />
    <glyph glyph-name="jcircumflex" unicode="&#x135;" horiz-adv-x="225" 
d="M-9 -25h60v505q0 8 6 14t14 6h85q8 0 14 -6t6 -14v-568q0 -26 -18 -44t-44 -18h-123q-8 0 -14 6t-6 14v85q0 8 6 14t14 6zM104 734h19q15 0 31 -16l149 -152q5 -5 1.5 -10.5t-13.5 -5.5h-79q-14 0 -32 16l-66 64l-67 -64q-18 -16 -32 -16h-80q-9 0 -12.5 5.5t1.5 10.5
l150 152q16 16 30 16z" />
    <glyph glyph-name="Kcommaaccent" unicode="&#x136;" horiz-adv-x="583" 
d="M211 356l131 224q11 20 40 20h80q10 0 16.5 -3.5t7 -8t-2.5 -8.5l-173 -273l187 -287q3 -4 2.5 -8.5t-7 -8t-16.5 -3.5h-80q-29 0 -40 20l-144 237h-37v-237q0 -8 -6 -14t-14 -6h-85q-8 0 -14 6t-6 14v560q0 8 6 14t14 6h85q8 0 14 -6t6 -14v-224h36zM332 -45v-201
q0 -8 -6 -14t-14 -6h-50q-8 0 -14 6t-6 14v96h-31q-8 0 -14 6t-6 14v85q0 8 6 14t14 6h101q8 0 14 -6t6 -14z" />
    <glyph glyph-name="kcommaaccent" unicode="&#x137;" horiz-adv-x="460" 
d="M206 300l95 180q11 20 40 20h83q10 0 16.5 -3.5t7 -8t-2.5 -8.5l-129 -229l131 -231q3 -4 2.5 -8.5t-7 -8t-16.5 -3.5h-83q-29 0 -40 20l-96 181h-32v-181q0 -8 -6 -14t-14 -6h-85q-8 0 -14 6t-6 14v610q0 8 6 14t14 6h85q8 0 14 -6t6 -14v-330h31zM300 -45v-201
q0 -8 -6 -14t-14 -6h-50q-8 0 -14 6t-6 14v96h-31q-8 0 -14 6t-6 14v85q0 8 6 14t14 6h101q8 0 14 -6t6 -14z" />
    <glyph glyph-name="Lacute" unicode="&#x139;" horiz-adv-x="610" 
d="M175 580v-455h355q8 0 14 -6t6 -14v-85q0 -8 -6 -14t-14 -6h-418q-26 0 -44 18t-18 44v518q0 8 6 14t14 6h85q8 0 14 -6t6 -14zM249 827h82q11 0 4 -10q-2 -3 -6 -6l-146 -145q-20 -16 -34 -16h-82q-13 0 -3 11q2 3 5 5l146 145q20 16 34 16z" />
    <glyph glyph-name="lacute" unicode="&#x13a;" horiz-adv-x="225" 
d="M175 630v-610q0 -8 -6 -14t-14 -6h-85q-8 0 -14 6t-6 14v610q0 8 6 14t14 6h85q8 0 14 -6t6 -14zM248 845h82q11 0 4 -10q-2 -3 -6 -6l-146 -145q-20 -16 -34 -16h-82q-13 0 -3 11q2 3 5 5l146 145q20 16 34 16z" />
    <glyph glyph-name="Lcommaaccent" unicode="&#x13b;" horiz-adv-x="610" 
d="M175 580v-455h355q8 0 14 -6t6 -14v-85q0 -8 -6 -14t-14 -6h-418q-26 0 -44 18t-18 44v518q0 8 6 14t14 6h85q8 0 14 -6t6 -14zM384 -45v-201q0 -8 -6 -14t-14 -6h-50q-8 0 -14 6t-6 14v96h-31q-8 0 -14 6t-6 14v85q0 8 6 14t14 6h101q8 0 14 -6t6 -14z" />
    <glyph glyph-name="lcommaaccent" unicode="&#x13c;" horiz-adv-x="225" 
d="M175 630v-610q0 -8 -6 -14t-14 -6h-85q-8 0 -14 6t-6 14v610q0 8 6 14t14 6h85q8 0 14 -6t6 -14zM185 -45v-201q0 -8 -6 -14t-14 -6h-50q-8 0 -14 6t-6 14v96h-31q-8 0 -14 6t-6 14v85q0 8 6 14t14 6h101q8 0 14 -6t6 -14z" />
    <glyph glyph-name="Lcaron" unicode="&#x13d;" horiz-adv-x="610" 
d="M175 580v-455h355q8 0 14 -6t6 -14v-85q0 -8 -6 -14t-14 -6h-418q-26 0 -44 18t-18 44v518q0 8 6 14t14 6h85q8 0 14 -6t6 -14zM550 580v-180q0 -8 -6 -14t-14 -6h-50q-8 0 -14 6t-6 14v75h-21q-8 0 -14 6t-6 14v85q0 8 6 14t14 6h91q8 0 14 -6t6 -14z" />
    <glyph glyph-name="lcaron" unicode="&#x13e;" horiz-adv-x="225" 
d="M175 630v-610q0 -8 -6 -14t-14 -6h-85q-8 0 -14 6t-6 14v610q0 8 6 14t14 6h85q8 0 14 -6t6 -14zM326 631v-180q0 -8 -6 -14t-14 -6h-50q-8 0 -14 6t-6 14v75h-21q-8 0 -14 6t-6 14v85q0 8 6 14t14 6h91q8 0 14 -6t6 -14z" />
    <glyph glyph-name="Lslash" unicode="&#x141;" horiz-adv-x="600" 
d="M311 441l27 -53q7 -13 -7 -22l-156 -79v-162h355q8 0 14 -6t6 -14v-85q0 -8 -6 -14t-14 -6h-418q-26 0 -44 18t-18 44v161l-11 -5q-14 -9 -22 7l-27 53q-7 13 7 22l53 27v253q0 8 6 14t14 6h85q8 0 14 -6t6 -14v-190l114 58q14 9 22 -7z" />
    <glyph glyph-name="lslash" unicode="&#x142;" horiz-adv-x="225" 
d="M209 389l27 -53q7 -13 -7 -22l-54 -28v-266q0 -8 -6 -14t-14 -6h-85q-8 0 -14 6t-6 14v203l-11 -5q-14 -9 -22 7l-27 53q-7 13 7 22l53 27v303q0 8 6 14t14 6h85q8 0 14 -6t6 -14v-240l12 6q14 9 22 -7z" />
    <glyph glyph-name="Nacute" unicode="&#x143;" horiz-adv-x="610" 
d="M550 580v-518q0 -26 -18 -44t-44 -18h-38q-24 0 -38 20l-237 367v-367q0 -8 -6 -14t-14 -6h-85q-8 0 -14 6t-6 14v518q0 26 18 44t44 18h37q24 0 38 -20l238 -371v371q0 8 6 14t14 6h85q8 0 14 -6t6 -14zM355 827h82q11 0 4 -10q-2 -3 -6 -6l-146 -145q-20 -16 -34 -16
h-82q-13 0 -3 11q2 3 5 5l146 145q20 16 34 16z" />
    <glyph glyph-name="nacute" unicode="&#x144;" horiz-adv-x="500" 
d="M325 375h-150v-355q0 -8 -6 -14t-14 -6h-85q-8 0 -14 6t-6 14v460q0 8 6 14t14 6h318q26 0 44 -18t18 -44v-418q0 -8 -6 -14t-14 -6h-85q-8 0 -14 6t-6 14v355zM300 727h82q11 0 4 -10q-2 -3 -6 -6l-146 -145q-20 -16 -34 -16h-82q-13 0 -3 11q2 3 5 5l146 145
q20 16 34 16z" />
    <glyph glyph-name="Ncommaaccent" unicode="&#x145;" horiz-adv-x="610" 
d="M550 580v-518q0 -26 -18 -44t-44 -18h-38q-24 0 -38 20l-237 367v-367q0 -8 -6 -14t-14 -6h-85q-8 0 -14 6t-6 14v518q0 26 18 44t44 18h37q24 0 38 -20l238 -371v371q0 8 6 14t14 6h85q8 0 14 -6t6 -14zM475 -45v-201q0 -8 -6 -14t-14 -6h-50q-8 0 -14 6t-6 14v96h-31
q-8 0 -14 6t-6 14v85q0 8 6 14t14 6h101q8 0 14 -6t6 -14z" />
    <glyph glyph-name="ncommaaccent" unicode="&#x146;" horiz-adv-x="500" 
d="M325 375h-150v-355q0 -8 -6 -14t-14 -6h-85q-8 0 -14 6t-6 14v460q0 8 6 14t14 6h318q26 0 44 -18t18 -44v-418q0 -8 -6 -14t-14 -6h-85q-8 0 -14 6t-6 14v355zM320 -45v-201q0 -8 -6 -14t-14 -6h-50q-8 0 -14 6t-6 14v96h-31q-8 0 -14 6t-6 14v85q0 8 6 14t14 6h101
q8 0 14 -6t6 -14z" />
    <glyph glyph-name="Ncaron" unicode="&#x147;" horiz-adv-x="610" 
d="M550 580v-518q0 -26 -18 -44t-44 -18h-38q-24 0 -38 20l-237 367v-367q0 -8 -6 -14t-14 -6h-85q-8 0 -14 6t-6 14v518q0 26 18 44t44 18h37q24 0 38 -20l238 -371v371q0 8 6 14t14 6h85q8 0 14 -6t6 -14zM314 650h-19q-14 0 -30 16l-150 152q-5 5 -1.5 10.5t12.5 5.5h80
q14 0 32 -16l67 -64l66 64q18 16 32 16h79q10 0 13.5 -5.5t-1.5 -10.5l-149 -152q-16 -16 -31 -16z" />
    <glyph glyph-name="ncaron" unicode="&#x148;" horiz-adv-x="500" 
d="M325 375h-150v-355q0 -8 -6 -14t-14 -6h-85q-8 0 -14 6t-6 14v460q0 8 6 14t14 6h318q26 0 44 -18t18 -44v-418q0 -8 -6 -14t-14 -6h-85q-8 0 -14 6t-6 14v355zM259 550h-19q-14 0 -30 16l-150 152q-5 5 -1.5 10.5t12.5 5.5h80q14 0 32 -16l67 -64l66 64q18 16 32 16h79
q10 0 13.5 -5.5t-1.5 -10.5l-149 -152q-16 -16 -31 -16z" />
    <glyph glyph-name="Eng" unicode="&#x14a;" horiz-adv-x="600" 
d="M365 -25h60v32l-250 375v-362q0 -8 -6 -14t-14 -6h-85q-8 0 -14 6t-6 14v518q0 26 18 44t44 18h37q24 0 38 -20l238 -364v364q0 8 6 14t14 6h85q8 0 14 -6t6 -14v-668q0 -26 -18 -44t-44 -18h-123q-8 0 -14 6t-6 14v85q0 8 6 14t14 6z" />
    <glyph glyph-name="eng" unicode="&#x14b;" horiz-adv-x="500" 
d="M265 -25h60v400h-150v-355q0 -8 -6 -14t-14 -6h-85q-8 0 -14 6t-6 14v460q0 8 6 14t14 6h318q26 0 44 -18t18 -44v-526q0 -26 -18 -44t-44 -18h-123q-8 0 -14 6t-6 14v85q0 8 6 14t14 6z" />
    <glyph glyph-name="Omacron" unicode="&#x14c;" horiz-adv-x="610" 
d="M550 538v-476q0 -26 -18 -44t-44 -18h-376q-26 0 -44 18t-18 44v476q0 26 18 44t44 18h376q26 0 44 -18t18 -44zM425 125v350h-250v-350h250zM472 726v-60q0 -6 -4.5 -11t-11.5 -5h-302q-7 0 -11.5 5t-4.5 11v60q0 16 16 16h302q16 0 16 -16z" />
    <glyph glyph-name="omacron" unicode="&#x14d;" horiz-adv-x="500" 
d="M450 438v-376q0 -26 -18 -44t-44 -18h-276q-26 0 -44 18t-18 44v376q0 26 18 44t44 18h276q26 0 44 -18t18 -44zM325 125v250h-150v-250h150zM417 626v-60q0 -6 -4.5 -11t-11.5 -5h-302q-7 0 -11.5 5t-4.5 11v60q0 16 16 16h302q16 0 16 -16z" />
    <glyph glyph-name="Obreve" unicode="&#x14e;" horiz-adv-x="610" 
d="M550 538v-476q0 -26 -18 -44t-44 -18h-376q-26 0 -44 18t-18 44v476q0 26 18 44t44 18h376q26 0 44 -18t18 -44zM425 125v350h-250v-350h250zM483 697q-175 -93 -356 0q-16 8 -5 23l26 49q6 13 21 8q135 -69 272 0q15 5 21 -8l26 -49q11 -15 -5 -23z" />
    <glyph glyph-name="obreve" unicode="&#x14f;" horiz-adv-x="500" 
d="M450 438v-376q0 -26 -18 -44t-44 -18h-276q-26 0 -44 18t-18 44v376q0 26 18 44t44 18h276q26 0 44 -18t18 -44zM325 125v250h-150v-250h150zM428 597q-175 -93 -356 0q-16 8 -5 23l26 49q6 13 21 8q135 -69 272 0q15 5 21 -8l26 -49q11 -15 -5 -23z" />
    <glyph glyph-name="Ohungarumlaut" unicode="&#x150;" horiz-adv-x="610" 
d="M550 538v-476q0 -26 -18 -44t-44 -18h-376q-26 0 -44 18t-18 44v476q0 26 18 44t44 18h376q26 0 44 -18t18 -44zM425 125v350h-250v-350h250zM248 827h82q6 0 6.5 -4.5t-5.5 -11.5l-121 -145q-14 -16 -31 -16h-82q-15 0 -1 16l121 145q14 16 31 16zM430 827h82
q6 0 6.5 -4.5t-5.5 -11.5l-121 -145q-14 -16 -31 -16h-82q-15 0 -1 16l121 145q14 16 31 16z" />
    <glyph glyph-name="ohungarumlaut" unicode="&#x151;" horiz-adv-x="500" 
d="M450 438v-376q0 -26 -18 -44t-44 -18h-276q-26 0 -44 18t-18 44v376q0 26 18 44t44 18h276q26 0 44 -18t18 -44zM325 125v250h-150v-250h150zM193 727h82q6 0 6.5 -4.5t-5.5 -11.5l-121 -145q-14 -16 -31 -16h-82q-15 0 -1 16l121 145q14 16 31 16zM375 727h82
q6 0 6.5 -4.5t-5.5 -11.5l-121 -145q-14 -16 -31 -16h-82q-15 0 -1 16l121 145q14 16 31 16z" />
    <glyph glyph-name="OE" unicode="&#x152;" horiz-adv-x="975" 
d="M905 0h-793q-26 0 -44 18t-18 44v476q0 26 18 44t44 18h793q8 0 14 -6t6 -14v-85q0 -8 -6 -14t-14 -6h-355v-113h335q8 0 14 -6t6 -14v-84q0 -8 -6 -14t-14 -6h-335v-113h355q8 0 14 -6t6 -14v-85q0 -8 -6 -14t-14 -6zM425 125v350h-250v-350h250z" />
    <glyph glyph-name="oe" unicode="&#x153;" horiz-adv-x="775" 
d="M725 438v-201q0 -26 -18 -44t-44 -18h-213v-50h255q8 0 14 -6t6 -14v-85q0 -8 -6 -14t-14 -6h-593q-26 0 -44 18t-18 44v376q0 26 18 44t44 18h551q26 0 44 -18t18 -44zM325 125v250h-150v-250h150zM600 285v90h-150v-90h150z" />
    <glyph glyph-name="Racute" unicode="&#x154;" horiz-adv-x="613" 
d="M387 20l-174 199h-38v-199q0 -8 -6 -14t-14 -6h-85q-8 0 -14 6t-6 14v560q0 8 6 14t14 6h375q43 0 74 -30t31 -72v-177q0 -42 -31 -72t-74 -30h-69l174 -199q3 -4 2.5 -8.5t-7 -8t-16.5 -3.5h-102q-20 0 -40 20zM425 318v158h-250v-158h250zM356 827h82q11 0 4 -10
q-2 -3 -6 -6l-146 -145q-20 -16 -34 -16h-82q-13 0 -3 11q2 3 5 5l146 145q20 16 34 16z" />
    <glyph glyph-name="racute" unicode="&#x155;" horiz-adv-x="470" 
d="M430 375h-255v-355q0 -8 -6 -14t-14 -6h-85q-8 0 -14 6t-6 14v460q0 8 6 14t14 6h318q26 0 44 -18t18 -44v-43q0 -8 -6 -14t-14 -6zM280 727h82q11 0 4 -10q-2 -3 -6 -6l-146 -145q-20 -16 -34 -16h-82q-13 0 -3 11q2 3 5 5l146 145q20 16 34 16z" />
    <glyph glyph-name="Rcommaaccent" unicode="&#x156;" horiz-adv-x="613" 
d="M387 20l-174 199h-38v-199q0 -8 -6 -14t-14 -6h-85q-8 0 -14 6t-6 14v560q0 8 6 14t14 6h375q43 0 74 -30t31 -72v-177q0 -42 -31 -72t-74 -30h-69l174 -199q3 -4 2.5 -8.5t-7 -8t-16.5 -3.5h-102q-20 0 -40 20zM425 318v158h-250v-158h250zM391 -45v-201q0 -8 -6 -14
t-14 -6h-50q-8 0 -14 6t-6 14v96h-31q-8 0 -14 6t-6 14v85q0 8 6 14t14 6h101q8 0 14 -6t6 -14z" />
    <glyph glyph-name="rcommaaccent" unicode="&#x157;" horiz-adv-x="470" 
d="M430 375h-255v-355q0 -8 -6 -14t-14 -6h-85q-8 0 -14 6t-6 14v460q0 8 6 14t14 6h318q26 0 44 -18t18 -44v-43q0 -8 -6 -14t-14 -6zM181 -45v-201q0 -8 -6 -14t-14 -6h-50q-8 0 -14 6t-6 14v96h-31q-8 0 -14 6t-6 14v85q0 8 6 14t14 6h101q8 0 14 -6t6 -14z" />
    <glyph glyph-name="Rcaron" unicode="&#x158;" horiz-adv-x="613" 
d="M387 20l-174 199h-38v-199q0 -8 -6 -14t-14 -6h-85q-8 0 -14 6t-6 14v560q0 8 6 14t14 6h375q43 0 74 -30t31 -72v-177q0 -42 -31 -72t-74 -30h-69l174 -199q3 -4 2.5 -8.5t-7 -8t-16.5 -3.5h-102q-20 0 -40 20zM425 318v158h-250v-158h250zM315 650h-19q-14 0 -30 16
l-150 152q-5 5 -1.5 10.5t12.5 5.5h80q14 0 32 -16l67 -64l66 64q18 16 32 16h79q10 0 13.5 -5.5t-1.5 -10.5l-149 -152q-16 -16 -31 -16z" />
    <glyph glyph-name="rcaron" unicode="&#x159;" horiz-adv-x="470" 
d="M430 375h-255v-355q0 -8 -6 -14t-14 -6h-85q-8 0 -14 6t-6 14v460q0 8 6 14t14 6h318q26 0 44 -18t18 -44v-43q0 -8 -6 -14t-14 -6zM240 550h-19q-14 0 -30 16l-150 152q-5 5 -1.5 10.5t12.5 5.5h80q14 0 32 -16l67 -64l66 64q18 16 32 16h79q10 0 13.5 -5.5t-1.5 -10.5
l-149 -152q-16 -16 -31 -16z" />
    <glyph glyph-name="Sacute" unicode="&#x15a;" horiz-adv-x="610" 
d="M175 475v-112h313q26 0 44 -18t18 -44v-239q0 -26 -18 -44t-44 -18h-418q-8 0 -14 6t-6 14v85q0 8 6 14t14 6h355v113h-313q-26 0 -44 18t-18 44v238q0 26 18 44t44 18h418q8 0 14 -6t6 -14v-85q0 -8 -6 -14t-14 -6h-355zM355 827h82q11 0 4 -10q-2 -3 -6 -6l-146 -145
q-20 -16 -34 -16h-82q-13 0 -3 11q2 3 5 5l146 145q20 16 34 16z" />
    <glyph glyph-name="sacute" unicode="&#x15b;" horiz-adv-x="500" 
d="M175 375v-62h213q26 0 44 -18t18 -44v-189q0 -26 -18 -44t-44 -18h-318q-8 0 -14 6t-6 14v85q0 8 6 14t14 6h255v63h-213q-26 0 -44 18t-18 44v188q0 26 18 44t44 18h318q8 0 14 -6t6 -14v-85q0 -8 -6 -14t-14 -6h-255zM300 727h82q11 0 4 -10q-2 -3 -6 -6l-146 -145
q-20 -16 -34 -16h-82q-13 0 -3 11q2 3 5 5l146 145q20 16 34 16z" />
    <glyph glyph-name="Scircumflex" unicode="&#x15c;" horiz-adv-x="610" 
d="M175 475v-112h313q26 0 44 -18t18 -44v-239q0 -26 -18 -44t-44 -18h-418q-8 0 -14 6t-6 14v85q0 8 6 14t14 6h355v113h-313q-26 0 -44 18t-18 44v238q0 26 18 44t44 18h418q8 0 14 -6t6 -14v-85q0 -8 -6 -14t-14 -6h-355zM295 834h19q15 0 31 -16l149 -152
q5 -5 1.5 -10.5t-13.5 -5.5h-79q-14 0 -32 16l-66 64l-67 -64q-18 -16 -32 -16h-80q-9 0 -12.5 5.5t1.5 10.5l150 152q16 16 30 16z" />
    <glyph glyph-name="scircumflex" unicode="&#x15d;" horiz-adv-x="500" 
d="M175 375v-62h213q26 0 44 -18t18 -44v-189q0 -26 -18 -44t-44 -18h-318q-8 0 -14 6t-6 14v85q0 8 6 14t14 6h255v63h-213q-26 0 -44 18t-18 44v188q0 26 18 44t44 18h318q8 0 14 -6t6 -14v-85q0 -8 -6 -14t-14 -6h-255zM240 734h19q15 0 31 -16l149 -152q5 -5 1.5 -10.5
t-13.5 -5.5h-79q-14 0 -32 16l-66 64l-67 -64q-18 -16 -32 -16h-80q-9 0 -12.5 5.5t1.5 10.5l150 152q16 16 30 16z" />
    <glyph glyph-name="Scedilla" unicode="&#x15e;" horiz-adv-x="610" 
d="M175 475v-112h313q26 0 44 -18t18 -44v-239q0 -26 -18 -44t-44 -18h-418q-8 0 -14 6t-6 14v85q0 8 6 14t14 6h355v113h-313q-26 0 -44 18t-18 44v238q0 26 18 44t44 18h418q8 0 14 -6t6 -14v-85q0 -8 -6 -14t-14 -6h-355zM239 -82h48v82h100v-132q0 -21 -14.5 -35.5
t-34.5 -14.5h-99q-6 0 -11 4.5t-5 11.5v68q0 7 5 11.5t11 4.5z" />
    <glyph glyph-name="scedilla" unicode="&#x15f;" horiz-adv-x="500" 
d="M175 375v-62h213q26 0 44 -18t18 -44v-189q0 -26 -18 -44t-44 -18h-318q-8 0 -14 6t-6 14v85q0 8 6 14t14 6h255v63h-213q-26 0 -44 18t-18 44v188q0 26 18 44t44 18h318q8 0 14 -6t6 -14v-85q0 -8 -6 -14t-14 -6h-255zM183 -82h48v82h100v-132q0 -21 -14.5 -35.5
t-34.5 -14.5h-99q-6 0 -11 4.5t-5 11.5v68q0 7 5 11.5t11 4.5z" />
    <glyph glyph-name="Scaron" unicode="&#x160;" horiz-adv-x="610" 
d="M175 475v-112h313q26 0 44 -18t18 -44v-239q0 -26 -18 -44t-44 -18h-418q-8 0 -14 6t-6 14v85q0 8 6 14t14 6h355v113h-313q-26 0 -44 18t-18 44v238q0 26 18 44t44 18h418q8 0 14 -6t6 -14v-85q0 -8 -6 -14t-14 -6h-355zM314 650h-19q-14 0 -30 16l-150 152
q-5 5 -1.5 10.5t12.5 5.5h80q14 0 32 -16l67 -64l66 64q18 16 32 16h79q10 0 13.5 -5.5t-1.5 -10.5l-149 -152q-16 -16 -31 -16z" />
    <glyph glyph-name="scaron" unicode="&#x161;" horiz-adv-x="500" 
d="M175 375v-62h213q26 0 44 -18t18 -44v-189q0 -26 -18 -44t-44 -18h-318q-8 0 -14 6t-6 14v85q0 8 6 14t14 6h255v63h-213q-26 0 -44 18t-18 44v188q0 26 18 44t44 18h318q8 0 14 -6t6 -14v-85q0 -8 -6 -14t-14 -6h-255zM259 550h-19q-14 0 -30 16l-150 152
q-5 5 -1.5 10.5t12.5 5.5h80q14 0 32 -16l67 -64l66 64q18 16 32 16h79q10 0 13.5 -5.5t-1.5 -10.5l-149 -152q-16 -16 -31 -16z" />
    <glyph glyph-name="Tcommaaccent" unicode="&#x162;" horiz-adv-x="769" 
d="M30 600h459q8 0 14 -6t6 -14v-85q0 -8 -6 -14t-14 -6h-167v-455q0 -8 -6 -14t-14 -6h-85q-8 0 -14 6t-6 14v455h-167q-8 0 -14 6t-6 14v85q0 8 6 14t14 6zM331 -45v-201q0 -8 -6 -14t-14 -6h-50q-8 0 -14 6t-6 14v96h-31q-8 0 -14 6t-6 14v85q0 8 6 14t14 6h101
q8 0 14 -6t6 -14z" />
    <glyph glyph-name="tcommaaccent" unicode="&#x163;" horiz-adv-x="500" 
d="M430 480v-42q0 -26 -18 -44t-44 -18h-193v-251h255q8 0 14 -6t6 -14v-85q0 -8 -6 -14t-14 -6h-318q-26 0 -44 18t-18 44v518q0 8 6 14t14 6h85q8 0 14 -6t6 -14v-80h235q8 0 14 -6t6 -14zM320 -45v-201q0 -8 -6 -14t-14 -6h-50q-8 0 -14 6t-6 14v96h-31q-8 0 -14 6t-6 14
v85q0 8 6 14t14 6h101q8 0 14 -6t6 -14z" />
    <glyph glyph-name="Tcaron" unicode="&#x164;" horiz-adv-x="519" 
d="M30 600h459q8 0 14 -6t6 -14v-85q0 -8 -6 -14t-14 -6h-167v-455q0 -8 -6 -14t-14 -6h-85q-8 0 -14 6t-6 14v455h-167q-8 0 -14 6t-6 14v85q0 8 6 14t14 6zM274 650h-19q-14 0 -30 16l-150 152q-5 5 -1.5 10.5t12.5 5.5h80q14 0 32 -16l67 -64l66 64q18 16 32 16h79
q10 0 13.5 -5.5t-1.5 -10.5l-149 -152q-16 -16 -31 -16z" />
    <glyph glyph-name="tcaron" unicode="&#x165;" horiz-adv-x="500" 
d="M430 630v-192q0 -26 -18 -44t-44 -18h-193v-251h255q8 0 14 -6t6 -14v-85q0 -8 -6 -14t-14 -6h-318q-26 0 -44 18t-18 44v518q0 8 6 14t14 6h85q8 0 14 -6t6 -14v-80h155v130q0 8 6 14t14 6h60q8 0 14 -6t6 -14z" />
    <glyph glyph-name="Tbar" unicode="&#x166;" horiz-adv-x="519" 
d="M126 300h71v175h-167q-8 0 -14 6t-6 14v85q0 8 6 14t14 6h459q8 0 14 -6t6 -14v-85q0 -8 -6 -14t-14 -6h-167v-175h71q16 0 16 -16v-60q0 -6 -4.5 -11t-11.5 -5h-71v-188q0 -8 -6 -14t-14 -6h-85q-8 0 -14 6t-6 14v188h-71q-7 0 -11.5 5t-4.5 11v60q0 16 16 16z" />
    <glyph glyph-name="tbar" unicode="&#x167;" horiz-adv-x="500" 
d="M430 480v-42q0 -26 -18 -44t-44 -18h-193v-76h56q16 0 16 -16v-60q0 -6 -4.5 -11t-11.5 -5h-56v-83h255q8 0 14 -6t6 -14v-85q0 -8 -6 -14t-14 -6h-318q-26 0 -44 18t-18 44v518q0 8 6 14t14 6h85q8 0 14 -6t6 -14v-80h235q8 0 14 -6t6 -14z" />
    <glyph glyph-name="Utilde" unicode="&#x168;" horiz-adv-x="610" 
d="M175 580v-455h250v455q0 8 6 14t14 6h85q8 0 14 -6t6 -14v-518q0 -26 -18 -44t-44 -18h-376q-26 0 -44 18t-18 44v518q0 8 6 14t14 6h85q8 0 14 -6t6 -14zM173 760q22 -20 49.5 -23t49.5 5t54 18.5t54 12.5q66 5 117 -51q7 -8 -3 -21l-39 -40q-4 -4 -11.5 -3t-12.5 6
q-19 20 -45 23t-48 -5.5t-52.5 -19t-51.5 -12.5q-66 -5 -121 47q-8 8 2 21l34 43q3 5 11 4.5t13 -5.5z" />
    <glyph glyph-name="utilde" unicode="&#x169;" horiz-adv-x="500" 
d="M175 480v-355h150v355q0 8 6 14t14 6h85q8 0 14 -6t6 -14v-418q0 -26 -18 -44t-44 -18h-276q-26 0 -44 18t-18 44v418q0 8 6 14t14 6h85q8 0 14 -6t6 -14zM118 660q22 -20 49.5 -23t49.5 5t54 18.5t54 12.5q66 5 117 -51q8 -8 -3 -21l-39 -40q-4 -4 -11.5 -3t-12.5 6
q-19 20 -45 23t-48 -5.5t-52.5 -19t-51.5 -12.5q-66 -5 -121 47q-8 8 2 21l34 43q3 5 11 4.5t13 -5.5z" />
    <glyph glyph-name="Umacron" unicode="&#x16a;" horiz-adv-x="610" 
d="M175 580v-455h250v455q0 8 6 14t14 6h85q8 0 14 -6t6 -14v-518q0 -26 -18 -44t-44 -18h-376q-26 0 -44 18t-18 44v518q0 8 6 14t14 6h85q8 0 14 -6t6 -14zM472 726v-60q0 -6 -4.5 -11t-11.5 -5h-302q-7 0 -11.5 5t-4.5 11v60q0 16 16 16h302q16 0 16 -16z" />
    <glyph glyph-name="umacron" unicode="&#x16b;" horiz-adv-x="500" 
d="M175 480v-355h150v355q0 8 6 14t14 6h85q8 0 14 -6t6 -14v-418q0 -26 -18 -44t-44 -18h-276q-26 0 -44 18t-18 44v418q0 8 6 14t14 6h85q8 0 14 -6t6 -14zM417 626v-60q0 -6 -4.5 -11t-11.5 -5h-302q-7 0 -11.5 5t-4.5 11v60q0 16 16 16h302q16 0 16 -16z" />
    <glyph glyph-name="Ubreve" unicode="&#x16c;" horiz-adv-x="610" 
d="M175 580v-455h250v455q0 8 6 14t14 6h85q8 0 14 -6t6 -14v-518q0 -26 -18 -44t-44 -18h-376q-26 0 -44 18t-18 44v518q0 8 6 14t14 6h85q8 0 14 -6t6 -14zM483 697q-175 -93 -356 0q-16 8 -5 23l26 49q6 13 21 8q135 -69 272 0q15 5 21 -8l26 -49q11 -15 -5 -23z" />
    <glyph glyph-name="ubreve" unicode="&#x16d;" horiz-adv-x="500" 
d="M175 480v-355h150v355q0 8 6 14t14 6h85q8 0 14 -6t6 -14v-418q0 -26 -18 -44t-44 -18h-276q-26 0 -44 18t-18 44v418q0 8 6 14t14 6h85q8 0 14 -6t6 -14zM428 597q-175 -93 -356 0q-16 8 -5 23l26 49q6 13 21 8q135 -69 272 0q15 5 21 -8l26 -49q11 -15 -5 -23z" />
    <glyph glyph-name="Uring" unicode="&#x16e;" horiz-adv-x="610" 
d="M175 580v-455h250v455q0 8 6 14t14 6h85q8 0 14 -6t6 -14v-518q0 -26 -18 -44t-44 -18h-376q-26 0 -44 18t-18 44v518q0 8 6 14t14 6h85q8 0 14 -6t6 -14zM455 900v-200q0 -21 -14.5 -35.5t-35.5 -14.5h-200q-21 0 -35.5 14.5t-14.5 35.5v200q0 21 14.5 35.5t35.5 14.5
h200q21 0 35.5 -14.5t14.5 -35.5zM355 750v100h-100v-100h100z" />
    <glyph glyph-name="uring" unicode="&#x16f;" horiz-adv-x="500" 
d="M175 480v-355h150v355q0 8 6 14t14 6h85q8 0 14 -6t6 -14v-418q0 -26 -18 -44t-44 -18h-276q-26 0 -44 18t-18 44v418q0 8 6 14t14 6h85q8 0 14 -6t6 -14zM400 800v-200q0 -21 -14.5 -35.5t-35.5 -14.5h-200q-21 0 -35.5 14.5t-14.5 35.5v200q0 21 14.5 35.5t35.5 14.5
h200q21 0 35.5 -14.5t14.5 -35.5zM300 650v100h-100v-100h100z" />
    <glyph glyph-name="Uhungarumlaut" unicode="&#x170;" horiz-adv-x="610" 
d="M175 580v-455h250v455q0 8 6 14t14 6h85q8 0 14 -6t6 -14v-518q0 -26 -18 -44t-44 -18h-376q-26 0 -44 18t-18 44v518q0 8 6 14t14 6h85q8 0 14 -6t6 -14zM248 827h82q6 0 6.5 -4.5t-5.5 -11.5l-121 -145q-14 -16 -31 -16h-82q-15 0 -1 16l121 145q14 16 31 16zM430 827
h82q6 0 6.5 -4.5t-5.5 -11.5l-121 -145q-14 -16 -31 -16h-82q-15 0 -1 16l121 145q14 16 31 16z" />
    <glyph glyph-name="uhungarumlaut" unicode="&#x171;" horiz-adv-x="500" 
d="M175 480v-355h150v355q0 8 6 14t14 6h85q8 0 14 -6t6 -14v-418q0 -26 -18 -44t-44 -18h-276q-26 0 -44 18t-18 44v418q0 8 6 14t14 6h85q8 0 14 -6t6 -14zM193 727h82q6 0 6.5 -4.5t-5.5 -11.5l-121 -145q-14 -16 -31 -16h-82q-15 0 -1 16l121 145q14 16 31 16zM375 727
h82q6 0 6.5 -4.5t-5.5 -11.5l-121 -145q-14 -16 -31 -16h-82q-15 0 -1 16l121 145q14 16 31 16z" />
    <glyph glyph-name="Uogonek" unicode="&#x172;" horiz-adv-x="610" 
d="M175 580v-455h250v455q0 8 6 14t14 6h85q8 0 14 -6t6 -14v-518q0 -26 -18 -44t-44 -18h-376q-26 0 -44 18t-18 44v518q0 8 6 14t14 6h85q8 0 14 -6t6 -14zM359 0h108l112 -133q13 -16 -4 -16h-78q-15 0 -29 16z" />
    <glyph glyph-name="uogonek" unicode="&#x173;" horiz-adv-x="500" 
d="M175 480v-355h150v355q0 8 6 14t14 6h85q8 0 14 -6t6 -14v-418q0 -26 -18 -44t-44 -18h-276q-26 0 -44 18t-18 44v418q0 8 6 14t14 6h85q8 0 14 -6t6 -14zM272 0h108l112 -133q13 -16 -4 -16h-78q-15 0 -29 16z" />
    <glyph glyph-name="Wcircumflex" unicode="&#x174;" horiz-adv-x="709" 
d="M649 580v-518q0 -26 -18.5 -44t-44.5 -18h-171q-26 0 -44.5 18t-18.5 44h-4q0 -26 -18.5 -44t-44.5 -18h-172q-26 0 -44.5 18t-18.5 44v518q0 8 6 14t14 6h85q8 0 14 -6t6 -14v-456h112v456q0 8 6 14t14 6h85q8 0 14 -6t6 -14v-456h112v456q0 8 6 14t14 6h85q8 0 14 -6
t6 -14zM345 834h19q15 0 31 -16l149 -152q5 -5 1.5 -10.5t-13.5 -5.5h-79q-14 0 -32 16l-66 64l-67 -64q-18 -16 -32 -16h-80q-9 0 -12.5 5.5t1.5 10.5l150 152q16 16 30 16z" />
    <glyph glyph-name="wcircumflex" unicode="&#x175;" horiz-adv-x="599" 
d="M549 480v-418q0 -26 -18.5 -44t-44.5 -18h-121q-26 0 -44.5 18t-18.5 44h-4q0 -26 -18.5 -44t-44.5 -18h-122q-26 0 -44.5 18t-18.5 44v418q0 8 6 14t14 6h85q8 0 14 -6t6 -14v-356h62v356q0 8 6 14t14 6h85q8 0 14 -6t6 -14v-356h62v356q0 8 6 14t14 6h85q8 0 14 -6
t6 -14zM290 734h19q15 0 31 -16l149 -152q5 -5 1.5 -10.5t-13.5 -5.5h-79q-14 0 -32 16l-66 64l-67 -64q-18 -16 -32 -16h-80q-9 0 -12.5 5.5t1.5 10.5l150 152q16 16 30 16z" />
    <glyph glyph-name="Ycircumflex" unicode="&#x176;" horiz-adv-x="600" 
d="M295 834h19q15 0 31 -16l149 -152q5 -5 1.5 -10.5t-13.5 -5.5h-79q-14 0 -32 16l-66 64l-67 -64q-18 -16 -32 -16h-80q-9 0 -12.5 5.5t1.5 10.5l150 152q16 16 30 16zM175 580v-280h250v280q0 8 6 14t14 6h85q8 0 14 -6t6 -14v-518q0 -26 -18 -44t-44 -18h-376
q-26 0 -44 18t-18 44v63h375v50h-313q-26 0 -44 18t-18 44v343q0 8 6 14t14 6h85q8 0 14 -6t6 -14z" />
    <glyph glyph-name="ycircumflex" unicode="&#x177;" horiz-adv-x="500" 
d="M450 480v-568q0 -26 -18 -44t-44 -18h-298q-8 0 -14 6t-6 14v85q0 8 6 14t14 6h235v50h-213q-26 0 -44 18t-18 44v393q0 8 6 14t14 6h85q8 0 14 -6t6 -14v-345h150v345q0 8 6 14t14 6h85q8 0 14 -6t6 -14zM240 734h19q15 0 31 -16l149 -152q5 -5 1.5 -10.5t-13.5 -5.5
h-79q-14 0 -32 16l-66 64l-67 -64q-18 -16 -32 -16h-80q-9 0 -12.5 5.5t1.5 10.5l150 152q16 16 30 16z" />
    <glyph glyph-name="Ydieresis" unicode="&#x178;" horiz-adv-x="600" 
d="M274 734v-68q0 -6 -4.5 -11t-11.5 -5h-68q-7 0 -11.5 5t-4.5 11v68q0 16 16 16h68q16 0 16 -16zM445 734v-68q0 -6 -4.5 -11t-11.5 -5h-68q-7 0 -11.5 5t-4.5 11v68q0 16 16 16h68q16 0 16 -16zM175 580v-280h250v280q0 8 6 14t14 6h85q8 0 14 -6t6 -14v-518
q0 -26 -18 -44t-44 -18h-376q-26 0 -44 18t-18 44v63h375v50h-313q-26 0 -44 18t-18 44v343q0 8 6 14t14 6h85q8 0 14 -6t6 -14z" />
    <glyph glyph-name="Zacute" unicode="&#x179;" horiz-adv-x="610" 
d="M221 125h309q8 0 14 -6t6 -14v-85q0 -8 -6 -14t-14 -6h-418q-26 0 -44 18t-18 44v55l323 358h-303q-8 0 -14 6t-6 14v85q0 8 6 14t14 6h418q26 0 44 -18t18 -44v-55zM355 827h82q11 0 4 -10q-2 -3 -6 -6l-146 -145q-20 -16 -34 -16h-82q-13 0 -3 11q2 3 5 5l146 145
q20 16 34 16z" />
    <glyph glyph-name="zacute" unicode="&#x17a;" horiz-adv-x="500" 
d="M228 125h202q8 0 14 -6t6 -14v-85q0 -8 -6 -14t-14 -6h-318q-26 0 -44 18t-18 44v55l237 258h-217q-8 0 -14 6t-6 14v85q0 8 6 14t14 6h318q26 0 44 -18t18 -44v-55zM300 727h82q11 0 4 -10q-2 -3 -6 -6l-146 -145q-20 -16 -34 -16h-82q-13 0 -3 11q2 3 5 5l146 145
q20 16 34 16z" />
    <glyph glyph-name="Zdotaccent" unicode="&#x17b;" horiz-adv-x="610" 
d="M221 125h309q8 0 14 -6t6 -14v-85q0 -8 -6 -14t-14 -6h-418q-26 0 -44 18t-18 44v55l323 358h-303q-8 0 -14 6t-6 14v85q0 8 6 14t14 6h418q26 0 44 -18t18 -44v-55zM355 734v-68q0 -6 -4.5 -11t-11.5 -5h-68q-7 0 -11.5 5t-4.5 11v68q0 16 16 16h68q16 0 16 -16z" />
    <glyph glyph-name="zdotaccent" unicode="&#x17c;" horiz-adv-x="500" 
d="M228 125h202q8 0 14 -6t6 -14v-85q0 -8 -6 -14t-14 -6h-318q-26 0 -44 18t-18 44v55l237 258h-217q-8 0 -14 6t-6 14v85q0 8 6 14t14 6h318q26 0 44 -18t18 -44v-55zM300 634v-68q0 -6 -4.5 -11t-11.5 -5h-68q-7 0 -11.5 5t-4.5 11v68q0 16 16 16h68q16 0 16 -16z" />
    <glyph glyph-name="Zcaron" unicode="&#x17d;" horiz-adv-x="610" 
d="M221 125h309q8 0 14 -6t6 -14v-85q0 -8 -6 -14t-14 -6h-418q-26 0 -44 18t-18 44v55l323 358h-303q-8 0 -14 6t-6 14v85q0 8 6 14t14 6h418q26 0 44 -18t18 -44v-55zM314 650h-19q-14 0 -30 16l-150 152q-5 5 -1.5 10.5t12.5 5.5h80q14 0 32 -16l67 -64l66 64
q18 16 32 16h79q10 0 13.5 -5.5t-1.5 -10.5l-149 -152q-16 -16 -31 -16z" />
    <glyph glyph-name="zcaron" unicode="&#x17e;" horiz-adv-x="500" 
d="M228 125h202q8 0 14 -6t6 -14v-85q0 -8 -6 -14t-14 -6h-318q-26 0 -44 18t-18 44v55l237 258h-217q-8 0 -14 6t-6 14v85q0 8 6 14t14 6h318q26 0 44 -18t18 -44v-55zM259 550h-19q-14 0 -30 16l-150 152q-5 5 -1.5 10.5t12.5 5.5h80q14 0 32 -16l67 -64l66 64
q18 16 32 16h79q10 0 13.5 -5.5t-1.5 -10.5l-149 -152q-16 -16 -31 -16z" />
    <glyph glyph-name="longs" unicode="&#x17f;" horiz-adv-x="620" 
d="M308 525h-133v-505q0 -8 -6 -14t-14 -6h-85q-8 0 -14 6t-6 14v568q0 26 18 44t44 18h238q8 0 14 -6t6 -14v-42q0 -26 -18 -44.5t-44 -18.5z" />
    <glyph glyph-name="florin" unicode="&#x192;" horiz-adv-x="340" 
d="M-10 -25h60v562q0 26 18 44t44 18h158q8 0 14 -6t6 -14v-42q0 -26 -18 -44.5t-44 -18.5h-53v-111h89q8 0 14 -6t6 -14v-85q0 -8 -6 -14t-14 -6h-89v-326q0 -26 -18 -44t-44 -18h-123q-8 0 -14 6t-6 14v85q0 8 6 14t14 6z" />
    <glyph glyph-name="Aringacute" unicode="&#x1fa;" horiz-adv-x="610" 
d="M425 286v190h-250v-190h250zM425 20v169h-250v-169q0 -8 -6 -14t-14 -6h-85q-8 0 -14 6t-6 14v518q0 26 18 44t44 18h376q26 0 44 -18t18 -44v-518q0 -8 -6 -14t-14 -6h-85q-8 0 -14 6t-6 14zM381 813v-130q0 -14 -9.5 -23.5t-23.5 -9.5h-130q-14 0 -23 9.5t-9 23.5v130
q0 16 13 26l114 114q15 13 28 13h65q10 0 2 -10l-3 -3l-109 -108h52q14 0 23.5 -9t9.5 -23zM316 715v65h-65v-65h65z" />
    <glyph glyph-name="aringacute" unicode="&#x1fb;" horiz-adv-x="500" 
d="M175 215v-90h150v90h-150zM430 0h-318q-26 0 -44 18t-18 44v201q0 26 18 44t44 18h213v50h-255q-8 0 -14 6t-6 14v85q0 8 6 14t14 6h318q26 0 44 -18t18 -44v-418q0 -8 -6 -14t-14 -6zM331 713v-130q0 -14 -9.5 -23.5t-23.5 -9.5h-130q-14 0 -23 9.5t-9 23.5v130
q0 16 13 26l114 114q15 13 28 13h65q10 0 2 -10l-3 -3l-109 -108h52q14 0 23.5 -9t9.5 -23zM266 615v65h-65v-65h65z" />
    <glyph glyph-name="AEacute" unicode="&#x1fc;" horiz-adv-x="975" 
d="M905 0h-460q-8 0 -14 6t-6 14v169h-250v-169q0 -8 -6 -14t-14 -6h-85q-8 0 -14 6t-6 14v518q0 26 18 44t44 18h793q8 0 14 -6t6 -14v-85q0 -8 -6 -14t-14 -6h-355v-113h335q8 0 14 -6t6 -14v-84q0 -8 -6 -14t-14 -6h-335v-113h355q8 0 14 -6t6 -14v-85q0 -8 -6 -14
t-14 -6zM425 286v190h-250v-190h250zM643 827h82q11 0 4 -10q-2 -3 -6 -6l-146 -145q-20 -16 -34 -16h-82q-13 0 -3 11q2 3 5 5l146 145q20 16 34 16z" />
    <glyph glyph-name="aeacute" unicode="&#x1fd;" horiz-adv-x="775" 
d="M725 438v-201q0 -26 -18 -44t-44 -18h-213v-50h255q8 0 14 -6t6 -14v-85q0 -8 -6 -14t-14 -6h-593q-26 0 -44 18t-18 44v201q0 26 18 44t44 18h213v50h-255q-8 0 -14 6t-6 14v85q0 8 6 14t14 6h593q26 0 44 -18t18 -44zM600 285v90h-150v-90h150zM175 215v-90h150v90
h-150zM538 727h82q11 0 4 -10q-2 -3 -6 -6l-146 -145q-20 -16 -34 -16h-82q-13 0 -3 11q2 3 5 5l146 145q20 16 34 16z" />
    <glyph glyph-name="Oslashacute" unicode="&#x1fe;" horiz-adv-x="610" 
d="M550 538v-476q0 -26 -18 -44t-44 -18h-376q-26 0 -44 18t-18 44v476q0 26 18 44t44 18h376q26 0 44 -18t18 -44zM425 125v350h-10l-115 -350h125zM175 475v-350h9l115 350h-124zM355 827h82q11 0 4 -10q-2 -3 -6 -6l-146 -145q-20 -16 -34 -16h-82q-13 0 -3 11q2 3 5 5
l146 145q20 16 34 16z" />
    <glyph glyph-name="oslashacute" unicode="&#x1ff;" horiz-adv-x="500" 
d="M450 438v-376q0 -26 -18 -44t-44 -18h-276q-26 0 -44 18t-18 44v376q0 26 18 44t44 18h276q26 0 44 -18t18 -44zM325 125v250h-3l-45 -250h48zM175 375v-250h3l49 250h-52zM300 727h82q11 0 4 -10q-2 -3 -6 -6l-146 -145q-20 -16 -34 -16h-82q-13 0 -3 11q2 3 5 5
l146 145q20 16 34 16z" />
    <glyph glyph-name="Scommaaccent" unicode="&#x218;" horiz-adv-x="610" 
d="M175 475v-112h313q26 0 44 -18t18 -44v-239q0 -26 -18 -44t-44 -18h-418q-8 0 -14 6t-6 14v85q0 8 6 14t14 6h355v113h-313q-26 0 -44 18t-18 44v238q0 26 18 44t44 18h418q8 0 14 -6t6 -14v-85q0 -8 -6 -14t-14 -6h-355zM383 -45v-201q0 -8 -6 -14t-14 -6h-50
q-8 0 -14 6t-6 14v96h-31q-8 0 -14 6t-6 14v85q0 8 6 14t14 6h101q8 0 14 -6t6 -14z" />
    <glyph glyph-name="scommaaccent" unicode="&#x219;" horiz-adv-x="500" 
d="M175 375v-62h213q26 0 44 -18t18 -44v-189q0 -26 -18 -44t-44 -18h-318q-8 0 -14 6t-6 14v85q0 8 6 14t14 6h255v63h-213q-26 0 -44 18t-18 44v188q0 26 18 44t44 18h318q8 0 14 -6t6 -14v-85q0 -8 -6 -14t-14 -6h-255zM320 -45v-201q0 -8 -6 -14t-14 -6h-50q-8 0 -14 6
t-6 14v96h-31q-8 0 -14 6t-6 14v85q0 8 6 14t14 6h101q8 0 14 -6t6 -14z" />
    <glyph glyph-name="circumflex" unicode="&#x2c6;" horiz-adv-x="574" 
d="M322 834h19q15 0 31 -16l149 -152q5 -5 1.5 -10.5t-13.5 -5.5h-79q-14 0 -32 16l-66 64l-67 -64q-18 -16 -32 -16h-80q-9 0 -12.5 5.5t1.5 10.5l150 152q16 16 30 16z" />
    <glyph glyph-name="caron" unicode="&#x2c7;" horiz-adv-x="574" 
d="M341 650h-19q-14 0 -30 16l-150 152q-5 5 -1.5 10.5t12.5 5.5h80q14 0 32 -16l67 -64l66 64q18 16 32 16h79q10 0 13.5 -5.5t-1.5 -10.5l-149 -152q-16 -16 -31 -16z" />
    <glyph glyph-name="breve" unicode="&#x2d8;" horiz-adv-x="454" 
d="M395 697q-175 -93 -356 0q-16 8 -5 23l26 49q6 13 21 8q135 -69 272 0q15 5 21 -8l26 -49q11 -15 -5 -23z" />
    <glyph glyph-name="dotaccent" unicode="&#x2d9;" horiz-adv-x="240" 
d="M190 734v-68q0 -6 -4.5 -11t-11.5 -5h-68q-7 0 -11.5 5t-4.5 11v68q0 16 16 16h68q16 0 16 -16z" />
    <glyph glyph-name="ring" unicode="&#x2da;" horiz-adv-x="440" 
d="M390 900v-200q0 -21 -14.5 -35.5t-35.5 -14.5h-200q-21 0 -35.5 14.5t-14.5 35.5v200q0 21 14.5 35.5t35.5 14.5h200q21 0 35.5 -14.5t14.5 -35.5zM290 750v100h-100v-100h100z" />
    <glyph glyph-name="ogonek" unicode="&#x2db;" horiz-adv-x="354" 
d="M78 0h108l112 -133q13 -16 -4 -16h-78q-15 0 -29 16z" />
    <glyph glyph-name="tilde" unicode="&#x2dc;" horiz-adv-x="532" 
d="M154 760q22 -20 49.5 -23t49.5 5t54 18.5t54 12.5q66 5 117 -51q8 -8 -3 -21l-39 -40q-4 -4 -11.5 -3t-12.5 6q-19 20 -45 23t-48 -5.5t-52.5 -19t-51.5 -12.5q-66 -5 -121 47q-8 8 2 21l34 43q3 5 11 4.5t13 -5.5z" />
    <glyph glyph-name="hungarumlaut" unicode="&#x2dd;" horiz-adv-x="607" 
d="M286 827h82q6 0 6.5 -4.5t-5.5 -11.5l-121 -145q-14 -16 -31 -16h-82q-15 0 -1 16l121 145q14 16 31 16zM468 827h82q6 0 6.5 -4.5t-5.5 -11.5l-121 -145q-14 -16 -31 -16h-82q-15 0 -1 16l121 145q14 16 31 16z" />
    <glyph glyph-name="pi" unicode="&#x3c0;" horiz-adv-x="680" 
d="M70 500h540q8 0 14 -6t6 -14v-85q0 -8 -6 -14t-14 -6h-85v-355q0 -8 -6 -14t-14 -6h-85q-8 0 -14 6t-6 14v355h-120v-355q0 -8 -6 -14t-14 -6h-85q-8 0 -14 6t-6 14v355h-85q-8 0 -14 6t-6 14v85q0 8 6 14t14 6z" />
    <glyph glyph-name="uni0400" unicode="&#x400;" horiz-adv-x="610" 
d="M530 0h-418q-26 0 -44 18t-18 44v476q0 26 18 44t44 18h418q8 0 14 -6t6 -14v-85q0 -8 -6 -14t-14 -6h-355v-113h335q8 0 14 -6t6 -14v-84q0 -8 -6 -14t-14 -6h-335v-113h355q8 0 14 -6t6 -14v-85q0 -8 -6 -14t-14 -6zM172 827h82q14 0 34 -16l146 -145q13 -13 2 -16h-82
q-14 0 -34 16l-146 145q-14 11 -6 15q2 1 4 1z" />
    <glyph glyph-name="uni0401" unicode="&#x401;" horiz-adv-x="610" 
d="M530 0h-418q-26 0 -44 18t-18 44v476q0 26 18 44t44 18h418q8 0 14 -6t6 -14v-85q0 -8 -6 -14t-14 -6h-355v-113h335q8 0 14 -6t6 -14v-84q0 -8 -6 -14t-14 -6h-335v-113h355q8 0 14 -6t6 -14v-85q0 -8 -6 -14t-14 -6zM269 734v-68q0 -6 -4.5 -11t-11.5 -5h-68
q-7 0 -11.5 5t-4.5 11v68q0 16 16 16h68q16 0 16 -16zM440 734v-68q0 -6 -4.5 -11t-11.5 -5h-68q-7 0 -11.5 5t-4.5 11v68q0 16 16 16h68q16 0 16 -16z" />
    <glyph glyph-name="uni0402" unicode="&#x402;" horiz-adv-x="747" 
d="M30 600h459q8 0 14 -6t6 -14v-85q0 -8 -6 -14t-14 -6h-167v-113h270q43 0 74 -30t31 -72v-158q0 -42 -31 -72t-74 -30h-148v124h128v114h-250v-218q0 -8 -6 -14t-14 -6h-85q-8 0 -14 6t-6 14v455h-167q-8 0 -14 6t-6 14v85q0 8 6 14t14 6z" />
    <glyph glyph-name="uni0403" unicode="&#x403;" horiz-adv-x="600" 
d="M175 475v-455q0 -8 -6 -14t-14 -6h-85q-8 0 -14 6t-6 14v518q0 26 18 44t44 18h418q8 0 14 -6t6 -14v-85q0 -8 -6 -14t-14 -6h-355zM375 827h82q11 0 4 -10q-2 -3 -6 -6l-146 -145q-20 -16 -34 -16h-82q-13 0 -3 11q2 3 5 5l146 145q20 16 34 16z" />
    <glyph glyph-name="uni0404" unicode="&#x404;" horiz-adv-x="600" 
d="M175 407v-45h210q8 0 14 -6t6 -14v-84q0 -8 -6 -14t-14 -6h-210v-45q0 -29 19.5 -48.5t48.5 -19.5h287q8 0 14 -6t6 -14v-85q0 -8 -6 -14t-14 -6h-287q-81 0 -137 55.5t-56 136.5v216q0 81 56 136.5t137 55.5h287q8 0 14 -6t6 -14v-85q0 -8 -6 -14t-14 -6h-287
q-29 0 -48.5 -19.5t-19.5 -48.5z" />
    <glyph glyph-name="uni0405" unicode="&#x405;" horiz-adv-x="600" 
d="M175 475v-112h313q26 0 44 -18t18 -44v-239q0 -26 -18 -44t-44 -18h-418q-8 0 -14 6t-6 14v85q0 8 6 14t14 6h355v113h-313q-26 0 -44 18t-18 44v238q0 26 18 44t44 18h418q8 0 14 -6t6 -14v-85q0 -8 -6 -14t-14 -6h-355z" />
    <glyph glyph-name="uni0406" unicode="&#x406;" horiz-adv-x="225" 
d="M175 580v-560q0 -8 -6 -14t-14 -6h-85q-8 0 -14 6t-6 14v560q0 8 6 14t14 6h85q8 0 14 -6t6 -14z" />
    <glyph glyph-name="uni0407" unicode="&#x407;" horiz-adv-x="225" 
d="M175 580v-560q0 -8 -6 -14t-14 -6h-85q-8 0 -14 6t-6 14v560q0 8 6 14t14 6h85q8 0 14 -6t6 -14zM82 734v-68q0 -6 -4.5 -11t-11.5 -5h-68q-7 0 -11.5 5t-4.5 11v68q0 16 16 16h68q16 0 16 -16zM253 734v-68q0 -6 -4.5 -11t-11.5 -5h-68q-7 0 -11.5 5t-4.5 11v68
q0 16 16 16h68q16 0 16 -16z" />
    <glyph glyph-name="uni0408" unicode="&#x408;" horiz-adv-x="600" 
d="M175 228v-104h250v456q0 8 6 14t14 6h85q8 0 14 -6t6 -14v-518q0 -26 -18 -44t-44 -18h-376q-26 0 -44 18t-18 44v166q0 8 6 14t14 6h85q8 0 14 -6t6 -14z" />
    <glyph glyph-name="uni0409" unicode="&#x409;" horiz-adv-x="875" 
d="M500 580v-218h220q43 0 74 -30t31 -72v-158q0 -42 -31 -72t-74 -30h-325q-8 0 -14 6t-6 14v455h-70l-137 -455q-5 -20 -40 -20h-128q-8 0 -14 6t-6 14v75q0 8 6 14t14 6h57l161 465q3 8 14.5 14t23.5 6h224q8 0 14 -6t6 -14zM700 124v114h-200v-114h200z" />
    <glyph glyph-name="uni040A" unicode="&#x40a;" horiz-adv-x="875" 
d="M500 580v-218h220q43 0 74 -30t31 -72v-158q0 -42 -31 -72t-74 -30h-325q-8 0 -14 6t-6 14v218h-200v-218q0 -8 -6 -14t-14 -6h-85q-8 0 -14 6t-6 14v560q0 8 6 14t14 6h85q8 0 14 -6t6 -14v-218h200v218q0 8 6 14t14 6h85q8 0 14 -6t6 -14zM700 124v114h-200v-114h200z
" />
    <glyph glyph-name="uni040B" unicode="&#x40b;" horiz-adv-x="747" 
d="M572 20v218h-250v-218q0 -8 -6 -14t-14 -6h-85q-8 0 -14 6t-6 14v455h-167q-8 0 -14 6t-6 14v85q0 8 6 14t14 6h459q8 0 14 -6t6 -14v-85q0 -8 -6 -14t-14 -6h-167v-113h270q43 0 74 -30t31 -72v-240q0 -8 -6 -14t-14 -6h-85q-8 0 -14 6t-6 14z" />
    <glyph glyph-name="uni040C" unicode="&#x40c;" horiz-adv-x="559" 
d="M211 356l165 224q11 20 40 20h80q10 0 16.5 -3.5t7 -8t-2.5 -8.5l-207 -273l221 -287q3 -4 2.5 -8.5t-7 -8t-16.5 -3.5h-80q-29 0 -40 20l-178 237h-37v-237q0 -8 -6 -14t-14 -6h-85q-8 0 -14 6t-6 14v560q0 8 6 14t14 6h85q8 0 14 -6t6 -14v-224h36zM375 827h82
q11 0 4 -10q-2 -3 -6 -6l-146 -145q-20 -16 -34 -16h-82q-13 0 -3 11q2 3 5 5l146 145q20 16 34 16z" />
    <glyph glyph-name="uni040D" unicode="&#x40d;" horiz-adv-x="600" 
d="M50 62v518q0 8 6 14t14 6h85q8 0 14 -6t6 -14v-371l238 371q14 20 38 20h37q26 0 44 -18t18 -44v-518q0 -8 -6 -14t-14 -6h-85q-8 0 -14 6t-6 14v367l-237 -367q-14 -20 -38 -20h-38q-26 0 -44 18t-18 44zM137 827h82q14 0 34 -16l146 -145q13 -13 2 -16h-82
q-14 0 -34 16l-146 145q-14 11 -6 15q2 1 4 1z" />
    <glyph glyph-name="uni040E" unicode="&#x40e;" horiz-adv-x="590" 
d="M170 580v-280h250v280q0 8 6 14t14 6h85q8 0 14 -6t6 -14v-518q0 -26 -18 -44t-44 -18h-376q-26 0 -44 18t-18 44v63h375v50h-313q-26 0 -44 18t-18 44v343q0 8 6 14t14 6h85q8 0 14 -6t6 -14zM469 697q-175 -93 -356 0q-16 8 -5 23l26 49q6 13 21 8q135 -69 272 0
q15 5 21 -8l26 -49q11 -15 -5 -23z" />
    <glyph glyph-name="uni040F" unicode="&#x40f;" horiz-adv-x="600" 
d="M175 580v-455h250v455q0 8 6 14t14 6h85q8 0 14 -6t6 -14v-518q0 -26 -18 -44t-44 -18h-126v-114q0 -8 -6 -14t-14 -6h-85q-8 0 -14 6t-6 14v114h-125q-26 0 -44 18t-18 44v518q0 8 6 14t14 6h85q8 0 14 -6t6 -14z" />
    <glyph glyph-name="uni0410" unicode="&#x410;" horiz-adv-x="600" 
d="M425 286v190h-250v-190h250zM425 20v169h-250v-169q0 -8 -6 -14t-14 -6h-85q-8 0 -14 6t-6 14v518q0 26 18 44t44 18h376q26 0 44 -18t18 -44v-518q0 -8 -6 -14t-14 -6h-85q-8 0 -14 6t-6 14z" />
    <glyph glyph-name="uni0411" unicode="&#x411;" horiz-adv-x="600" 
d="M50 20v518q0 26 18 44t44 18h418q8 0 14 -6t6 -14v-85q0 -8 -6 -14t-14 -6h-355v-113h270q43 0 74 -30t31 -72v-158q0 -42 -31 -72t-74 -30h-375q-8 0 -14 6t-6 14zM425 124v114h-250v-114h250z" />
    <glyph glyph-name="uni0412" unicode="&#x412;" horiz-adv-x="600" 
d="M425 356v120h-250v-120h250zM425 124v133h-250v-133h250zM445 0h-375q-8 0 -14 6t-6 14v560q0 8 6 14t14 6h375q43 0 74 -30t31 -72v-87q0 -42 -31 -72t-74 -30v-4q43 0 74 -30t31 -72v-101q0 -42 -31 -72t-74 -30z" />
    <glyph glyph-name="uni0413" unicode="&#x413;" horiz-adv-x="600" 
d="M175 475v-455q0 -8 -6 -14t-14 -6h-85q-8 0 -14 6t-6 14v518q0 26 18 44t44 18h418q8 0 14 -6t6 -14v-85q0 -8 -6 -14t-14 -6h-355z" />
    <glyph glyph-name="uni0414" unicode="&#x414;" horiz-adv-x="710" 
d="M0 125h112l158 455q3 8 14.5 14t23.5 6h232q26 0 44 -18t18 -44v-413h108q8 0 14 -6t6 -14v-219q0 -8 -6 -14t-14 -6h-85q-8 0 -14 6t-6 14v114h-500v-114q0 -8 -6 -14t-14 -6h-85q-8 0 -14 6t-6 14v219q0 8 6 14t14 6zM357 475l-106 -350h226v350h-120z" />
    <glyph glyph-name="uni0415" unicode="&#x415;" horiz-adv-x="600" 
d="M530 0h-418q-26 0 -44 18t-18 44v476q0 26 18 44t44 18h418q8 0 14 -6t6 -14v-85q0 -8 -6 -14t-14 -6h-355v-113h335q8 0 14 -6t6 -14v-84q0 -8 -6 -14t-14 -6h-335v-113h355q8 0 14 -6t6 -14v-85q0 -8 -6 -14t-14 -6z" />
    <glyph glyph-name="uni0416" unicode="&#x416;" horiz-adv-x="733" 
d="M159 580l124 -224h21v224q0 8 6 14t14 6h85q8 0 14 -6t6 -14v-224h21l124 224q12 20 40 20h71q10 0 16.5 -3.5t7 -8t-2.5 -8.5l-157 -273l171 -287q3 -4 2.5 -8.5t-7 -8t-16.5 -3.5h-80q-29 0 -40 20l-128 237h-22v-237q0 -8 -6 -14t-14 -6h-85q-8 0 -14 6t-6 14v237h-22
l-128 -237q-11 -20 -40 -20h-80q-10 0 -16.5 3.5t-7 8t2.5 8.5l171 287l-157 273q-3 4 -2.5 8.5t7 8t16.5 3.5h71q28 0 40 -20z" />
    <glyph glyph-name="uni0417" unicode="&#x417;" horiz-adv-x="500" 
d="M175 475v-34q0 -8 -6 -14t-14 -6h-85q-8 0 -14 6t-6 14v139q0 8 6 14t14 6h367q26 0 44 -18.5t18 -44.5v-170q0 -26 -18 -44.5t-44 -18.5v-4q26 0 44 -18.5t18 -44.5v-174q0 -26 -18 -44.5t-44 -18.5h-367q-8 0 -14 6t-6 14v85q0 8 6 14t14 6h305v114h-265q-8 0 -14 6
t-6 14v85q0 8 6 14t14 6h265v111h-200z" />
    <glyph glyph-name="uni0418" unicode="&#x418;" horiz-adv-x="600" 
d="M50 62v518q0 8 6 14t14 6h85q8 0 14 -6t6 -14v-371l238 371q14 20 38 20h37q26 0 44 -18t18 -44v-518q0 -8 -6 -14t-14 -6h-85q-8 0 -14 6t-6 14v367l-237 -367q-14 -20 -38 -20h-38q-26 0 -44 18t-18 44z" />
    <glyph glyph-name="uni0419" unicode="&#x419;" horiz-adv-x="600" 
d="M50 62v518q0 8 6 14t14 6h85q8 0 14 -6t6 -14v-371l238 371q14 20 38 20h37q26 0 44 -18t18 -44v-518q0 -8 -6 -14t-14 -6h-85q-8 0 -14 6t-6 14v367l-237 -367q-14 -20 -38 -20h-38q-26 0 -44 18t-18 44zM469 697q-175 -93 -356 0q-16 8 -5 23l26 49q6 13 21 8
q135 -69 272 0q15 5 21 -8l26 -49q11 -15 -5 -23z" />
    <glyph glyph-name="uni041A" unicode="&#x41a;" horiz-adv-x="559" 
d="M211 356l165 224q11 20 40 20h80q10 0 16.5 -3.5t7 -8t-2.5 -8.5l-207 -273l221 -287q3 -4 2.5 -8.5t-7 -8t-16.5 -3.5h-80q-29 0 -40 20l-178 237h-37v-237q0 -8 -6 -14t-14 -6h-85q-8 0 -14 6t-6 14v560q0 8 6 14t14 6h85q8 0 14 -6t6 -14v-224h36z" />
    <glyph glyph-name="uni041B" unicode="&#x41b;" horiz-adv-x="600" 
d="M-20 20v75q0 8 6 14t14 6h57l161 465q3 8 14.5 14t23.5 6h232q26 0 44 -18t18 -44v-518q0 -8 -6 -14t-14 -6h-85q-8 0 -14 6t-6 14v455h-120l-137 -455q-5 -20 -40 -20h-128q-8 0 -14 6t-6 14z" />
    <glyph glyph-name="uni041C" unicode="&#x41c;" horiz-adv-x="700" 
d="M350 320l163 260q14 20 38 20h36q26 0 44.5 -18t18.5 -44v-518q0 -8 -6 -14t-14 -6h-85q-8 0 -14 6t-6 14v368l-118 -187q-11 -20 -38 -20h-38q-27 0 -38 20l-118 187v-368q0 -8 -6 -14t-14 -6h-85q-8 0 -14 6t-6 14v518q0 26 18.5 44t44.5 18h36q24 0 38 -20z" />
    <glyph glyph-name="uni041D" unicode="&#x41d;" horiz-adv-x="600" 
d="M550 580v-560q0 -8 -6 -14t-14 -6h-85q-8 0 -14 6t-6 14v218h-250v-218q0 -8 -6 -14t-14 -6h-85q-8 0 -14 6t-6 14v560q0 8 6 14t14 6h85q8 0 14 -6t6 -14v-218h250v218q0 8 6 14t14 6h85q8 0 14 -6t6 -14z" />
    <glyph glyph-name="uni041E" unicode="&#x41e;" horiz-adv-x="600" 
d="M550 538v-476q0 -26 -18 -44t-44 -18h-376q-26 0 -44 18t-18 44v476q0 26 18 44t44 18h376q26 0 44 -18t18 -44zM425 125v350h-250v-350h250z" />
    <glyph glyph-name="uni041F" unicode="&#x41f;" horiz-adv-x="600" 
d="M175 475v-455q0 -8 -6 -14t-14 -6h-85q-8 0 -14 6t-6 14v518q0 26 18 44t44 18h376q26 0 44 -18t18 -44v-518q0 -8 -6 -14t-14 -6h-85q-8 0 -14 6t-6 14v455h-250z" />
    <glyph glyph-name="uni0420" unicode="&#x420;" horiz-adv-x="600" 
d="M175 176v-156q0 -8 -6 -14t-14 -6h-85q-8 0 -14 6t-6 14v560q0 8 6 14t14 6h375q43 0 74 -30t31 -72v-220q0 -42 -31 -72t-74 -30h-270zM425 300v176h-250v-176h250z" />
    <glyph glyph-name="uni0421" unicode="&#x421;" horiz-adv-x="600" 
d="M530 0h-418q-26 0 -44 18t-18 44v476q0 26 18 44t44 18h418q8 0 14 -6t6 -14v-85q0 -8 -6 -14t-14 -6h-355v-350h355q8 0 14 -6t6 -14v-85q0 -8 -6 -14t-14 -6z" />
    <glyph glyph-name="uni0422" unicode="&#x422;" horiz-adv-x="519" 
d="M30 600h459q8 0 14 -6t6 -14v-85q0 -8 -6 -14t-14 -6h-167v-455q0 -8 -6 -14t-14 -6h-85q-8 0 -14 6t-6 14v455h-167q-8 0 -14 6t-6 14v85q0 8 6 14t14 6z" />
    <glyph glyph-name="uni0423" unicode="&#x423;" horiz-adv-x="590" 
d="M170 580v-280h250v280q0 8 6 14t14 6h85q8 0 14 -6t6 -14v-518q0 -26 -18 -44t-44 -18h-376q-26 0 -44 18t-18 44v63h375v50h-313q-26 0 -44 18t-18 44v343q0 8 6 14t14 6h85q8 0 14 -6t6 -14z" />
    <glyph glyph-name="uni0424" unicode="&#x424;" horiz-adv-x="600" 
d="M362 580v-80h126q26 0 44 -18t18 -44v-276q0 -26 -18 -44t-44 -18h-126v-80q0 -8 -6 -14t-14 -6h-85q-8 0 -14 6t-6 14v80h-125q-26 0 -44 18t-18 44v276q0 26 18 44t44 18h125v80q0 8 6 14t14 6h85q8 0 14 -6t6 -14zM425 225v150h-63v-150h63zM175 375v-150h62v150h-62z
" />
    <glyph glyph-name="uni0425" unicode="&#x425;" 
d="M160 580l115 -170l115 170q13 20 40 20h89q9 0 15.5 -3.5t7.5 -8t-2 -8.5l-190 -281l189 -279q3 -4 2.5 -8.5t-7 -8t-16.5 -3.5h-89q-26 0 -40 20l-114 168l-114 -168q-14 -20 -40 -20h-89q-10 0 -16.5 3.5t-7 8t2.5 8.5l189 279l-190 281q-3 4 -2 8.5t7.5 8t15.5 3.5h89
q27 0 40 -20z" />
    <glyph glyph-name="uni0426" unicode="&#x426;" horiz-adv-x="658" 
d="M553 0h-441q-26 0 -44 18t-18 44v518q0 8 6 14t14 6h85q8 0 14 -6t6 -14v-455h250v455q0 8 6 14t14 6h85q8 0 14 -6t6 -14v-455h108q8 0 14 -6t6 -14v-219q0 -8 -6 -14t-14 -6h-85q-8 0 -14 6t-6 14v114z" />
    <glyph glyph-name="uni0427" unicode="&#x427;" horiz-adv-x="600" 
d="M50 340v240q0 8 6 14t14 6h85q8 0 14 -6t6 -14v-218h250v218q0 8 6 14t14 6h85q8 0 14 -6t6 -14v-560q0 -8 -6 -14t-14 -6h-85q-8 0 -14 6t-6 14v218h-270q-44 0 -74.5 30t-30.5 72z" />
    <glyph glyph-name="uni0428" unicode="&#x428;" horiz-adv-x="699" 
d="M649 580v-518q0 -26 -18.5 -44t-44.5 -18h-473q-26 0 -44.5 18t-18.5 44v518q0 8 6 14t14 6h85q8 0 14 -6t6 -14v-456h112v456q0 8 6 14t14 6h85q8 0 14 -6t6 -14v-456h112v456q0 8 6 14t14 6h85q8 0 14 -6t6 -14z" />
    <glyph glyph-name="uni0429" unicode="&#x429;" horiz-adv-x="757" 
d="M652 0h-539q-26 0 -44.5 18t-18.5 44v518q0 8 6 14t14 6h85q8 0 14 -6t6 -14v-456h112v456q0 8 6 14t14 6h85q8 0 14 -6t6 -14v-456h112v456q0 8 6 14t14 6h85q8 0 14 -6t6 -14v-455h108q8 0 14 -6t6 -14v-219q0 -8 -6 -14t-14 -6h-85q-8 0 -14 6t-6 14v114z" />
    <glyph glyph-name="uni042A" unicode="&#x42a;" horiz-adv-x="600" 
d="M50 475h-50q-8 0 -14 6t-6 14v85q0 8 6 14t14 6h155q8 0 14 -6t6 -14v-218h270q43 0 74 -30t31 -72v-158q0 -42 -31 -72t-74 -30h-375q-8 0 -14 6t-6 14v455zM425 124v114h-250v-114h250z" />
    <glyph glyph-name="uni042B" unicode="&#x42b;" horiz-adv-x="725" 
d="M175 580v-218h220q43 0 74 -30t31 -72v-158q0 -42 -31 -72t-74 -30h-325q-8 0 -14 6t-6 14v560q0 8 6 14t14 6h85q8 0 14 -6t6 -14zM675 580v-560q0 -8 -6 -14t-14 -6h-85q-8 0 -14 6t-6 14v560q0 8 6 14t14 6h85q8 0 14 -6t6 -14zM375 124v114h-200v-114h200z" />
    <glyph glyph-name="uni042C" unicode="&#x42c;" horiz-adv-x="600" 
d="M175 580v-218h270q43 0 74 -30t31 -72v-158q0 -42 -31 -72t-74 -30h-375q-8 0 -14 6t-6 14v560q0 8 6 14t14 6h85q8 0 14 -6t6 -14zM425 124v114h-250v-114h250z" />
    <glyph glyph-name="uni042D" unicode="&#x42d;" horiz-adv-x="600" 
d="M425 362v45q0 29 -19.5 48.5t-48.5 19.5h-287q-8 0 -14 6t-6 14v85q0 8 6 14t14 6h287q81 0 137 -55.5t56 -136.5v-216q0 -81 -56 -136.5t-137 -55.5h-287q-8 0 -14 6t-6 14v85q0 8 6 14t14 6h287q29 0 48.5 19.5t19.5 48.5v45h-210q-8 0 -14 6t-6 14v84q0 8 6 14t14 6
h210z" />
    <glyph glyph-name="uni042E" unicode="&#x42e;" horiz-adv-x="764" 
d="M175 580v-218h89v176q0 26 18 44t44 18h326q26 0 44 -18t18 -44v-476q0 -26 -18 -44t-44 -18h-326q-26 0 -44 18t-18 44v176h-89v-218q0 -8 -6 -14t-14 -6h-85q-8 0 -14 6t-6 14v560q0 8 6 14t14 6h85q8 0 14 -6t6 -14zM589 125v350h-200v-350h200z" />
    <glyph glyph-name="uni042F" unicode="&#x42f;" horiz-adv-x="601" 
d="M383 219l-174 -199q-20 -20 -40 -20h-102q-10 0 -16.5 3.5t-7 8t2.5 8.5l174 199h-69q-44 0 -74.5 30t-30.5 72v177q0 42 30.5 72t74.5 30h375q8 0 14 -6t6 -14v-560q0 -8 -6 -14t-14 -6h-85q-8 0 -14 6t-6 14v199h-38zM171 476v-158h250v158h-250z" />
    <glyph glyph-name="uni0430" unicode="&#x430;" horiz-adv-x="500" 
d="M175 215v-90h150v90h-150zM430 0h-318q-26 0 -44 18t-18 44v201q0 26 18 44t44 18h213v50h-255q-8 0 -14 6t-6 14v85q0 8 6 14t14 6h318q26 0 44 -18t18 -44v-418q0 -8 -6 -14t-14 -6z" />
    <glyph glyph-name="uni0431" unicode="&#x431;" horiz-adv-x="600" 
d="M50 20v447q0 50 62 62l418 71q8 0 14 -6t6 -14v-85q0 -15 -20 -20l-355 -69v-44h270q43 0 74 -30t31 -72v-158q0 -42 -31 -72t-74 -30h-375q-8 0 -14 6t-6 14zM425 124v114h-250v-114h250z" />
    <glyph glyph-name="uni0432" unicode="&#x432;" 
d="M375 306v70h-200v-70h200zM375 124v83h-200v-83h200zM395 0h-325q-8 0 -14 6t-6 14v460q0 8 6 14t14 6h325q43 0 74 -30t31 -72v-37q0 -42 -31 -72t-74 -30v-4q43 0 74 -30t31 -72v-51q0 -42 -31 -72t-74 -30z" />
    <glyph glyph-name="uni0433" unicode="&#x433;" 
d="M175 375v-355q0 -8 -6 -14t-14 -6h-85q-8 0 -14 6t-6 14v418q0 26 18 44t44 18h368q8 0 14 -6t6 -14v-85q0 -8 -6 -14t-14 -6h-305z" />
    <glyph glyph-name="uni0434" unicode="&#x434;" horiz-adv-x="629" 
d="M-1 125h112l109 355q2 8 14 14t24 6h201q26 0 44 -18t18 -44v-313h108q8 0 14 -6t6 -14v-210q0 -8 -6 -14t-14 -6h-85q-8 0 -14 6t-6 14v105h-420v-105q0 -8 -6 -14t-14 -6h-85q-8 0 -14 6t-6 14v210q0 8 6 14t14 6zM308 375l-61 -250h149v250h-88z" />
    <glyph glyph-name="uni0435" unicode="&#x435;" horiz-adv-x="500" 
d="M450 438v-201q0 -26 -18 -44t-44 -18h-213v-50h255q8 0 14 -6t6 -14v-85q0 -8 -6 -14t-14 -6h-318q-26 0 -44 18t-18 44v376q0 26 18 44t44 18h276q26 0 44 -18t18 -44zM325 285v90h-150v-90h150z" />
    <glyph glyph-name="uni0436" unicode="&#x436;" horiz-adv-x="671" 
d="M163 480l98 -174h12v174q0 8 6 14t14 6h85q8 0 14 -6t6 -14v-174h12l98 174q14 20 40 20h75q14 0 20.5 -6.5t0.5 -13.5l-131 -223l145 -237q3 -4 2.5 -8.5t-7 -8t-16.5 -3.5h-75q-25 0 -40 20l-111 187h-13v-187q0 -8 -6 -14t-14 -6h-85q-8 0 -14 6t-6 14v187h-13
l-111 -187q-15 -20 -40 -20h-75q-10 0 -16.5 3.5t-7 8t2.5 8.5l145 237l-131 223q-6 7 0.5 13.5t20.5 6.5h75q26 0 40 -20z" />
    <glyph glyph-name="uni0437" unicode="&#x437;" horiz-adv-x="500" 
d="M175 375v-4q0 -8 -6 -14t-14 -6h-85q-8 0 -14 6t-6 14v109q0 8 6 14t14 6h318q26 0 44 -18.5t18 -44.5v-120q0 -26 -18 -44.5t-44 -18.5v-4q26 0 44 -18.5t18 -44.5v-124q0 -26 -18 -44.5t-44 -18.5h-318q-8 0 -14 6t-6 14v85q0 8 6 14t14 6h256v64h-216q-8 0 -14 6
t-6 14v85q0 8 6 14t14 6h216v61h-151z" />
    <glyph glyph-name="uni0438" unicode="&#x438;" 
d="M50 62v418q0 8 6 14t14 6h85q8 0 14 -6t6 -14v-277l188 277q15 20 41 20h34q26 0 44 -18t18 -44v-418q0 -8 -6 -14t-14 -6h-85q-8 0 -14 6t-6 14v280l-187 -280q-12 -20 -41 -20h-35q-26 0 -44 18t-18 44z" />
    <glyph glyph-name="uni0439" unicode="&#x439;" 
d="M50 62v418q0 8 6 14t14 6h85q8 0 14 -6t6 -14v-277l188 277q15 20 41 20h34q26 0 44 -18t18 -44v-418q0 -8 -6 -14t-14 -6h-85q-8 0 -14 6t-6 14v280l-187 -280q-12 -20 -41 -20h-35q-26 0 -44 18t-18 44zM458 597q-175 -93 -356 0q-16 8 -5 23l26 49q6 13 21 8
q135 -69 272 0q15 5 21 -8l26 -49q11 -15 -5 -23z" />
    <glyph glyph-name="uni043A" unicode="&#x43a;" horiz-adv-x="511" 
d="M214 306l127 174q14 20 40 20h82q14 0 20.5 -6.5t0.5 -13.5l-162 -223l176 -237q3 -4 2.5 -8.5t-7 -8t-16.5 -3.5h-82q-25 0 -40 20l-140 187h-40v-187q0 -8 -6 -14t-14 -6h-85q-8 0 -14 6t-6 14v460q0 8 6 14t14 6h85q8 0 14 -6t6 -14v-174h39z" />
    <glyph glyph-name="uni043B" unicode="&#x43b;" 
d="M-20 20v75q0 8 6 14t14 6h57l112 365q2 8 14 14t24 6h231q26 0 44 -18t18 -44v-418q0 -8 -6 -14t-14 -6h-85q-8 0 -14 6t-6 14v355h-118l-86 -355q-4 -20 -40 -20h-131q-8 0 -14 6t-6 14z" />
    <glyph glyph-name="uni043C" unicode="&#x43c;" horiz-adv-x="650" 
d="M325 220l138 260q11 20 38 20h36q26 0 44.5 -18t18.5 -44v-418q0 -8 -6 -14t-14 -6h-85q-8 0 -14 6t-6 14v262l-93 -174q-11 -20 -38 -20h-38q-27 0 -38 20l-93 174v-262q0 -8 -6 -14t-14 -6h-85q-8 0 -14 6t-6 14v418q0 26 18.5 44t44.5 18h36q27 0 38 -20z" />
    <glyph glyph-name="uni043D" unicode="&#x43d;" 
d="M500 480v-460q0 -8 -6 -14t-14 -6h-85q-8 0 -14 6t-6 14v168h-200v-168q0 -8 -6 -14t-14 -6h-85q-8 0 -14 6t-6 14v460q0 8 6 14t14 6h85q8 0 14 -6t6 -14v-168h200v168q0 8 6 14t14 6h85q8 0 14 -6t6 -14z" />
    <glyph glyph-name="uni043E" unicode="&#x43e;" 
d="M500 438v-376q0 -26 -18 -44t-44 -18h-326q-26 0 -44 18t-18 44v376q0 26 18 44t44 18h326q26 0 44 -18t18 -44zM375 125v250h-200v-250h200z" />
    <glyph glyph-name="uni043F" unicode="&#x43f;" 
d="M175 375v-355q0 -8 -6 -14t-14 -6h-85q-8 0 -14 6t-6 14v418q0 26 18 44t44 18h326q26 0 44 -18t18 -44v-418q0 -8 -6 -14t-14 -6h-85q-8 0 -14 6t-6 14v355h-200z" />
    <glyph glyph-name="uni0440" unicode="&#x440;" horiz-adv-x="500" 
d="M325 125v250h-150v-250h150zM112 500h276q26 0 44 -18t18 -44v-376q0 -26 -18 -44t-44 -18h-213v-130q0 -8 -6 -14t-14 -6h-85q-8 0 -14 6t-6 14v568q0 26 18 44t44 18z" />
    <glyph glyph-name="uni0441" unicode="&#x441;" horiz-adv-x="500" 
d="M430 0h-318q-26 0 -44 18t-18 44v376q0 26 18 44t44 18h318q8 0 14 -6t6 -14v-85q0 -8 -6 -14t-14 -6h-255v-250h255q8 0 14 -6t6 -14v-85q0 -8 -6 -14t-14 -6z" />
    <glyph glyph-name="uni0442" unicode="&#x442;" horiz-adv-x="469" 
d="M30 500h409q8 0 14 -6t6 -14v-85q0 -8 -6 -14t-14 -6h-142v-355q0 -8 -6 -14t-14 -6h-85q-8 0 -14 6t-6 14v355h-142q-8 0 -14 6t-6 14v85q0 8 6 14t14 6z" />
    <glyph glyph-name="uni0443" unicode="&#x443;" 
d="M175 480v-180h200v180q0 8 6 14t14 6h85q8 0 14 -6t6 -14v-418q0 -26 -18 -44t-44 -18h-326q-26 0 -44 18t-18 44v63h325v50h-263q-26 0 -44 18t-18 44v243q0 8 6 14t14 6h85q8 0 14 -6t6 -14z" />
    <glyph glyph-name="uni0444" unicode="&#x444;" horiz-adv-x="600" 
d="M362 630v-130h126q26 0 44 -18t18 -44v-376q0 -26 -18 -44t-44 -18h-126v-130q0 -8 -6 -14t-14 -6h-85q-8 0 -14 6t-6 14v130h-125q-26 0 -44 18t-18 44v376q0 26 18 44t44 18h125v130q0 8 6 14t14 6h85q8 0 14 -6t6 -14zM425 125v250h-63v-250h63zM175 375v-250h62v250
h-62z" />
    <glyph glyph-name="uni0445" unicode="&#x445;" horiz-adv-x="462" 
d="M309 20l-78 120l-77 -120q-12 -20 -40 -20h-79q-10 0 -16.5 3.5t-7 8t2.5 8.5l147 229l-148 231q-3 4 -2 8.5t7.5 8t15.5 3.5h79q28 0 40 -20l78 -122l78 122q12 20 40 20h79q9 0 15.5 -3.5t7.5 -8t-2 -8.5l-148 -231l148 -229q3 -4 2.5 -8.5t-7 -8t-16.5 -3.5h-79
q-28 0 -40 20z" />
    <glyph glyph-name="uni0446" unicode="&#x446;" horiz-adv-x="608" 
d="M503 0h-391q-26 0 -44 18t-18 44v418q0 8 6 14t14 6h85q8 0 14 -6t6 -14v-355h200v355q0 8 6 14t14 6h85q8 0 14 -6t6 -14v-355h108q8 0 14 -6t6 -14v-210q0 -8 -6 -14t-14 -6h-85q-8 0 -14 6t-6 14v105z" />
    <glyph glyph-name="uni0447" unicode="&#x447;" 
d="M175 480v-168h200v168q0 8 6 14t14 6h85q8 0 14 -6t6 -14v-460q0 -8 -6 -14t-14 -6h-85q-8 0 -14 6t-6 14v168h-220q-44 0 -74.5 30t-30.5 72v190q0 8 6 14t14 6h85q8 0 14 -6t6 -14z" />
    <glyph glyph-name="uni0448" unicode="&#x448;" horiz-adv-x="649" 
d="M599 480v-418q0 -26 -18.5 -44t-44.5 -18h-423q-26 0 -44.5 18t-18.5 44v418q0 8 6 14t14 6h85q8 0 14 -6t6 -14v-356h87v356q0 8 6 14t14 6h85q8 0 14 -6t6 -14v-356h87v356q0 8 6 14t14 6h85q8 0 14 -6t6 -14z" />
    <glyph glyph-name="uni0449" unicode="&#x449;" horiz-adv-x="707" 
d="M602 0h-489q-26 0 -44.5 18t-18.5 44v418q0 8 6 14t14 6h85q8 0 14 -6t6 -14v-356h87v356q0 8 6 14t14 6h85q8 0 14 -6t6 -14v-356h87v356q0 8 6 14t14 6h85q8 0 14 -6t6 -14v-355h108q8 0 14 -6t6 -14v-210q0 -8 -6 -14t-14 -6h-85q-8 0 -14 6t-6 14v105z" />
    <glyph glyph-name="uni044A" unicode="&#x44a;" 
d="M175 480v-168h220q43 0 74 -30t31 -72v-108q0 -42 -31 -72t-74 -30h-325q-8 0 -14 6t-6 14v355h-50q-8 0 -14 6t-6 14v85q0 8 6 14t14 6h155q8 0 14 -6t6 -14zM375 124v64h-200v-64h200z" />
    <glyph glyph-name="uni044B" unicode="&#x44b;" horiz-adv-x="675" 
d="M175 480v-168h170q43 0 74 -30t31 -72v-108q0 -42 -31 -72t-74 -30h-275q-8 0 -14 6t-6 14v460q0 8 6 14t14 6h85q8 0 14 -6t6 -14zM625 480v-460q0 -8 -6 -14t-14 -6h-85q-8 0 -14 6t-6 14v460q0 8 6 14t14 6h85q8 0 14 -6t6 -14zM325 124v64h-150v-64h150z" />
    <glyph glyph-name="uni044C" unicode="&#x44c;" 
d="M175 480v-168h220q43 0 74 -30t31 -72v-108q0 -42 -31 -72t-74 -30h-325q-8 0 -14 6t-6 14v460q0 8 6 14t14 6h85q8 0 14 -6t6 -14zM375 124v64h-200v-64h200z" />
    <glyph glyph-name="uni044D" unicode="&#x44d;" horiz-adv-x="500" 
d="M325 172v16h-161q-8 0 -14 6t-6 14v84q0 8 6 14t14 6h161v16q0 20 -13 33.5t-33 13.5h-209q-8 0 -14 6t-6 14v85q0 8 6 14t14 6h209q71 0 121 -51t50 -121v-156q0 -70 -50 -121t-121 -51h-209q-8 0 -14 6t-6 14v85q0 8 6 14t14 6h209q20 0 33 13.5t13 33.5z" />
    <glyph glyph-name="uni044E" unicode="&#x44e;" horiz-adv-x="735" 
d="M175 480v-168h60v126q0 26 18 44t44 18h326q26 0 44 -18t18 -44v-376q0 -26 -18 -44t-44 -18h-326q-26 0 -44 18t-18 44v126h-60v-168q0 -8 -6 -14t-14 -6h-85q-8 0 -14 6t-6 14v460q0 8 6 14t14 6h85q8 0 14 -6t6 -14zM560 125v250h-200v-250h200z" />
    <glyph glyph-name="uni044F" unicode="&#x44f;" 
d="M352 169l-133 -149q-20 -20 -40 -20h-102q-10 0 -16.5 3.5t-7 8t2.5 8.5l140 149h-42q-44 0 -74.5 30t-30.5 72v127q0 42 30.5 72t74.5 30h325q8 0 14 -6t6 -14v-460q0 -8 -6 -14t-14 -6h-85q-8 0 -14 6t-6 14v149h-22zM174 376v-108h200v108h-200z" />
    <glyph glyph-name="uni0450" unicode="&#x450;" horiz-adv-x="500" 
d="M450 438v-201q0 -26 -18 -44t-44 -18h-213v-50h255q8 0 14 -6t6 -14v-85q0 -8 -6 -14t-14 -6h-318q-26 0 -44 18t-18 44v376q0 26 18 44t44 18h276q26 0 44 -18t18 -44zM325 285v90h-150v-90h150zM117 727h82q14 0 34 -16l146 -145q13 -13 2 -16h-82q-14 0 -34 16
l-146 145q-14 11 -6 15q2 1 4 1z" />
    <glyph glyph-name="uni0451" unicode="&#x451;" horiz-adv-x="500" 
d="M450 438v-201q0 -26 -18 -44t-44 -18h-213v-50h255q8 0 14 -6t6 -14v-85q0 -8 -6 -14t-14 -6h-318q-26 0 -44 18t-18 44v376q0 26 18 44t44 18h276q26 0 44 -18t18 -44zM325 285v90h-150v-90h150zM214 634v-68q0 -6 -4.5 -11t-11.5 -5h-68q-7 0 -11.5 5t-4.5 11v68
q0 16 16 16h68q16 0 16 -16zM385 634v-68q0 -6 -4.5 -11t-11.5 -5h-68q-7 0 -11.5 5t-4.5 11v68q0 16 16 16h68q16 0 16 -16z" />
    <glyph glyph-name="uni0452" unicode="&#x452;" horiz-adv-x="500" 
d="M265 -25h60v337h-150v-292q0 -8 -6 -14t-14 -6h-85q-8 0 -14 6t-6 14v610q0 8 6 14t14 6h85q8 0 14 -6t6 -14h235q8 0 14 -6t6 -14v-42q0 -26 -18 -44t-44 -18h-193v-69h213q26 0 44 -18t18 -44v-463q0 -26 -18 -44t-44 -18h-123q-8 0 -14 6t-6 14v85q0 8 6 14t14 6z" />
    <glyph glyph-name="uni0453" unicode="&#x453;" 
d="M175 375v-355q0 -8 -6 -14t-14 -6h-85q-8 0 -14 6t-6 14v418q0 26 18 44t44 18h368q8 0 14 -6t6 -14v-85q0 -8 -6 -14t-14 -6h-305zM302 727h82q11 0 4 -10q-2 -3 -6 -6l-146 -145q-20 -16 -34 -16h-82q-13 0 -3 11q2 3 5 5l146 145q20 16 34 16z" />
    <glyph glyph-name="uni0454" unicode="&#x454;" horiz-adv-x="500" 
d="M175 188v-16q0 -20 13 -33.5t33 -13.5h209q8 0 14 -6t6 -14v-85q0 -8 -6 -14t-14 -6h-209q-71 0 -121 51t-50 121v156q0 70 50 121t121 51h209q8 0 14 -6t6 -14v-85q0 -8 -6 -14t-14 -6h-209q-20 0 -33 -13.5t-13 -33.5v-16h161q8 0 14 -6t6 -14v-84q0 -8 -6 -14t-14 -6
h-161z" />
    <glyph glyph-name="uni0455" unicode="&#x455;" 
d="M175 375v-62h263q26 0 44 -18t18 -44v-189q0 -26 -18 -44t-44 -18h-368q-8 0 -14 6t-6 14v85q0 8 6 14t14 6h305v63h-263q-26 0 -44 18t-18 44v188q0 26 18 44t44 18h368q8 0 14 -6t6 -14v-85q0 -8 -6 -14t-14 -6h-305z" />
    <glyph glyph-name="uni0456" unicode="&#x456;" horiz-adv-x="225" 
d="M175 480v-460q0 -8 -6 -14t-14 -6h-85q-8 0 -14 6t-6 14v460q0 8 6 14t14 6h85q8 0 14 -6t6 -14zM175 630v-53q0 -8 -6 -14t-14 -6h-85q-8 0 -14 6t-6 14v53q0 8 6 14t14 6h85q8 0 14 -6t6 -14z" />
    <glyph glyph-name="uni0457" unicode="&#x457;" horiz-adv-x="225" 
d="M175 480v-460q0 -8 -6 -14t-14 -6h-85q-8 0 -14 6t-6 14v460q0 8 6 14t14 6h85q8 0 14 -6t6 -14zM77 634v-68q0 -6 -4.5 -11t-11.5 -5h-68q-7 0 -11.5 5t-4.5 11v68q0 16 16 16h68q16 0 16 -16zM248 634v-68q0 -6 -4.5 -11t-11.5 -5h-68q-7 0 -11.5 5t-4.5 11v68
q0 16 16 16h68q16 0 16 -16z" />
    <glyph glyph-name="uni0458" unicode="&#x458;" horiz-adv-x="225" 
d="M-10 -25h60v505q0 8 6 14t14 6h85q8 0 14 -6t6 -14v-568q0 -26 -18 -44t-44 -18h-123q-8 0 -14 6t-6 14v85q0 8 6 14t14 6zM175 630v-53q0 -8 -6 -14t-14 -6h-85q-8 0 -14 6t-6 14v53q0 8 6 14t14 6h85q8 0 14 -6t6 -14z" />
    <glyph glyph-name="uni0459" unicode="&#x459;" horiz-adv-x="775" 
d="M450 480v-168h170q43 0 74 -30t31 -72v-108q0 -42 -31 -72t-74 -30h-275q-8 0 -14 6t-6 14v355h-68l-86 -355q-4 -20 -40 -20h-131q-8 0 -14 6t-6 14v75q0 8 6 14t14 6h57l112 365q2 8 14 14t24 6h223q8 0 14 -6t6 -14zM600 124v64h-150v-64h150z" />
    <glyph glyph-name="uni045A" unicode="&#x45a;" horiz-adv-x="775" 
d="M450 480v-168h170q43 0 74 -30t31 -72v-108q0 -42 -31 -72t-74 -30h-275q-8 0 -14 6t-6 14v168h-150v-168q0 -8 -6 -14t-14 -6h-85q-8 0 -14 6t-6 14v460q0 8 6 14t14 6h85q8 0 14 -6t6 -14v-168h150v168q0 8 6 14t14 6h85q8 0 14 -6t6 -14zM600 124v64h-150v-64h150z
" />
    <glyph glyph-name="uni045B" unicode="&#x45b;" horiz-adv-x="500" 
d="M368 506h-193v-69h213q26 0 44 -18t18 -44v-355q0 -8 -6 -14t-14 -6h-85q-8 0 -14 6t-6 14v292h-150v-292q0 -8 -6 -14t-14 -6h-85q-8 0 -14 6t-6 14v610q0 8 6 14t14 6h85q8 0 14 -6t6 -14h235q8 0 14 -6t6 -14v-42q0 -26 -18 -44t-44 -18z" />
    <glyph glyph-name="uni045C" unicode="&#x45c;" horiz-adv-x="511" 
d="M214 306l127 174q14 20 40 20h82q14 0 20.5 -6.5t0.5 -13.5l-162 -223l176 -237q3 -4 2.5 -8.5t-7 -8t-16.5 -3.5h-82q-25 0 -40 20l-140 187h-40v-187q0 -8 -6 -14t-14 -6h-85q-8 0 -14 6t-6 14v460q0 8 6 14t14 6h85q8 0 14 -6t6 -14v-174h39zM302 727h82q11 0 4 -10
q-2 -3 -6 -6l-146 -145q-20 -16 -34 -16h-82q-13 0 -3 11q2 3 5 5l146 145q20 16 34 16z" />
    <glyph glyph-name="uni045D" unicode="&#x45d;" 
d="M50 62v418q0 8 6 14t14 6h85q8 0 14 -6t6 -14v-277l188 277q15 20 41 20h34q26 0 44 -18t18 -44v-418q0 -8 -6 -14t-14 -6h-85q-8 0 -14 6t-6 14v280l-187 -280q-12 -20 -41 -20h-35q-26 0 -44 18t-18 44zM119 727h82q14 0 34 -16l146 -145q13 -13 2 -16h-82
q-14 0 -34 16l-146 145q-14 11 -6 15q2 1 4 1z" />
    <glyph glyph-name="uni045E" unicode="&#x45e;" 
d="M175 480v-180h200v180q0 8 6 14t14 6h85q8 0 14 -6t6 -14v-418q0 -26 -18 -44t-44 -18h-326q-26 0 -44 18t-18 44v63h325v50h-263q-26 0 -44 18t-18 44v243q0 8 6 14t14 6h85q8 0 14 -6t6 -14zM458 597q-175 -93 -356 0q-16 8 -5 23l26 49q6 13 21 8q135 -69 272 0
q15 5 21 -8l26 -49q11 -15 -5 -23z" />
    <glyph glyph-name="uni045F" unicode="&#x45f;" 
d="M175 480v-355h200v355q0 8 6 14t14 6h85q8 0 14 -6t6 -14v-418q0 -26 -18 -44t-44 -18h-99v-105q0 -8 -6 -14t-14 -6h-85q-8 0 -14 6t-6 14v105h-102q-26 0 -44 18t-18 44v418q0 8 6 14t14 6h85q8 0 14 -6t6 -14z" />
    <glyph glyph-name="uni0462" unicode="&#x462;" horiz-adv-x="747" 
d="M322 580v-37h167q8 0 14 -6t6 -14v-85q0 -8 -6 -14t-14 -6h-167v-56h270q43 0 74 -30t31 -72v-158q0 -42 -31 -72t-74 -30h-381l-3 2h-1q-10 4 -10 16v400h-167q-8 0 -14 6t-6 14v85q0 8 6 14t14 6h167v37q0 8 6 14t14 6h85q8 0 14 -6t6 -14zM572 124v114h-250v-114h250z
" />
    <glyph glyph-name="uni0463" unicode="&#x463;" 
d="M375 124v64h-200v-64h200zM368 356h-193v-44h220q43 0 74 -30t31 -72v-108q0 -42 -31 -72t-74 -30h-325q-8 0 -14 6t-6 14v460q0 8 6 14t14 6h85q8 0 14 -6t6 -14h235q8 0 14 -6t6 -14v-42q0 -26 -18 -44t-44 -18z" />
    <glyph glyph-name="uni0472" unicode="&#x472;" horiz-adv-x="600" 
d="M550 538v-476q0 -26 -18 -44t-44 -18h-376q-26 0 -44 18t-18 44v476q0 26 18 44t44 18h376q26 0 44 -18t18 -44zM425 125v113h-250v-113h250zM175 475v-113h250v113h-250z" />
    <glyph glyph-name="uni0473" unicode="&#x473;" 
d="M500 438v-376q0 -26 -18 -44t-44 -18h-326q-26 0 -44 18t-18 44v376q0 26 18 44t44 18h326q26 0 44 -18t18 -44zM375 125v63h-200v-63h200zM175 375v-63h200v63h-200z" />
    <glyph glyph-name="uni0474" unicode="&#x474;" horiz-adv-x="588" 
d="M608 580v-75q0 -8 -6 -14t-14 -6h-57l-161 -465q-3 -8 -14.5 -14t-23.5 -6h-88q-12 0 -23.5 6t-14.5 14l-194 560q-4 7 1.5 13.5t19.5 6.5h83q35 0 40 -20l132 -441l132 441q5 20 40 20h128q8 0 14 -6t6 -14z" />
    <glyph glyph-name="uni0475" unicode="&#x475;" horiz-adv-x="487" 
d="M507 480v-75q0 -8 -6 -14t-14 -6h-57l-112 -365q-2 -8 -14 -14t-24 -6h-88q-12 0 -24 6t-14 14l-142 460q-4 7 1.5 13.5t19.5 6.5h83q36 0 40 -20l80 -341l80 341q4 20 40 20h131q8 0 14 -6t6 -14z" />
    <glyph glyph-name="uni0490" unicode="&#x490;" horiz-adv-x="600" 
d="M175 475v-455q0 -8 -6 -14t-14 -6h-85q-8 0 -14 6t-6 14v518q0 26 18 44t44 18h313v87q0 8 6 14t14 6h85q8 0 14 -6t6 -14v-192q0 -8 -6 -14t-14 -6h-355z" />
    <glyph glyph-name="uni0491" unicode="&#x491;" 
d="M112 500h263v80q0 8 6 14t14 6h85q8 0 14 -6t6 -14v-185q0 -8 -6 -14t-14 -6h-305v-355q0 -8 -6 -14t-14 -6h-85q-8 0 -14 6t-6 14v418q0 26 18 44t44 18z" />
    <glyph glyph-name="Wgrave" unicode="&#x1e80;" horiz-adv-x="709" 
d="M649 580v-518q0 -26 -18.5 -44t-44.5 -18h-171q-26 0 -44.5 18t-18.5 44h-4q0 -26 -18.5 -44t-44.5 -18h-172q-26 0 -44.5 18t-18.5 44v518q0 8 6 14t14 6h85q8 0 14 -6t6 -14v-456h112v456q0 8 6 14t14 6h85q8 0 14 -6t6 -14v-456h112v456q0 8 6 14t14 6h85q8 0 14 -6
t6 -14zM147 827h82q14 0 34 -16l146 -145q13 -13 2 -16h-82q-14 0 -34 16l-146 145q-14 11 -6 15q2 1 4 1z" />
    <glyph glyph-name="wgrave" unicode="&#x1e81;" horiz-adv-x="599" 
d="M549 480v-418q0 -26 -18.5 -44t-44.5 -18h-121q-26 0 -44.5 18t-18.5 44h-4q0 -26 -18.5 -44t-44.5 -18h-122q-26 0 -44.5 18t-18.5 44v418q0 8 6 14t14 6h85q8 0 14 -6t6 -14v-356h62v356q0 8 6 14t14 6h85q8 0 14 -6t6 -14v-356h62v356q0 8 6 14t14 6h85q8 0 14 -6
t6 -14zM85 727h82q14 0 34 -16l146 -145q13 -13 2 -16h-82q-14 0 -34 16l-146 145q-14 11 -6 15q2 1 4 1z" />
    <glyph glyph-name="Wacute" unicode="&#x1e82;" horiz-adv-x="709" 
d="M649 580v-518q0 -26 -18.5 -44t-44.5 -18h-171q-26 0 -44.5 18t-18.5 44h-4q0 -26 -18.5 -44t-44.5 -18h-172q-26 0 -44.5 18t-18.5 44v518q0 8 6 14t14 6h85q8 0 14 -6t6 -14v-456h112v456q0 8 6 14t14 6h85q8 0 14 -6t6 -14v-456h112v456q0 8 6 14t14 6h85q8 0 14 -6
t6 -14zM490 827h82q11 0 4 -10q-2 -3 -6 -6l-146 -145q-20 -16 -34 -16h-82q-13 0 -3 11q2 3 5 5l146 145q20 16 34 16z" />
    <glyph glyph-name="wacute" unicode="&#x1e83;" horiz-adv-x="599" 
d="M549 480v-418q0 -26 -18.5 -44t-44.5 -18h-121q-26 0 -44.5 18t-18.5 44h-4q0 -26 -18.5 -44t-44.5 -18h-122q-26 0 -44.5 18t-18.5 44v418q0 8 6 14t14 6h85q8 0 14 -6t6 -14v-356h62v356q0 8 6 14t14 6h85q8 0 14 -6t6 -14v-356h62v356q0 8 6 14t14 6h85q8 0 14 -6
t6 -14zM434 727h82q11 0 4 -10q-2 -3 -6 -6l-146 -145q-20 -16 -34 -16h-82q-13 0 -3 11q2 3 5 5l146 145q20 16 34 16z" />
    <glyph glyph-name="Wdieresis" unicode="&#x1e84;" horiz-adv-x="709" 
d="M649 580v-518q0 -26 -18.5 -44t-44.5 -18h-171q-26 0 -44.5 18t-18.5 44h-4q0 -26 -18.5 -44t-44.5 -18h-172q-26 0 -44.5 18t-18.5 44v518q0 8 6 14t14 6h85q8 0 14 -6t6 -14v-456h112v456q0 8 6 14t14 6h85q8 0 14 -6t6 -14v-456h112v456q0 8 6 14t14 6h85q8 0 14 -6
t6 -14zM319 734v-68q0 -6 -4.5 -11t-11.5 -5h-68q-7 0 -11.5 5t-4.5 11v68q0 16 16 16h68q16 0 16 -16zM490 734v-68q0 -6 -4.5 -11t-11.5 -5h-68q-7 0 -11.5 5t-4.5 11v68q0 16 16 16h68q16 0 16 -16z" />
    <glyph glyph-name="wdieresis" unicode="&#x1e85;" horiz-adv-x="599" 
d="M549 480v-418q0 -26 -18.5 -44t-44.5 -18h-121q-26 0 -44.5 18t-18.5 44h-4q0 -26 -18.5 -44t-44.5 -18h-122q-26 0 -44.5 18t-18.5 44v418q0 8 6 14t14 6h85q8 0 14 -6t6 -14v-356h62v356q0 8 6 14t14 6h85q8 0 14 -6t6 -14v-356h62v356q0 8 6 14t14 6h85q8 0 14 -6
t6 -14zM264 634v-68q0 -6 -4.5 -11t-11.5 -5h-68q-7 0 -11.5 5t-4.5 11v68q0 16 16 16h68q16 0 16 -16zM435 634v-68q0 -6 -4.5 -11t-11.5 -5h-68q-7 0 -11.5 5t-4.5 11v68q0 16 16 16h68q16 0 16 -16z" />
    <glyph glyph-name="Ygrave" unicode="&#x1ef2;" horiz-adv-x="600" 
d="M177 827h82q14 0 34 -16l146 -145q13 -13 2 -16h-82q-14 0 -34 16l-146 145q-14 11 -6 15q2 1 4 1zM175 580v-280h250v280q0 8 6 14t14 6h85q8 0 14 -6t6 -14v-518q0 -26 -18 -44t-44 -18h-376q-26 0 -44 18t-18 44v63h375v50h-313q-26 0 -44 18t-18 44v343q0 8 6 14
t14 6h85q8 0 14 -6t6 -14z" />
    <glyph glyph-name="ygrave" unicode="&#x1ef3;" horiz-adv-x="500" 
d="M450 480v-568q0 -26 -18 -44t-44 -18h-298q-8 0 -14 6t-6 14v85q0 8 6 14t14 6h235v50h-213q-26 0 -44 18t-18 44v393q0 8 6 14t14 6h85q8 0 14 -6t6 -14v-345h150v345q0 8 6 14t14 6h85q8 0 14 -6t6 -14zM117 727h82q14 0 34 -16l146 -145q13 -13 2 -16h-82
q-14 0 -34 16l-146 145q-14 11 -6 15q2 1 4 1z" />
    <glyph glyph-name="endash" unicode="&#x2013;" horiz-adv-x="570" 
d="M520 337v-75q0 -8 -6 -14t-14 -6h-430q-8 0 -14 6t-6 14v75q0 8 6 14t14 6h430q8 0 14 -6t6 -14z" />
    <glyph glyph-name="emdash" unicode="&#x2014;" horiz-adv-x="692" 
d="M642 337v-75q0 -8 -6 -14t-14 -6h-552q-8 0 -14 6t-6 14v75q0 8 6 14t14 6h552q8 0 14 -6t6 -14z" />
    <glyph glyph-name="quoteleft" unicode="&#x2018;" horiz-adv-x="251" 
d="M70 430v180q0 8 6 14t14 6h50q8 0 14 -6t6 -14v-75h21q8 0 14 -6t6 -14v-85q0 -8 -6 -14t-14 -6h-91q-8 0 -14 6t-6 14z" />
    <glyph glyph-name="quoteright" unicode="&#x2019;" horiz-adv-x="251" 
d="M201 610v-180q0 -8 -6 -14t-14 -6h-50q-8 0 -14 6t-6 14v75h-21q-8 0 -14 6t-6 14v85q0 8 6 14t14 6h91q8 0 14 -6t6 -14z" />
    <glyph glyph-name="quotesinglbase" unicode="&#x201a;" horiz-adv-x="251" 
d="M201 105v-180q0 -8 -6 -14t-14 -6h-50q-8 0 -14 6t-6 14v75h-21q-8 0 -14 6t-6 14v85q0 8 6 14t14 6h91q8 0 14 -6t6 -14z" />
    <glyph glyph-name="quotedblleft" unicode="&#x201c;" horiz-adv-x="433" 
d="M70 430v180q0 8 6 14t14 6h50q8 0 14 -6t6 -14v-75h21q8 0 14 -6t6 -14v-85q0 -8 -6 -14t-14 -6h-91q-8 0 -14 6t-6 14zM252 430v180q0 8 6 14t14 6h50q8 0 14 -6t6 -14v-75h21q8 0 14 -6t6 -14v-85q0 -8 -6 -14t-14 -6h-91q-8 0 -14 6t-6 14z" />
    <glyph glyph-name="quotedblright" unicode="&#x201d;" horiz-adv-x="433" 
d="M383 610v-180q0 -8 -6 -14t-14 -6h-50q-8 0 -14 6t-6 14v75h-21q-8 0 -14 6t-6 14v85q0 8 6 14t14 6h91q8 0 14 -6t6 -14zM201 610v-180q0 -8 -6 -14t-14 -6h-50q-8 0 -14 6t-6 14v75h-21q-8 0 -14 6t-6 14v85q0 8 6 14t14 6h91q8 0 14 -6t6 -14z" />
    <glyph glyph-name="quotedblbase" unicode="&#x201e;" horiz-adv-x="433" 
d="M383 105v-180q0 -8 -6 -14t-14 -6h-50q-8 0 -14 6t-6 14v75h-21q-8 0 -14 6t-6 14v85q0 8 6 14t14 6h91q8 0 14 -6t6 -14zM201 105v-180q0 -8 -6 -14t-14 -6h-50q-8 0 -14 6t-6 14v75h-21q-8 0 -14 6t-6 14v85q0 8 6 14t14 6h91q8 0 14 -6t6 -14z" />
    <glyph glyph-name="dagger" unicode="&#x2020;" horiz-adv-x="490" 
d="M217 610h75q8 0 14 -6t6 -14v-107h108q8 0 14 -6t6 -14v-75q0 -8 -6 -14t-14 -6h-108v-228q0 -8 -6 -14t-14 -6h-75q-8 0 -14 6t-6 14v228h-107q-8 0 -14 6t-6 14v75q0 8 6 14t14 6h107v107q0 8 6 14t14 6z" />
    <glyph glyph-name="daggerdbl" unicode="&#x2021;" horiz-adv-x="490" 
d="M292 0h-75q-8 0 -14 6t-6 14v107h-107q-8 0 -14 6t-6 14v75q0 8 6 14t14 6h107v126h-107q-8 0 -14 6t-6 14v75q0 8 6 14t14 6h107v107q0 8 6 14t14 6h75q8 0 14 -6t6 -14v-107h108q8 0 14 -6t6 -14v-75q0 -8 -6 -14t-14 -6h-108v-126h108q8 0 14 -6t6 -14v-75
q0 -8 -6 -14t-14 -6h-108v-107q0 -8 -6 -14t-14 -6z" />
    <glyph glyph-name="bullet" unicode="&#x2022;" horiz-adv-x="305" 
d="M255 354v-125q0 -8 -6 -14t-14 -6h-125q-8 0 -14 6t-6 14v125q0 8 6 14t14 6h125q8 0 14 -6t6 -14z" />
    <glyph glyph-name="ellipsis" unicode="&#x2026;" horiz-adv-x="835" 
d="M215 105v-85q0 -8 -6 -14t-14 -6h-85q-8 0 -14 6t-6 14v85q0 8 6 14t14 6h85q8 0 14 -6t6 -14zM500 105v-85q0 -8 -6 -14t-14 -6h-85q-8 0 -14 6t-6 14v85q0 8 6 14t14 6h85q8 0 14 -6t6 -14zM785 105v-85q0 -8 -6 -14t-14 -6h-85q-8 0 -14 6t-6 14v85q0 8 6 14t14 6h85
q8 0 14 -6t6 -14z" />
    <glyph glyph-name="perthousand" unicode="&#x2030;" horiz-adv-x="1257" 
d="M693 580l-323 -560q-13 -20 -31 -20h-90q-8 0 -10.5 6t2.5 14l322 560q13 20 32 20h90q8 0 10.5 -6t-2.5 -14zM887 350v-310q0 -17 -11.5 -28.5t-28.5 -11.5h-206q-17 0 -28.5 11.5t-11.5 28.5v310q0 17 11.5 28.5t28.5 11.5h206q17 0 28.5 -11.5t11.5 -28.5zM791 96v198
h-94v-198h94zM1207 350v-310q0 -17 -11.5 -28.5t-28.5 -11.5h-206q-17 0 -28.5 11.5t-11.5 28.5v310q0 17 11.5 28.5t28.5 11.5h206q17 0 28.5 -11.5t11.5 -28.5zM1111 96v198h-94v-198h94zM336 560v-310q0 -17 -11.5 -28.5t-28.5 -11.5h-206q-17 0 -28.5 11.5t-11.5 28.5
v310q0 17 11.5 28.5t28.5 11.5h206q17 0 28.5 -11.5t11.5 -28.5zM240 306v198h-94v-198h94z" />
    <glyph glyph-name="guilsinglleft" unicode="&#x2039;" horiz-adv-x="340" 
d="M50 239v24q0 18 20 38l200 196q6 6 13 2t7 -16v-99q0 -20 -20 -40l-90 -93l90 -94q20 -20 20 -40v-99q0 -12 -7 -16t-13 2l-200 197q-20 20 -20 38z" />
    <glyph glyph-name="guilsinglright" unicode="&#x203a;" horiz-adv-x="360" 
d="M310 263v-24q0 -18 -20 -38l-200 -197q-6 -6 -13 -2t-7 16v99q0 20 20 40l90 94l-90 93q-20 20 -20 40v99q0 12 7 16t13 -2l200 -196q20 -20 20 -38z" />
    <glyph glyph-name="fraction" unicode="&#x2044;" horiz-adv-x="520" 
d="M466 580l-323 -560q-13 -20 -31 -20h-90q-8 0 -10.5 6t2.5 14l322 560q13 20 32 20h90q8 0 10.5 -6t-2.5 -14z" />
    <glyph glyph-name="Euro" unicode="&#x20ac;" horiz-adv-x="530" 
d="M70 388h18v130q0 26 18 44t44 18h310q8 0 14 -6t6 -14v-85q0 -8 -6 -14t-14 -6h-247v-67h93q8 0 14 -6t6 -14v-33q0 -8 -6 -14t-14 -6h-93v-50h93q8 0 14 -6t6 -14v-33q0 -8 -6 -14t-14 -6h-93v-67h247q8 0 14 -6t6 -14v-85q0 -8 -6 -14t-14 -6h-310q-26 0 -44 18t-18 44
v130h-18q-8 0 -14 6t-6 14v33q0 8 6 14t14 6h18v50h-18q-8 0 -14 6t-6 14v33q0 8 6 14t14 6z" />
    <glyph glyph-name="trademark" unicode="&#x2122;" horiz-adv-x="741" 
d="M83 599h229q13 0 13 -13v-55q0 -13 -13 -13h-74v-296q0 -13 -13 -13h-55q-13 0 -13 13v296h-74q-13 0 -13 13v55q0 13 13 13zM511 417l71 169q5 13 25 13h24q17 0 28.5 -11.5t11.5 -28.5v-337q0 -13 -13 -13h-55q-13 0 -13 13v213l-41 -95q-4 -13 -25 -13h-25
q-21 0 -25 13l-41 95v-213q0 -13 -13 -13h-56q-13 0 -13 13v337q0 17 12 28.5t29 11.5h24q20 0 25 -13z" />
    <glyph glyph-name="Omega" unicode="&#x2126;" horiz-adv-x="612" 
d="M130 125h21v43h-39q-26 0 -44 18t-18 44v308q0 26 18 44t44 18h388q26 0 44 -18t18 -44v-308q0 -26 -18 -44t-44 -18h-39v-43h21q8 0 14 -6t6 -14v-85q0 -8 -6 -14t-14 -6h-84q-26 0 -44 18t-18 44v211q0 8 6 14t14 6h81v182h-262v-182h81q8 0 14 -6t6 -14v-211
q0 -26 -18 -44t-44 -18h-84q-8 0 -14 6t-6 14v85q0 8 6 14t14 6z" />
    <glyph glyph-name="partialdiff" unicode="&#x2202;" horiz-adv-x="640" 
d="M50 62v266q0 26 18 44t44 18h353v85h-255q-8 0 -14 6t-6 14v85q0 8 6 14t14 6h318q26 0 44 -18t18 -44v-476q0 -26 -18 -44t-44 -18h-416q-26 0 -44 18t-18 44zM175 265v-140h290v140h-290z" />
    <glyph glyph-name="increment" unicode="&#x2206;" horiz-adv-x="714" 
d="M664 111v-75q0 -8 -6 -14t-14 -6h-594q-8 0 -14 6t-6 14v75q0 5 3 11l247 440q9 20 38 20h58q29 0 38 -20l247 -440q3 -9 3 -11zM347 430l-166 -299h331z" />
    <glyph glyph-name="product" unicode="&#x220f;" horiz-adv-x="703" 
d="M70 600h563q8 0 14 -6t6 -14v-85q0 -8 -6 -14t-14 -6h-85v-455q0 -8 -6 -14t-14 -6h-85q-8 0 -14 6t-6 14v455h-143v-455q0 -8 -6 -14t-14 -6h-85q-8 0 -14 6t-6 14v455h-85q-8 0 -14 6t-6 14v85q0 8 6 14t14 6z" />
    <glyph glyph-name="summation" unicode="&#x2211;" horiz-adv-x="570" 
d="M520 667v-75q0 -8 -6 -14t-14 -6h-376l224 -222q20 -20 20 -38v-24q0 -18 -20 -38l-224 -222h376q8 0 14 -6t6 -14v-75q0 -8 -6 -14t-14 -6h-410q-8 0 -14 6t-6 14v174q0 20 20 40l148 153l-148 153q-20 20 -20 40v174q0 8 6 14t14 6h410q8 0 14 -6t6 -14z" />
    <glyph glyph-name="minus" unicode="&#x2212;" horiz-adv-x="570" 
d="M90 357h410q8 0 14 -6t6 -14v-75q0 -8 -6 -14t-14 -6h-410q-8 0 -14 6t-6 14v75q0 8 6 14t14 6z" />
    <glyph glyph-name="radical" unicode="&#x221a;" horiz-adv-x="755" 
d="M223 337l104 -198l232 441q11 20 40 20h83q14 0 19.5 -6.5t1.5 -13.5l-294 -560q-9 -20 -38 -20h-88q-29 0 -38 20l-117 222h-78q-8 0 -14 6t-6 14v75q0 8 6 14t14 6h147q17 0 26 -20z" />
    <glyph glyph-name="infinity" unicode="&#x221e;" horiz-adv-x="890" 
d="M641 519l184 -184q14 -14 14 -35t-14 -35l-184 -184q-14 -14 -35 -14t-35 14l-136 136l-136 -136q-14 -14 -35 -14t-35 14l-184 184q-14 14 -14 35t14 35l184 184q14 14 35 14t35 -14l136 -136l136 136q14 14 35 14t35 -14zM719 300l-113 113l-113 -113l113 -113z
M377 300l-113 113l-113 -113l113 -113z" />
    <glyph glyph-name="integral" unicode="&#x222b;" horiz-adv-x="404" 
d="M334 621h-60l1 -706q0 -26 -18 -44t-44 -18h-123q-8 0 -14 6t-6 14v85q0 8 6 14t14 6h60l-1 706q0 26 18 44t44 18h123q8 0 14 -6t6 -14v-85q0 -8 -6 -14t-14 -6z" />
    <glyph glyph-name="approxequal" unicode="&#x2248;" horiz-adv-x="610" 
d="M150 445q28 -25 62 -28t62 7t67.5 22.5t67.5 14.5q83 7 146 -63q10 -9 -3 -26l-49 -50q-11 -11 -30 3q-24 26 -56 29.5t-59.5 -7.5t-66 -24t-65.5 -15q-83 -6 -151 59q-12 9 3 26l42 53q4 6 13.5 5.5t16.5 -6.5zM150 258q28 -25 62 -28t62 7t67.5 22.5t67.5 14.5
q83 7 146 -63q10 -9 -3 -26l-49 -50q-11 -11 -30 3q-24 26 -56 29.5t-59.5 -7.5t-66 -24t-65.5 -15q-83 -6 -151 59q-12 9 3 26l42 53q4 6 13.5 5.5t16.5 -6.5z" />
    <glyph glyph-name="notequal" unicode="&#x2260;" horiz-adv-x="560" 
d="M503 560l-64 -110h51q8 0 14 -6t6 -14v-75q0 -8 -6 -14t-14 -6h-117l-40 -70h157q8 0 14 -6t6 -14v-75q0 -8 -6 -14t-14 -6h-224l-63 -110q-13 -20 -31 -20h-90q-8 0 -10.5 6t2.5 14l63 110h-47q-8 0 -14 6t-6 14v75q0 8 6 14t14 6h113l40 70h-153q-8 0 -14 6t-6 14v75
q0 8 6 14t14 6h219l64 110q13 20 32 20h90q8 0 10.5 -6t-2.5 -14z" />
    <glyph glyph-name="lessequal" unicode="&#x2264;" horiz-adv-x="340" 
d="M50 362v24q0 18 20 38l200 196q6 6 13 2t7 -16v-99q0 -20 -20 -40l-90 -93l90 -94q20 -20 20 -40v-99q0 -12 -7 -16t-13 2l-200 197q-20 20 -20 38zM290 85v-65q0 -8 -6 -14t-14 -6h-200q-8 0 -14 6t-6 14v65q0 8 6 14t14 6h200q8 0 14 -6t6 -14z" />
    <glyph glyph-name="greaterequal" unicode="&#x2265;" horiz-adv-x="360" 
d="M310 386v-24q0 -18 -20 -38l-200 -197q-6 -6 -13 -2t-7 16v99q0 20 20 40l90 94l-90 93q-20 20 -20 40v99q0 12 7 16t13 -2l200 -196q20 -20 20 -38zM70 20v65q0 8 6 14t14 6h200q8 0 14 -6t6 -14v-65q0 -8 -6 -14t-14 -6h-200q-8 0 -14 6t-6 14z" />
    <glyph glyph-name="lozenge" unicode="&#x25ca;" horiz-adv-x="654" 
d="M356 574l230 -230q18 -18 18 -44t-18 -44l-230 -230q-18 -18 -44 -18t-44 18l-230 230q-18 18 -18 44t18 44l230 230q18 18 44 18t44 -18zM453 300l-141 141l-141 -141l141 -141z" />
    <glyph glyph-name="commaaccent" unicode="&#xf6c3;" horiz-adv-x="280" 
d="M230 -45v-201q0 -8 -6 -14t-14 -6h-50q-8 0 -14 6t-6 14v96h-31q-8 0 -14 6t-6 14v85q0 8 6 14t14 6h101q8 0 14 -6t6 -14z" />
    <glyph glyph-name="apple" unicode="&#xf8ff;" horiz-adv-x="96" 
 />
    <glyph glyph-name="NULL" horiz-adv-x="0" 
 />
    <glyph glyph-name="CR" horiz-adv-x="300" 
 />
    <glyph glyph-name="A.small" 
d="M375 236v140h-200v-140h200zM375 20v119h-200v-119q0 -8 -6 -14t-14 -6h-85q-8 0 -14 6t-6 14v418q0 26 18 44t44 18h326q26 0 44 -18t18 -44v-418q0 -8 -6 -14t-14 -6h-85q-8 0 -14 6t-6 14z" />
    <glyph glyph-name="B.small" 
d="M375 306v70h-200v-70h200zM375 124v83h-200v-83h200zM395 0h-325q-8 0 -14 6t-6 14v460q0 8 6 14t14 6h325q43 0 74 -30t31 -72v-37q0 -42 -31 -72t-74 -30v-4q43 0 74 -30t31 -72v-51q0 -42 -31 -72t-74 -30z" />
    <glyph glyph-name="C.small" 
d="M480 0h-368q-26 0 -44 18t-18 44v376q0 26 18 44t44 18h368q8 0 14 -6t6 -14v-85q0 -8 -6 -14t-14 -6h-305v-250h305q8 0 14 -6t6 -14v-85q0 -8 -6 -14t-14 -6z" />
    <glyph glyph-name="D.small" 
d="M375 124v252h-200v-252h200zM395 0h-325q-8 0 -14 6t-6 14v460q0 8 6 14t14 6h325q43 0 74 -30t31 -72v-296q0 -42 -31 -72t-74 -30z" />
    <glyph glyph-name="E.small" 
d="M480 0h-368q-26 0 -44 18t-18 44v376q0 26 18 44t44 18h368q8 0 14 -6t6 -14v-85q0 -8 -6 -14t-14 -6h-305v-63h285q8 0 14 -6t6 -14v-84q0 -8 -6 -14t-14 -6h-285v-63h305q8 0 14 -6t6 -14v-85q0 -8 -6 -14t-14 -6z" />
    <glyph glyph-name="F.small" 
d="M175 188v-168q0 -8 -6 -14t-14 -6h-85q-8 0 -14 6t-6 14v418q0 26 18 44t44 18h368q8 0 14 -6t6 -14v-85q0 -8 -6 -14t-14 -6h-305v-63h265q8 0 14 -6t6 -14v-84q0 -8 -6 -14t-14 -6h-265z" />
    <glyph glyph-name="G.small" 
d="M320 285h160q8 0 14 -6t6 -14v-203q0 -26 -18 -44t-44 -18h-326q-26 0 -44 18t-18 44v376q0 26 18 44t44 18h368q8 0 14 -6t6 -14v-85q0 -8 -6 -14t-14 -6h-305v-250h200v63h-55q-8 0 -14 6t-6 14v57q0 8 6 14t14 6z" />
    <glyph glyph-name="H.small" 
d="M500 480v-460q0 -8 -6 -14t-14 -6h-85q-8 0 -14 6t-6 14v168h-200v-168q0 -8 -6 -14t-14 -6h-85q-8 0 -14 6t-6 14v460q0 8 6 14t14 6h85q8 0 14 -6t6 -14v-168h200v168q0 8 6 14t14 6h85q8 0 14 -6t6 -14z" />
    <glyph glyph-name="I.small" horiz-adv-x="225" 
d="M50 20v460q0 8 6 14t14 6h85q8 0 14 -6t6 -14v-460q0 -8 -6 -14t-14 -6h-85q-8 0 -14 6t-6 14z" />
    <glyph glyph-name="J.small" 
d="M175 178v-54h200v356q0 8 6 14t14 6h85q8 0 14 -6t6 -14v-418q0 -26 -18 -44t-44 -18h-326q-26 0 -44 18t-18 44v116q0 8 6 14t14 6h85q8 0 14 -6t6 -14z" />
    <glyph glyph-name="K.small" horiz-adv-x="511" 
d="M214 306l127 174q14 20 40 20h82q14 0 20.5 -6.5t0.5 -13.5l-162 -223l176 -237q3 -4 2.5 -8.5t-7 -8t-16.5 -3.5h-82q-25 0 -40 20l-140 187h-40v-187q0 -8 -6 -14t-14 -6h-85q-8 0 -14 6t-6 14v460q0 8 6 14t14 6h85q8 0 14 -6t6 -14v-174h39z" />
    <glyph glyph-name="L.small" 
d="M175 480v-355h305q8 0 14 -6t6 -14v-85q0 -8 -6 -14t-14 -6h-368q-26 0 -44 18t-18 44v418q0 8 6 14t14 6h85q8 0 14 -6t6 -14z" />
    <glyph glyph-name="M.small" horiz-adv-x="650" 
d="M325 220l138 260q11 20 38 20h36q26 0 44.5 -18t18.5 -44v-418q0 -8 -6 -14t-14 -6h-85q-8 0 -14 6t-6 14v262l-93 -174q-11 -20 -38 -20h-38q-27 0 -38 20l-93 174v-262q0 -8 -6 -14t-14 -6h-85q-8 0 -14 6t-6 14v418q0 26 18.5 44t44.5 18h36q27 0 38 -20z" />
    <glyph glyph-name="N.small" 
d="M500 480v-418q0 -26 -18 -44t-44 -18h-35q-29 0 -41 20l-187 280v-280q0 -8 -6 -14t-14 -6h-85q-8 0 -14 6t-6 14v418q0 26 18 44t44 18h34q26 0 41 -20l188 -277v277q0 8 6 14t14 6h85q8 0 14 -6t6 -14z" />
    <glyph glyph-name="O.small" 
d="M500 438v-376q0 -26 -18 -44t-44 -18h-326q-26 0 -44 18t-18 44v376q0 26 18 44t44 18h326q26 0 44 -18t18 -44zM375 125v250h-200v-250h200z" />
    <glyph glyph-name="P.small" 
d="M175 126v-106q0 -8 -6 -14t-14 -6h-85q-8 0 -14 6t-6 14v460q0 8 6 14t14 6h325q43 0 74 -30t31 -72v-170q0 -42 -31 -72t-74 -30h-220zM375 250v126h-200v-126h200z" />
    <glyph glyph-name="Q.small" 
d="M500 438v-376q0 -26 -18 -44t-44 -18h-102v-95q0 -8 -6 -14t-14 -6h-85q-8 0 -14 6t-6 14v95h-99q-26 0 -44 18t-18 44v376q0 26 18 44t44 18h326q26 0 44 -18t18 -44zM336 220v-95h39v250h-200v-250h36v95q0 8 6 14t14 6h85q8 0 14 -6t6 -14z" />
    <glyph glyph-name="R.small" 
d="M330 20l-133 149h-22v-149q0 -8 -6 -14t-14 -6h-85q-8 0 -14 6t-6 14v460q0 8 6 14t14 6h325q43 0 74 -30t31 -72v-127q0 -42 -31 -72t-74 -30h-42l140 -149q3 -4 2.5 -8.5t-7 -8t-16.5 -3.5h-102q-20 0 -40 20zM375 268v108h-200v-108h200z" />
    <glyph glyph-name="S.small" 
d="M175 375v-62h263q26 0 44 -18t18 -44v-189q0 -26 -18 -44t-44 -18h-368q-8 0 -14 6t-6 14v85q0 8 6 14t14 6h305v63h-263q-26 0 -44 18t-18 44v188q0 26 18 44t44 18h368q8 0 14 -6t6 -14v-85q0 -8 -6 -14t-14 -6h-305z" />
    <glyph glyph-name="T.small" horiz-adv-x="469" 
d="M30 500h409q8 0 14 -6t6 -14v-85q0 -8 -6 -14t-14 -6h-142v-355q0 -8 -6 -14t-14 -6h-85q-8 0 -14 6t-6 14v355h-142q-8 0 -14 6t-6 14v85q0 8 6 14t14 6z" />
    <glyph glyph-name="U.small" 
d="M175 480v-355h200v355q0 8 6 14t14 6h85q8 0 14 -6t6 -14v-418q0 -26 -18 -44t-44 -18h-326q-26 0 -44 18t-18 44v418q0 8 6 14t14 6h85q8 0 14 -6t6 -14z" />
    <glyph glyph-name="V.small" horiz-adv-x="472" 
d="M280 0h-88q-12 0 -24 6t-14 14l-142 460q-4 7 1.5 13.5t19.5 6.5h83q36 0 40 -20l80 -341l80 341q4 20 40 20h83q14 0 19.5 -6.5t1.5 -13.5l-142 -460q-2 -8 -14 -14t-24 -6z" />
    <glyph glyph-name="W.small" horiz-adv-x="649" 
d="M599 480v-418q0 -26 -18.5 -44t-44.5 -18h-146q-26 0 -44.5 18t-18.5 44h-4q0 -26 -18.5 -44t-44.5 -18h-147q-26 0 -44.5 18t-18.5 44v418q0 8 6 14t14 6h85q8 0 14 -6t6 -14v-356h87v356q0 8 6 14t14 6h85q8 0 14 -6t6 -14v-356h87v356q0 8 6 14t14 6h85q8 0 14 -6
t6 -14z" />
    <glyph glyph-name="X.small" horiz-adv-x="462" 
d="M309 20l-78 120l-77 -120q-12 -20 -40 -20h-79q-10 0 -16.5 3.5t-7 8t2.5 8.5l147 229l-148 231q-3 4 -2 8.5t7.5 8t15.5 3.5h79q28 0 40 -20l78 -122l78 122q12 20 40 20h79q9 0 15.5 -3.5t7.5 -8t-2 -8.5l-148 -231l148 -229q3 -4 2.5 -8.5t-7 -8t-16.5 -3.5h-79
q-28 0 -40 20z" />
    <glyph glyph-name="Y.small" 
d="M175 480v-180h200v180q0 8 6 14t14 6h85q8 0 14 -6t6 -14v-418q0 -26 -18 -44t-44 -18h-326q-26 0 -44 18t-18 44v63h325v50h-263q-26 0 -44 18t-18 44v243q0 8 6 14t14 6h85q8 0 14 -6t6 -14z" />
    <glyph glyph-name="Z.small" 
d="M233 125h247q8 0 14 -6t6 -14v-85q0 -8 -6 -14t-14 -6h-368q-26 0 -44 18t-18 44v55l271 258h-251q-8 0 -14 6t-6 14v85q0 8 6 14t14 6h368q26 0 44 -18t18 -44v-55z" />
    <glyph glyph-name="zero.small" horiz-adv-x="490" 
d="M440 438v-376q0 -26 -18 -44t-44 -18h-266q-26 0 -44 18t-18 44v376q0 26 18 44t44 18h266q26 0 44 -18t18 -44zM315 125v250h-140v-250h140z" />
    <glyph glyph-name="one.small" horiz-adv-x="410" 
d="M142 125v241l-72 -35q-8 -5 -14 0.5t-6 14.5v82q0 22 16 31l83 36q8 5 18 5h80q8 0 14 -6t6 -14v-355h73q8 0 14 -6t6 -14v-85q0 -8 -6 -14t-14 -6h-270q-8 0 -14 6t-6 14v85q0 8 6 14t14 6h72z" />
    <glyph glyph-name="two.small" horiz-adv-x="470" 
d="M295 313v62h-205q-8 0 -14 6t-6 14v85q0 8 6 14t14 6h268q26 0 44 -18t18 -44v-168q0 -25 -17.5 -40.5t-44.5 -21.5l-183 -40v-43h225q8 0 14 -6t6 -14v-85q0 -8 -6 -14t-14 -6h-288q-26 0 -44 18t-18 44v149q0 25 17.5 40.5t44.5 21.5z" />
    <glyph glyph-name="three.small" horiz-adv-x="450" 
d="M70 500h268q26 0 44 -18.5t18 -44.5v-120q0 -26 -18 -44.5t-44 -18.5v-4q26 0 44 -18.5t18 -44.5v-124q0 -26 -18 -44.5t-44 -18.5h-268q-8 0 -14 6t-6 14v85q0 8 6 14t14 6h206v64h-166q-8 0 -14 6t-6 14v85q0 8 6 14t14 6h166v61h-206q-8 0 -14 6t-6 14v85q0 8 6 14
t14 6z" />
    <glyph glyph-name="four.small" horiz-adv-x="450" 
d="M275 20v80h-163q-26 0 -44 18t-18 44v318q0 8 6 14t14 6h85q8 0 14 -6t6 -14v-270h100v270q0 8 6 14t14 6h85q8 0 14 -6t6 -14v-460q0 -8 -6 -14t-14 -6h-85q-8 0 -14 6t-6 14z" />
    <glyph glyph-name="five.small" horiz-adv-x="470" 
d="M50 219v219q0 26 18 44t44 18h268q8 0 14 -6t6 -14v-85q0 -8 -6 -14t-14 -6h-205v-51h183q26 0 44 -18t18 -44v-200q0 -26 -18 -44t-44 -18h-288q-8 0 -14 6t-6 14v85q0 8 6 14t14 6h225v74h-225q-8 0 -14 6t-6 14z" />
    <glyph glyph-name="six.small" horiz-adv-x="470" 
d="M420 274v-212q0 -26 -18 -44t-44 -18h-246q-26 0 -44 18t-18 44v376q0 26 18 44t44 18h268q8 0 14 -6t6 -14v-85q0 -8 -6 -14t-14 -6h-205v-39h183q26 0 44 -18t18 -44zM295 125v86h-120v-86h120z" />
    <glyph glyph-name="seven.small" horiz-adv-x="370" 
d="M199 375h-169q-8 0 -14 6t-6 14v85q0 8 6 14t14 6h268q26 0 44 -18t18 -44l-160 -418q-6 -20 -23 -20h-101q-18 0 -13 20z" />
    <glyph glyph-name="eight.small" horiz-adv-x="470" 
d="M175 306h120v70h-120v-70zM175 124h120v83h-120v-83zM315 0h-160q-44 0 -74.5 30t-30.5 72v51q0 42 30.5 72t74.5 30v4q-44 0 -74.5 30t-30.5 72v37q0 42 30.5 72t74.5 30h160q43 0 74 -30t31 -72v-37q0 -42 -31 -72t-74 -30v-4q43 0 74 -30t31 -72v-51q0 -42 -31 -72
t-74 -30z" />
    <glyph glyph-name="nine.small" horiz-adv-x="470" 
d="M50 225v213q0 26 18 44t44 18h246q26 0 44 -18t18 -44v-376q0 -26 -18 -44t-44 -18h-268q-8 0 -14 6t-6 14v85q0 8 6 14t14 6h205v38h-183q-26 0 -44 18t-18 44zM175 375v-87h120v87h-120z" />
    <glyph glyph-name="ringacute" horiz-adv-x="308" 
d="M227 813v-130q0 -14 -9.5 -23.5t-23.5 -9.5h-130q-14 0 -23 9.5t-9 23.5v130q0 16 13 26l114 114q15 13 28 13h65q10 0 2 -10l-3 -3l-109 -108h52q14 0 23.5 -9t9.5 -23zM162 715v65h-65v-65h65z" />
    <glyph glyph-name="grave.lc" horiz-adv-x="440" 
d="M119 727h82q14 0 34 -16l146 -145q13 -13 2 -16h-82q-14 0 -34 16l-146 145q-14 11 -6 15q2 1 4 1z" />
    <glyph glyph-name="acute.lc" horiz-adv-x="440" 
d="M302 727h82q11 0 4 -10q-2 -3 -6 -6l-146 -145q-20 -16 -34 -16h-82q-13 0 -3 11q2 3 5 5l146 145q20 16 34 16z" />
    <glyph glyph-name="circumflex.lc" horiz-adv-x="574" 
d="M322 734h19q15 0 31 -16l149 -152q5 -5 1.5 -10.5t-13.5 -5.5h-79q-14 0 -32 16l-66 64l-67 -64q-18 -16 -32 -16h-80q-9 0 -12.5 5.5t1.5 10.5l150 152q16 16 30 16z" />
    <glyph glyph-name="caron.lc" horiz-adv-x="574" 
d="M341 550h-19q-14 0 -30 16l-150 152q-5 5 -1.5 10.5t12.5 5.5h80q14 0 32 -16l67 -64l66 64q18 16 32 16h79q10 0 13.5 -5.5t-1.5 -10.5l-149 -152q-16 -16 -31 -16z" />
    <glyph glyph-name="tilde.lc" horiz-adv-x="532" 
d="M154 660q22 -20 49.5 -23t49.5 5t54 18.5t54 12.5q66 5 117 -51q8 -8 -3 -21l-39 -40q-4 -4 -11.5 -3t-12.5 6q-19 20 -45 23t-48 -5.5t-52.5 -19t-51.5 -12.5q-66 -5 -121 47q-8 8 2 21l34 43q3 5 11 4.5t13 -5.5z" />
    <glyph glyph-name="dieresis.lc" horiz-adv-x="411" 
d="M190 634v-68q0 -6 -4.5 -11t-11.5 -5h-68q-7 0 -11.5 5t-4.5 11v68q0 16 16 16h68q16 0 16 -16zM361 634v-68q0 -6 -4.5 -11t-11.5 -5h-68q-7 0 -11.5 5t-4.5 11v68q0 16 16 16h68q16 0 16 -16z" />
    <glyph glyph-name="macron.lc" horiz-adv-x="494" 
d="M444 626v-60q0 -6 -4.5 -11t-11.5 -5h-302q-7 0 -11.5 5t-4.5 11v60q0 16 16 16h302q16 0 16 -16z" />
    <glyph glyph-name="breve.lc" horiz-adv-x="454" 
d="M395 597q-175 -93 -356 0q-16 8 -5 23l26 49q6 13 21 8q135 -69 272 0q15 5 21 -8l26 -49q11 -15 -5 -23z" />
    <glyph glyph-name="ring.lc" horiz-adv-x="440" 
d="M390 800v-200q0 -21 -14.5 -35.5t-35.5 -14.5h-200q-21 0 -35.5 14.5t-14.5 35.5v200q0 21 14.5 35.5t35.5 14.5h200q21 0 35.5 -14.5t14.5 -35.5zM290 650v100h-100v-100h100z" />
    <glyph glyph-name="hungarumlaut.lc" horiz-adv-x="607" 
d="M286 727h82q6 0 6.5 -4.5t-5.5 -11.5l-121 -145q-14 -16 -31 -16h-82q-15 0 -1 16l121 145q14 16 31 16zM468 727h82q6 0 6.5 -4.5t-5.5 -11.5l-121 -145q-14 -16 -31 -16h-82q-15 0 -1 16l121 145q14 16 31 16z" />
    <glyph glyph-name="dotaccent.lc" horiz-adv-x="240" 
d="M190 634v-68q0 -6 -4.5 -11t-11.5 -5h-68q-7 0 -11.5 5t-4.5 11v68q0 16 16 16h68q16 0 16 -16z" />
    <glyph glyph-name="ringacute.lc" horiz-adv-x="308" 
d="M227 713v-130q0 -14 -9.5 -23.5t-23.5 -9.5h-130q-14 0 -23 9.5t-9 23.5v130q0 16 13 26l114 114q15 13 28 13h65q10 0 2 -10l-3 -3l-109 -108h52q14 0 23.5 -9t9.5 -23zM162 615v65h-65v-65h65z" />
    <glyph glyph-name="Agrave.small" 
d="M375 236v140h-200v-140h200zM375 20v119h-200v-119q0 -8 -6 -14t-14 -6h-85q-8 0 -14 6t-6 14v418q0 26 18 44t44 18h326q26 0 44 -18t18 -44v-418q0 -8 -6 -14t-14 -6h-85q-8 0 -14 6t-6 14zM142 727h82q14 0 34 -16l146 -145q13 -13 2 -16h-82q-14 0 -34 16l-146 145
q-14 11 -6 15q2 1 4 1z" />
    <glyph glyph-name="Aacute.small" 
d="M375 236v140h-200v-140h200zM375 20v119h-200v-119q0 -8 -6 -14t-14 -6h-85q-8 0 -14 6t-6 14v418q0 26 18 44t44 18h326q26 0 44 -18t18 -44v-418q0 -8 -6 -14t-14 -6h-85q-8 0 -14 6t-6 14zM325 727h82q11 0 4 -10q-2 -3 -6 -6l-146 -145q-20 -16 -34 -16h-82
q-13 0 -3 11q2 3 5 5l146 145q20 16 34 16z" />
    <glyph glyph-name="Acircumflex.small" 
d="M375 236v140h-200v-140h200zM375 20v119h-200v-119q0 -8 -6 -14t-14 -6h-85q-8 0 -14 6t-6 14v418q0 26 18 44t44 18h326q26 0 44 -18t18 -44v-418q0 -8 -6 -14t-14 -6h-85q-8 0 -14 6t-6 14zM265 734h19q15 0 31 -16l149 -152q5 -5 1.5 -10.5t-13.5 -5.5h-79
q-14 0 -32 16l-66 64l-67 -64q-18 -16 -32 -16h-80q-9 0 -12.5 5.5t1.5 10.5l150 152q16 16 30 16z" />
    <glyph glyph-name="Atilde.small" 
d="M375 236v140h-200v-140h200zM375 20v119h-200v-119q0 -8 -6 -14t-14 -6h-85q-8 0 -14 6t-6 14v418q0 26 18 44t44 18h326q26 0 44 -18t18 -44v-418q0 -8 -6 -14t-14 -6h-85q-8 0 -14 6t-6 14zM143 660q22 -20 49.5 -23t49.5 5t54 18.5t54 12.5q66 5 117 -51q7 -8 -3 -21
l-39 -40q-4 -4 -11.5 -3t-12.5 6q-19 20 -45 23t-48 -5.5t-52.5 -19t-51.5 -12.5q-66 -5 -121 47q-8 8 2 21l34 43q3 5 11 4.5t13 -5.5z" />
    <glyph glyph-name="Adieresis.small" 
d="M375 236v140h-200v-140h200zM375 20v119h-200v-119q0 -8 -6 -14t-14 -6h-85q-8 0 -14 6t-6 14v418q0 26 18 44t44 18h326q26 0 44 -18t18 -44v-418q0 -8 -6 -14t-14 -6h-85q-8 0 -14 6t-6 14zM239 634v-68q0 -6 -4.5 -11t-11.5 -5h-68q-7 0 -11.5 5t-4.5 11v68
q0 16 16 16h68q16 0 16 -16zM410 634v-68q0 -6 -4.5 -11t-11.5 -5h-68q-7 0 -11.5 5t-4.5 11v68q0 16 16 16h68q16 0 16 -16z" />
    <glyph glyph-name="Amacron.small" 
d="M375 236v140h-200v-140h200zM375 20v119h-200v-119q0 -8 -6 -14t-14 -6h-85q-8 0 -14 6t-6 14v418q0 26 18 44t44 18h326q26 0 44 -18t18 -44v-418q0 -8 -6 -14t-14 -6h-85q-8 0 -14 6t-6 14zM442 626v-60q0 -6 -4.5 -11t-11.5 -5h-302q-7 0 -11.5 5t-4.5 11v60
q0 16 16 16h302q16 0 16 -16z" />
    <glyph glyph-name="Abreve.small" 
d="M375 236v140h-200v-140h200zM375 20v119h-200v-119q0 -8 -6 -14t-14 -6h-85q-8 0 -14 6t-6 14v418q0 26 18 44t44 18h326q26 0 44 -18t18 -44v-418q0 -8 -6 -14t-14 -6h-85q-8 0 -14 6t-6 14zM453 597q-175 -93 -356 0q-16 8 -5 23l26 49q6 13 21 8q135 -69 272 0
q15 5 21 -8l26 -49q11 -15 -5 -23z" />
    <glyph glyph-name="Aring.small" 
d="M375 236v140h-200v-140h200zM375 20v119h-200v-119q0 -8 -6 -14t-14 -6h-85q-8 0 -14 6t-6 14v418q0 26 18 44t44 18h326q26 0 44 -18t18 -44v-418q0 -8 -6 -14t-14 -6h-85q-8 0 -14 6t-6 14zM425 800v-200q0 -21 -14.5 -35.5t-35.5 -14.5h-200q-21 0 -35.5 14.5
t-14.5 35.5v200q0 21 14.5 35.5t35.5 14.5h200q21 0 35.5 -14.5t14.5 -35.5zM325 650v100h-100v-100h100z" />
    <glyph glyph-name="Aringacute.small" 
d="M375 236v140h-200v-140h200zM375 20v119h-200v-119q0 -8 -6 -14t-14 -6h-85q-8 0 -14 6t-6 14v418q0 26 18 44t44 18h326q26 0 44 -18t18 -44v-418q0 -8 -6 -14t-14 -6h-85q-8 0 -14 6t-6 14zM356 713v-130q0 -14 -9.5 -23.5t-23.5 -9.5h-130q-14 0 -23 9.5t-9 23.5v130
q0 16 13 26l114 114q15 13 28 13h65q10 0 2 -10l-3 -3l-109 -108h52q14 0 23.5 -9t9.5 -23zM291 615v65h-65v-65h65z" />
    <glyph glyph-name="Aogonek.small" 
d="M375 20v119h-200v-119q0 -8 -6 -14t-14 -6h-85q-8 0 -14 6t-6 14v418q0 26 18 44t44 18h326q26 0 44 -18t18 -44v-418q0 -10 -9 -17l116 -136q13 -16 -4 -16h-78q-15 0 -29 16l-110 135q-11 5 -11 18zM375 236v140h-200v-140h200z" />
    <glyph glyph-name="AE.small" horiz-adv-x="875" 
d="M805 0h-410q-8 0 -14 6t-6 14v119h-200v-119q0 -8 -6 -14t-14 -6h-85q-8 0 -14 6t-6 14v418q0 26 18 44t44 18h693q8 0 14 -6t6 -14v-85q0 -8 -6 -14t-14 -6h-305v-63h285q8 0 14 -6t6 -14v-84q0 -8 -6 -14t-14 -6h-285v-63h305q8 0 14 -6t6 -14v-85q0 -8 -6 -14t-14 -6z
M375 236v140h-200v-140h200z" />
    <glyph glyph-name="AEacute.small" horiz-adv-x="875" 
d="M805 0h-410q-8 0 -14 6t-6 14v119h-200v-119q0 -8 -6 -14t-14 -6h-85q-8 0 -14 6t-6 14v418q0 26 18 44t44 18h693q8 0 14 -6t6 -14v-85q0 -8 -6 -14t-14 -6h-305v-63h285q8 0 14 -6t6 -14v-84q0 -8 -6 -14t-14 -6h-285v-63h305q8 0 14 -6t6 -14v-85q0 -8 -6 -14t-14 -6z
M375 236v140h-200v-140h200zM638 727h82q11 0 4 -10q-2 -3 -6 -6l-146 -145q-20 -16 -34 -16h-82q-13 0 -3 11q2 3 5 5l146 145q20 16 34 16z" />
    <glyph glyph-name="Cacute.small" 
d="M480 0h-368q-26 0 -44 18t-18 44v376q0 26 18 44t44 18h368q8 0 14 -6t6 -14v-85q0 -8 -6 -14t-14 -6h-305v-250h305q8 0 14 -6t6 -14v-85q0 -8 -6 -14t-14 -6zM325 727h82q11 0 4 -10q-2 -3 -6 -6l-146 -145q-20 -16 -34 -16h-82q-13 0 -3 11q2 3 5 5l146 145
q20 16 34 16z" />
    <glyph glyph-name="Ccircumflex.small" 
d="M480 0h-368q-26 0 -44 18t-18 44v376q0 26 18 44t44 18h368q8 0 14 -6t6 -14v-85q0 -8 -6 -14t-14 -6h-305v-250h305q8 0 14 -6t6 -14v-85q0 -8 -6 -14t-14 -6zM265 734h19q15 0 31 -16l149 -152q5 -5 1.5 -10.5t-13.5 -5.5h-79q-14 0 -32 16l-66 64l-67 -64
q-18 -16 -32 -16h-80q-9 0 -12.5 5.5t1.5 10.5l150 152q16 16 30 16z" />
    <glyph glyph-name="Ccaron.small" 
d="M480 0h-368q-26 0 -44 18t-18 44v376q0 26 18 44t44 18h368q8 0 14 -6t6 -14v-85q0 -8 -6 -14t-14 -6h-305v-250h305q8 0 14 -6t6 -14v-85q0 -8 -6 -14t-14 -6zM284 550h-19q-14 0 -30 16l-150 152q-5 5 -1.5 10.5t12.5 5.5h80q14 0 32 -16l67 -64l66 64q18 16 32 16h79
q10 0 13.5 -5.5t-1.5 -10.5l-149 -152q-16 -16 -31 -16z" />
    <glyph glyph-name="Cdotaccent.small" 
d="M480 0h-368q-26 0 -44 18t-18 44v376q0 26 18 44t44 18h368q8 0 14 -6t6 -14v-85q0 -8 -6 -14t-14 -6h-305v-250h305q8 0 14 -6t6 -14v-85q0 -8 -6 -14t-14 -6zM325 634v-68q0 -6 -4.5 -11t-11.5 -5h-68q-7 0 -11.5 5t-4.5 11v68q0 16 16 16h68q16 0 16 -16z" />
    <glyph glyph-name="Ccedilla.small" 
d="M480 0h-368q-26 0 -44 18t-18 44v376q0 26 18 44t44 18h368q8 0 14 -6t6 -14v-85q0 -8 -6 -14t-14 -6h-305v-250h305q8 0 14 -6t6 -14v-85q0 -8 -6 -14t-14 -6zM217 -82h48v82h100v-132q0 -21 -14.5 -35.5t-34.5 -14.5h-99q-6 0 -11 4.5t-5 11.5v68q0 7 5 11.5t11 4.5z
" />
    <glyph glyph-name="Dcaron.small" 
d="M375 124v252h-200v-252h200zM395 0h-325q-8 0 -14 6t-6 14v460q0 8 6 14t14 6h325q43 0 74 -30t31 -72v-296q0 -42 -31 -72t-74 -30zM284 550h-19q-14 0 -30 16l-150 152q-5 5 -1.5 10.5t12.5 5.5h80q14 0 32 -16l67 -64l66 64q18 16 32 16h79q10 0 13.5 -5.5t-1.5 -10.5
l-149 -152q-16 -16 -31 -16z" />
    <glyph glyph-name="Dcroat.small" 
d="M395 0h-325q-8 0 -14 6t-6 14v183h-64q-7 0 -11.5 5t-4.5 11v60q0 16 16 16h64v185q0 8 6 14t14 6h325q43 0 74 -30t31 -72v-296q0 -42 -31 -72t-74 -30zM230 279v-60q0 -6 -4.5 -11t-11.5 -5h-39v-79h200v252h-200v-81h39q16 0 16 -16z" />
    <glyph glyph-name="Egrave.small" 
d="M480 0h-368q-26 0 -44 18t-18 44v376q0 26 18 44t44 18h368q8 0 14 -6t6 -14v-85q0 -8 -6 -14t-14 -6h-305v-63h285q8 0 14 -6t6 -14v-84q0 -8 -6 -14t-14 -6h-285v-63h305q8 0 14 -6t6 -14v-85q0 -8 -6 -14t-14 -6zM142 727h82q14 0 34 -16l146 -145q13 -13 2 -16h-82
q-14 0 -34 16l-146 145q-14 11 -6 15q2 1 4 1z" />
    <glyph glyph-name="Eacute.small" 
d="M480 0h-368q-26 0 -44 18t-18 44v376q0 26 18 44t44 18h368q8 0 14 -6t6 -14v-85q0 -8 -6 -14t-14 -6h-305v-63h285q8 0 14 -6t6 -14v-84q0 -8 -6 -14t-14 -6h-285v-63h305q8 0 14 -6t6 -14v-85q0 -8 -6 -14t-14 -6zM325 727h82q11 0 4 -10q-2 -3 -6 -6l-146 -145
q-20 -16 -34 -16h-82q-13 0 -3 11q2 3 5 5l146 145q20 16 34 16z" />
    <glyph glyph-name="Ecircumflex.small" 
d="M480 0h-368q-26 0 -44 18t-18 44v376q0 26 18 44t44 18h368q8 0 14 -6t6 -14v-85q0 -8 -6 -14t-14 -6h-305v-63h285q8 0 14 -6t6 -14v-84q0 -8 -6 -14t-14 -6h-285v-63h305q8 0 14 -6t6 -14v-85q0 -8 -6 -14t-14 -6zM265 734h19q15 0 31 -16l149 -152q5 -5 1.5 -10.5
t-13.5 -5.5h-79q-14 0 -32 16l-66 64l-67 -64q-18 -16 -32 -16h-80q-9 0 -12.5 5.5t1.5 10.5l150 152q16 16 30 16z" />
    <glyph glyph-name="Ecaron.small" 
d="M480 0h-368q-26 0 -44 18t-18 44v376q0 26 18 44t44 18h368q8 0 14 -6t6 -14v-85q0 -8 -6 -14t-14 -6h-305v-63h285q8 0 14 -6t6 -14v-84q0 -8 -6 -14t-14 -6h-285v-63h305q8 0 14 -6t6 -14v-85q0 -8 -6 -14t-14 -6zM284 550h-19q-14 0 -30 16l-150 152q-5 5 -1.5 10.5
t12.5 5.5h80q14 0 32 -16l67 -64l66 64q18 16 32 16h79q10 0 13.5 -5.5t-1.5 -10.5l-149 -152q-16 -16 -31 -16z" />
    <glyph glyph-name="Edieresis.small" 
d="M480 0h-368q-26 0 -44 18t-18 44v376q0 26 18 44t44 18h368q8 0 14 -6t6 -14v-85q0 -8 -6 -14t-14 -6h-305v-63h285q8 0 14 -6t6 -14v-84q0 -8 -6 -14t-14 -6h-285v-63h305q8 0 14 -6t6 -14v-85q0 -8 -6 -14t-14 -6zM239 634v-68q0 -6 -4.5 -11t-11.5 -5h-68
q-7 0 -11.5 5t-4.5 11v68q0 16 16 16h68q16 0 16 -16zM410 634v-68q0 -6 -4.5 -11t-11.5 -5h-68q-7 0 -11.5 5t-4.5 11v68q0 16 16 16h68q16 0 16 -16z" />
    <glyph glyph-name="Emacron.small" 
d="M480 0h-368q-26 0 -44 18t-18 44v376q0 26 18 44t44 18h368q8 0 14 -6t6 -14v-85q0 -8 -6 -14t-14 -6h-305v-63h285q8 0 14 -6t6 -14v-84q0 -8 -6 -14t-14 -6h-285v-63h305q8 0 14 -6t6 -14v-85q0 -8 -6 -14t-14 -6zM442 626v-60q0 -6 -4.5 -11t-11.5 -5h-302
q-7 0 -11.5 5t-4.5 11v60q0 16 16 16h302q16 0 16 -16z" />
    <glyph glyph-name="Ebreve.small" 
d="M480 0h-368q-26 0 -44 18t-18 44v376q0 26 18 44t44 18h368q8 0 14 -6t6 -14v-85q0 -8 -6 -14t-14 -6h-305v-63h285q8 0 14 -6t6 -14v-84q0 -8 -6 -14t-14 -6h-285v-63h305q8 0 14 -6t6 -14v-85q0 -8 -6 -14t-14 -6zM453 597q-175 -93 -356 0q-16 8 -5 23l26 49
q6 13 21 8q135 -69 272 0q15 5 21 -8l26 -49q11 -15 -5 -23z" />
    <glyph glyph-name="Edotaccent.small" 
d="M480 0h-368q-26 0 -44 18t-18 44v376q0 26 18 44t44 18h368q8 0 14 -6t6 -14v-85q0 -8 -6 -14t-14 -6h-305v-63h285q8 0 14 -6t6 -14v-84q0 -8 -6 -14t-14 -6h-285v-63h305q8 0 14 -6t6 -14v-85q0 -8 -6 -14t-14 -6zM325 634v-68q0 -6 -4.5 -11t-11.5 -5h-68
q-7 0 -11.5 5t-4.5 11v68q0 16 16 16h68q16 0 16 -16z" />
    <glyph glyph-name="Eogonek.small" 
d="M480 0h-368q-26 0 -44 18t-18 44v376q0 26 18 44t44 18h368q8 0 14 -6t6 -14v-85q0 -8 -6 -14t-14 -6h-305v-63h285q8 0 14 -6t6 -14v-84q0 -8 -6 -14t-14 -6h-285v-63h305q8 0 14 -6t6 -14v-85q0 -8 -6 -14t-14 -6zM352 0h108l112 -133q13 -16 -4 -16h-78q-15 0 -29 16z
" />
    <glyph glyph-name="Gcircumflex.small" 
d="M320 285h160q8 0 14 -6t6 -14v-203q0 -26 -18 -44t-44 -18h-326q-26 0 -44 18t-18 44v376q0 26 18 44t44 18h368q8 0 14 -6t6 -14v-85q0 -8 -6 -14t-14 -6h-305v-250h200v63h-55q-8 0 -14 6t-6 14v57q0 8 6 14t14 6zM265 734h19q15 0 31 -16l149 -152q5 -5 1.5 -10.5
t-13.5 -5.5h-79q-14 0 -32 16l-66 64l-67 -64q-18 -16 -32 -16h-80q-9 0 -12.5 5.5t1.5 10.5l150 152q16 16 30 16z" />
    <glyph glyph-name="Gbreve.small" 
d="M320 285h160q8 0 14 -6t6 -14v-203q0 -26 -18 -44t-44 -18h-326q-26 0 -44 18t-18 44v376q0 26 18 44t44 18h368q8 0 14 -6t6 -14v-85q0 -8 -6 -14t-14 -6h-305v-250h200v63h-55q-8 0 -14 6t-6 14v57q0 8 6 14t14 6zM453 597q-175 -93 -356 0q-16 8 -5 23l26 49
q6 13 21 8q135 -69 272 0q15 5 21 -8l26 -49q11 -15 -5 -23z" />
    <glyph glyph-name="Gdotaccent.small" 
d="M320 285h160q8 0 14 -6t6 -14v-203q0 -26 -18 -44t-44 -18h-326q-26 0 -44 18t-18 44v376q0 26 18 44t44 18h368q8 0 14 -6t6 -14v-85q0 -8 -6 -14t-14 -6h-305v-250h200v63h-55q-8 0 -14 6t-6 14v57q0 8 6 14t14 6zM325 634v-68q0 -6 -4.5 -11t-11.5 -5h-68
q-7 0 -11.5 5t-4.5 11v68q0 16 16 16h68q16 0 16 -16z" />
    <glyph glyph-name="Gcommaaccent.small" 
d="M320 285h160q8 0 14 -6t6 -14v-203q0 -26 -18 -44t-44 -18h-326q-26 0 -44 18t-18 44v376q0 26 18 44t44 18h368q8 0 14 -6t6 -14v-85q0 -8 -6 -14t-14 -6h-305v-250h200v63h-55q-8 0 -14 6t-6 14v57q0 8 6 14t14 6zM345 -45v-201q0 -8 -6 -14t-14 -6h-50q-8 0 -14 6
t-6 14v96h-31q-8 0 -14 6t-6 14v85q0 8 6 14t14 6h101q8 0 14 -6t6 -14z" />
    <glyph glyph-name="Hcircumflex.small" 
d="M500 480v-460q0 -8 -6 -14t-14 -6h-85q-8 0 -14 6t-6 14v168h-200v-168q0 -8 -6 -14t-14 -6h-85q-8 0 -14 6t-6 14v460q0 8 6 14t14 6h85q8 0 14 -6t6 -14v-168h200v168q0 8 6 14t14 6h85q8 0 14 -6t6 -14zM265 734h19q15 0 31 -16l149 -152q5 -5 1.5 -10.5t-13.5 -5.5
h-79q-14 0 -32 16l-66 64l-67 -64q-18 -16 -32 -16h-80q-9 0 -12.5 5.5t1.5 10.5l150 152q16 16 30 16z" />
    <glyph glyph-name="Hbar.small" 
d="M500 480v-29h24q16 0 16 -16v-60q0 -6 -4.5 -11t-11.5 -5h-24v-339q0 -8 -6 -14t-14 -6h-85q-8 0 -14 6t-6 14v168h-200v-168q0 -8 -6 -14t-14 -6h-85q-8 0 -14 6t-6 14v339h-24q-7 0 -11.5 5t-4.5 11v60q0 16 16 16h24v29q0 8 6 14t14 6h85q8 0 14 -6t6 -14v-29h200v29
q0 8 6 14t14 6h85q8 0 14 -6t6 -14zM175 312h200v47h-200v-47z" />
    <glyph glyph-name="Igrave.small" horiz-adv-x="225" 
d="M-99 727h82q14 0 34 -16l146 -145q13 -13 2 -16h-82q-14 0 -34 16l-146 145q-14 11 -6 15q2 1 4 1zM155 0h-85q-8 0 -14 6t-6 14v460q0 8 6 14t14 6h85q8 0 14 -6t6 -14v-460q0 -8 -6 -14t-14 -6z" />
    <glyph glyph-name="Iacute.small" horiz-adv-x="225" 
d="M70 500h85q8 0 14 -6t6 -14v-460q0 -8 -6 -14t-14 -6h-85q-8 0 -14 6t-6 14v460q0 8 6 14t14 6zM147 550h-82q-13 0 -3 11q2 3 5 5l146 145q20 16 34 16h82q11 0 4 -10q-2 -3 -6 -6l-146 -145q-20 -16 -34 -16z" />
    <glyph glyph-name="Icircumflex.small" horiz-adv-x="225" 
d="M-76 566l150 152q16 16 30 16h19q15 0 31 -16l149 -152q5 -5 1.5 -10.5t-13.5 -5.5h-79q-14 0 -32 16l-66 64l-67 -64q-18 -16 -32 -16h-80q-9 0 -12.5 5.5t1.5 10.5zM156 0h-85q-8 0 -14 6t-6 14v460q0 8 6 14t14 6h85q8 0 14 -6t6 -14v-460q0 -8 -6 -14t-14 -6z" />
    <glyph glyph-name="Itilde.small" horiz-adv-x="225" 
d="M176 480v-460q0 -8 -6 -14t-14 -6h-85q-8 0 -14 6t-6 14v460q0 8 6 14t14 6h85q8 0 14 -6t6 -14zM-18 660q22 -20 49.5 -23t49.5 5t54 18.5t54 12.5q66 5 117 -51q8 -8 -3 -21l-39 -40q-4 -4 -11.5 -3t-12.5 6q-19 20 -45 23t-48 -5.5t-52.5 -19t-51.5 -12.5
q-66 -5 -121 47q-8 8 2 21l34 43q3 5 11 4.5t13 -5.5z" />
    <glyph glyph-name="Idieresis.small" horiz-adv-x="225" 
d="M175 480v-460q0 -8 -6 -14t-14 -6h-85q-8 0 -14 6t-6 14v460q0 8 6 14t14 6h85q8 0 14 -6t6 -14zM77 634v-68q0 -6 -4.5 -11t-11.5 -5h-68q-7 0 -11.5 5t-4.5 11v68q0 16 16 16h68q16 0 16 -16zM248 634v-68q0 -6 -4.5 -11t-11.5 -5h-68q-7 0 -11.5 5t-4.5 11v68
q0 16 16 16h68q16 0 16 -16z" />
    <glyph glyph-name="Imacron.small" horiz-adv-x="225" 
d="M175 480v-460q0 -8 -6 -14t-14 -6h-85q-8 0 -14 6t-6 14v460q0 8 6 14t14 6h85q8 0 14 -6t6 -14zM280 626v-60q0 -6 -4.5 -11t-11.5 -5h-302q-7 0 -11.5 5t-4.5 11v60q0 16 16 16h302q16 0 16 -16z" />
    <glyph glyph-name="Ibreve.small" horiz-adv-x="225" 
d="M70 500h85q8 0 14 -6t6 -14v-460q0 -8 -6 -14t-14 -6h-85q-8 0 -14 6t-6 14v460q0 8 6 14t14 6zM-70 620l26 49q6 13 21 8q135 -69 272 0q15 5 21 -8l26 -49q11 -15 -5 -23q-175 -93 -356 0q-16 8 -5 23z" />
    <glyph glyph-name="Iogonek.small" horiz-adv-x="225" 
d="M175 480v-460q0 -11 -10 -18l115 -135q13 -16 -4 -16h-78q-15 0 -29 16l-108 135q-11 5 -11 18v460q0 8 6 14t14 6h85q8 0 14 -6t6 -14z" />
    <glyph glyph-name="Jcircumflex.small" 
d="M175 178v-54h200v356q0 8 6 14t14 6h85q8 0 14 -6t6 -14v-418q0 -26 -18 -44t-44 -18h-326q-26 0 -44 18t-18 44v116q0 8 6 14t14 6h85q8 0 14 -6t6 -14zM428 734h19q15 0 31 -16l149 -152q5 -5 1.5 -10.5t-13.5 -5.5h-79q-14 0 -32 16l-66 64l-67 -64q-18 -16 -32 -16
h-80q-9 0 -12.5 5.5t1.5 10.5l150 152q16 16 30 16z" />
    <glyph glyph-name="Kcommaaccent.small" horiz-adv-x="511" 
d="M214 306l127 174q14 20 40 20h82q14 0 20.5 -6.5t0.5 -13.5l-162 -223l176 -237q3 -4 2.5 -8.5t-7 -8t-16.5 -3.5h-82q-25 0 -40 20l-140 187h-40v-187q0 -8 -6 -14t-14 -6h-85q-8 0 -14 6t-6 14v460q0 8 6 14t14 6h85q8 0 14 -6t6 -14v-174h39zM342 -45v-201
q0 -8 -6 -14t-14 -6h-50q-8 0 -14 6t-6 14v96h-31q-8 0 -14 6t-6 14v85q0 8 6 14t14 6h101q8 0 14 -6t6 -14z" />
    <glyph glyph-name="Lacute.small" 
d="M175 480v-355h305q8 0 14 -6t6 -14v-85q0 -8 -6 -14t-14 -6h-368q-26 0 -44 18t-18 44v418q0 8 6 14t14 6h85q8 0 14 -6t6 -14zM247 727h82q11 0 4 -10q-2 -3 -6 -6l-146 -145q-20 -16 -34 -16h-82q-13 0 -3 11q2 3 5 5l146 145q20 16 34 16z" />
    <glyph glyph-name="Lcaron.small" 
d="M175 480v-355h305q8 0 14 -6t6 -14v-85q0 -8 -6 -14t-14 -6h-368q-26 0 -44 18t-18 44v418q0 8 6 14t14 6h85q8 0 14 -6t6 -14zM500 481v-180q0 -8 -6 -14t-14 -6h-50q-8 0 -14 6t-6 14v75h-21q-8 0 -14 6t-6 14v85q0 8 6 14t14 6h91q8 0 14 -6t6 -14z" />
    <glyph glyph-name="Lcommaaccent.small" 
d="M175 480v-355h305q8 0 14 -6t6 -14v-85q0 -8 -6 -14t-14 -6h-368q-26 0 -44 18t-18 44v418q0 8 6 14t14 6h85q8 0 14 -6t6 -14zM348 -45v-201q0 -8 -6 -14t-14 -6h-50q-8 0 -14 6t-6 14v96h-31q-8 0 -14 6t-6 14v85q0 8 6 14t14 6h101q8 0 14 -6t6 -14z" />
    <glyph glyph-name="Lslash.small" 
d="M311 383l27 -53q7 -13 -7 -22l-156 -79v-104h305q8 0 14 -6t6 -14v-85q0 -8 -6 -14t-14 -6h-368q-26 0 -44 18t-18 44v103l-11 -5q-14 -9 -22 7l-27 53q-7 13 7 22l53 27v211q0 8 6 14t14 6h85q8 0 14 -6t6 -14v-148l114 58q14 9 22 -7z" />
    <glyph glyph-name="Nacute.small" 
d="M500 480v-418q0 -26 -18 -44t-44 -18h-35q-29 0 -41 20l-187 280v-280q0 -8 -6 -14t-14 -6h-85q-8 0 -14 6t-6 14v418q0 26 18 44t44 18h34q26 0 41 -20l188 -277v277q0 8 6 14t14 6h85q8 0 14 -6t6 -14zM325 727h82q11 0 4 -10q-2 -3 -6 -6l-146 -145q-20 -16 -34 -16
h-82q-13 0 -3 11q2 3 5 5l146 145q20 16 34 16z" />
    <glyph glyph-name="Ncaron.small" 
d="M500 480v-418q0 -26 -18 -44t-44 -18h-35q-29 0 -41 20l-187 280v-280q0 -8 -6 -14t-14 -6h-85q-8 0 -14 6t-6 14v418q0 26 18 44t44 18h34q26 0 41 -20l188 -277v277q0 8 6 14t14 6h85q8 0 14 -6t6 -14zM284 550h-19q-14 0 -30 16l-150 152q-5 5 -1.5 10.5t12.5 5.5h80
q14 0 32 -16l67 -64l66 64q18 16 32 16h79q10 0 13.5 -5.5t-1.5 -10.5l-149 -152q-16 -16 -31 -16z" />
    <glyph glyph-name="Ntilde.small" 
d="M500 480v-418q0 -26 -18 -44t-44 -18h-35q-29 0 -41 20l-187 280v-280q0 -8 -6 -14t-14 -6h-85q-8 0 -14 6t-6 14v418q0 26 18 44t44 18h34q26 0 41 -20l188 -277v277q0 8 6 14t14 6h85q8 0 14 -6t6 -14zM143 660q22 -20 49.5 -23t49.5 5t54 18.5t54 12.5q66 5 117 -51
q7 -8 -3 -21l-39 -40q-4 -4 -11.5 -3t-12.5 6q-19 20 -45 23t-48 -5.5t-52.5 -19t-51.5 -12.5q-66 -5 -121 47q-8 8 2 21l34 43q3 5 11 4.5t13 -5.5z" />
    <glyph glyph-name="Ncommaaccent.small" 
d="M500 480v-418q0 -26 -18 -44t-44 -18h-35q-29 0 -41 20l-187 280v-280q0 -8 -6 -14t-14 -6h-85q-8 0 -14 6t-6 14v418q0 26 18 44t44 18h34q26 0 41 -20l188 -277v277q0 8 6 14t14 6h85q8 0 14 -6t6 -14zM345 -45v-201q0 -8 -6 -14t-14 -6h-50q-8 0 -14 6t-6 14v96h-31
q-8 0 -14 6t-6 14v85q0 8 6 14t14 6h101q8 0 14 -6t6 -14z" />
    <glyph glyph-name="Ograve.small" 
d="M500 438v-376q0 -26 -18 -44t-44 -18h-326q-26 0 -44 18t-18 44v376q0 26 18 44t44 18h326q26 0 44 -18t18 -44zM375 125v250h-200v-250h200zM142 727h82q14 0 34 -16l146 -145q13 -13 2 -16h-82q-14 0 -34 16l-146 145q-14 11 -6 15q2 1 4 1z" />
    <glyph glyph-name="Oacute.small" 
d="M500 438v-376q0 -26 -18 -44t-44 -18h-326q-26 0 -44 18t-18 44v376q0 26 18 44t44 18h326q26 0 44 -18t18 -44zM375 125v250h-200v-250h200zM325 727h82q11 0 4 -10q-2 -3 -6 -6l-146 -145q-20 -16 -34 -16h-82q-13 0 -3 11q2 3 5 5l146 145q20 16 34 16z" />
    <glyph glyph-name="Ocircumflex.small" 
d="M500 438v-376q0 -26 -18 -44t-44 -18h-326q-26 0 -44 18t-18 44v376q0 26 18 44t44 18h326q26 0 44 -18t18 -44zM375 125v250h-200v-250h200zM265 734h19q15 0 31 -16l149 -152q5 -5 1.5 -10.5t-13.5 -5.5h-79q-14 0 -32 16l-66 64l-67 -64q-18 -16 -32 -16h-80
q-9 0 -12.5 5.5t1.5 10.5l150 152q16 16 30 16z" />
    <glyph glyph-name="Otilde.small" 
d="M500 438v-376q0 -26 -18 -44t-44 -18h-326q-26 0 -44 18t-18 44v376q0 26 18 44t44 18h326q26 0 44 -18t18 -44zM375 125v250h-200v-250h200zM143 660q22 -20 49.5 -23t49.5 5t54 18.5t54 12.5q66 5 117 -51q7 -8 -3 -21l-39 -40q-4 -4 -11.5 -3t-12.5 6q-19 20 -45 23
t-48 -5.5t-52.5 -19t-51.5 -12.5q-66 -5 -121 47q-8 8 2 21l34 43q3 5 11 4.5t13 -5.5z" />
    <glyph glyph-name="Odieresis.small" 
d="M500 438v-376q0 -26 -18 -44t-44 -18h-326q-26 0 -44 18t-18 44v376q0 26 18 44t44 18h326q26 0 44 -18t18 -44zM375 125v250h-200v-250h200zM239 634v-68q0 -6 -4.5 -11t-11.5 -5h-68q-7 0 -11.5 5t-4.5 11v68q0 16 16 16h68q16 0 16 -16zM410 634v-68q0 -6 -4.5 -11
t-11.5 -5h-68q-7 0 -11.5 5t-4.5 11v68q0 16 16 16h68q16 0 16 -16z" />
    <glyph glyph-name="Omacron.small" 
d="M500 438v-376q0 -26 -18 -44t-44 -18h-326q-26 0 -44 18t-18 44v376q0 26 18 44t44 18h326q26 0 44 -18t18 -44zM375 125v250h-200v-250h200zM442 626v-60q0 -6 -4.5 -11t-11.5 -5h-302q-7 0 -11.5 5t-4.5 11v60q0 16 16 16h302q16 0 16 -16z" />
    <glyph glyph-name="Obreve.small" 
d="M500 438v-376q0 -26 -18 -44t-44 -18h-326q-26 0 -44 18t-18 44v376q0 26 18 44t44 18h326q26 0 44 -18t18 -44zM375 125v250h-200v-250h200zM453 597q-175 -93 -356 0q-16 8 -5 23l26 49q6 13 21 8q135 -69 272 0q15 5 21 -8l26 -49q11 -15 -5 -23z" />
    <glyph glyph-name="Ohungarumlaut.small" 
d="M500 438v-376q0 -26 -18 -44t-44 -18h-326q-26 0 -44 18t-18 44v376q0 26 18 44t44 18h326q26 0 44 -18t18 -44zM375 125v250h-200v-250h200zM218 727h82q6 0 6.5 -4.5t-5.5 -11.5l-121 -145q-14 -16 -31 -16h-82q-15 0 -1 16l121 145q14 16 31 16zM400 727h82
q6 0 6.5 -4.5t-5.5 -11.5l-121 -145q-14 -16 -31 -16h-82q-15 0 -1 16l121 145q14 16 31 16z" />
    <glyph glyph-name="Oslash.small" 
d="M500 438v-376q0 -26 -18 -44t-44 -18h-326q-26 0 -44 18t-18 44v376q0 26 18 44t44 18h326q26 0 44 -18t18 -44zM375 125v250h-5l-86 -250h91zM175 375v-250h5l85 250h-90z" />
    <glyph glyph-name="Oslashacute.small" 
d="M500 438v-376q0 -26 -18 -44t-44 -18h-326q-26 0 -44 18t-18 44v376q0 26 18 44t44 18h326q26 0 44 -18t18 -44zM375 125v250h-5l-86 -250h91zM175 375v-250h5l85 250h-90zM350 727h82q11 0 4 -10q-2 -3 -6 -6l-146 -145q-20 -16 -34 -16h-82q-13 0 -3 11q2 3 5 5
l146 145q20 16 34 16z" />
    <glyph glyph-name="OE.small" horiz-adv-x="875" 
d="M805 0h-693q-26 0 -44 18t-18 44v376q0 26 18 44t44 18h693q8 0 14 -6t6 -14v-85q0 -8 -6 -14t-14 -6h-305v-63h285q8 0 14 -6t6 -14v-84q0 -8 -6 -14t-14 -6h-285v-63h305q8 0 14 -6t6 -14v-85q0 -8 -6 -14t-14 -6zM375 125v250h-200v-250h200z" />
    <glyph glyph-name="Racute.small" 
d="M330 20l-133 149h-22v-149q0 -8 -6 -14t-14 -6h-85q-8 0 -14 6t-6 14v460q0 8 6 14t14 6h325q43 0 74 -30t31 -72v-127q0 -42 -31 -72t-74 -30h-42l140 -149q3 -4 2.5 -8.5t-7 -8t-16.5 -3.5h-102q-20 0 -40 20zM375 268v108h-200v-108h200zM325 727h82q11 0 4 -10
q-2 -3 -6 -6l-146 -145q-20 -16 -34 -16h-82q-13 0 -3 11q2 3 5 5l146 145q20 16 34 16z" />
    <glyph glyph-name="Rcaron.small" 
d="M330 20l-133 149h-22v-149q0 -8 -6 -14t-14 -6h-85q-8 0 -14 6t-6 14v460q0 8 6 14t14 6h325q43 0 74 -30t31 -72v-127q0 -42 -31 -72t-74 -30h-42l140 -149q3 -4 2.5 -8.5t-7 -8t-16.5 -3.5h-102q-20 0 -40 20zM375 268v108h-200v-108h200zM284 550h-19q-14 0 -30 16
l-150 152q-5 5 -1.5 10.5t12.5 5.5h80q14 0 32 -16l67 -64l66 64q18 16 32 16h79q10 0 13.5 -5.5t-1.5 -10.5l-149 -152q-16 -16 -31 -16z" />
    <glyph glyph-name="Rcommaaccent.small" 
d="M330 20l-133 149h-22v-149q0 -8 -6 -14t-14 -6h-85q-8 0 -14 6t-6 14v460q0 8 6 14t14 6h325q43 0 74 -30t31 -72v-127q0 -42 -31 -72t-74 -30h-42l140 -149q3 -4 2.5 -8.5t-7 -8t-16.5 -3.5h-102q-20 0 -40 20zM375 268v108h-200v-108h200zM345 -45v-201q0 -8 -6 -14
t-14 -6h-50q-8 0 -14 6t-6 14v96h-31q-8 0 -14 6t-6 14v85q0 8 6 14t14 6h101q8 0 14 -6t6 -14z" />
    <glyph glyph-name="Sacute.small" 
d="M175 375v-62h263q26 0 44 -18t18 -44v-189q0 -26 -18 -44t-44 -18h-368q-8 0 -14 6t-6 14v85q0 8 6 14t14 6h305v63h-263q-26 0 -44 18t-18 44v188q0 26 18 44t44 18h368q8 0 14 -6t6 -14v-85q0 -8 -6 -14t-14 -6h-305zM325 727h82q11 0 4 -10q-2 -3 -6 -6l-146 -145
q-20 -16 -34 -16h-82q-13 0 -3 11q2 3 5 5l146 145q20 16 34 16z" />
    <glyph glyph-name="Scircumflex.small" 
d="M175 375v-62h263q26 0 44 -18t18 -44v-189q0 -26 -18 -44t-44 -18h-368q-8 0 -14 6t-6 14v85q0 8 6 14t14 6h305v63h-263q-26 0 -44 18t-18 44v188q0 26 18 44t44 18h368q8 0 14 -6t6 -14v-85q0 -8 -6 -14t-14 -6h-305zM265 734h19q15 0 31 -16l149 -152q5 -5 1.5 -10.5
t-13.5 -5.5h-79q-14 0 -32 16l-66 64l-67 -64q-18 -16 -32 -16h-80q-9 0 -12.5 5.5t1.5 10.5l150 152q16 16 30 16z" />
    <glyph glyph-name="Scaron.small" 
d="M175 375v-62h263q26 0 44 -18t18 -44v-189q0 -26 -18 -44t-44 -18h-368q-8 0 -14 6t-6 14v85q0 8 6 14t14 6h305v63h-263q-26 0 -44 18t-18 44v188q0 26 18 44t44 18h368q8 0 14 -6t6 -14v-85q0 -8 -6 -14t-14 -6h-305zM284 550h-19q-14 0 -30 16l-150 152
q-5 5 -1.5 10.5t12.5 5.5h80q14 0 32 -16l67 -64l66 64q18 16 32 16h79q10 0 13.5 -5.5t-1.5 -10.5l-149 -152q-16 -16 -31 -16z" />
    <glyph glyph-name="Scedilla.small" 
d="M175 375v-62h263q26 0 44 -18t18 -44v-189q0 -26 -18 -44t-44 -18h-368q-8 0 -14 6t-6 14v85q0 8 6 14t14 6h305v63h-263q-26 0 -44 18t-18 44v188q0 26 18 44t44 18h368q8 0 14 -6t6 -14v-85q0 -8 -6 -14t-14 -6h-305zM202 -82h48v82h100v-132q0 -21 -14.5 -35.5
t-34.5 -14.5h-99q-6 0 -11 4.5t-5 11.5v68q0 7 5 11.5t11 4.5z" />
    <glyph glyph-name="Scommaaccent.small" 
d="M175 375v-62h263q26 0 44 -18t18 -44v-189q0 -26 -18 -44t-44 -18h-368q-8 0 -14 6t-6 14v85q0 8 6 14t14 6h305v63h-263q-26 0 -44 18t-18 44v188q0 26 18 44t44 18h368q8 0 14 -6t6 -14v-85q0 -8 -6 -14t-14 -6h-305zM345 -45v-201q0 -8 -6 -14t-14 -6h-50q-8 0 -14 6
t-6 14v96h-31q-8 0 -14 6t-6 14v85q0 8 6 14t14 6h101q8 0 14 -6t6 -14z" />
    <glyph glyph-name="Tcaron.small" horiz-adv-x="469" 
d="M30 500h409q8 0 14 -6t6 -14v-85q0 -8 -6 -14t-14 -6h-142v-355q0 -8 -6 -14t-14 -6h-85q-8 0 -14 6t-6 14v355h-142q-8 0 -14 6t-6 14v85q0 8 6 14t14 6zM244 550h-19q-14 0 -30 16l-150 152q-5 5 -1.5 10.5t12.5 5.5h80q14 0 32 -16l67 -64l66 64q18 16 32 16h79
q10 0 13.5 -5.5t-1.5 -10.5l-149 -152q-16 -16 -31 -16z" />
    <glyph glyph-name="Tcommaaccent.small" horiz-adv-x="469" 
d="M30 500h409q8 0 14 -6t6 -14v-85q0 -8 -6 -14t-14 -6h-142v-355q0 -8 -6 -14t-14 -6h-85q-8 0 -14 6t-6 14v355h-142q-8 0 -14 6t-6 14v85q0 8 6 14t14 6zM305 -45v-201q0 -8 -6 -14t-14 -6h-50q-8 0 -14 6t-6 14v96h-31q-8 0 -14 6t-6 14v85q0 8 6 14t14 6h101
q8 0 14 -6t6 -14z" />
    <glyph glyph-name="Tbar.small" horiz-adv-x="469" 
d="M101 250h71v125h-142q-8 0 -14 6t-6 14v85q0 8 6 14t14 6h409q8 0 14 -6t6 -14v-85q0 -8 -6 -14t-14 -6h-142v-125h71q16 0 16 -16v-60q0 -6 -4.5 -11t-11.5 -5h-71v-138q0 -8 -6 -14t-14 -6h-85q-8 0 -14 6t-6 14v138h-71q-7 0 -11.5 5t-4.5 11v60q0 16 16 16z" />
    <glyph glyph-name="Ugrave.small" 
d="M175 480v-355h200v355q0 8 6 14t14 6h85q8 0 14 -6t6 -14v-418q0 -26 -18 -44t-44 -18h-326q-26 0 -44 18t-18 44v418q0 8 6 14t14 6h85q8 0 14 -6t6 -14zM142 727h82q14 0 34 -16l146 -145q13 -13 2 -16h-82q-14 0 -34 16l-146 145q-14 11 -6 15q2 1 4 1z" />
    <glyph glyph-name="Uacute.small" 
d="M175 480v-355h200v355q0 8 6 14t14 6h85q8 0 14 -6t6 -14v-418q0 -26 -18 -44t-44 -18h-326q-26 0 -44 18t-18 44v418q0 8 6 14t14 6h85q8 0 14 -6t6 -14zM325 727h82q11 0 4 -10q-2 -3 -6 -6l-146 -145q-20 -16 -34 -16h-82q-13 0 -3 11q2 3 5 5l146 145q20 16 34 16z
" />
    <glyph glyph-name="Ucircumflex.small" 
d="M175 480v-355h200v355q0 8 6 14t14 6h85q8 0 14 -6t6 -14v-418q0 -26 -18 -44t-44 -18h-326q-26 0 -44 18t-18 44v418q0 8 6 14t14 6h85q8 0 14 -6t6 -14zM265 734h19q15 0 31 -16l149 -152q5 -5 1.5 -10.5t-13.5 -5.5h-79q-14 0 -32 16l-66 64l-67 -64q-18 -16 -32 -16
h-80q-9 0 -12.5 5.5t1.5 10.5l150 152q16 16 30 16z" />
    <glyph glyph-name="Utilde.small" 
d="M175 480v-355h200v355q0 8 6 14t14 6h85q8 0 14 -6t6 -14v-418q0 -26 -18 -44t-44 -18h-326q-26 0 -44 18t-18 44v418q0 8 6 14t14 6h85q8 0 14 -6t6 -14zM143 660q22 -20 49.5 -23t49.5 5t54 18.5t54 12.5q66 5 117 -51q7 -8 -3 -21l-39 -40q-4 -4 -11.5 -3t-12.5 6
q-19 20 -45 23t-48 -5.5t-52.5 -19t-51.5 -12.5q-66 -5 -121 47q-8 8 2 21l34 43q3 5 11 4.5t13 -5.5z" />
    <glyph glyph-name="Udieresis.small" 
d="M175 480v-355h200v355q0 8 6 14t14 6h85q8 0 14 -6t6 -14v-418q0 -26 -18 -44t-44 -18h-326q-26 0 -44 18t-18 44v418q0 8 6 14t14 6h85q8 0 14 -6t6 -14zM239 634v-68q0 -6 -4.5 -11t-11.5 -5h-68q-7 0 -11.5 5t-4.5 11v68q0 16 16 16h68q16 0 16 -16zM410 634v-68
q0 -6 -4.5 -11t-11.5 -5h-68q-7 0 -11.5 5t-4.5 11v68q0 16 16 16h68q16 0 16 -16z" />
    <glyph glyph-name="Umacron.small" 
d="M175 480v-355h200v355q0 8 6 14t14 6h85q8 0 14 -6t6 -14v-418q0 -26 -18 -44t-44 -18h-326q-26 0 -44 18t-18 44v418q0 8 6 14t14 6h85q8 0 14 -6t6 -14zM442 626v-60q0 -6 -4.5 -11t-11.5 -5h-302q-7 0 -11.5 5t-4.5 11v60q0 16 16 16h302q16 0 16 -16z" />
    <glyph glyph-name="Ubreve.small" 
d="M175 480v-355h200v355q0 8 6 14t14 6h85q8 0 14 -6t6 -14v-418q0 -26 -18 -44t-44 -18h-326q-26 0 -44 18t-18 44v418q0 8 6 14t14 6h85q8 0 14 -6t6 -14zM453 597q-175 -93 -356 0q-16 8 -5 23l26 49q6 13 21 8q135 -69 272 0q15 5 21 -8l26 -49q11 -15 -5 -23z" />
    <glyph glyph-name="Uring.small" 
d="M175 480v-355h200v355q0 8 6 14t14 6h85q8 0 14 -6t6 -14v-418q0 -26 -18 -44t-44 -18h-326q-26 0 -44 18t-18 44v418q0 8 6 14t14 6h85q8 0 14 -6t6 -14zM425 800v-200q0 -21 -14.5 -35.5t-35.5 -14.5h-200q-21 0 -35.5 14.5t-14.5 35.5v200q0 21 14.5 35.5t35.5 14.5
h200q21 0 35.5 -14.5t14.5 -35.5zM325 650v100h-100v-100h100z" />
    <glyph glyph-name="Uhungarumlaut.small" 
d="M175 480v-355h200v355q0 8 6 14t14 6h85q8 0 14 -6t6 -14v-418q0 -26 -18 -44t-44 -18h-326q-26 0 -44 18t-18 44v418q0 8 6 14t14 6h85q8 0 14 -6t6 -14zM218 727h82q6 0 6.5 -4.5t-5.5 -11.5l-121 -145q-14 -16 -31 -16h-82q-15 0 -1 16l121 145q14 16 31 16zM400 727
h82q6 0 6.5 -4.5t-5.5 -11.5l-121 -145q-14 -16 -31 -16h-82q-15 0 -1 16l121 145q14 16 31 16z" />
    <glyph glyph-name="Uogonek.small" 
d="M175 480v-355h200v355q0 8 6 14t14 6h85q8 0 14 -6t6 -14v-418q0 -26 -18 -44t-44 -18h-326q-26 0 -44 18t-18 44v418q0 8 6 14t14 6h85q8 0 14 -6t6 -14zM318 0h108l112 -133q13 -16 -4 -16h-78q-15 0 -29 16z" />
    <glyph glyph-name="Wgrave.small" horiz-adv-x="649" 
d="M599 480v-418q0 -26 -18.5 -44t-44.5 -18h-146q-26 0 -44.5 18t-18.5 44h-4q0 -26 -18.5 -44t-44.5 -18h-147q-26 0 -44.5 18t-18.5 44v418q0 8 6 14t14 6h85q8 0 14 -6t6 -14v-356h87v356q0 8 6 14t14 6h85q8 0 14 -6t6 -14v-356h87v356q0 8 6 14t14 6h85q8 0 14 -6
t6 -14zM115 727h82q14 0 34 -16l146 -145q13 -13 2 -16h-82q-14 0 -34 16l-146 145q-14 11 -6 15q2 1 4 1z" />
    <glyph glyph-name="Wacute.small" horiz-adv-x="649" 
d="M599 480v-418q0 -26 -18.5 -44t-44.5 -18h-146q-26 0 -44.5 18t-18.5 44h-4q0 -26 -18.5 -44t-44.5 -18h-147q-26 0 -44.5 18t-18.5 44v418q0 8 6 14t14 6h85q8 0 14 -6t6 -14v-356h87v356q0 8 6 14t14 6h85q8 0 14 -6t6 -14v-356h87v356q0 8 6 14t14 6h85q8 0 14 -6
t6 -14zM460 727h82q11 0 4 -10q-2 -3 -6 -6l-146 -145q-20 -16 -34 -16h-82q-13 0 -3 11q2 3 5 5l146 145q20 16 34 16z" />
    <glyph glyph-name="Wcircumflex.small" horiz-adv-x="649" 
d="M599 480v-418q0 -26 -18.5 -44t-44.5 -18h-146q-26 0 -44.5 18t-18.5 44h-4q0 -26 -18.5 -44t-44.5 -18h-147q-26 0 -44.5 18t-18.5 44v418q0 8 6 14t14 6h85q8 0 14 -6t6 -14v-356h87v356q0 8 6 14t14 6h85q8 0 14 -6t6 -14v-356h87v356q0 8 6 14t14 6h85q8 0 14 -6
t6 -14zM315 734h19q15 0 31 -16l149 -152q5 -5 1.5 -10.5t-13.5 -5.5h-79q-14 0 -32 16l-66 64l-67 -64q-18 -16 -32 -16h-80q-9 0 -12.5 5.5t1.5 10.5l150 152q16 16 30 16z" />
    <glyph glyph-name="Wdieresis.small" horiz-adv-x="649" 
d="M599 480v-418q0 -26 -18.5 -44t-44.5 -18h-146q-26 0 -44.5 18t-18.5 44h-4q0 -26 -18.5 -44t-44.5 -18h-147q-26 0 -44.5 18t-18.5 44v418q0 8 6 14t14 6h85q8 0 14 -6t6 -14v-356h87v356q0 8 6 14t14 6h85q8 0 14 -6t6 -14v-356h87v356q0 8 6 14t14 6h85q8 0 14 -6
t6 -14zM289 634v-68q0 -6 -4.5 -11t-11.5 -5h-68q-7 0 -11.5 5t-4.5 11v68q0 16 16 16h68q16 0 16 -16zM460 634v-68q0 -6 -4.5 -11t-11.5 -5h-68q-7 0 -11.5 5t-4.5 11v68q0 16 16 16h68q16 0 16 -16z" />
    <glyph glyph-name="Ygrave.small" 
d="M175 480v-180h200v180q0 8 6 14t14 6h85q8 0 14 -6t6 -14v-418q0 -26 -18 -44t-44 -18h-326q-26 0 -44 18t-18 44v63h325v50h-263q-26 0 -44 18t-18 44v243q0 8 6 14t14 6h85q8 0 14 -6t6 -14zM142 727h82q14 0 34 -16l146 -145q13 -13 2 -16h-82q-14 0 -34 16l-146 145
q-14 11 -6 15q2 1 4 1z" />
    <glyph glyph-name="Yacute.small" 
d="M175 480v-180h200v180q0 8 6 14t14 6h85q8 0 14 -6t6 -14v-418q0 -26 -18 -44t-44 -18h-326q-26 0 -44 18t-18 44v63h325v50h-263q-26 0 -44 18t-18 44v243q0 8 6 14t14 6h85q8 0 14 -6t6 -14zM325 727h82q11 0 4 -10q-2 -3 -6 -6l-146 -145q-20 -16 -34 -16h-82
q-13 0 -3 11q2 3 5 5l146 145q20 16 34 16z" />
    <glyph glyph-name="Ycircumflex.small" 
d="M175 480v-180h200v180q0 8 6 14t14 6h85q8 0 14 -6t6 -14v-418q0 -26 -18 -44t-44 -18h-326q-26 0 -44 18t-18 44v63h325v50h-263q-26 0 -44 18t-18 44v243q0 8 6 14t14 6h85q8 0 14 -6t6 -14zM265 734h19q15 0 31 -16l149 -152q5 -5 1.5 -10.5t-13.5 -5.5h-79
q-14 0 -32 16l-66 64l-67 -64q-18 -16 -32 -16h-80q-9 0 -12.5 5.5t1.5 10.5l150 152q16 16 30 16z" />
    <glyph glyph-name="Ydieresis.small" 
d="M175 480v-180h200v180q0 8 6 14t14 6h85q8 0 14 -6t6 -14v-418q0 -26 -18 -44t-44 -18h-326q-26 0 -44 18t-18 44v63h325v50h-263q-26 0 -44 18t-18 44v243q0 8 6 14t14 6h85q8 0 14 -6t6 -14zM239 634v-68q0 -6 -4.5 -11t-11.5 -5h-68q-7 0 -11.5 5t-4.5 11v68
q0 16 16 16h68q16 0 16 -16zM410 634v-68q0 -6 -4.5 -11t-11.5 -5h-68q-7 0 -11.5 5t-4.5 11v68q0 16 16 16h68q16 0 16 -16z" />
    <glyph glyph-name="Zacute.small" 
d="M233 125h247q8 0 14 -6t6 -14v-85q0 -8 -6 -14t-14 -6h-368q-26 0 -44 18t-18 44v55l271 258h-251q-8 0 -14 6t-6 14v85q0 8 6 14t14 6h368q26 0 44 -18t18 -44v-55zM325 727h82q11 0 4 -10q-2 -3 -6 -6l-146 -145q-20 -16 -34 -16h-82q-13 0 -3 11q2 3 5 5l146 145
q20 16 34 16z" />
    <glyph glyph-name="Zcaron.small" 
d="M233 125h247q8 0 14 -6t6 -14v-85q0 -8 -6 -14t-14 -6h-368q-26 0 -44 18t-18 44v55l271 258h-251q-8 0 -14 6t-6 14v85q0 8 6 14t14 6h368q26 0 44 -18t18 -44v-55zM284 550h-19q-14 0 -30 16l-150 152q-5 5 -1.5 10.5t12.5 5.5h80q14 0 32 -16l67 -64l66 64
q18 16 32 16h79q10 0 13.5 -5.5t-1.5 -10.5l-149 -152q-16 -16 -31 -16z" />
    <glyph glyph-name="Eng.small" 
d="M315 -25h60v34l-200 291v-280q0 -8 -6 -14t-14 -6h-85q-8 0 -14 6t-6 14v418q0 26 18 44t44 18h34q26 0 41 -20l188 -273v273q0 8 6 14t14 6h85q8 0 14 -6t6 -14v-568q0 -26 -18 -44t-44 -18h-123q-8 0 -14 6t-6 14v85q0 8 6 14t14 6z" />
    <glyph glyph-name="Eth.small" 
d="M395 0h-325q-8 0 -14 6t-6 14v183h-64q-7 0 -11.5 5t-4.5 11v60q0 16 16 16h64v185q0 8 6 14t14 6h325q43 0 74 -30t31 -72v-296q0 -42 -31 -72t-74 -30zM230 279v-60q0 -6 -4.5 -11t-11.5 -5h-39v-79h200v252h-200v-81h39q16 0 16 -16z" />
    <glyph glyph-name="Thorn.small" 
d="M175 63v-43q0 -8 -6 -14t-14 -6h-85q-8 0 -14 6t-6 14v460q0 8 6 14t14 6h85q8 0 14 -6t6 -14v-43h220q43 0 74 -30t31 -72v-170q0 -42 -31 -72t-74 -30h-220zM175 187h200v126h-200v-126z" />
    <glyph glyph-name="Y.alt" horiz-adv-x="590" 
d="M170 580v-280h250v280q0 8 6 14t14 6h85q8 0 14 -6t6 -14v-518q0 -26 -18 -44t-44 -18h-376q-26 0 -44 18t-18 44v63h375v50h-313q-26 0 -44 18t-18 44v343q0 8 6 14t14 6h85q8 0 14 -6t6 -14z" />
    <glyph glyph-name="glyph557" horiz-adv-x="500" 
d="M325 375h-150v-355q0 -8 -6 -14t-14 -6h-85q-8 0 -14 6t-6 14v460q0 8 6 14t14 6h318q26 0 44 -18t18 -44v-418q0 -8 -6 -14t-14 -6h-85q-8 0 -14 6t-6 14v355z" />
    <glyph glyph-name="glyph562" 
d="M375 313v62h-305q-8 0 -14 6t-6 14v85q0 8 6 14t14 6h368q26 0 44 -18t18 -44v-188q0 -26 -18 -44t-44 -18h-263v-63h305q8 0 14 -6t6 -14v-85q0 -8 -6 -14t-14 -6h-368q-26 0 -44 18t-18 44v189q0 26 18 44t44 18h263z" />
    <glyph glyph-name="glyph563" horiz-adv-x="500" 
d="M50 87v351q0 26 18 44t44 18h276q26 0 44 -18t18 -44v-526q0 -26 -18 -44t-44 -18h-298q-8 0 -14 6t-6 14v85q0 8 6 14t14 6h235v50h-213q-26 0 -44 18t-18 44zM175 375v-240h150v240h-150z" />
    <glyph glyph-name="glyph564" horiz-adv-x="700" 
d="M349 438h2q0 26 18 44t44 18h175q26 0 44 -18t18 -44v-418q0 -8 -6 -14t-14 -6h-85q-8 0 -14 6t-6 14v355h-112v-355q0 -8 -6 -14t-14 -6h-86q-8 0 -14 6t-6 14v355h-112v-355q0 -8 -6 -14t-14 -6h-85q-8 0 -14 6t-6 14v460q0 8 6 14t14 6h217q26 0 44 -18t18 -44z" />
    <glyph glyph-name="uni0431.locl" horiz-adv-x="600" 
d="M76 421v117q0 26 18 44t44 18h353q8 0 14 -6t6 -14v-82q0 -8 -6 -14t-14 -6h-246v-14l270 -132q35 -17 35 -65v-247q0 -8 -6 -14t-14 -6h-375q-44 0 -74.5 30t-30.5 72v133q0 38 28 61.5t77 40.5l46 15zM175 238v-114h250v114l-85 44z" />
  </font>
</defs>
</svg>
